<svg width="24" height="24" viewBox="0 0 24 24" fill="none" xmlns="http://www.w3.org/2000/svg">
<path d="M9.2 16L12 13.9L14.75 16L13.7 12.6L16.5 10.4H13.1L12 7L10.9 10.4H7.5L10.25 12.6L9.2 16ZM4 20C3.45 20 2.97917 19.8042 2.5875 19.4125C2.19583 19.0208 2 18.55 2 18V14.625C2 14.4417 2.05833 14.2833 2.175 14.15C2.29167 14.0167 2.44167 13.9333 2.625 13.9C3.025 13.7667 3.35417 13.525 3.6125 13.175C3.87083 12.825 4 12.4333 4 12C4 11.5667 3.87083 11.175 3.6125 10.825C3.35417 10.475 3.025 10.2333 2.625 10.1C2.44167 10.0667 2.29167 9.98333 2.175 9.85C2.05833 9.71667 2 9.55833 2 9.375V6C2 5.45 2.19583 4.97917 2.5875 4.5875C2.97917 4.19583 3.45 4 4 4H20C20.55 4 21.0208 4.19583 21.4125 4.5875C21.8042 4.97917 22 5.45 22 6V9.375C22 9.55833 21.9417 9.71667 21.825 9.85C21.7083 9.98333 21.5583 10.0667 21.375 10.1C20.975 10.2333 20.6458 10.475 20.3875 10.825C20.1292 11.175 20 11.5667 20 12C20 12.4333 20.1292 12.825 20.3875 13.175C20.6458 13.525 20.975 13.7667 21.375 13.9C21.5583 13.9333 21.7083 14.0167 21.825 14.15C21.9417 14.2833 22 14.4417 22 14.625V18C22 18.55 21.8042 19.0208 21.4125 19.4125C21.0208 19.8042 20.55 20 20 20H4ZM4 18H20V15.45C19.3833 15.0833 18.8958 14.5958 18.5375 13.9875C18.1792 13.3792 18 12.7167 18 12C18 11.2833 18.1792 10.6208 18.5375 10.0125C18.8958 9.40417 19.3833 8.91667 20 8.55V6H4V8.55C4.61667 8.91667 5.10417 9.40417 5.4625 10.0125C5.82083 10.6208 6 11.2833 6 12C6 12.7167 5.82083 13.3792 5.4625 13.9875C5.10417 14.5958 4.61667 15.0833 4 15.45V18Z" fill="#001833"/>
</svg>
