<svg xmlns="http://www.w3.org/2000/svg" x="0px" y="0px"
     width="24" height="24"
     viewBox="0 0 24 24"
     style="fill:#000000;"><g>
        <path d="M6.5681,4.6749 L12.8701,7.4349 L10.6421,9.7609 L5.8621,5.5369 C5.7281,5.4509 5.7081,5.2629 5.8201,5.1499 L6.2591,4.7109 C6.3411,4.6289 6.4691,4.6139 6.5681,4.6749 Z M16.9715,11.5216 L19.7315,17.8366 C19.7915,17.9356 19.7775,18.0636 19.6955,18.1456 L19.2555,18.5846 C19.1425,18.6976 18.9535,18.6776 18.8675,18.5426 L14.6375,13.7426 L16.9715,11.5216 Z M6.8387,15.2198 L4.1467,12.9578 C3.9867,12.8858 3.9497,12.6778 4.0727,12.5538 L4.6327,11.9948 C4.7147,11.9118 4.8437,11.8978 4.9427,11.9598 L8.0897,12.7808 L6.9307,15.0288 C6.9017,15.0848 6.8657,15.1498 6.8387,15.2198 Z M11.6326,16.3224 L12.5266,19.5054 C12.5506,19.5924 12.5266,19.6854 12.4626,19.7504 L11.8646,20.3464 C11.7416,20.4694 11.5336,20.4324 11.4606,20.2744 L9.1856,17.5674 L9.3556,17.4824 L11.6326,16.3224 Z M20.0594,4.2974 L20.1004,4.3414 L20.1174,4.3614 C20.3374,4.6344 20.3664,5.0004 20.3834,5.2254 C20.4574,6.4414 20.3084,7.2994 19.9134,7.9234 L19.8774,7.9824 C19.7934,8.1234 19.7384,8.2034 19.5504,8.3904 L12.0694,15.5174 L12.0164,15.5684 L11.9514,15.6014 L9.1344,17.0384 C8.7884,17.2264 7.8684,17.4804 7.3974,17.0084 C6.8874,16.4994 7.2054,15.5704 7.3694,15.2604 L8.8044,12.4534 L8.8374,12.3884 L8.8874,12.3364 L16.0124,4.8574 C16.3154,4.5354 16.6454,4.3774 16.9634,4.2514 C17.6004,4.0104 18.4104,3.9444 19.5294,4.0464 C19.7384,4.0724 19.9204,4.1594 20.0594,4.2974 Z M18.8875,11.8824 C18.9865,11.7834 19.1415,11.7834 19.2415,11.8824 L20.3015,12.9434 C20.4005,13.0424 20.4005,13.1974 20.3015,13.2964 L18.9155,14.6824 L18.0455,12.7234 L18.8875,11.8824 Z M11.1092,4.1041 C11.2082,4.0051 11.3642,4.0051 11.4632,4.1041 L12.5232,5.1651 C12.6222,5.2641 12.6222,5.4191 12.5232,5.5181 L11.6812,6.3591 L9.7232,5.4901 L11.1092,4.1041 Z" fill="#000000"></path>
    </g>
</svg>