<?xml version="1.0" encoding="utf-8"?>
<svg width="24" height="24" viewBox="0 0 24 24" fill="none" xmlns="http://www.w3.org/2000/svg">
<path d="M6.02495 22L7.32495 19.025C7.0416 18.825 6.78745 18.6292 6.56245 18.4375C6.33745 18.2458 6.1083 18.0333 5.87495 17.8C5.7416 17.8666 5.5958 17.9167 5.43745 17.95C5.2791 17.9834 5.1333 18 4.99995 18C4.46662 18 4.01245 17.8125 3.63745 17.4375C3.26245 17.0625 3.07495 16.6084 3.07495 16.075C3.07495 15.7417 3.15412 15.4291 3.31245 15.1375C3.47079 14.8458 3.66662 14.6333 3.89995 14.5C3.78329 14.0834 3.69162 13.6666 3.62495 13.25C3.55829 12.8334 3.52495 12.4084 3.52495 11.975C3.52495 11.525 3.55412 11.0958 3.61245 10.6875C3.67079 10.2792 3.76662 9.86665 3.89995 9.45C3.66662 9.28335 3.47079 9.0625 3.31245 8.7875C3.15412 8.5125 3.07495 8.20835 3.07495 7.875C3.07495 7.34165 3.26245 6.8875 3.63745 6.5125C4.01245 6.1375 4.46662 5.95 4.99995 5.95C5.1333 5.95 5.27495 5.96665 5.42495 6C5.57495 6.03335 5.7166 6.08335 5.84995 6.15C6.4333 5.55 7.0708 5.05 7.76245 4.65C8.4541 4.25 9.22495 3.94166 10.075 3.725C10.1583 3.19166 10.3791 2.77084 10.7375 2.4625C11.0958 2.15417 11.5166 2 12 2C12.4833 2 12.9083 2.15833 13.275 2.475C13.6416 2.79166 13.8583 3.20833 13.925 3.725C14.775 3.94166 15.575 4.22917 16.325 4.5875C17.075 4.94584 17.7333 5.44165 18.3 6.075C18.4166 6.04165 18.5333 6.0125 18.65 5.9875C18.7666 5.9625 18.8833 5.95 19 5.95C19.5333 5.95 19.9875 6.1375 20.3625 6.5125C20.7375 6.8875 20.925 7.34165 20.925 7.875C20.925 8.24165 20.8458 8.55835 20.6875 8.825C20.5291 9.09165 20.3333 9.3 20.1 9.45C20.2333 9.88335 20.3291 10.3 20.3875 10.7C20.4458 11.1 20.475 11.525 20.475 11.975C20.475 12.4084 20.4458 12.8292 20.3875 13.2375C20.3291 13.6459 20.2333 14.0584 20.1 14.475C20.3833 14.6584 20.5916 14.9 20.725 15.2C20.8583 15.5 20.925 15.7917 20.925 16.075C20.925 16.6084 20.7375 17.0625 20.3625 17.4375C19.9875 17.8125 19.5333 18 19 18C18.8666 18 18.7208 17.9834 18.5625 17.95C18.4041 17.9167 18.2666 17.8666 18.15 17.8C17.9333 18.0333 17.7083 18.25 17.475 18.45C17.2416 18.65 16.9916 18.8416 16.725 19.025L18 22H16.575L15.525 19.7C15.2416 19.8 14.975 19.8917 14.725 19.975C14.475 20.0584 14.2083 20.1417 13.925 20.225C13.8416 20.775 13.6208 21.2 13.2625 21.5C12.9041 21.8 12.4833 21.95 12 21.95C11.5166 21.95 11.0958 21.8 10.7375 21.5C10.3791 21.2 10.1583 20.775 10.075 20.225C9.7916 20.1417 9.5208 20.0584 9.26245 19.975C9.0041 19.8917 8.7583 19.7916 8.52495 19.675L7.42495 22H6.02495ZM7.87495 17.75L9.64995 13.875C9.4166 13.6084 9.2416 13.3208 9.12495 13.0125C9.0083 12.7041 8.94995 12.3666 8.94995 12C8.94995 11.1666 9.26245 10.45 9.88745 9.85C10.5125 9.25 11.2416 8.95 12.075 8.95C12.9083 8.95 13.6125 9.25 14.1875 9.85C14.7625 10.45 15.05 11.1666 15.05 12C15.05 12.3666 14.9958 12.7041 14.8875 13.0125C14.7791 13.3208 14.6 13.6084 14.35 13.875L16.125 17.75C16.3083 17.6167 16.4958 17.4709 16.6875 17.3125C16.8791 17.1541 17.0583 16.9833 17.225 16.8C17.1916 16.7 17.1583 16.5875 17.125 16.4625C17.0916 16.3375 17.075 16.2084 17.075 16.075C17.075 15.625 17.225 15.2167 17.525 14.85C17.825 14.4834 18.2416 14.25 18.775 14.15C18.8916 13.8166 18.9791 13.4667 19.0375 13.1C19.0958 12.7334 19.125 12.3584 19.125 11.975C19.125 11.575 19.0958 11.1958 19.0375 10.8375C18.9791 10.4791 18.9 10.1334 18.8 9.8C18.3 9.73335 17.8875 9.51665 17.5625 9.15C17.2375 8.78335 17.075 8.35835 17.075 7.875C17.075 7.725 17.0875 7.59165 17.1125 7.475C17.1375 7.35835 17.175 7.23335 17.225 7.1C16.6916 6.58335 16.1333 6.15835 15.55 5.825C14.9666 5.49165 14.3083 5.225 13.575 5.025C13.4416 5.24165 13.2375 5.43335 12.9625 5.6C12.6875 5.76665 12.3666 5.85 12 5.85C11.6333 5.85 11.3166 5.76665 11.05 5.6C10.7833 5.43335 10.575 5.24165 10.425 5.025C9.6916 5.225 9.0208 5.49165 8.41245 5.825C7.8041 6.15835 7.2583 6.6 6.77495 7.15C6.8416 7.28335 6.8833 7.40415 6.89995 7.5125C6.9166 7.62085 6.92495 7.74165 6.92495 7.875C6.92495 8.40835 6.7541 8.84585 6.41245 9.1875C6.0708 9.52915 5.67495 9.73335 5.22495 9.8C5.1083 10.1334 5.0208 10.4791 4.96245 10.8375C4.90412 11.1958 4.87495 11.575 4.87495 11.975C4.87495 12.3584 4.90412 12.7334 4.96245 13.1C5.0208 13.4667 5.1083 13.8166 5.22495 14.15C5.7583 14.25 6.17495 14.4834 6.47495 14.85C6.77495 15.2167 6.92495 15.625 6.92495 16.075C6.92495 16.225 6.91245 16.3584 6.88745 16.475C6.86245 16.5917 6.8333 16.6916 6.79995 16.775C6.9666 16.9583 7.13745 17.1292 7.31245 17.2875C7.48745 17.4459 7.67495 17.6 7.87495 17.75ZM8.99995 18.425C9.19995 18.5083 9.4208 18.5958 9.66245 18.6875C9.9041 18.7792 10.1583 18.8583 10.425 18.925C10.6083 18.6916 10.825 18.4958 11.075 18.3375C11.325 18.1791 11.6333 18.1 12 18.1C12.3666 18.1 12.6875 18.1791 12.9625 18.3375C13.2375 18.4958 13.4416 18.6916 13.575 18.925C13.8583 18.8583 14.1125 18.7834 14.3375 18.7C14.5625 18.6167 14.7666 18.5334 14.95 18.45L13.325 14.675C13.125 14.8084 12.9083 14.9041 12.675 14.9625C12.4416 15.0208 12.2083 15.05 11.975 15.05C11.7416 15.05 11.5083 15.0166 11.275 14.95C11.0416 14.8833 10.825 14.7833 10.625 14.65L8.99995 18.425ZM12 13.55C12.4333 13.55 12.8 13.4 13.1 13.1C13.4 12.8 13.55 12.4333 13.55 12C13.55 11.5667 13.4 11.2 13.1 10.9C12.8 10.6 12.4333 10.45 12 10.45C11.5666 10.45 11.2 10.6 10.9 10.9C10.6 11.2 10.45 11.5667 10.45 12C10.45 12.4333 10.6 12.8 10.9 13.1C11.2 13.4 11.5666 13.55 12 13.55Z" fill="black"/>
</svg>
