<?xml version="1.0" encoding="UTF-8"?>
<svg width="24px" height="24px" viewBox="0 0 24 24" version="1.1" xmlns="http://www.w3.org/2000/svg" xmlns:xlink="http://www.w3.org/1999/xlink">
    <title>backpack</title>
    <g id="backpack" stroke="none" stroke-width="1" fill="none" fill-rule="evenodd">
        <rect id="Rectangle" x="0" y="0" width="24" height="24"></rect>
        <path d="M20,8 L20,20 C20,21.1 19.1,22 18,22 L6,22 C4.9,22 4,21.1 4,20 L4,8 C4,6.14 5.28,4.59 7,4.14 L7,2 L10,2 L10,4 L14,4 L14,2 L17,2 L17,4.14 C18.72,4.59 20,6.14 20,8 Z M6,12 L6,14 L16,14 L16,16 L18,16 L18,12 L6,12 Z" id="shape" fill="#001833"></path>
    </g>
</svg>