<?xml version="1.0" encoding="utf-8"?>
<!-- Generator: Adobe Illustrator 21.1.0, SVG Export Plug-In . SVG Version: 6.00 Build 0)  -->
<svg version="1.1"  xmlns="http://www.w3.org/2000/svg" xmlns:xlink="http://www.w3.org/1999/xlink" x="0px" y="0px"
	 viewBox="0 0 24 24" style="enable-background:new 0 0 24 24;" xml:space="preserve">
<style type="text/css">
	.st0{fill:#001833;}
</style>
<path class="st0" d="M20,6.5h-3v-2c0-1.1-0.9-2-2-2H9c-1.1,0-2,0.9-2,2v2H4c-1.1,0-2,0.9-2,2v11c0,1.1,0.9,2,2,2h16
	c1.1,0,2-0.9,2-2v-11C22,7.4,21.1,6.5,20,6.5z M9,4.5h6v2H9V4.5z M20,19.5H4v-2h16V19.5z M20,14.5H4v-6h3v2h2v-2h6v2h2v-2h3V14.5z"
	/>
</svg>
