<svg width="24" height="24" viewBox="0 0 24 24" fill="none" xmlns="http://www.w3.org/2000/svg">
<path d="M11 6H13V4H11V6ZM12 12C10.7333 12 9.525 11.7375 8.375 11.2125C7.225 10.6875 6.1 10.1 5 9.45V8C5 7.45 5.19583 6.97917 5.5875 6.5875C5.97917 6.19583 6.45 6 7 6H9V3C9 2.71667 9.09583 2.47917 9.2875 2.2875C9.47917 2.09583 9.71667 2 10 2H14C14.2833 2 14.5208 2.09583 14.7125 2.2875C14.9042 2.47917 15 2.71667 15 3V6H17C17.55 6 18.0208 6.19583 18.4125 6.5875C18.8042 6.97917 19 7.45 19 8V9.45C17.9 10.1 16.775 10.6875 15.625 11.2125C14.475 11.7375 13.2667 12 12 12ZM7 21C6.45 21 5.97917 20.8042 5.5875 20.4125C5.19583 20.0208 5 19.55 5 19V11.7C5.93333 12.2667 6.89583 12.75 7.8875 13.15C8.87917 13.55 9.91667 13.8167 11 13.95V14C11 14.2833 11.0958 14.5208 11.2875 14.7125C11.4792 14.9042 11.7167 15 12 15C12.2833 15 12.5208 14.9042 12.7125 14.7125C12.9042 14.5208 13 14.2833 13 14V13.95C14.0833 13.8167 15.1208 13.55 16.1125 13.15C17.1042 12.75 18.0667 12.2667 19 11.7V19C19 19.55 18.8042 20.0208 18.4125 20.4125C18.0208 20.8042 17.55 21 17 21C17 21.2833 16.9042 21.5208 16.7125 21.7125C16.5208 21.9042 16.2833 22 16 22C15.7333 22 15.5458 21.8792 15.4375 21.6375C15.3292 21.3958 15.1833 21.1833 15 21H9C9 21.2833 8.90417 21.5208 8.7125 21.7125C8.52083 21.9042 8.28333 22 8 22C7.73333 22 7.54583 21.8792 7.4375 21.6375C7.32917 21.3958 7.18333 21.1833 7 21Z" fill="#001833"/>
</svg>
