<?xml version="1.0" encoding="utf-8"?>
<!-- Generator: Adobe Illustrator 21.1.0, SVG Export Plug-In . SVG Version: 6.00 Build 0)  -->
<svg version="1.1" id="Layer_1" xmlns="http://www.w3.org/2000/svg" xmlns:xlink="http://www.w3.org/1999/xlink" x="0px" y="0px"
	 viewBox="0 0 24 24" style="enable-background:new 0 0 24 24;" xml:space="preserve">
<path id="path-1_1_" class="st0" d="M13.2,14.6l1.4-1.4l6.4,6.4L19.7,21L13.2,14.6z M17.5,8.8L20.4,6C16.4,2,10,2,6.1,5.9
	C10,4.6,14.4,5.7,17.5,8.8L17.5,8.8z M6,6C2.1,9.9,2.1,16.3,6.1,20.3L9,17.4C5.8,14.3,4.7,9.9,6,6z M6.1,6L6.1,6
	c-0.4,3,1.1,6.8,4.3,10l5.7-5.7C13,7.1,9.1,5.6,6.1,6z"/>
</svg>
