<?xml version="1.0" encoding="UTF-8"?>
<svg width="24px" height="24px" viewBox="0 0 24 24" version="1.1" xmlns="http://www.w3.org/2000/svg" xmlns:xlink="http://www.w3.org/1999/xlink">
    <title>bedKing</title>
    <g stroke="none" stroke-width="1" fill="none" fill-rule="evenodd">
        
        <path d="M20,10 L20,7 C20,5.9 19.1,5 18,5 L6,5 C4.9,5 4,5.9 4,7 L4,10 C2.9,10 2,10.9 2,12 L2,17 L3.33,17 L4,19 L5,19 L5.67,17 L18.34,17 L19,19 L20,19 L20.67,17 L22,17 L22,12 C22,10.9 21.1,10 20,10 Z M11,10 L6,10 L6,7 L11,7 L11,10 Z M18,10 L13,10 L13,7 L18,7 L18,10 Z"  fill="#001833"></path>
    </g>
</svg>