<?xml version="1.0" encoding="utf-8"?>
<!-- Generator: Adobe Illustrator 21.1.0, SVG Export Plug-In . SVG Version: 6.00 Build 0)  -->
<svg version="1.1" id="Layer_1" xmlns="http://www.w3.org/2000/svg" xmlns:xlink="http://www.w3.org/1999/xlink" x="0px" y="0px"
	 viewBox="0 0 24 24" style="enable-background:new 0 0 24 24;" xml:space="preserve">
<path id="path-1_1_" class="st0" d="M10,16v-1H3v4c0,1.1,0.9,2,2,2h14c1.1,0,2-0.9,2-2v-4h-7v1H10z M20,7h-4V5l-2-2h-4L8,5v2H4
	C2.9,7,2,7.9,2,9v3c0,1.1,0.9,2,2,2h6v-2h4v2h6c1.1,0,2-0.9,2-2V9C22,7.9,21.1,7,20,7z M14,7h-4V5h4V7z"/>
</svg>
