<?xml version="1.0" encoding="utf-8"?>
<!-- Generator: Adobe Illustrator 21.1.0, SVG Export Plug-In . SVG Version: 6.00 Build 0)  -->
<svg version="1.1"  xmlns="http://www.w3.org/2000/svg" xmlns:xlink="http://www.w3.org/1999/xlink" x="0px" y="0px"
   viewBox="0 0 24 24" style="enable-background:new 0 0 24 24;" xml:space="preserve">
<style type="text/css">
  .st0{fill:#001833;}
</style>
<path class="st0" d="M12,6a2,2,0,0,0,2-2,1.69,1.69,0,0,0-.3-1L12,0,10.3,3A1.69,1.69,0,0,0,10,4,2,2,0,0,0,12,6Zm4.6,10-1.1-1.1-1,1.1a3.57,3.57,0,0,1-4.9,0L8.5,14.9,7.4,16A3.49,3.49,0,0,1,5,17a3.61,3.61,0,0,1-2-.6V21a1.08,1.08,0,0,0,1,1H20a1.08,1.08,0,0,0,1-1V16.4a3.38,3.38,0,0,1-2,.6A3.5,3.5,0,0,1,16.6,16ZM18,9H13V7H11V9H6a3,3,0,0,0-3,3v1.5a2,2,0,0,0,2,2,2,2,0,0,0,1.4-.6l2.1-2.1,2.1,2.1a2.13,2.13,0,0,0,2.8,0l2.1-2.1,2.1,2.1a2,2,0,0,0,1.4.6,2,2,0,0,0,2-2V12A3,3,0,0,0,18,9Z"/>
</svg>
