<?xml version="1.0" encoding="UTF-8"?>
<svg width="24px" height="24px" viewBox="0 0 24 24" version="1.1" xmlns="http://www.w3.org/2000/svg" xmlns:xlink="http://www.w3.org/1999/xlink">
    <title>calendarCheck</title>
    <g id="calendarCheck" stroke="none" stroke-width="1" fill="none" fill-rule="evenodd">
        <polygon id="Path" points="0 0 24 0 24 24 0 24"></polygon>
        <path d="M19,20 L5,20 L5,9 L19,9 M19,4 L18,4 L18,2 L16,2 L16,4 L8,4 L8,2 L6,2 L6,4 L5,4 C3.89,4 3,4.9 3,6 L3,20 C3,21.1045695 3.8954305,22 5,22 L19,22 C20.1045695,22 21,21.1045695 21,20 L21,6 C21,4.8954305 20.1045695,4 19,4 M16.53,12.06 L15.47,11 L10.59,15.88 L8.47,13.76 L7.41,14.82 L10.59,18 L16.53,12.06 Z" id="shape" fill="#001833"></path>
    </g>
</svg>