<?xml version="1.0" encoding="UTF-8"?>
<svg width="24px" height="24px" viewBox="0 0 24 24" version="1.1" xmlns="http://www.w3.org/2000/svg" xmlns:xlink="http://www.w3.org/1999/xlink">
    <title>calendarClock</title>
    <g id="calendarClock" stroke="none" stroke-width="1" fill="none" fill-rule="evenodd">
        
        <path d="M14,13 L15.5,13 L15.5,15.82 L17.94,17.23 L17.19,18.53 L14,16.69 L14,13 M18,8 L4,8 L4,19 L8.67,19 C8.24,18.09 8,17.07 8,16 C8,12.1340068 11.1340068,9 15,9 C16.07,9 17.09,9.24 18,9.67 L18,8 M4,21 C2.89,21 2,20.1 2,19 L2,5 C2,3.89 2.89,3 4,3 L5,3 L5,1 L7,1 L7,3 L15,3 L15,1 L17,1 L17,3 L18,3 C19.1045695,3 20,3.8954305 20,5 L20,11.1 C21.24,12.36 22,14.09 22,16 C22,19.8659932 18.8659932,23 15,23 C13.09,23 11.36,22.24 10.1,21 L4,21 M15,11.15 C12.321419,11.15 10.15,13.321419 10.15,16 C10.15,18.68 12.32,20.85 15,20.85 C16.2863,20.85 17.5199165,20.3390193 18.4294679,19.4294679 C19.3390193,18.5199165 19.85,17.2863 19.85,16 C19.85,13.32 17.68,11.15 15,11.15 Z" id="shape" fill="#001833"></path>
    </g>
</svg>