<svg width="18" height="8" viewBox="0 0 18 8" fill="none" xmlns="http://www.w3.org/2000/svg">
<path d="M8.99998 0.736572C10.475 0.736572 11.9281 1.03345 13.3594 1.6272C14.7906 2.22095 16.0625 3.11157 17.175 4.29907C17.325 4.44907 17.4 4.62407 17.4 4.82407C17.4 5.02407 17.325 5.19907 17.175 5.34907L15.45 7.03657C15.3125 7.17407 15.1531 7.24907 14.9718 7.26157C14.7906 7.27407 14.625 7.22407 14.475 7.11157L12.3 5.46157C12.2 5.38657 12.125 5.29907 12.075 5.19907C12.025 5.09907 12 4.98657 12 4.86157V2.72407C11.525 2.57407 11.0375 2.45532 10.5375 2.36782C10.0375 2.28032 9.52497 2.23657 8.99998 2.23657C8.47498 2.23657 7.96248 2.28032 7.46248 2.36782C6.96248 2.45532 6.47498 2.57407 5.99998 2.72407V4.86157C5.99998 4.98657 5.97498 5.09907 5.92498 5.19907C5.87498 5.29907 5.79998 5.38657 5.69998 5.46157L3.52498 7.11157C3.37498 7.22407 3.20935 7.27407 3.0281 7.26157C2.84685 7.24907 2.68748 7.17407 2.54998 7.03657L0.824976 5.34907C0.674976 5.19907 0.599976 5.02407 0.599976 4.82407C0.599976 4.62407 0.674976 4.44907 0.824976 4.29907C1.92498 3.11157 3.19373 2.22095 4.63123 1.6272C6.06873 1.03345 7.52498 0.736572 8.99998 0.736572Z" fill="#CC0000"/>
</svg>
