<?xml version="1.0" encoding="utf-8"?>
<svg version="1.1" width="20" height="20" viewBox="0 0 20 20" xmlns="http://www.w3.org/2000/svg" x="0px" y="0px"
style="enable-background:new 0 0 24 24;" xml:space="preserve">
<style type="text/css">
	.st0{fill:#001833;}
</style>
<path class="st0" d="M9.99998 6.73657C11.475 6.73657 12.9281 7.03345 14.3594 7.6272C15.7906 8.22095 17.0625 9.11157 18.175 10.2991C18.325 10.4491 18.4 10.6241 18.4 10.8241C18.4 11.0241 18.325 11.1991 18.175 11.3491L16.45 13.0366C16.3125 13.1741 16.1531 13.2491 15.9718 13.2616C15.7906 13.2741 15.625 13.2241 15.475 13.1116L13.3 11.4616C13.2 11.3866 13.125 11.2991 13.075 11.1991C13.025 11.0991 13 10.9866 13 10.8616V8.72407C12.525 8.57407 12.0375 8.45532 11.5375 8.36782C11.0375 8.28032 10.525 8.23657 9.99998 8.23657C9.47498 8.23657 8.96248 8.28032 8.46248 8.36782C7.96248 8.45532 7.47498 8.57407 6.99998 8.72407V10.8616C6.99998 10.9866 6.97498 11.0991 6.92498 11.1991C6.87498 11.2991 6.79998 11.3866 6.69998 11.4616L4.52498 13.1116C4.37498 13.2241 4.20935 13.2741 4.0281 13.2616C3.84685 13.2491 3.68748 13.1741 3.54998 13.0366L1.82498 11.3491C1.67498 11.1991 1.59998 11.0241 1.59998 10.8241C1.59998 10.6241 1.67498 10.4491 1.82498 10.2991C2.92498 9.11157 4.19373 8.22095 5.63123 7.6272C7.06873 7.03345 8.52498 6.73657 9.99998 6.73657Z" fill="#4F6F8F"/>
</svg>