<?xml version="1.0" encoding="UTF-8"?>
<svg xmlns="http://www.w3.org/2000/svg" width="24" height="24" viewBox="0 0 24 24" fill="none">
<path d="M19.95 21C17.8667 21 15.8083 20.5458 13.775 19.6375C11.7417 18.7291 9.89167 17.4416 8.225 15.775C6.55833 14.1083 5.27083 12.2583 4.3625 10.225C3.45417 8.19164 3 6.13331 3 4.04998C3 3.74998 3.1 3.49998 3.3 3.29998C3.5 3.09998 3.75 2.99998 4.05 2.99998H8.1C8.33333 2.99998 8.54167 3.07914 8.725 3.23748C8.90833 3.39581 9.01667 3.58331 9.05 3.79998L9.7 7.29998C9.73333 7.56664 9.725 7.79164 9.675 7.97498C9.625 8.15831 9.53333 8.31664 9.4 8.44998L6.975 10.9C7.30833 11.5166 7.70417 12.1125 8.1625 12.6875C8.62083 13.2625 9.125 13.8166 9.675 14.35C10.1917 14.8666 10.7333 15.3458 11.3 15.7875C11.8667 16.2291 12.4667 16.6333 13.1 17L15.45 14.65C15.6 14.5 15.7958 14.3875 16.0375 14.3125C16.2792 14.2375 16.5167 14.2166 16.75 14.25L20.2 14.95C20.4333 15.0166 20.625 15.1375 20.775 15.3125C20.925 15.4875 21 15.6833 21 15.9V19.95C21 20.25 20.9 20.5 20.7 20.7C20.5 20.9 20.25 21 19.95 21ZM13 11V4.99998H15V7.59998L20 2.59998L21.4 3.99998L16.4 8.99998H19V11H13Z" fill="#001833"/>
</svg>
