<svg width="24" height="24" viewBox="0 0 24 24" fill="none" xmlns="http://www.w3.org/2000/svg">
<path d="M14.9998 3.00002C14.4475 3.00002 13.9998 3.44773 13.9998 4.00002C13.9998 4.5523 14.4475 5.00002 14.9998 5.00002H16.9998C17.5521 5.00002 17.9998 4.5523 17.9998 4.00002C17.9998 3.44773 17.5521 3.00002 16.9998 3.00002H14.9998Z" fill="#001833"/>
<path d="M14.9998 18C14.4475 18 13.9998 18.4477 13.9998 19C13.9998 19.5523 14.4475 20 14.9998 20H16.9998C17.5521 20 17.9998 19.5523 17.9998 19C17.9998 18.4477 17.5521 18 16.9998 18H14.9998Z" fill="#001833"/>
<path d="M13.9998 14C13.9998 13.4477 14.4475 13 14.9998 13H16.9998C17.5521 13 17.9998 13.4477 17.9998 14C17.9998 14.5523 17.5521 15 16.9998 15H14.9998C14.4475 15 13.9998 14.5523 13.9998 14Z" fill="#001833"/>
<path d="M14.9998 8.00002C14.4475 8.00002 13.9998 8.44773 13.9998 9.00002C13.9998 9.5523 14.4475 10 14.9998 10H16.9998C17.5521 10 17.9998 9.5523 17.9998 9.00002C17.9998 8.44773 17.5521 8.00002 16.9998 8.00002H14.9998Z" fill="#001833"/>
<path fill-rule="evenodd" clip-rule="evenodd" d="M11 4C11 4.74038 10.5977 5.3868 9.99976 5.73258V16C9.99976 16.0565 9.99507 16.1119 9.98607 16.1658C11.1585 16.5737 12 17.6886 12 19C12 20.6569 10.6569 22 9 22C7.34315 22 6 20.6569 6 19C6 17.6888 6.84124 16.574 8.01347 16.166C8.00445 16.112 7.99976 16.0565 7.99976 16V5.73229C7.40209 5.38645 7 4.74018 7 4C7 2.89543 7.89543 2 9 2C10.1046 2 11 2.89543 11 4ZM10.8 19C10.8 19.9941 9.99411 20.8 9 20.8C8.00589 20.8 7.2 19.9941 7.2 19C7.2 18.0059 8.00589 17.2 9 17.2C9.99411 17.2 10.8 18.0059 10.8 19Z" fill="#001833"/>
</svg>
