<svg width="24" height="24" viewBox="0 0 24 24" fill="none" xmlns="http://www.w3.org/2000/svg">
<path d="M17 8C17.1333 8 17.25 7.95 17.35 7.85C17.45 7.75 17.5 7.63333 17.5 7.5V4.5C17.5 4.36667 17.45 4.25 17.35 4.15C17.25 4.05 17.1333 4 17 4C16.8667 4 16.75 4.05 16.65 4.15C16.55 4.25 16.5 4.36667 16.5 4.5V7.5C16.5 7.63333 16.55 7.75 16.65 7.85C16.75 7.95 16.8667 8 17 8ZM17 10C17.1333 10 17.25 9.95 17.35 9.85C17.45 9.75 17.5 9.63333 17.5 9.5C17.5 9.36667 17.45 9.25 17.35 9.15C17.25 9.05 17.1333 9 17 9C16.8667 9 16.75 9.05 16.65 9.15C16.55 9.25 16.5 9.36667 16.5 9.5C16.5 9.63333 16.55 9.75 16.65 9.85C16.75 9.95 16.8667 10 17 10ZM15.5 17C15.9167 17 16.2708 16.8542 16.5625 16.5625C16.8542 16.2708 17 15.9167 17 15.5C17 15.0833 16.8542 14.7292 16.5625 14.4375C16.2708 14.1458 15.9167 14 15.5 14C15.0833 14 14.7292 14.1458 14.4375 14.4375C14.1458 14.7292 14 15.0833 14 15.5C14 15.9167 14.1458 16.2708 14.4375 16.5625C14.7292 16.8542 15.0833 17 15.5 17ZM6.5 17C6.91667 17 7.27083 16.8542 7.5625 16.5625C7.85417 16.2708 8 15.9167 8 15.5C8 15.0833 7.85417 14.7292 7.5625 14.4375C7.27083 14.1458 6.91667 14 6.5 14C6.08333 14 5.72917 14.1458 5.4375 14.4375C5.14583 14.7292 5 15.0833 5 15.5C5 15.9167 5.14583 16.2708 5.4375 16.5625C5.72917 16.8542 6.08333 17 6.5 17ZM17 12C15.6167 12 14.4375 11.5125 13.4625 10.5375C12.4875 9.5625 12 8.38333 12 7C12 5.63333 12.4833 4.45833 13.45 3.475C14.4167 2.49167 15.6 2 17 2C18.3833 2 19.5625 2.4875 20.5375 3.4625C21.5125 4.4375 22 5.61667 22 7C22 8.38333 21.5125 9.5625 20.5375 10.5375C19.5625 11.5125 18.3833 12 17 12ZM3.5 22C3.08333 22 2.72917 21.8542 2.4375 21.5625C2.14583 21.2708 2 20.9167 2 20.5V13.35C2 13.2333 2.00833 13.1167 2.025 13C2.04167 12.8833 2.06667 12.775 2.1 12.675L4.1 7C4.2 6.7 4.37917 6.45833 4.6375 6.275C4.89583 6.09167 5.18333 6 5.5 6H8.975C9.25833 6 9.49583 6.09583 9.6875 6.2875C9.87917 6.47917 9.975 6.71667 9.975 7C9.975 7.28333 9.87917 7.52083 9.6875 7.7125C9.49583 7.90417 9.25833 8 8.975 8H5.85L4.8 11H10.775C10.925 11 11.0708 11.0333 11.2125 11.1C11.3542 11.1667 11.475 11.2667 11.575 11.4C12.2417 12.2167 13.0458 12.8542 13.9875 13.3125C14.9292 13.7708 15.9333 14 17 14C17.3167 14 17.625 13.9792 17.925 13.9375C18.225 13.8958 18.525 13.8333 18.825 13.75C19.1083 13.6667 19.375 13.7125 19.625 13.8875C19.875 14.0625 20 14.2917 20 14.575V20.5C20 20.9167 19.8542 21.2708 19.5625 21.5625C19.2708 21.8542 18.9167 22 18.5 22C18.0833 22 17.7292 21.8542 17.4375 21.5625C17.1458 21.2708 17 20.9167 17 20.5V20H5V20.5C5 20.9167 4.85417 21.2708 4.5625 21.5625C4.27083 21.8542 3.91667 22 3.5 22Z" fill="#001833"/>
</svg>
