<svg width="24" height="24" viewBox="0 0 24 24" fill="none" xmlns="http://www.w3.org/2000/svg">
<path fill-rule="evenodd" clip-rule="evenodd" d="M5 5.73244C5.5978 5.38663 6 4.74028 6 4C6 2.89543 5.10457 2 4 2C2.89543 2 2 2.89543 2 4C2 4.74028 2.4022 5.38663 3 5.73244C3 5.73244 3 9 3 10C3 11.437 4.56299 13 6 13C7 13 10.5 13 10.5 13V17.2676C9.9022 17.6134 9.5 18.2597 9.5 19C9.5 20.1046 10.3954 21 11.5 21C12.6046 21 13.5 20.1046 13.5 19C13.5 18.2597 13.0978 17.6134 12.5 17.2676V13H18V16.1707C16.8348 16.5825 16 17.6938 16 19C16 20.6569 17.3431 22 19 22C20.6569 22 22 20.6569 22 19C22 17.6938 21.1652 16.5825 20 16.1707V5.73244C20.5978 5.38663 21 4.74028 21 4C21 2.89543 20.1046 2 19 2C17.8954 2 17 2.89543 17 4C17 4.74028 17.4022 5.38663 18 5.73244V11H12.5V5.73244C13.0978 5.38663 13.5 4.74028 13.5 4C13.5 2.89543 12.6046 2 11.5 2C10.3954 2 9.5 2.89543 9.5 4C9.5 4.74028 9.9022 5.38663 10.5 5.73244V11C10.5 11 7.5 11 7 11C6.5 11 5.93662 10.9366 5.5 10.5C5.06338 10.0634 5 9.5 5 9C5 8.5 5 5.73244 5 5.73244ZM20.8 19C20.8 19.9941 19.9941 20.8 19 20.8C18.0059 20.8 17.2 19.9941 17.2 19C17.2 18.0059 18.0059 17.2 19 17.2C19.9941 17.2 20.8 18.0059 20.8 19Z" fill="#001833"/>
</svg>
