<svg width="24" height="24" viewBox="0 0 24 24" fill="none" xmlns="http://www.w3.org/2000/svg">
<path d="M7.28571 21C6.93214 21 6.62946 20.8531 6.37768 20.5594C6.12589 20.2656 6 19.9125 6 19.5V11.0833C6 10.6021 6.14687 10.1901 6.44061 9.84738C6.73437 9.50468 7.0875 9.33333 7.5 9.33333H9.42857V2.75C9.42857 2.51667 9.51666 2.33333 9.69285 2.2C9.86905 2.06667 10.0667 2 10.2857 2H13.7143C13.9333 2 14.1309 2.06667 14.3071 2.2C14.4833 2.33333 14.5714 2.51667 14.5714 2.75V9.33333H16.7143C17.0679 9.33333 17.3705 9.48021 17.6223 9.77396C17.8741 10.0677 18 10.4208 18 10.8333V19.5C18 19.9125 17.8741 20.2656 17.6223 20.5594C17.3705 20.8531 17.0679 21 16.7143 21C16.7143 21.2833 16.6321 21.5208 16.4679 21.7125C16.3036 21.9042 16.1 22 15.8571 22C15.6143 22 15.4107 21.9042 15.2464 21.7125C15.0821 21.5208 15 21.2833 15 21H9C9 21.2833 8.91786 21.5208 8.75357 21.7125C8.58929 21.9042 8.38571 22 8.14286 22C7.9 22 7.69643 21.9042 7.53214 21.7125C7.36786 21.5208 7.28571 21.2833 7.28571 21ZM10.2857 9.33333H13.7143V3H10.2857V9.33333ZM7.28571 19.5H16.7143V10.8333H7.28571V19.5ZM8.78571 18H9.64286V12.3333H8.78571V18ZM11.5714 18H12.4286V12.3333H11.5714V18ZM14.3571 18H15.2143V12.3333H14.3571V18Z" fill="#001833"/>
</svg>
