<?xml version="1.0" encoding="UTF-8"?>
<svg width="12" height="20" viewBox="0 0 12 20" fill="none" xmlns="http://www.w3.org/2000/svg">
<path d="M1.28571 19C0.932143 19 0.629464 18.8531 0.377679 18.5594C0.125893 18.2656 0 17.9125 0 17.5V9.08333C0 8.60208 0.146871 8.1901 0.440614 7.84738C0.734371 7.50468 1.0875 7.33333 1.5 7.33333H3.42857V0.75C3.42857 0.516667 3.51666 0.333333 3.69285 0.2C3.86905 0.0666667 4.06667 0 4.28571 0H7.71429C7.93333 0 8.13095 0.0666667 8.30715 0.2C8.48334 0.333333 8.57143 0.516667 8.57143 0.75V7.33333H10.7143C11.0679 7.33333 11.3705 7.48021 11.6223 7.77396C11.8741 8.06771 12 8.42083 12 8.83333V17.5C12 17.9125 11.8741 18.2656 11.6223 18.5594C11.3705 18.8531 11.0679 19 10.7143 19C10.7143 19.2833 10.6321 19.5208 10.4679 19.7125C10.3036 19.9042 10.1 20 9.85714 20C9.61429 20 9.41071 19.9042 9.24643 19.7125C9.08214 19.5208 9 19.2833 9 19H3C3 19.2833 2.91786 19.5208 2.75357 19.7125C2.58929 19.9042 2.38571 20 2.14286 20C1.9 20 1.69643 19.9042 1.53214 19.7125C1.36786 19.5208 1.28571 19.2833 1.28571 19ZM4.28571 7.33333H7.71429V1H4.28571V7.33333ZM1.28571 17.5H10.7143V8.83333H1.28571V17.5ZM2.78571 16H3.64286V10.3333H2.78571V16ZM5.57143 16H6.42857V10.3333H5.57143V16ZM8.35714 16H9.21429V10.3333H8.35714V16Z" fill="#001833"/>
</svg>
