<svg width="24" height="24" viewBox="0 0 24 24" fill="none" xmlns="http://www.w3.org/2000/svg">
<path fill-rule="evenodd" clip-rule="evenodd" d="M8 20.0642C8 21.1152 7.02854 21.9268 5.84193 21.9954L5.67886 22.0001H5.3212C4.13218 22.0003 3.11663 21.2539 3.00898 20.231L3 20.0899V17.9995L2.49804 17.9999C2.13366 17.9892 1.78805 17.8434 1.51956 17.5931L1.40939 17.4795C1.17003 17.2067 1.02852 16.8576 1.00409 16.5004L1.00085 16.347L1.00146 12.4088C1.0275 11.4705 1.40051 10.6175 1.99542 9.99926L1.86005 10C1.51184 10.004 1.1738 9.88145 0.919002 9.65533C0.686448 9.44895 0.540065 9.17084 0.507103 8.87133L0.5 8.7418V8.3911C0.5 7.65619 1.10148 7.0725 1.84967 7.00637L1.99156 7.00013L3.379 6.99951L3.55695 6.40488L3.96848 5.13392C4.04516 4.82522 4.16289 4.52835 4.3256 4.23916C4.57833 3.81769 4.94813 3.47982 5.41094 3.25769C5.80873 3.08878 6.23524 3.00151 6.64557 2.99951L6.84918 3.00564L17.161 3.00664C17.6637 2.97469 18.1668 3.06063 18.6524 3.26739C19.0937 3.47982 19.4635 3.81769 19.7234 4.25138C19.8401 4.45911 19.9355 4.67803 20.006 4.89645L20.4482 6.41566L20.622 6.99951L22.0084 7.00013C22.7732 7.00013 23.4197 7.54059 23.4931 8.25516L23.5 8.3911V8.7418C23.5 9.08991 23.3468 9.41946 23.081 9.65533C22.8626 9.84915 22.583 9.96684 22.2919 9.99406L22.1456 10.0001L22.0071 9.99941C22.5483 10.5645 22.9074 11.3273 22.9858 12.1781L23.0002 12.4123L23.0008 16.334C23.0117 16.7563 22.8659 17.1677 22.5924 17.4795C22.3471 17.759 22.0164 17.9385 21.6488 17.9873L21.4891 18.0001L21 17.9995V20.0642C21 21.1131 20.0416 21.9267 18.8691 21.9954L18.708 22.0001H18.292C17.1016 22.0001 16.0915 21.2322 16.0059 20.2058L16 20.0642V17.9995H8V20.0642ZM19.7736 9.99986L19.9294 10.0107C21.0101 10.1265 21.8789 11.0651 21.9898 12.256L22.0004 12.4278L22.0009 16.3471L21.9962 16.456C21.9801 16.5976 21.9255 16.7233 21.8407 16.8199C21.7613 16.9104 21.6613 16.9691 21.5551 16.9909L21.4745 17.0003L2.51267 17.0001L2.4392 16.9908C2.34047 16.9691 2.24046 16.9104 2.16106 16.8199C2.07626 16.7233 2.02163 16.5976 2.00546 16.4626L2.00068 16.3599V12.5889L2.00224 12.4149C2.05117 11.1494 2.94299 10.1314 4.0727 10.0107L4.22817 9.99986H19.7736ZM18.5 11.5001C17.3954 11.5001 16.5 12.3956 16.5 13.5001C16.5 14.6047 17.3954 15.5001 18.5 15.5001C19.6046 15.5001 20.5 14.6047 20.5 13.5001C20.5 12.3956 19.6046 11.5001 18.5 11.5001ZM5.5 11.5001C4.39543 11.5001 3.5 12.3956 3.5 13.5001C3.5 14.6047 4.39543 15.5001 5.5 15.5001C6.60457 15.5001 7.5 14.6047 7.5 13.5001C7.5 12.3956 6.60457 11.5001 5.5 11.5001ZM15 13.0001H9L8.91012 13.0082C8.67688 13.0505 8.5 13.2547 8.5 13.5001C8.5 13.7456 8.67688 13.9497 8.91012 13.9921L9 14.0001H15L15.0899 13.9921C15.3231 13.9497 15.5 13.7456 15.5 13.5001C15.5 13.2547 15.3231 13.0505 15.0899 13.0082L15 13.0001ZM22.0084 8.00013L22.0998 8.00684C22.3056 8.03763 22.4576 8.17038 22.4925 8.32415L22.5 8.3911V8.7418L22.4908 8.79935C22.4786 8.83751 22.4541 8.87467 22.4172 8.90739C22.3675 8.95151 22.3007 8.98225 22.2269 8.99438L22.1512 9.0001L21.213 8.99951L20.919 7.99951L22.0084 8.00013ZM3.081 7.99951L2.788 8.99951L1.85443 9.00007L1.77546 8.99436C1.69931 8.98225 1.63249 8.95151 1.58277 8.90739C1.5459 8.87467 1.52141 8.83751 1.50917 8.79935L1.5 8.7418V8.3911L1.50755 8.32415C1.54235 8.17038 1.69443 8.03763 1.90025 8.00684L1.99156 8.00013L3.081 7.99951ZM6.60943 4.00104L6.81743 4.00462L17.1927 4.00563L17.4163 4.00163C17.7096 4.00937 17.9834 4.06917 18.2401 4.17814C18.4837 4.29603 18.7062 4.49933 18.8586 4.75342C18.9371 4.89337 19.0042 5.04827 19.0562 5.21054L19.1028 5.37498L19.489 6.69865L19.9809 8.34902L20.1828 9.03552L19.9962 9.01237L19.8064 9.00039L4.21174 9.00012L4.01312 9.01278L3.81812 9.03742L4.02144 8.34685L4.51192 6.70129L4.92953 5.40805L4.98178 5.2243C5.03802 5.04751 5.10652 4.89031 5.1903 4.7412C5.33557 4.49933 5.55808 4.29603 5.82317 4.16845C6.06268 4.06723 6.33306 4.00899 6.60943 4.00104ZM6.99997 20.0642V17.9995H3.99997L3.99984 20.0785L4.00933 20.1744C4.07603 20.5545 4.48236 20.8897 5.03405 20.9777L5.17489 20.9944L5.32111 21.0001H5.67883L5.82672 20.9943C6.45598 20.944 6.92825 20.5773 6.9925 20.1611L6.99997 20.0642ZM20 20.0642V17.9995H17V20.0642L17.0073 20.1614C17.0654 20.547 17.4638 20.8878 18.0084 20.9773L18.1475 20.9943L18.292 21.0001H18.708L18.8525 20.9943C19.4674 20.9443 19.9297 20.5791 19.9927 20.1614L20 20.0642ZM19.5 13.5001C19.5 12.9478 19.0523 12.5001 18.5 12.5001C17.9477 12.5001 17.5 12.9478 17.5 13.5001C17.5 14.0524 17.9477 14.5001 18.5 14.5001C19.0523 14.5001 19.5 14.0524 19.5 13.5001ZM5.49997 12.5001C6.05226 12.5001 6.49997 12.9478 6.49997 13.5001C6.49997 14.0524 6.05226 14.5001 5.49997 14.5001C4.94769 14.5001 4.49997 14.0524 4.49997 13.5001C4.49997 12.9478 4.94769 12.5001 5.49997 12.5001Z" fill="#001833"/>
</svg>
