<?xml version="1.0" encoding="UTF-8"?>
<svg width="24px" height="24px" viewBox="0 0 24 24" version="1.1" xmlns="http://www.w3.org/2000/svg" xmlns:xlink="http://www.w3.org/1999/xlink">
    <title>carWash</title>
    <g id="carWash" stroke="none" stroke-width="1" fill="none" fill-rule="evenodd">
        <polygon id="Path" points="0 0 24 0 24 24 0 24"></polygon>
        <path d="M17,5 C17.83,5 18.5,4.33 18.5,3.5 C18.5,2.5 17,0.8 17,0.8 C17,0.8 15.5,2.5 15.5,3.5 C15.5,4.33 16.17,5 17,5 Z M12,5 C12.83,5 13.5,4.33 13.5,3.5 C13.5,2.5 12,0.8 12,0.8 C12,0.8 10.5,2.5 10.5,3.5 C10.5,4.33 11.17,5 12,5 Z M7,5 C7.83,5 8.5,4.33 8.5,3.5 C8.5,2.5 7,0.8 7,0.8 C7,0.8 5.5,2.5 5.5,3.5 C5.5,4.33 6.17,5 7,5 Z M18.92,8.01 C18.72,7.42 18.16,7 17.5,7 L6.5,7 C5.84,7 5.29,7.42 5.08,8.01 L3,14 L3,22 C3,22.55 3.45,23 4,23 L5,23 C5.55,23 6,22.55 6,22 L6,21 L18,21 L18,22 C18,22.55 18.45,23 19,23 L20,23 C20.55,23 21,22.55 21,22 L21,14 L18.92,8.01 Z M6.5,18 C5.67,18 5,17.33 5,16.5 C5,15.67 5.67,15 6.5,15 C7.33,15 8,15.67 8,16.5 C8,17.33 7.33,18 6.5,18 Z M17.5,18 C16.67,18 16,17.33 16,16.5 C16,15.67 16.67,15 17.5,15 C18.33,15 19,15.67 19,16.5 C19,17.33 18.33,18 17.5,18 Z M5,13 L6.5,8.5 L17.5,8.5 L19,13 L5,13 Z" id="shape" fill="#001833"></path>
    </g>
</svg>