<svg width="24" height="24" viewBox="0 0 24 24" fill="none" xmlns="http://www.w3.org/2000/svg">
  <path
    d="M3.50001 21.475C3.20001 21.5916 2.93334 21.5333 2.70001 21.3C2.46667 21.0666 2.40834 20.8 2.52501 20.5L5.85001 11.225C6.03334 10.6916 6.39584 10.3666 6.93751 10.25C7.47917 10.1333 7.94167 10.2666 8.32501 10.65L13.375 15.65C13.775 16.0333 13.9167 16.4958 13.8 17.0375C13.6833 17.5791 13.3583 17.9416 12.825 18.125L3.50001 21.475ZM13.5 12.45C13.3833 12.3333 13.325 12.1916 13.325 12.025C13.325 11.8583 13.3833 11.7166 13.5 11.6L19.075 6.02498C19.6083 5.49164 20.2833 5.22081 21.1 5.21248C21.9167 5.20414 22.5917 5.46664 23.125 5.99998L23.15 6.02498C23.2667 6.14164 23.325 6.27498 23.325 6.42498C23.325 6.57498 23.2583 6.71664 23.125 6.84997C23.0083 6.96664 22.8667 7.02498 22.7 7.02498C22.5333 7.02498 22.3917 6.96664 22.275 6.84997L22.225 6.79998C21.9083 6.48331 21.5417 6.32081 21.125 6.31248C20.7083 6.30414 20.3333 6.46664 20 6.79998L14.325 12.475C14.2083 12.5916 14.075 12.65 13.925 12.65C13.775 12.65 13.6333 12.5833 13.5 12.45ZM9.52501 8.57497C9.40834 8.45831 9.35001 8.31664 9.35001 8.14998C9.35001 7.98331 9.40834 7.84164 9.52501 7.72497L9.85001 7.39998C10.2333 7.01664 10.4125 6.57914 10.3875 6.08748C10.3625 5.59581 10.1833 5.18331 9.85001 4.84998L9.55001 4.54998C9.43334 4.43331 9.37501 4.29998 9.37501 4.14998C9.37501 3.99998 9.44168 3.85831 9.57501 3.72498C9.69168 3.60831 9.83334 3.54998 10 3.54998C10.1667 3.54998 10.3083 3.60831 10.425 3.72498L10.65 3.94998C11.2333 4.53331 11.5208 5.26248 11.5125 6.13747C11.5042 7.01247 11.2083 7.74164 10.625 8.32497L10.35 8.59997C10.2333 8.71664 10.1 8.77497 9.95001 8.77497C9.80001 8.77497 9.65834 8.70831 9.52501 8.57497ZM11.55 10.5C11.4333 10.3833 11.375 10.2416 11.375 10.075C11.375 9.90831 11.4333 9.76664 11.55 9.64997L14.925 6.27498C15.2417 5.95831 15.3958 5.55414 15.3875 5.06248C15.3792 4.57081 15.2167 4.16664 14.9 3.84998L13.775 2.72498C13.6583 2.60831 13.6 2.47498 13.6 2.32498C13.6 2.17498 13.6667 2.03331 13.8 1.89998C13.9167 1.78331 14.0583 1.72498 14.225 1.72498C14.3917 1.72498 14.5333 1.78331 14.65 1.89998L15.8 3.04998C16.3167 3.58331 16.5833 4.25414 16.6 5.06248C16.6167 5.87081 16.3583 6.54164 15.825 7.07497L12.375 10.525C12.2583 10.6416 12.125 10.7 11.975 10.7C11.825 10.7 11.6833 10.6333 11.55 10.5ZM15.5 14.475C15.3833 14.3583 15.325 14.2166 15.325 14.05C15.325 13.8833 15.3833 13.7416 15.5 13.625L16.25 12.875C16.8333 12.2916 17.5333 11.9916 18.35 11.975C19.1667 11.9583 19.8667 12.2416 20.45 12.825L21.325 13.7C21.4417 13.8166 21.5 13.95 21.5 14.1C21.5 14.25 21.4333 14.3916 21.3 14.525C21.1833 14.6416 21.0417 14.7 20.875 14.7C20.7083 14.7 20.5667 14.6416 20.45 14.525L19.575 13.65C19.1917 13.2666 18.7917 13.075 18.375 13.075C17.9583 13.075 17.5583 13.2666 17.175 13.65L16.325 14.5C16.2083 14.6166 16.075 14.675 15.925 14.675C15.775 14.675 15.6333 14.6083 15.5 14.475Z"
    fill="black" />
</svg>