<?xml version="1.0" encoding="UTF-8"?>
<svg width="24" height="24" viewBox="0 0 24 24" fill="none" xmlns="http://www.w3.org/2000/svg">
<path fill-rule="evenodd" clip-rule="evenodd" d="M7.04963 20.1364C6.67838 20.1364 6.36057 19.9962 6.09619 19.7158C5.83182 19.4354 5.69963 19.0983 5.69963 18.7045V7.48864C5.69963 7.02926 5.85384 6.636 6.16227 6.30887C6.47072 5.98174 6.84151 5.81818 7.27463 5.81818H9.29963V2.71591C9.29963 2.49318 9.39213 2.31818 9.57712 2.19091C9.76213 2.06364 9.96964 2 10.1996 2H13.7996C14.0296 2 14.2371 2.06364 14.4221 2.19091C14.6071 2.31818 14.6996 2.49318 14.6996 2.71591V5.81818H14.913L12 7.5L14.4746 11.7862V17.2727H15.3746V13.345L16 14.4282L18.2996 13.1005V18.7045C18.2996 19.0983 18.1674 19.4354 17.9031 19.7158C17.6387 19.9962 17.3209 20.1364 16.9496 20.1364C16.9496 20.4068 16.8634 20.6335 16.6909 20.8165C16.6177 20.8941 16.537 20.9553 16.4489 21H20V22H4V21H7.55033C7.46225 20.9553 7.3816 20.8941 7.30838 20.8165C7.13588 20.6335 7.04963 20.4068 7.04963 20.1364ZM15.4084 20.8165C15.4816 20.8941 15.5622 20.9553 15.6503 21H8.34893C8.43701 20.9553 8.51766 20.8941 8.59088 20.8165C8.76338 20.6335 8.84963 20.4068 8.84963 20.1364H15.1496C15.1496 20.4068 15.2359 20.6335 15.4084 20.8165ZM10.1996 5.81818H13.7996V2.95455H10.1996V5.81818ZM8.62463 17.2727H9.52463V8.68182H8.62463V17.2727ZM11.5496 17.2727H12.4496V8.68182H11.5496V17.2727Z" fill="#001833"/>
<path d="M18.2996 8.41128V7.25C18.2996 6.85625 18.1674 6.51918 17.9031 6.23878C17.6387 5.95838 17.3209 5.81818 16.9496 5.81818H16.8025L18.2996 8.41128Z" fill="#001833"/>
<path fill-rule="evenodd" clip-rule="evenodd" d="M15.9641 6.36603L13.366 7.86603L16.366 13.0622L18.9641 11.5622L15.9641 6.36603ZM12 7.5L14 10.9641L16 14.4282L18.1651 13.1782L20.3301 11.9282L16.3301 5L12 7.5Z" fill="#001833"/>
</svg>
