<svg width="24" height="24" viewBox="0 0 24 24" fill="none" xmlns="http://www.w3.org/2000/svg">
<path d="M4 23V21H20V23H4ZM4 3V1H20V3H4ZM12 13C12.8333 13 13.5417 12.7083 14.125 12.125C14.7083 11.5417 15 10.8333 15 10C15 9.16667 14.7083 8.45833 14.125 7.875C13.5417 7.29167 12.8333 7 12 7C11.1667 7 10.4583 7.29167 9.875 7.875C9.29167 8.45833 9 9.16667 9 10C9 10.8333 9.29167 11.5417 9.875 12.125C10.4583 12.7083 11.1667 13 12 13ZM4 20C3.45 20 2.97917 19.8042 2.5875 19.4125C2.19583 19.0208 2 18.55 2 18V6C2 5.45 2.19583 4.97917 2.5875 4.5875C2.97917 4.19583 3.45 4 4 4H20C20.55 4 21.0208 4.19583 21.4125 4.5875C21.8042 4.97917 22 5.45 22 6V18C22 18.55 21.8042 19.0208 21.4125 19.4125C21.0208 19.8042 20.55 20 20 20H4ZM5.75 18H18.25C17.5 17.0667 16.5917 16.3333 15.525 15.8C14.4583 15.2667 13.2833 15 12 15C10.7167 15 9.54167 15.2667 8.475 15.8C7.40833 16.3333 6.5 17.0667 5.75 18Z" fill="#001833"/>
</svg>
