<?xml version="1.0" encoding="UTF-8"?>
<svg width="24px" height="24px" viewBox="0 0 24 24" version="1.1" xmlns="http://www.w3.org/2000/svg" xmlns:xlink="http://www.w3.org/1999/xlink">
    <title>convenienceStore</title>
    <g id="convenienceStore" stroke="none" stroke-width="1" fill="none" fill-rule="evenodd">
        <polygon id="Path" points="0 0 24 0 24 24 0 24"></polygon>
        <path d="M19,7 L19,4 L5,4 L5,7 L2,7 L2,20 L10,20 L10,16 L14,16 L14,20 L22,20 L22,7 L19,7 Z M11,10 L9,10 L9,11 L11,11 L11,12 L8,12 L8,9 L10,9 L10,8 L8,8 L8,7 L11,7 L11,10 Z M16,12 L15,12 L15,10 L13,10 L13,7 L14,7 L14,9 L15,9 L15,7 L16,7 L16,12 Z" id="shape" fill="#001833"></path>
    </g>
</svg>