<?xml version="1.0" encoding="UTF-8"?>
<svg width="24px" height="24px" viewBox="0 0 24 24" version="1.1" xmlns="http://www.w3.org/2000/svg" xmlns:xlink="http://www.w3.org/1999/xlink">
    <title>copy</title>
    <g stroke="none" stroke-width="1" fill="none" fill-rule="evenodd">
        
        <path d="M20,21 L9,21 L9,7 L20,7 M20,5 L9,5 C7.8954305,5 7,5.8954305 7,7 L7,21 C7,22.1045695 7.8954305,23 9,23 L20,23 C21.1045695,23 22,22.1045695 22,21 L22,7 C22,5.8954305 21.1045695,5 20,5 M17,1 L5,1 C3.8954305,1 3,1.8954305 3,3 L3,17 L5,17 L5,3 L17,3 L17,1 Z"  fill="#001833"></path>
    </g>
</svg>