<svg width="24" height="24" viewBox="0 0 24 24" fill="none" xmlns="http://www.w3.org/2000/svg">
<path fill-rule="evenodd" clip-rule="evenodd" d="M12.0199 1.5C12.2654 1.5 12.4696 1.67688 12.5119 1.91012L12.5199 2L12.5198 3.44H14.7699C14.9019 3.44 15.0271 3.49206 15.1196 3.58256L15.1824 3.65743L16.7858 5.999L19.2099 6C19.4692 6 19.6803 6.19672 19.7071 6.44571L19.709 6.53044L19.4548 10.697L22.1907 11.5002C22.4439 11.5745 22.591 11.8297 22.5401 12.0791L22.5157 12.1618L19.0786 20.9709C19.2161 21.0682 19.3438 21.1 19.5199 21.1C19.8195 21.1 19.9771 21.0083 20.2816 20.6574L20.3926 20.5262C20.9436 19.8624 21.3081 19.6 22.0199 19.6C22.2961 19.6 22.5199 19.8239 22.5199 20.1C22.5199 20.3761 22.2961 20.6 22.0199 20.6C21.7262 20.6 21.5709 20.6906 21.2687 21.039L21.1584 21.1693C20.6051 21.836 20.2376 22.1 19.5199 22.1C18.8582 22.1 18.4936 21.8757 18.0032 21.3174L17.874 21.1664C17.4943 20.7126 17.3371 20.6 17.0099 20.6C16.7146 20.6 16.5582 20.6913 16.2521 21.043L16.1441 21.1701C15.5877 21.8377 15.2234 22.1 14.5099 22.1C13.8513 22.1 13.4903 21.8765 13.0011 21.317L12.8758 21.1701C12.4947 20.7127 12.3381 20.6 12.0099 20.6C11.7146 20.6 11.5582 20.6913 11.2521 21.043L11.1441 21.1701C10.5877 21.8377 10.2234 22.1 9.50994 22.1C8.8517 22.1 8.48848 21.8758 7.99818 21.3175L7.87271 21.1708C7.48946 20.7128 7.33253 20.6 7.00994 20.6C6.72031 20.6 6.5657 20.6907 6.2637 21.039L6.15343 21.1693C5.59997 21.8362 5.23382 22.1 4.51994 22.1C3.86134 22.1 3.50032 21.8765 3.01106 21.317L2.88583 21.1701C2.50471 20.7127 2.34812 20.6 2.01994 20.6C1.7438 20.6 1.51994 20.3761 1.51994 20.1C1.51994 19.8239 1.7438 19.6 2.01994 19.6C2.67855 19.6 3.03957 19.8235 3.52882 20.383L3.65405 20.5299C4.03518 20.9873 4.19177 21.1 4.51994 21.1C4.70172 21.1 4.8311 21.0652 4.97465 20.9567L1.53433 12.1622C1.43809 11.9163 1.55015 11.6437 1.77877 11.5315L1.85917 11.5002L4.58576 10.7L4.34081 6.52936C4.3256 6.27089 4.50904 6.04888 4.7556 6.00707L4.83994 6L7.26276 5.999L8.86745 3.65743C8.94202 3.54856 9.05571 3.47473 9.18266 3.44955L9.27994 3.44H11.5198L11.5199 2C11.5199 1.72386 11.7438 1.5 12.0199 1.5ZM12.5279 9.708L21.3859 12.306L18.3175 20.1648C17.921 19.7649 17.5745 19.6 17.0099 19.6C16.3513 19.6 15.9903 19.8235 15.5011 20.383L15.2678 20.657C14.9617 21.0087 14.8053 21.1 14.5099 21.1C14.2146 21.1 14.0582 21.0087 13.752 20.657L13.5188 20.383C13.1724 19.9868 12.8903 19.7591 12.5213 19.66L12.5279 9.708ZM11.5289 9.705L11.5195 19.6545C11.1402 19.7506 10.854 19.9794 10.5011 20.383L10.2678 20.657C9.96167 21.0087 9.8053 21.1 9.50994 21.1C9.21386 21.1 9.0553 21.0075 8.748 20.6561L8.51097 20.3786C8.06369 19.8691 7.72372 19.6394 7.1673 19.6047L7.05194 19.6L6.98685 19.5908C6.65288 19.5562 6.31736 19.664 5.97285 19.8998L5.82462 20.0087L5.71394 20.099L2.66394 12.305L11.5289 9.705ZM14.5059 4.44L15.5738 5.999H8.47475L9.54294 4.44H14.5059ZM18.47 10.408L18.678 7H5.37L5.571 10.411L11.8792 8.56023L12.03 8.54L12.1708 8.56023L18.47 10.408Z" fill="#001833"/>
</svg>
