<svg width="24" height="24" viewBox="0 0 24 24" fill="none" xmlns="http://www.w3.org/2000/svg">
<g clip-path="url(#clip0_13_5754)">
<path d="M12.8091 11.1818C11.1909 10.6455 10.4091 10.3091 10.4091 9.45455C10.4091 8.52727 11.4182 8.19091 12.0545 8.19091C13.2455 8.19091 13.6818 9.09091 13.7818 9.40909L15.2182 8.8C15.0818 8.39091 14.4727 7.05455 12.9091 6.76364V5.63636H11.0909V6.78182C8.83636 7.29091 8.82727 9.38182 8.82727 9.47273C8.82727 11.5364 10.8727 12.1182 11.8727 12.4818C13.3091 12.9909 13.9455 13.4545 13.9455 14.3273C13.9455 15.3545 12.9909 15.7909 12.1455 15.7909C10.4909 15.7909 10.0182 14.0909 9.96364 13.8909L8.45455 14.5C9.02727 16.4909 10.5273 17.0273 11.0909 17.1909V18.3636H12.9091V17.2364C13.2727 17.1545 15.5455 16.7 15.5455 14.3091C15.5455 13.0455 14.9909 11.9364 12.8091 11.1818ZM3.81818 20.1818H2V14.7273H7.45455V16.5455H5.2C6.66364 18.7364 9.16364 20.1818 12 20.1818C16.5182 20.1818 20.1818 16.5182 20.1818 12H22C22 17.5273 17.5273 22 12 22C8.61818 22 5.62727 20.3182 3.81818 17.7545V20.1818ZM2 12C2 6.47273 6.47273 2 12 2C15.3818 2 18.3727 3.68182 20.1818 6.24545V3.81818H22V9.27273H16.5455V7.45455H18.8C17.3364 5.26364 14.8364 3.81818 12 3.81818C7.48182 3.81818 3.81818 7.48182 3.81818 12H2Z" fill="black"/>
</g>
<defs>
<clipPath id="clip0_13_5754">
<rect width="24" height="24" fill="white"/>
</clipPath>
</defs>
</svg>
