<svg width="24" height="24" viewBox="0 0 24 24" fill="none" xmlns="http://www.w3.org/2000/svg">
<path d="M12 10.6V7C12 6.71667 11.9042 6.47917 11.7125 6.2875C11.5208 6.09583 11.2833 6 11 6C10.7167 6 10.4792 6.09583 10.2875 6.2875C10.0958 6.47917 10 6.71667 10 7V11C10 11.1333 10.025 11.2583 10.075 11.375C10.125 11.4917 10.2 11.6 10.3 11.7L12.3 13.7C12.5 13.9 12.7333 14 13 14C13.2667 14 13.5 13.9 13.7 13.7C13.9 13.5 14 13.2667 14 13C14 12.7333 13.9 12.5 13.7 12.3L12 10.6ZM9.075 19.8C7.04167 19.3667 5.35417 18.3333 4.0125 16.7C2.67083 15.0667 2 13.1667 2 11C2 8.5 2.875 6.375 4.625 4.625C6.375 2.875 8.5 2 11 2C13.5 2 15.625 2.875 17.375 4.625C19.125 6.375 20 8.5 20 11C20 11.7167 19.9167 12.4125 19.75 13.0875C19.5833 13.7625 19.35 14.4 19.05 15H12.95C11.85 15 10.9167 15.3917 10.15 16.175C9.38333 16.9583 9 17.9 9 19C9 19.1333 9.00417 19.2667 9.0125 19.4C9.02083 19.5333 9.04167 19.6667 9.075 19.8ZM13 21H19C19.55 21 20.0208 20.8042 20.4125 20.4125C20.8042 20.0208 21 19.55 21 19C21 18.45 20.8042 17.9792 20.4125 17.5875C20.0208 17.1958 19.55 17 19 17H13C12.45 17 11.9792 17.1958 11.5875 17.5875C11.1958 17.9792 11 18.45 11 19C11 19.55 11.1958 20.0208 11.5875 20.4125C11.9792 20.8042 12.45 21 13 21ZM13 20C12.7167 20 12.4792 19.9042 12.2875 19.7125C12.0958 19.5208 12 19.2833 12 19C12 18.7167 12.0958 18.4792 12.2875 18.2875C12.4792 18.0958 12.7167 18 13 18C13.2833 18 13.5208 18.0958 13.7125 18.2875C13.9042 18.4792 14 18.7167 14 19C14 19.2833 13.9042 19.5208 13.7125 19.7125C13.5208 19.9042 13.2833 20 13 20ZM16 20C15.7167 20 15.4792 19.9042 15.2875 19.7125C15.0958 19.5208 15 19.2833 15 19C15 18.7167 15.0958 18.4792 15.2875 18.2875C15.4792 18.0958 15.7167 18 16 18C16.2833 18 16.5208 18.0958 16.7125 18.2875C16.9042 18.4792 17 18.7167 17 19C17 19.2833 16.9042 19.5208 16.7125 19.7125C16.5208 19.9042 16.2833 20 16 20ZM19 20C18.7167 20 18.4792 19.9042 18.2875 19.7125C18.0958 19.5208 18 19.2833 18 19C18 18.7167 18.0958 18.4792 18.2875 18.2875C18.4792 18.0958 18.7167 18 19 18C19.2833 18 19.5208 18.0958 19.7125 18.2875C19.9042 18.4792 20 18.7167 20 19C20 19.2833 19.9042 19.5208 19.7125 19.7125C19.5208 19.9042 19.2833 20 19 20Z" fill="#001833"/>
</svg>
