<svg xmlns="http://www.w3.org/2000/svg" x="0px" y="0px"
     width="24" height="24"
     viewBox="0 0 24 24">
    <path d="M9.0664,3.6 C9.0664,4.484 8.3504,5.2 7.4664,5.2 C6.5824,5.2 5.8664,4.484 5.8664,3.6 C5.8664,2.716 6.5824,2 7.4664,2 C8.3504,2 9.0664,2.716 9.0664,3.6 Z M9.2,5.9336 L9.1992,5.9336 C10.1992,5.9336 11.0664,6.8 11.1328,7.8 L11.1328,12.3336 L9.4664,13.9336 C9.4664,14.0008 9.4664,14.0008 9.4664,14.0672 L9.4664,20.7336 C9.4664,21.4 8.9328,22 8.2664,22 L6.8,22 C6.1328,22 5.6,21.4 5.6664,20.7336 L5.6664,14.0672 C5.6664,14 5.6664,14 5.6664,13.9336 L4,12.3336 L4,7.8 C4,6.8 4.8,5.9336 5.8,5.9336 L9.2,5.9336 Z M17.488887,3.6 C17.488887,4.484 16.772887,5.2 15.888887,5.2 C15.004887,5.2 14.288887,4.484 14.288887,3.6 C14.288887,2.716 15.004887,2 15.888887,2 C16.772887,2 17.488887,2.716 17.488887,3.6 Z M17.6886243,5.9336 C18.6886243,5.9336 19.4886243,6.8 19.5550243,7.8 L19.5550243,12.3336 L17.8886243,13.9336 C17.8886243,14.0008 17.8886243,14.0008 17.8886243,14.0672 L17.8886243,20.7336 C17.8886243,21.4 17.3550243,22 16.6886243,22 L15.2222243,22 C14.5550243,22 14.0886243,21.4 14.0886243,20.7336 L14.0886243,14.0672 C14.0886243,14 14.0886243,14 14.0886243,13.9336 L12.4222243,12.3336 L12.4222243,7.8 C12.4222243,6.8 13.2222243,5.9336 14.2222243,5.9336 L17.6886243,5.9336 Z" ></path>
</svg>