<?xml version="1.0" encoding="UTF-8"?>
<svg width="24px" height="24px" viewBox="0 0 24 24" version="1.1" xmlns="http://www.w3.org/2000/svg" xmlns:xlink="http://www.w3.org/1999/xlink">
    <title>DoubleBed</title>
    <g stroke="none" stroke-width="1" fill="none" fill-rule="evenodd">
        <path d="M19,10.78 L19,8 C19,6.35 17.65,5 16,5 L14,5 C13.23,5 12.53,5.3 12,5.78 C11.47,5.3 10.77,5 10,5 L8,5 C6.35,5 5,6.35 5,8 L5,10.78 C4.39,11.33 4,12.12 4,13 L4,18 C4,18.55 4.45,19 5,19 C5.55,19 6,18.55 6,18 L6,17 L18,17 L18,18 C18,18.55 18.45,19 19,19 C19.55,19 20,18.55 20,18 L20,13 C20,12.12 19.61,11.33 19,10.78 Z M14,7 L16,7 C16.55,7 17,7.45 17,8 L17,10 L13,10 L13,8 C13,7.45 13.45,7 14,7 Z M7,8 C7,7.45 7.45,7 8,7 L10,7 C10.55,7 11,7.45 11,8 L11,10 L7,10 L7,8 Z M6,15 L6,13 C6,12.45 6.45,12 7,12 L17,12 C17.55,12 18,12.45 18,13 L18,15 L6,15 Z" fill="#001833"></path>
    </g>
</svg>