<?xml version="1.0" encoding="UTF-8"?>
<svg width="24px" height="24px" viewBox="0 0 24 24" version="1.1" xmlns="http://www.w3.org/2000/svg" xmlns:xlink="http://www.w3.org/1999/xlink">
    <title>downloadAlt</title>
    <g id="downloadAlt" stroke="none" stroke-width="1" fill="none" fill-rule="evenodd">
        
        <path d="M19,3 L4.99,3 C3.88,3 3.01,3.9 3.01,5 L3,19 C3,20.1 3.88,21 4.99,21 L19,21 C20.1,21 21,20.1 21,19 L21,5 C21,3.9 20.1,3 19,3 Z M19,15 L15,15 C15,16.66 13.65,18 12,18 C10.35,18 9,16.66 9,15 L4.99,15 L4.99,5 L19,5 L19,15 Z M16,10 L14,10 L14,7 L10,7 L10,10 L8,10 L12,14 L16,10 Z" id="shape" fill="#001833"></path>
    </g>
</svg>