<?xml version="1.0" encoding="utf-8"?>
<!-- Generator: Adobe Illustrator 21.1.0, SVG Export Plug-In . SVG Version: 6.00 Build 0)  -->
<svg version="1.1"  xmlns="http://www.w3.org/2000/svg" xmlns:xlink="http://www.w3.org/1999/xlink" x="0px" y="0px"
	 viewBox="0 0 24 24" style="enable-background:new 0 0 24 24;" xml:space="preserve">
<style type="text/css">
	.st0{fill:#001833;}
</style>
<path class="st0" d="M12,2C6.5,2,2,6.5,2,12s4.5,10,10,10s10-4.5,10-10S17.5,2,12,2z M12,20c-4.4,0-8-3.6-8-8s3.6-8,8-8s8,3.6,8,8
	S16.4,20,12,20z M15.5,11c0.8,0,1.5-0.7,1.5-1.5S16.3,8,15.5,8S14,8.7,14,9.5S14.7,11,15.5,11z M8.5,11c0.8,0,1.5-0.7,1.5-1.5
	S9.3,8,8.5,8S7,8.7,7,9.5S7.7,11,8.5,11z M12,17.5c2.3,0,4.3-1.5,5.1-3.5H6.9C7.7,16,9.7,17.5,12,17.5z"/>
</svg>
