<svg width="24" height="24" viewBox="0 0 24 24" fill="none" xmlns="http://www.w3.org/2000/svg">
<g clip-path="url(#clip0_10_458)">
<path fill-rule="evenodd" clip-rule="evenodd" d="M7.73284 0.162068L7.86888 0.204384L9.57934 0.827739L9.45837 1.63565C9.3616 2.28202 9.73436 2.91661 10.3574 3.14337C10.9389 3.35501 11.5817 3.15437 11.9424 2.67353L12.0152 2.56625L12.4418 1.86961L14.1528 2.49154C14.3596 2.56683 14.5395 2.68349 14.6863 2.82878L14.7651 2.7808C15.2939 2.49095 15.9605 2.54366 16.4394 2.93901L16.5464 3.03632L18.4966 4.98719L18.1919 5.62512C17.8541 6.33254 17.9933 7.18529 18.557 7.74896C19.0831 8.27506 19.861 8.43142 20.5376 8.17527L20.6809 8.11405L21.3188 7.80942L23.2698 9.7597C23.8211 10.311 23.8536 11.1848 23.3671 11.774L23.2698 11.881L11.8177 23.3331C11.2664 23.8844 10.3927 23.9169 9.80331 23.4303L9.69628 23.333L7.74606 21.3822L8.05073 20.7442C8.38857 20.0368 8.24935 19.184 7.68566 18.6203C7.15955 18.0942 6.38162 17.9379 5.70506 18.194L5.56177 18.2553L4.92381 18.5599L3.29963 16.9365L1.95705 16.447C1.23528 16.1843 0.842576 15.4178 1.03157 14.6891L1.07389 14.5531L5.97495 1.08754C6.23765 0.365778 7.00422 -0.0269313 7.73284 0.162068ZM15.1321 3.7433L3.67999 15.1954C3.50642 15.3689 3.48714 15.6384 3.62213 15.8332L3.67999 15.9025L5.13083 17.3529C6.19607 16.8442 7.51048 17.0309 8.39276 17.9132C9.22861 18.7491 9.44024 19.9727 9.02765 21.005L8.9531 21.1752L10.4035 22.626C10.5771 22.7996 10.8465 22.8188 11.0414 22.6838L11.1106 22.626L20.5921 13.1445C20.3834 13.3532 20.045 13.3532 19.8363 13.1445L19.241 12.5492C19.0324 12.3406 19.0324 12.0022 19.241 11.7935C19.4497 11.5848 19.7881 11.5848 19.9968 11.7935L20.5921 12.3888C20.8007 12.5975 20.8007 12.9358 20.5921 13.1445L22.5627 11.1739C22.7363 11.0003 22.7555 10.7309 22.6205 10.5361L22.5627 10.4668L21.1118 9.01644C20.0465 9.52513 18.7322 9.33833 17.8499 8.45607C17.0141 7.62024 16.8024 6.39659 17.215 5.36437L17.2895 5.1942L15.8392 3.7433C15.6439 3.54803 15.3273 3.54803 15.1321 3.7433ZM11.7229 9.79129C12.2743 9.23997 13.148 9.20753 13.7372 9.694L13.8442 9.79129L16.5147 12.4617C17.066 13.0131 17.0984 13.8868 16.612 14.4761L16.5147 14.5831L12.4932 18.6045C11.9419 19.1559 11.0682 19.1883 10.4789 18.7018L10.3719 18.6045L7.70146 15.9341C7.15013 15.3828 7.1177 14.509 7.60416 13.9198L7.70146 13.8128L11.7229 9.79129ZM17.2145 9.76698C17.4232 9.55829 17.7615 9.55829 17.9702 9.76698L18.5655 10.3623C18.7742 10.571 18.7742 10.9093 18.5655 11.118C18.3568 11.3267 18.0185 11.3267 17.8098 11.118L17.2145 10.5227C17.0058 10.314 17.0058 9.97567 17.2145 9.76698ZM12.43 10.4984L8.40856 14.5199C8.235 14.6934 8.21571 14.9629 8.35071 15.1577L8.40856 15.227L11.079 17.8974C11.2526 18.071 11.522 18.0903 11.7169 17.9553L11.7861 17.8974L15.8076 13.876C15.9811 13.7024 16.0004 13.433 15.8654 13.2381L15.8076 13.1688L13.1371 10.4984C12.9636 10.3248 12.6941 10.3055 12.4993 10.4405L12.43 10.4984ZM15.188 7.74045C15.3967 7.53176 15.735 7.53176 15.9437 7.74045L16.539 8.33574C16.7477 8.54443 16.7477 8.88278 16.539 9.09147C16.3303 9.30016 15.992 9.30016 15.7833 9.09147L15.188 8.49618C14.9793 8.28749 14.9793 7.94914 15.188 7.74045ZM13.1614 5.71392C13.3701 5.50523 13.7085 5.50523 13.9172 5.71392L14.5125 6.30921C14.7212 6.5179 14.7212 6.85625 14.5125 7.06494C14.3038 7.27363 13.9654 7.27363 13.7567 7.06494L13.1614 6.46965C12.9528 6.26096 12.9528 5.92261 13.1614 5.71392ZM6.95124 1.35151L6.91464 1.42956L5.93595 4.11452C6.07379 3.93254 6.31896 3.85307 6.54471 3.93524L7.33581 4.22317C7.61315 4.32411 7.75614 4.63076 7.6552 4.9081C7.55426 5.18543 7.24761 5.32842 6.97028 5.22748L6.17918 4.93954C5.95406 4.85761 5.81746 4.64013 5.82799 4.41281L2.01358 14.8951C1.93338 15.1155 2.02546 15.3565 2.22102 15.4707L2.29907 15.5073L2.53418 15.5927C2.52227 15.2491 2.63267 14.8956 2.86557 14.6075L2.97288 14.4883L5.51694 11.944L6.91572 8.10272C7.18239 7.37005 7.96055 6.9714 8.70019 7.16326L8.83829 7.20621L9.87697 7.58397L13.9503 3.51054L13.8848 3.46553L13.8108 3.43124L12.868 3.08852C12.2871 4.03698 11.101 4.4782 10.0154 4.08306C8.98687 3.70873 8.37178 2.70139 8.44991 1.66115L8.4694 1.48757L7.52686 1.14408C7.30651 1.06388 7.06546 1.15595 6.95124 1.35151ZM7.89372 8.36304L7.85541 8.44474L7.18996 10.271L9.09632 8.36462L8.49627 8.14591C8.26561 8.06196 8.01328 8.15834 7.89372 8.36304ZM9.23782 4.91545L10.0289 5.20339C10.3063 5.30433 10.4492 5.61098 10.3483 5.88831C10.2474 6.16564 9.94072 6.30863 9.66339 6.20769L8.87229 5.91975C8.59495 5.81881 8.45196 5.51216 8.5529 5.23483C8.65384 4.9575 8.96049 4.81451 9.23782 4.91545Z" fill="#001833"/>
</g>
<defs>
<clipPath id="clip0_10_458">
<rect width="24" height="24" fill="white"/>
</clipPath>
</defs>
</svg>
