<?xml version="1.0" encoding="UTF-8"?>
<svg width="24px" height="24px" viewBox="0 0 24 24" version="1.1" xmlns="http://www.w3.org/2000/svg" xmlns:xlink="http://www.w3.org/1999/xlink">
    <title>ExperienceTicket</title>
    <g stroke="none" stroke-width="1" fill="none" fill-rule="evenodd">
        <path d="M7.73287659,0.162072016 L7.8689162,0.204387964 L9.57936878,0.827743288 L9.4584064,1.63564941 C9.3616295,2.28202102 9.73439,2.91661688 10.3574033,3.14337518 C10.9388824,3.35501626 11.5817296,3.15437691 11.9423838,2.67353299 L12.0152223,2.5662543 L12.4418718,1.86960918 L14.1528396,2.49154903 C14.3596778,2.56683198 14.5394926,2.68349526 14.6863379,2.8287872 L14.7651222,2.78079984 C15.2939764,2.49095019 15.9605613,2.54366753 16.4394232,2.93901113 L16.5464492,3.03632642 L18.4965895,4.98719782 L18.1919611,5.62512322 C17.854145,6.33254743 17.9933725,7.18529102 18.5570498,7.74896824 C19.0831485,8.27506698 19.8610562,8.43142286 20.5376011,8.17527511 L20.6808948,8.11405689 L21.3188202,7.80942855 L23.2698241,9.7597013 C23.8211525,10.3110297 23.8535836,11.1847596 23.3671174,11.7740176 L23.2698241,11.8810216 L11.8177441,23.3331017 C11.2664156,23.8844301 10.3926858,23.9168612 9.80333778,23.430305 L9.69631577,23.3329938 L7.74609301,21.3821755 L8.05075824,20.7442166 C8.38860085,20.0367854 8.24938064,19.1840171 7.68569079,18.6203272 C7.15958027,18.0942167 6.38165024,17.9378664 5.70509673,18.1940365 L5.56180137,18.2552598 L4.9238425,18.559925 L3.29966074,16.9365513 L1.95707919,16.4470267 C1.23531746,16.1843269 0.842608431,15.4177551 1.03160774,14.6891332 L1.07392369,14.5530936 L5.97498312,1.08754346 C6.2376829,0.365781736 7.00425464,-0.0269272918 7.73287659,0.162072016 Z" id="Path" fill="#0068EF"></path>
        <path d="M6.95127306,1.35151404 C7.06548941,1.15595818 7.30654589,1.06387968 7.52689605,1.14408058 L7.52689605,1.14408058 L8.46942994,1.48757657 L8.44994167,1.66115123 C8.3718123,2.70138909 8.98690532,3.70873248 10.0153832,4.0830678 C11.1009987,4.47819953 12.2871355,4.03698009 12.8680016,3.08852574 L12.8680016,3.08852574 L13.8108194,3.43124165 L13.8848789,3.46553433 L13.9502998,3.51054766 L9.87699783,7.58397426 L8.83832088,7.20621814 L8.70022436,7.16326238 C7.96058573,6.97140543 7.18242351,7.37005217 6.91575173,8.10272686 L6.91575173,8.10272686 L5.51697742,11.9439947 L2.97291631,14.488274 L2.86560189,14.6075304 C2.63270225,14.8956459 2.52229858,15.2491294 2.53421056,15.5926806 L2.53421056,15.5926806 L2.29909933,15.507334 L2.22104976,15.4707367 C2.02549391,15.3565204 1.93341541,15.1154639 2.01361631,14.8951137 L2.01361631,14.8951137 L5.82801986,4.41281508 C5.81748882,4.64013188 5.95409086,4.85761083 6.17920882,4.93954706 L6.17920882,4.93954706 L6.9703088,5.22748391 C7.24764044,5.32842437 7.55429057,5.18543107 7.65523103,4.90809943 C7.75617149,4.63076779 7.61317819,4.32411767 7.33584655,4.22317721 L7.33584655,4.22317721 L6.54474657,3.93524036 C6.31899594,3.85307385 6.07381853,3.93254071 5.93598204,4.11452821 L5.93598204,4.11452821 L6.91467574,1.42956361 Z M9.23785659,4.91545225 C8.96052495,4.81451179 8.65387483,4.95750509 8.55293437,5.23483673 C8.45199391,5.51216836 8.59498721,5.81881849 8.87231885,5.91975895 L8.87231885,5.91975895 L9.66341883,6.2076958 C9.94075046,6.30863626 10.2474006,6.16564296 10.3483411,5.88831132 C10.4492815,5.61097968 10.3062882,5.30432956 10.0289566,5.20338909 L10.0289566,5.20338909 Z" id="Combined-Shape" fill="#E8F2FF"></path>
        <path d="M13.7372711,9.69400445 L13.8442752,9.7912977 L16.5147203,12.4617428 C17.0660487,13.0130712 17.0984798,13.8868011 16.6120136,14.4760591 L16.5147203,14.5830632 L12.4932544,18.604529 C11.941926,19.1558575 11.0681961,19.1882885 10.4789381,18.7018223 L10.3719341,18.604529 L7.70148897,15.9340839 C7.15016056,15.3827555 7.11772947,14.5090256 7.60419572,13.9197676 L7.70148897,13.8127636 L11.7229549,9.7912977 C12.2742833,9.23996928 13.1480131,9.2075382 13.7372711,9.69400445 Z M12.5042672,10.4656979 L12.4350193,10.5235534 L8.41355339,14.5450193 C8.23998704,14.7185856 8.22070189,14.98801 8.35569794,15.1828782 L8.41355339,15.2521261 L11.0839985,17.9225712 C11.2575649,18.0961375 11.5269893,18.1154227 11.7218574,17.9804266 L11.7911053,17.9225712 L15.8125712,13.9011053 C15.9861375,13.7275389 16.0054227,13.4581145 15.8704266,13.2632464 L15.8125712,13.1939985 L13.1421261,10.5235534 C12.9685597,10.349987 12.6991353,10.3307019 12.5042672,10.4656979 Z M19.9702694,11.7669871 L20.5655621,12.3622798 C20.7742506,12.5709683 20.7742506,12.9093193 20.5655621,13.1180078 C20.3568736,13.3266964 20.0185226,13.3266964 19.809834,13.1180078 L19.2145413,12.5227151 C19.0058528,12.3140266 19.0058528,11.9756756 19.2145413,11.7669871 C19.4232299,11.5582985 19.7615809,11.5582985 19.9702694,11.7669871 Z M17.9702694,9.76698706 L18.5655621,10.3622798 C18.7742506,10.5709683 18.7742506,10.9093193 18.5655621,11.1180078 C18.3568736,11.3266964 18.0185226,11.3266964 17.809834,11.1180078 L17.2145413,10.5227151 C17.0058528,10.3140266 17.0058528,9.9756756 17.2145413,9.76698706 C17.4232299,9.55829852 17.7615809,9.55829852 17.9702694,9.76698706 Z M8.49325798,8.16578383 L9.09578542,8.3851829 L7.1851829,10.2957854 L7.85240159,8.46462007 C7.94684785,8.20513112 8.23376902,8.07133758 8.49325798,8.16578383 Z M15.9437383,7.74045592 L16.539031,8.33574862 C16.7477195,8.54443716 16.7477195,8.88278814 16.539031,9.09147668 C16.3303424,9.30016522 15.9919914,9.30016522 15.7833029,9.09147668 L15.1880102,8.49618397 C14.9793217,8.28749543 14.9793217,7.94914446 15.1880102,7.74045592 C15.3966987,7.53176738 15.7350497,7.53176738 15.9437383,7.74045592 Z M13.9172071,5.71392478 L14.5124998,6.30921748 C14.7211884,6.51790602 14.7211884,6.856257 14.5124998,7.06494554 C14.3038113,7.27363408 13.9654603,7.27363408 13.7567718,7.06494554 L13.1614791,6.46965283 C12.9527905,6.26096429 12.9527905,5.92261332 13.1614791,5.71392478 C13.3701676,5.50523623 13.7085186,5.50523623 13.9172071,5.71392478 Z" id="Shape" fill="#FFFFFF"></path>
    </g>
</svg>