<?xml version="1.0" encoding="UTF-8"?>
<svg width="24px" height="24px" viewBox="0 0 24 24" version="1.1" xmlns="http://www.w3.org/2000/svg" xmlns:xlink="http://www.w3.org/1999/xlink">
    <title>family</title>
    <g id="family" stroke="none" stroke-width="1" fill="none" fill-rule="evenodd">
        
        <path d="M16,4 C16,2.89 16.89,2 18,2 C19.11,2 20,2.89 20,4 C20,5.11 19.11,6 18,6 C16.89,6 16,5.11 16,4 Z M20,21 L20,16 L21.11,16 C21.79,16 22.27,15.33 22.06,14.68 L19.96,8.37 C19.68,7.55 18.92,7 18.06,7 L17.94,7 C17.08,7 16.31,7.55 16.04,8.37 L15.18,10.95 C16.26,11.55 17,12.68 17,14 L17,22 L19,22 C19.55,22 20,21.55 20,21 Z M12.5,11.5 C13.33,11.5 14,10.83 14,10 C14,9.17 13.33,8.5 12.5,8.5 C11.67,8.5 11,9.17 11,10 C11,10.83 11.67,11.5 12.5,11.5 Z M5.5,6 C6.61,6 7.5,5.11 7.5,4 C7.5,2.89 6.61,2 5.5,2 C4.39,2 3.5,2.89 3.5,4 C3.5,5.11 4.39,6 5.5,6 Z M7.5,21 L7.5,15 L8,15 C8.55,15 9,14.55 9,14 L9,9 C9,7.9 8.1,7 7,7 L4,7 C2.9,7 2,7.9 2,9 L2,14 C2,14.55 2.45,15 3,15 L3.5,15 L3.5,21 C3.5,21.55 3.95,22 4.5,22 L6.5,22 C7.05,22 7.5,21.55 7.5,21 Z M10,14 L10,17 C10,17.55 10.45,18 11,18 L11,18 L11,21 C11,21.55 11.45,22 12,22 L13,22 C13.55,22 14,21.55 14,21 L14,18 L14,18 C14.55,18 15,17.55 15,17 L15,14 C15,13.18 14.32,12.5 13.5,12.5 L11.5,12.5 C10.68,12.5 10,13.18 10,14" id="shape" fill="#001833"></path>
    </g>
</svg>