<?xml version="1.0" encoding="utf-8"?>
<!-- Generator: Adobe Illustrator 21.1.0, SVG Export Plug-In . SVG Version: 6.00 Build 0)  -->
<svg version="1.1"  xmlns="http://www.w3.org/2000/svg" xmlns:xlink="http://www.w3.org/1999/xlink" x="0px" y="0px"
	 viewBox="0 0 24 24" style="enable-background:new 0 0 24 24;" xml:space="preserve">
<style type="text/css">
	.st0{fill:#001833;}
</style>
<path class="st0" d="M20.6,14.9l1.4-1.4L20.6,12L17,15.6L8.4,7L12,3.4L10.6,2L9.1,3.4L7.7,2L5.6,4.1L4.1,2.7L2.7,4.1l1.4,1.4L2,7.7
	l1.4,1.4L2,10.6L3.4,12L7,8.4l8.6,8.6L12,20.6l1.4,1.4l1.4-1.4l1.4,1.4l2.1-2.1l1.4,1.4l1.4-1.4l-1.4-1.4l2.1-2.1L20.6,14.9z"/>
</svg>
