<svg width="48" height="36" viewBox="0 0 48 36" fill="none" xmlns="http://www.w3.org/2000/svg">
<path d="M0 0H48V36H0V0Z" fill="#283593"/>
<path fill-rule="evenodd" clip-rule="evenodd" d="M10.2 8.53562L10.9523 9L11.6722 7.81042L12.6 9.37035L11.2811 10.2H10.2V8.53562ZM9.02658 7.81133L10.2 8.53562V7.07323L10.9523 6.6L11.6722 7.81042L12.6 6.27734L11.1779 5.4H14.6127L13.2 6.27699L14.1216 7.81027L13.2 9.37002L14.5115 10.2H11.2811L10.2 10.88V10.2H5.22907L9.02658 7.81133ZM5.11999 5.4H0V10.2H5.22907L0 13.4891V16.2H1.7426L10.2 10.88V16.2H15V10.5091L23.9926 16.2H25.2V13.1571L20.5264 10.2H25.2V5.4H20.6334L25.2 2.56391V0H23.3113L15 5.15957V0H10.2V4.79675L2.42459 0H0V2.2397L5.11999 5.4ZM10.2 5.4V7.07323L9.02658 7.81133L5.11999 5.4H10.2ZM10.2 5.4V4.79675L11.1779 5.4H10.2ZM15 5.4H20.6334L16.7509 7.81117L15 6.70334V5.4ZM15 8.89857L14.8367 9L14.1216 7.81027L14.8367 6.6L15 6.70334V8.89857ZM15 8.89857L16.7509 7.81117L20.5264 10.2H15V8.89857ZM15 5.4H14.6127L15 5.15957V5.4ZM15 10.2H14.5115L15 10.5091V10.2ZM37.5564 11.3352L37.2 10.2L36.8436 11.3352L35.7564 10.9128L36.3996 11.9064L35.4 12.5148L36.558 12.618L36.3984 13.8L37.2 12.936L38.0016 13.8L37.842 12.618L39 12.5148L38.0004 11.9064L38.6436 10.9128L37.5564 11.3352ZM31.1994 17.4L31.5559 18.5352L32.6435 18.1128L32.0001 19.1064L33 19.7148L31.8416 19.818L32.0013 21L31.1994 20.136L30.3975 21L30.5584 19.818L29.4 19.7148L30.3999 19.1064L29.7565 18.1128L30.8441 18.5352L31.1994 17.4ZM13.3116 25.4812L12.6 23.4L11.8884 25.4823L9.714 24.7079L11.0004 26.5295L9 27.6449L11.3172 27.8341L10.998 30L12.6 28.4149L14.202 30L13.8828 27.8341L16.2 27.6449L14.1996 26.5284L15.486 24.7068L13.3116 25.4812ZM37.5564 28.7352L37.2 27.6L36.8436 28.7352L35.7564 28.3128L36.3996 29.3064L35.4 29.9148L36.558 30.018L36.3984 31.2L37.2 30.336L38.0016 31.2L37.842 30.018L39 29.9148L38.0004 29.3064L38.6436 28.3128L37.5564 28.7352ZM43.8 16.2L44.1564 17.3352L45.2436 16.9128L44.6004 17.9064L45.6 18.5148L44.442 18.618L44.6016 19.8L43.8 18.936L42.9984 19.8L43.158 18.618L42 18.5148L42.9996 17.9064L42.3564 16.9128L43.4436 17.3352L43.8 16.2ZM39.93 21.8496L39.6 21L39.27 21.8496L38.4 21.9168L39.0672 22.5084L38.8584 23.4L39.6 22.9164L40.3416 23.4L40.1328 22.5084L40.8 21.9168L39.93 21.8496Z" fill="white"/>
<path fill-rule="evenodd" clip-rule="evenodd" d="M24.3074 0L15 6H17.027L25.2 0.7308V0H24.3074ZM8.4 6L0 0.6V1.85877L6.44583 6H8.4ZM7.66267 10.2H9.6L0.70206 16.2H0V15.366L7.66267 10.2ZM25.2 15L18 10.2H19.947L25.2 13.7012V15ZM11.4534 0H13.7443V6.94286H25.2V9.25714H13.7443V16.2H11.4534V9.25714H0V6.94286H11.4534V0Z" fill="#E53935"/>
</svg>
