<svg width="48" height="36" viewBox="0 0 48 36" fill="none" xmlns="http://www.w3.org/2000/svg">
<path d="M-0.00195312 0H47.998V36H-0.00195312V0Z" fill="#ECEFF1"/>
<path fill-rule="evenodd" clip-rule="evenodd" d="M0 0H48V4.2H0V0ZM0 7.8H48V12H0V7.8ZM48 15.6H0V19.8H48V15.6ZM0 24H48V28.2H0V24ZM48 31.8H0V36H48V31.8Z" fill="#F44336"/>
<path d="M0 0H27.6316V19.7368H0V0Z" fill="#3F51B5"/>
<path fill-rule="evenodd" clip-rule="evenodd" d="M2.96197 2.63159L3.57118 3.93159L4.93565 4.13949L3.94881 5.15264L4.18302 6.57896L2.96197 5.90528L1.74091 6.57896L1.97512 5.15264L0.988281 4.13949L2.35275 3.93159L2.96197 2.63159ZM8.22512 2.63159L8.83433 3.93159L10.1988 4.13949L9.21196 5.15264L9.44618 6.57896L8.22512 5.90528L7.00407 6.57896L7.23828 5.15264L6.25144 4.13949L7.61591 3.93159L8.22512 2.63159ZM14.0975 3.93159L13.4883 2.63159L12.8791 3.93159L11.5146 4.13949L12.5014 5.15264L12.2672 6.57896L13.4883 5.90528L14.7093 6.57896L14.4751 5.15264L15.462 4.13949L14.0975 3.93159ZM18.7514 2.63159L19.3607 3.93159L20.7251 4.13949L19.7383 5.15264L19.9725 6.57896L18.7514 5.90528L17.5304 6.57896L17.7646 5.15264L16.7778 4.13949L18.1422 3.93159L18.7514 2.63159ZM24.2949 3.93159L23.6856 2.63159L23.0764 3.93159L21.712 4.13949L22.6988 5.15264L22.4646 6.57896L23.6856 5.90528L24.9067 6.57896L24.6725 5.15264L25.6593 4.13949L24.2949 3.93159ZM2.96197 13.1579L3.57118 14.4579L4.93565 14.6658L3.94881 15.679L4.18302 17.1053L2.96197 16.4316L1.74091 17.1053L1.97512 15.679L0.988281 14.6658L2.35275 14.4579L2.96197 13.1579ZM8.83433 14.4579L8.22512 13.1579L7.61591 14.4579L6.25144 14.6658L7.23828 15.679L7.00407 17.1053L8.22512 16.4316L9.44618 17.1053L9.21196 15.679L10.1988 14.6658L8.83433 14.4579ZM13.4883 13.1579L14.0975 14.4579L15.462 14.6658L14.4751 15.679L14.7093 17.1053L13.4883 16.4316L12.2672 17.1053L12.5014 15.679L11.5146 14.6658L12.8791 14.4579L13.4883 13.1579ZM19.3607 14.4579L18.7514 13.1579L18.1422 14.4579L16.7778 14.6658L17.7646 15.679L17.5304 17.1053L18.7514 16.4316L19.9725 17.1053L19.7383 15.679L20.7251 14.6658L19.3607 14.4579ZM23.6856 13.1579L24.2949 14.4579L25.6593 14.6658L24.6725 15.679L24.9067 17.1053L23.6856 16.4316L22.4646 17.1053L22.6988 15.679L21.712 14.6658L23.0764 14.4579L23.6856 13.1579ZM4.88697 9.19475L4.27776 7.89475L3.66854 9.19475L2.30407 9.40265L3.29091 10.4158L3.0567 11.8421L4.27776 11.1684L5.49881 11.8421L5.2646 10.4158L6.25144 9.40265L4.88697 9.19475ZM9.54091 7.89475L10.1501 9.19475L11.5146 9.40265L10.5278 10.4158L10.762 11.8421L9.54091 11.1684L8.31986 11.8421L8.55407 10.4158L7.56723 9.40265L8.9317 9.19475L9.54091 7.89475ZM15.4133 9.19475L14.8041 7.89475L14.1949 9.19475L12.8304 9.40265L13.8172 10.4158L13.583 11.8421L14.8041 11.1684L16.0251 11.8421L15.7909 10.4158L16.7778 9.40265L15.4133 9.19475ZM20.0672 7.89475L20.6764 9.19475L22.0409 9.40265L21.0541 10.4158L21.2883 11.8421L20.0672 11.1684L18.8462 11.8421L19.0804 10.4158L18.0935 9.40265L19.458 9.19475L20.0672 7.89475ZM25.6107 9.19475L25.0014 7.89475L24.3922 9.19475L23.0278 9.40265L24.0146 10.4158L23.7804 11.8421L25.0014 11.1684L26.2225 11.8421L25.9883 10.4158L26.9751 9.40265L25.6107 9.19475Z" fill="white"/>
</svg>
