<svg width="48" height="36" viewBox="0 0 48 36" fill="none" xmlns="http://www.w3.org/2000/svg">
<path d="M0 0H48V36H0V0Z" fill="#ECEFF1"/>
<path fill-rule="evenodd" clip-rule="evenodd" d="M0 0H10.8V36H0V0ZM37.2 0H48V36H37.2V0ZM25 24.0261H22.8261V27.287H25V24.0261Z" fill="#FF3D00"/>
<path d="M33.6961 20.7652L31.5222 19.6782L33.6961 16.4173H30.4352L30.3906 14.2586L27.8787 15.5184L28.2613 9.89559L26.0874 10.9825L23.9211 7.72168L21.7396 10.9825L19.5656 9.89559L19.9483 15.4869L17.4352 14.2608C17.4352 14.2608 17.3863 16.4065 17.3917 16.4173H14.1309L16.3048 19.6782L14.1309 20.7652L18.4787 22.9391V25.113C18.4787 25.113 23.6113 24.8315 23.9135 24.8315C24.2156 24.8315 29.3483 25.113 29.3483 25.113V22.9391L33.6961 20.7652Z" fill="#FF3D00"/>
</svg>
