<svg width="48" height="36" viewBox="0 0 48 36" fill="none" xmlns="http://www.w3.org/2000/svg">
<path d="M0 0H48V36H0V0Z" fill="#ECEFF1"/>
<path d="M33 0H48V36H33V0Z" fill="#D50000"/>
<path d="M0 0H15V36H0V0Z" fill="#1B5E20"/>
<path d="M26.2823 21.2487C25.9598 21.3387 25.3935 21.4299 24.7123 21.3462C24.031 21.2637 23.2785 21.3912 22.7623 21.1199C22.1173 21.3087 21.8373 20.7662 21.7373 20.3737C21.666 20.7274 21.6723 20.9237 21.4148 20.8487C21.1573 20.7737 20.361 20.3962 20.1673 20.3212C19.9735 20.2462 19.931 20.4262 20.246 20.5999C20.561 20.7737 20.8548 20.9699 20.8623 21.0899C20.8698 21.2099 20.5898 21.3612 20.4898 21.4137C20.9635 21.4137 21.4898 21.5174 21.6585 21.5574C21.9735 21.6324 21.996 21.8587 21.4798 22.2212C22.791 22.0699 22.5798 22.7412 23.246 22.7337C23.7335 22.7287 24.4323 22.7262 24.6548 22.7262C25.186 22.7262 25.211 22.3562 25.3935 22.2962C25.7935 22.1637 26.211 22.0399 26.526 21.9349C26.2035 21.8599 26.0248 21.7762 26.0248 21.7012C26.0248 21.6262 26.6698 21.3699 26.9785 21.2337C26.8698 21.1962 26.6048 21.1587 26.2823 21.2487Z" fill="#039BE5"/>
<path d="M25.3931 20.9626C25.3144 20.8451 25.1281 20.8189 25.0344 20.9551C24.4894 20.8426 23.2781 20.8726 22.8844 20.9551C22.7906 20.8189 22.6044 20.8451 22.5256 20.9626C22.4419 21.0864 22.4969 21.2339 22.5906 21.2939C22.4906 21.4526 22.5256 21.8739 22.5906 22.0551C22.4969 22.1151 22.4431 22.2626 22.5256 22.3864C22.6044 22.5039 22.7906 22.5301 22.8844 22.3939C23.3356 22.5826 24.5694 22.5826 25.0344 22.3939C25.1281 22.5289 25.3144 22.5026 25.3931 22.3864C25.4769 22.2626 25.4219 22.1151 25.3281 22.0551C25.3931 21.8739 25.4281 21.4526 25.3281 21.2939C25.4219 21.2339 25.4769 21.0864 25.3931 20.9626Z" fill="#FBC02D"/>
<path fill-rule="evenodd" clip-rule="evenodd" d="M25.4443 20.9288C25.3918 20.85 25.3018 20.8013 25.208 20.8013H25.2055C25.1293 20.8013 25.0605 20.8313 25.0105 20.8863C24.5693 20.8038 23.778 20.805 23.2568 20.8475C23.2553 20.8475 23.2543 20.8467 23.2534 20.846C23.2528 20.8455 23.2523 20.845 23.2518 20.845C23.2488 20.845 23.2455 20.8453 23.2421 20.8456C23.2384 20.846 23.2344 20.8463 23.2305 20.8463V20.85C23.1105 20.86 22.988 20.8713 22.9093 20.885C22.858 20.83 22.788 20.8 22.713 20.8H22.7118C22.618 20.8 22.5268 20.8488 22.4743 20.9263C22.4293 20.9938 22.4118 21.0738 22.428 21.1525C22.4405 21.2125 22.4705 21.2688 22.5118 21.31C22.433 21.5013 22.4655 21.85 22.518 22.0338C22.473 22.075 22.4405 22.1325 22.428 22.195C22.4118 22.2738 22.428 22.3538 22.4743 22.4225C22.5268 22.5013 22.618 22.55 22.713 22.55C22.7868 22.55 22.853 22.5213 22.903 22.47C23.143 22.5563 23.548 22.6 23.9543 22.6C24.6468 22.6 24.9568 22.4913 25.0155 22.47C25.0655 22.5213 25.133 22.55 25.2055 22.55H25.2068C25.3005 22.5488 25.3918 22.5 25.443 22.4225C25.4893 22.355 25.5055 22.275 25.4893 22.195C25.4768 22.1325 25.4455 22.075 25.4005 22.0338C25.4518 21.8488 25.483 21.5 25.4068 21.31C25.448 21.2688 25.4793 21.2125 25.4905 21.1525C25.5055 21.075 25.4893 20.9938 25.4443 20.9288ZM22.9568 22.3513C22.9843 22.2613 22.973 22.1738 22.9255 22.1238C22.8643 22.0588 22.7743 22.0475 22.698 22.0925L22.7618 22.2C22.801 22.1755 22.8222 22.1967 22.8348 22.2094L22.8355 22.21C22.863 22.24 22.8743 22.2975 22.833 22.3588C22.8043 22.4 22.7618 22.4238 22.713 22.4238C22.6593 22.4238 22.6068 22.3975 22.5768 22.3513C22.5443 22.3013 22.5443 22.2525 22.5505 22.2213C22.5593 22.175 22.5868 22.1325 22.6243 22.1088L22.6655 22.0825L22.648 22.0363C22.5855 21.8588 22.558 21.4638 22.6418 21.3288L22.6743 21.2775L22.623 21.2438C22.5868 21.22 22.558 21.1763 22.5493 21.13C22.5418 21.0988 22.5418 21.05 22.5755 21C22.6055 20.9563 22.6568 20.9275 22.7105 20.9275H22.7118C22.7605 20.9275 22.8018 20.9513 22.8318 20.9925C22.873 21.0538 22.8618 21.1113 22.8343 21.1413C22.8205 21.1538 22.7905 21.1725 22.7605 21.1525L22.6968 21.26C22.7268 21.2788 22.7605 21.2863 22.7918 21.2863C22.8405 21.2863 22.8868 21.2663 22.9243 21.2263C22.9668 21.1813 22.9768 21.105 22.9618 21.0238C23.1293 21.0588 23.273 21.4163 23.4005 21.7413L23.4195 21.7904L23.4195 21.7904L23.4195 21.7904C23.526 22.0662 23.6263 22.326 23.7668 22.4688C23.4455 22.4575 23.1468 22.4188 22.9568 22.3513ZM23.518 21.6938C23.658 22.0538 23.8168 22.4538 24.0205 22.47C24.0755 22.47 24.1305 22.4688 24.1843 22.465C24.0176 22.3168 23.8906 22.0243 23.7608 21.7254L23.753 21.7075L23.7527 21.7069C23.6028 21.3621 23.4329 20.9713 23.2505 20.9713C23.2341 20.9729 23.2179 20.9743 23.2021 20.9757L23.2021 20.9757C23.1818 20.9775 23.162 20.9792 23.143 20.9813C23.2905 21.1213 23.403 21.3988 23.518 21.6938ZM24.4205 22.45C24.2068 22.435 24.0268 22.0263 23.8668 21.66C23.7418 21.3713 23.6193 21.1025 23.4693 20.9588L23.5137 20.9563L23.6043 20.9513C23.7798 20.9679 23.9419 21.3279 24.0926 21.6627L24.1168 21.7163C24.2518 22.0163 24.383 22.3013 24.5418 22.44C24.5212 22.4421 24.4992 22.4438 24.4766 22.4455L24.4766 22.4455C24.458 22.4469 24.4392 22.4484 24.4205 22.45ZM25.2705 22.035C25.333 21.8575 25.3605 21.4613 25.2768 21.3275L25.2418 21.275L25.293 21.2413C25.3305 21.2175 25.358 21.1738 25.3668 21.1275C25.373 21.0963 25.3743 21.0475 25.3405 20.9975C25.3118 20.9525 25.2605 20.9263 25.2068 20.925H25.2055C25.1768 20.925 25.1243 20.9338 25.0855 20.99C25.0443 21.0513 25.0555 21.1088 25.083 21.1388C25.0955 21.1513 25.1243 21.1713 25.1568 21.15L25.2205 21.2575C25.1905 21.275 25.1568 21.2838 25.1255 21.2838C25.0768 21.2838 25.0305 21.2638 24.993 21.2238C24.948 21.175 24.938 21.0925 24.9605 21.005C24.668 20.9538 24.2293 20.9375 23.8168 20.945C23.9718 21.0925 24.1005 21.3675 24.2343 21.6638C24.383 21.995 24.5693 22.3713 24.743 22.4063C24.8268 22.39 24.8993 22.3713 24.963 22.35C24.9355 22.2588 24.9468 22.1725 24.9943 22.1225C25.058 22.0588 25.1468 22.0475 25.2218 22.0913L25.158 22.1988C25.1175 22.1755 25.0975 22.1955 25.085 22.2081L25.0843 22.2088C25.0568 22.2388 25.0455 22.2963 25.0868 22.3575C25.1168 22.3988 25.158 22.4225 25.2068 22.4225C25.2605 22.4225 25.3118 22.395 25.3405 22.3513C25.3755 22.3 25.3743 22.2513 25.368 22.22C25.358 22.1738 25.3305 22.1313 25.2943 22.1075L25.253 22.0813L25.2705 22.035Z" fill="#BF360C"/>
<path d="M20.5264 21.1801C20.2377 21.1801 20.2377 21.6339 20.5264 21.6339C20.8152 21.6339 20.8202 21.1801 20.5264 21.1801Z" fill="white"/>
<path fill-rule="evenodd" clip-rule="evenodd" d="M20.2461 21.4049C20.2461 21.2624 20.3436 21.1174 20.5261 21.1174C20.7098 21.1174 20.8073 21.2612 20.8073 21.4049C20.8073 21.5487 20.7098 21.6937 20.5261 21.6937C20.3423 21.6937 20.2461 21.5487 20.2461 21.4049ZM20.3711 21.4049C20.3711 21.4662 20.4036 21.5699 20.5261 21.5699C20.6486 21.5699 20.6823 21.4662 20.6823 21.4049C20.6823 21.3224 20.6336 21.2412 20.5261 21.2412C20.4036 21.2412 20.3711 21.3449 20.3711 21.4049Z" fill="#1976D2"/>
<path d="M21.6727 20.185C21.3839 20.185 21.3839 20.6387 21.6727 20.6387C21.9627 20.6387 21.9664 20.185 21.6727 20.185Z" fill="white"/>
<path fill-rule="evenodd" clip-rule="evenodd" d="M21.3945 20.4113C21.3945 20.2676 21.492 20.1226 21.6745 20.1226C21.8583 20.1226 21.9545 20.2676 21.9558 20.4101C21.9558 20.5538 21.8583 20.7001 21.6745 20.7001C21.4908 20.7001 21.3945 20.5551 21.3945 20.4113ZM21.5195 20.4113C21.5195 20.4726 21.552 20.5763 21.6745 20.5763C21.797 20.5763 21.8308 20.4726 21.8308 20.4101C21.8308 20.3276 21.782 20.2463 21.6745 20.2463C21.552 20.2463 21.5195 20.3501 21.5195 20.4113Z" fill="#1976D2"/>
<path d="M26.4195 21.7526C26.1295 21.7526 26.1295 22.2064 26.4195 22.2064C26.7082 22.2064 26.7132 21.7526 26.4195 21.7526Z" fill="white"/>
<path fill-rule="evenodd" clip-rule="evenodd" d="M26.1387 21.9787C26.1387 21.8362 26.2362 21.6912 26.4187 21.6912C26.5049 21.6912 26.5787 21.7224 26.6299 21.7824C26.6749 21.8349 26.6999 21.9037 26.6999 21.9774C26.6999 22.1224 26.6024 22.2674 26.4187 22.2674C26.2349 22.2674 26.1387 22.1224 26.1387 21.9787ZM26.2637 21.9787C26.2637 22.0399 26.2962 22.1437 26.4187 22.1437C26.5412 22.1437 26.5749 22.0399 26.5749 21.9774C26.5749 21.8962 26.5262 21.8149 26.4187 21.8149C26.2962 21.8149 26.2637 21.9187 26.2637 21.9787Z" fill="#1976D2"/>
<path fill-rule="evenodd" clip-rule="evenodd" d="M30.5842 18.6163C30.663 18.5788 30.8917 18.535 30.9742 18.5575C30.968 18.445 31.0967 18.3663 31.1905 18.4438C31.263 18.5063 31.248 18.6138 31.2155 18.6588C31.183 18.7038 31.043 18.7375 30.993 18.6363C30.903 18.645 30.6342 18.72 30.5305 18.825C30.493 18.6788 30.298 18.4713 30.2242 18.4163C30.1317 18.4763 30.028 18.3725 30.0217 18.3163C30.0155 18.26 30.0542 18.1588 30.1467 18.145C30.2642 18.1263 30.338 18.2638 30.2767 18.3575C30.3592 18.3825 30.5342 18.5413 30.5842 18.6163ZM19.953 20.5938C19.7805 20.51 19.6155 20.3063 19.6805 20.2013C19.7455 20.0963 19.9567 20.0638 20.1317 20.1563C20.333 20.2625 20.383 20.4588 20.333 20.5338C20.283 20.6088 20.1255 20.6763 19.953 20.5938ZM21.1242 22.3338C21.1005 22.21 21.2317 22.0325 21.418 21.97C21.6317 21.8988 21.7455 21.9575 21.7892 22.0863C21.818 22.1725 21.758 22.3488 21.5792 22.415C21.4005 22.4813 21.148 22.4563 21.1242 22.3338ZM26.778 21.06C26.598 21.1225 26.5055 21.2763 26.533 21.3638C26.573 21.4925 26.6855 21.555 26.9005 21.4888C27.088 21.4313 27.2967 21.2275 27.2505 21.1125C27.193 20.97 26.9567 20.9988 26.778 21.06ZM27.4578 22.7246C27.5495 22.7625 27.7219 22.8338 27.7592 22.905C27.8317 22.8213 27.9755 22.865 27.9842 22.9913C27.993 23.0888 27.908 23.1525 27.8542 23.1588C27.8005 23.165 27.6805 23.0825 27.7155 22.9738C27.648 22.9113 27.393 22.8238 27.2492 22.8175C27.3097 22.7099 27.2626 22.4721 27.2361 22.3382C27.2303 22.3088 27.2255 22.2844 27.223 22.2675C27.118 22.2388 27.1167 22.0888 27.1517 22.045C27.1867 22.0013 27.283 21.9613 27.3567 22.0213C27.4517 22.0988 27.408 22.2488 27.3017 22.2675C27.3767 22.3425 27.4492 22.6238 27.4317 22.7138L27.4578 22.7246ZM29.8205 21.035C29.7627 20.9807 29.5788 20.9715 29.4797 20.9665L29.4517 20.965C29.4405 20.875 29.2855 20.6313 29.193 20.5863C29.288 20.5325 29.2842 20.3763 29.1705 20.335C29.0817 20.3025 29.003 20.3738 28.9842 20.4263C28.9655 20.4788 29.0117 20.6213 29.1205 20.6125C29.128 20.6278 29.1402 20.6495 29.1549 20.6758L29.1549 20.6758C29.2208 20.7936 29.3375 21.0022 29.313 21.1238C29.4517 21.0813 29.7192 21.0775 29.8017 21.1138C29.8017 21.2288 29.9405 21.2663 29.9892 21.2413C30.038 21.2163 30.0992 21.1288 30.0617 21.0388C30.013 20.9238 29.8642 20.9313 29.8205 21.035Z" fill="#FBC02D"/>
<path fill-rule="evenodd" clip-rule="evenodd" d="M30.2545 16.9287C30.3908 17.0799 30.677 17.4337 30.7345 17.6074C30.842 17.3899 31.122 16.9374 31.3445 16.8687C31.3295 16.9974 31.3633 17.1837 31.3945 17.3287C31.4445 17.5624 31.1908 17.9037 30.9783 18.1049C30.9593 18.1229 30.9391 18.1402 30.9181 18.158C30.7821 18.2742 30.6159 18.4161 30.5595 18.9524L30.4733 18.8887C30.5445 18.5274 30.5608 18.2112 30.362 17.9087C30.2301 17.7078 30.252 17.4748 30.2708 17.2744C30.2837 17.1369 30.2952 17.0146 30.2545 16.9287ZM30.1045 18.9499C30.1395 19.1224 30.1683 19.5749 30.147 19.7562C30.1808 19.7207 30.2132 19.6844 30.2455 19.6482C30.4263 19.4457 30.6041 19.2466 30.9933 19.2212C30.8464 19.3697 30.7412 19.6088 30.636 19.8482C30.4951 20.1689 30.354 20.4899 30.112 20.5937C29.6895 20.7737 29.3445 21.1287 29.137 21.4224L29.0508 21.2949C29.0596 21.2871 29.0683 21.2793 29.077 21.2716C29.344 21.0349 29.544 20.8577 29.4883 20.4049C29.412 19.7849 29.5745 19.0637 30.1045 18.9499Z" fill="#558B2F"/>
<path fill-rule="evenodd" clip-rule="evenodd" d="M28.3384 21.3157C28.4941 21.1686 28.6176 21.052 28.6267 20.9326C28.6992 21.2714 28.648 21.6564 28.5492 21.8514C28.728 21.6939 29.0867 21.5426 29.3305 21.5201C29.2884 21.6087 29.2709 21.7049 29.2534 21.8014C29.2112 22.0344 29.1687 22.2692 28.778 22.4026C28.5876 22.4677 28.4339 22.4772 28.2804 22.4867C27.9886 22.5048 27.6979 22.5228 27.158 22.9226L27.1792 22.8176C27.5517 22.5689 27.6517 22.4051 27.738 22.1464C27.8652 21.7626 28.1305 21.512 28.3384 21.3157ZM25.5485 22.9768C25.8162 22.7202 26.1215 22.4275 26.8067 22.5226C26.7423 22.584 26.6827 22.6852 26.6195 22.7928C26.5269 22.9502 26.4263 23.1212 26.2905 23.2014C26.548 23.2464 26.9355 23.3364 27.208 23.5026C27.0989 23.4863 26.9392 23.551 26.7527 23.6265C26.4239 23.7596 26.0115 23.9265 25.6455 23.7439C25.2129 23.5281 25.1555 23.4487 25.1041 23.3777C25.0874 23.3545 25.0713 23.3322 25.043 23.3064C25.2454 23.2674 25.3904 23.1284 25.5485 22.9768Z" fill="#558B2F"/>
<path d="M30.532 18.7362C30.067 18.9724 29.7458 19.7424 29.6433 20.3212C29.5658 20.7599 29.4658 20.9187 29.3333 21.0887C28.877 21.1074 28.4195 21.5187 28.1883 21.8212C27.9758 22.0987 27.6108 22.4687 27.2995 22.7487C26.8095 22.7087 26.2495 22.9349 25.9308 23.0949C25.6008 23.2612 25.302 23.2624 25.042 23.2149C24.3395 23.0874 23.537 23.0787 22.7333 23.6824C22.6758 23.7199 22.802 23.8749 22.8833 23.8112C23.5645 23.2687 24.4958 23.0424 25.2995 23.5624C25.742 23.8487 26.9483 23.4574 27.3495 22.7487C27.3445 22.7487 27.3408 22.7499 27.3358 22.7487C27.4595 22.6587 27.582 22.5737 28.0445 22.4162C28.6683 22.2049 29.1633 21.6924 29.3633 21.0824C29.3583 21.0824 29.3533 21.0849 29.3483 21.0849C29.5308 20.8887 29.872 20.5474 30.152 20.1849C30.482 19.7574 30.6258 19.1737 30.5583 18.7462C30.6158 18.4649 30.7745 18.1662 30.9408 17.9387C31.127 17.6824 31.1133 17.0799 30.8195 16.5974C30.4295 16.9287 30.6145 17.8949 30.532 18.7362Z" fill="#1B5E20"/>
<path d="M20.547 22.2588C20.5895 22.115 20.5183 21.9425 20.4183 21.95C20.3183 21.9575 20.347 22.1988 20.397 22.305C20.447 22.41 20.4683 22.5538 20.4833 22.75L20.6408 22.8475C20.547 22.7263 20.5045 22.4025 20.547 22.2588Z" fill="#827717"/>
<path d="M20.4224 22.2325C20.2899 22.1838 20.2524 22.2525 20.3036 22.3613C20.3724 22.505 20.5474 22.52 20.6086 22.4138C20.6936 22.265 20.6374 22.18 20.5799 22.21C20.5224 22.24 20.4536 22.245 20.4224 22.2325Z" fill="#FBC02D"/>
<path d="M20.0194 22.8301C19.9094 22.8076 19.6806 22.8451 19.7006 22.9476C19.7206 23.0513 19.8994 23.0763 20.0181 22.9938C20.1381 22.9113 20.4456 22.8663 20.5819 22.9288L20.4494 22.7963C20.2669 22.8351 20.1294 22.8513 20.0194 22.8301Z" fill="#827717"/>
<path d="M19.9599 22.8751C19.9799 22.9038 19.9937 22.9751 19.9824 23.0413C19.9699 23.1076 20.0637 23.1413 20.1762 23.0151C20.2562 22.9251 20.1949 22.7513 20.0449 22.7213C19.9324 22.6976 19.8799 22.7538 19.9599 22.8751Z" fill="#FBC02D"/>
<path d="M18.4896 20.4726C18.5134 20.5876 18.4996 20.7501 18.4684 20.9438L18.6159 21.0638C18.5534 20.9226 18.5709 20.5951 18.6459 20.4663C18.7209 20.3388 18.6909 20.1513 18.5921 20.1338C18.4921 20.1163 18.4646 20.3576 18.4896 20.4726Z" fill="#827717"/>
<path d="M18.5309 20.4099C18.4134 20.3286 18.3622 20.3849 18.3872 20.5036C18.4197 20.6599 18.5872 20.7199 18.6709 20.6324C18.7884 20.5099 18.7522 20.4136 18.6897 20.4274C18.6272 20.4424 18.5597 20.4286 18.5309 20.4099Z" fill="#FBC02D"/>
<path d="M18.0267 20.9363C17.9217 20.8951 17.6905 20.8888 17.6942 20.9951C17.698 21.1013 17.8692 21.1576 18.0005 21.0988C18.1317 21.0388 18.518 21.0626 18.6417 21.1476L18.4692 20.9701C18.2817 20.9751 18.1317 20.9788 18.0267 20.9363Z" fill="#827717"/>
<path d="M17.9606 20.97C17.9756 21.0025 17.9781 21.0738 17.9556 21.1375C17.9331 21.2 18.0193 21.2513 18.1506 21.1463C18.2443 21.0713 18.2118 20.89 18.0693 20.8325C17.9618 20.79 17.9006 20.8363 17.9606 20.97Z" fill="#FBC02D"/>
<path d="M17.456 18.2062C17.4348 18.3224 17.331 18.4812 17.2273 18.6449L17.2848 18.9087C17.3348 18.6524 17.4835 18.3537 17.601 18.2674C17.7185 18.1824 17.7623 17.9987 17.6785 17.9399C17.596 17.8812 17.4785 18.0899 17.456 18.2062Z" fill="#827717"/>
<path d="M17.5186 18.1664C17.4423 18.0426 17.3723 18.0726 17.3498 18.1914C17.3198 18.3489 17.4511 18.4739 17.5598 18.4289C17.7136 18.3664 17.7186 18.2626 17.6561 18.2501C17.5936 18.2364 17.5361 18.1951 17.5186 18.1664Z" fill="#FBC02D"/>
<path d="M16.8002 18.38C16.7302 18.2887 16.5327 18.1612 16.4852 18.2537C16.4364 18.3462 16.5577 18.4875 16.6989 18.505C16.8402 18.5225 17.1639 18.7487 17.2289 18.8887L17.1652 18.645C17.0027 18.5487 16.8714 18.4712 16.8002 18.38Z" fill="#827717"/>
<path d="M16.7296 18.3738C16.7271 18.4088 16.6946 18.4725 16.6446 18.515C16.5946 18.5575 16.6458 18.6475 16.8083 18.6263C16.9246 18.6113 16.9846 18.4375 16.8883 18.3125C16.8158 18.22 16.7421 18.2263 16.7296 18.3738Z" fill="#FBC02D"/>
<path d="M22.8903 23.1638C22.7328 23.2088 22.6253 23.2613 22.5316 23.0963C22.4378 22.9301 22.3916 22.9988 22.3528 23.0513C22.3128 23.1038 22.2028 23.1038 22.1091 22.9313C22.0153 22.7576 21.9366 22.7013 21.8228 22.7126C21.7078 22.7238 21.6691 22.7876 21.7291 22.9013C21.7903 23.0138 21.7328 23.1013 21.6353 22.9951C21.5391 22.8901 21.4028 22.7463 21.2916 22.7501C21.1803 22.7538 21.0728 22.7688 21.1453 22.8826C21.2166 22.9951 21.2166 23.1163 21.0878 23.0113C20.9666 22.9126 20.8766 22.8663 20.7653 22.8751C20.3516 22.6988 20.0941 22.2988 20.0803 22.0726C20.0666 21.8313 20.0128 21.8951 19.9803 21.9513C19.9478 22.0076 19.8441 22.0851 19.8016 21.8988C19.7478 21.6688 19.7841 21.4726 19.6978 21.3676C19.6116 21.2626 19.5191 21.2163 19.4716 21.4088C19.4253 21.6013 19.3216 21.4951 19.3253 21.3338C19.3291 21.1713 19.3328 21.0176 19.2641 20.9451C19.1966 20.8738 19.1453 20.8776 19.1453 21.0313C19.1453 21.1863 19.0803 21.2163 19.0091 21.0726C18.9378 20.9288 18.8266 20.8538 18.8328 21.0088C18.8353 21.0638 18.8428 21.1076 18.8478 21.1526C18.3966 20.8938 18.2228 20.6838 18.2091 20.4063C18.1966 20.1651 18.2016 20.0513 18.2803 19.9538C18.3591 19.8563 18.3166 19.7501 18.2153 19.8413C18.1153 19.9313 18.0141 19.9013 18.0366 19.7438C18.0578 19.5851 18.1228 19.3826 18.0653 19.2613C18.0078 19.1413 17.8778 19.1451 17.8428 19.3063C17.8291 19.3738 17.7778 19.4501 17.7066 19.4501C17.6353 19.4501 17.6416 19.2838 17.6703 19.1788C17.6991 19.0738 17.6053 18.9976 17.5553 19.0888C17.5053 19.1801 17.3903 19.2701 17.3403 19.1338C17.3378 19.1276 17.3341 19.1276 17.3316 19.1213C17.2941 18.8163 17.0866 18.2076 17.1891 18.0851C17.2966 17.9563 17.2928 17.9301 17.2178 17.8701C17.1428 17.8101 17.2191 17.6901 17.3366 17.6438C17.5091 17.5763 17.5803 17.4276 17.4516 17.4363C17.2403 17.4513 17.1153 17.4138 17.2403 17.3388C17.3928 17.2476 17.5566 17.1326 17.5241 17.0001C17.5103 16.9438 17.4378 16.9288 17.3591 16.9588C17.2803 16.9888 17.2028 16.9401 17.2941 16.8726C17.4128 16.7863 17.3191 16.6988 17.4053 16.6388C17.4916 16.5788 17.4591 16.4951 17.4053 16.5038C17.3516 16.5113 17.2191 16.6588 17.1653 16.5901C17.1116 16.5226 17.0453 16.4488 16.9828 16.5826C16.8928 16.7751 17.0041 16.8951 16.9466 16.9863C16.8891 17.0763 16.8141 17.1063 16.7428 17.0088C16.6716 16.9113 16.5666 16.9413 16.5603 17.0613C16.5528 17.1813 16.6066 17.2576 16.6816 17.3701C16.7566 17.4826 16.7428 17.5701 16.6066 17.5026C16.4703 17.4351 16.4053 17.4351 16.3991 17.5476C16.3916 17.6601 16.4491 17.7026 16.6216 17.7851C16.7941 17.8676 16.8228 17.8913 16.8366 17.9851C16.8616 18.1513 17.0153 18.1213 17.0666 18.3426C17.1091 18.5326 17.1903 18.8151 17.2078 19.0951C17.1953 19.1138 17.1878 19.1376 17.1953 19.1638C17.0741 19.1188 17.0591 19.2176 17.1016 19.2763C17.1591 19.3551 17.1803 19.4276 17.1016 19.4088C17.0228 19.3901 16.8691 19.3338 16.8978 19.4576C16.9266 19.5813 17.1841 19.6726 17.3491 19.7063C17.5141 19.7401 17.5253 19.8201 17.4491 19.8463C17.3741 19.8726 17.3278 19.8613 17.2128 19.8426C17.0978 19.8238 17.0766 19.9176 17.1666 20.0201C17.2566 20.1213 17.4928 20.1513 17.6003 20.1638C17.7728 20.1826 17.7866 20.3188 17.7116 20.3151C17.6366 20.3113 17.4928 20.2588 17.4816 20.3376C17.4703 20.4163 17.6716 20.5038 17.8216 20.4888C17.9716 20.4738 17.9916 20.5101 18.0228 20.5526C18.2191 20.8301 18.5653 21.1488 18.8066 21.2663C18.7941 21.2751 18.8003 21.3001 18.7753 21.2988C18.6503 21.2951 18.5491 21.3176 18.6528 21.4188C18.7566 21.5201 18.8316 21.5438 18.9003 21.5588C18.9678 21.5738 18.9791 21.6638 18.9041 21.6988C18.8291 21.7326 18.7578 21.7101 18.6928 21.6801C18.6278 21.6501 18.5241 21.6913 18.6241 21.8126C18.7241 21.9338 18.8791 21.9938 19.0753 21.9938C19.2728 21.9938 19.3403 22.0838 19.2228 22.1526C19.1041 22.2201 19.0191 22.2276 18.8891 22.2051C18.7603 22.1826 18.7353 22.2951 18.9141 22.4088C19.0928 22.5226 19.2653 22.4951 19.4266 22.4388C19.5878 22.3826 19.5953 22.4463 19.5703 22.4988C19.5453 22.5513 19.5566 22.6263 19.6991 22.5813C19.8428 22.5363 19.9853 22.4838 20.1578 22.6113C20.3028 22.7188 20.4628 22.8601 20.6366 22.9726C20.6241 23.0276 20.6216 23.0876 20.5378 23.1126C20.4528 23.1376 20.3403 23.1951 20.2978 23.2526C20.2553 23.3088 20.2516 23.4601 20.5991 23.4038C20.9466 23.3476 20.9616 23.3663 20.9328 23.4788C20.9041 23.5913 20.9028 23.7263 21.1016 23.6788C21.3528 23.6188 21.4853 23.4188 21.5778 23.5126C21.6341 23.5701 21.5653 23.6551 21.5128 23.7126C21.4266 23.8063 21.6241 23.8888 21.7391 23.7951C21.8503 23.7051 21.9866 23.5426 22.0653 23.5726C22.1441 23.6026 22.0691 23.7076 22.0403 23.7688C22.0116 23.8301 22.0403 23.9576 22.1803 23.8863C22.3203 23.8151 22.4066 23.3776 22.8366 23.4376C22.9616 23.1926 23.9728 23.0638 24.8041 23.7876C24.8616 23.8476 24.9291 23.8476 25.0078 23.8401C25.0866 23.8326 25.1978 23.8363 25.1191 23.7726C24.4103 23.2313 23.5866 22.9638 22.8903 23.1638Z" fill="#1B5E20"/>
<path d="M24.1225 23.6412C24.1088 23.6837 24.0625 23.7887 24.04 23.8149C24.2225 23.9599 24.45 24.0874 24.4975 24.2499C24.5575 24.2049 24.6187 24.1812 24.6787 24.1737C24.6562 23.9962 24.3038 23.7962 24.1225 23.6412Z" fill="white"/>
<path fill-rule="evenodd" clip-rule="evenodd" d="M23.5394 23.2624C23.5361 23.0348 23.5351 22.9662 23.7191 22.9564C23.788 22.9529 23.7863 23.0907 23.7845 23.2264C23.7844 23.2385 23.7842 23.2506 23.7841 23.2626L23.7854 23.3451C23.7854 23.5781 23.5547 23.7671 23.3649 23.9226C23.2482 24.0181 23.147 24.1011 23.1241 24.1739C23.0316 24.1614 22.9416 24.1851 22.8691 24.2126C22.9125 23.9346 23.1343 23.7705 23.3113 23.6395C23.4407 23.5438 23.5462 23.4657 23.5404 23.3739C23.5404 23.333 23.5399 23.296 23.5394 23.2624ZM23.943 23.8881C23.9846 23.8636 24.0276 23.8383 24.0391 23.8139C24.0818 23.8477 24.1269 23.8807 24.1716 23.9133C24.3181 24.0203 24.4602 24.124 24.4966 24.2476C24.4491 24.2839 24.4029 24.3326 24.3604 24.3989C24.2925 24.313 24.1848 24.2209 24.0762 24.1279C24.0029 24.0652 23.9291 24.002 23.8666 23.9401C23.8825 23.9237 23.9124 23.9061 23.943 23.8881Z" fill="#1B5E20"/>
<path d="M24.0098 22.9536C23.976 22.9536 23.9373 22.9524 23.8948 22.9524C23.826 22.9524 23.7673 22.9536 23.7185 22.9561C23.7935 22.9524 23.7848 23.1161 23.7848 23.2624C23.7848 23.3149 23.786 23.3799 23.786 23.4411C23.7835 23.4399 23.7785 23.4311 23.7748 23.4311C23.7135 23.6661 23.161 23.8736 23.1248 24.1749C23.186 24.1824 23.246 24.2061 23.306 24.2511C23.3735 24.0161 23.8185 23.8549 23.9585 23.6099C23.9723 23.6099 23.9885 23.6099 24.0023 23.6086C24.0985 23.6274 24.076 23.4086 24.076 23.2636C24.076 23.1161 24.0848 22.9499 24.0098 22.9536Z" fill="white"/>
<path d="M24.2448 23.5387C24.2473 23.5337 24.2461 23.5275 24.2486 23.5225C24.2948 23.4725 24.3186 23.395 24.3186 23.2687C24.3186 23.2575 24.3173 23.2525 24.3173 23.2425C24.3173 23.2412 24.3186 23.24 24.3186 23.2375H24.3173C24.3136 22.9987 24.2636 22.9575 24.0111 22.9525C24.0811 22.9487 24.0773 23.095 24.0761 23.2325C24.0761 23.2387 24.0861 23.4187 23.9598 23.6075C23.8036 23.8412 23.3761 24.0137 23.3086 24.2475C23.3561 24.2825 23.4023 24.3312 23.4448 24.3987C23.5798 24.225 23.9636 24.0087 24.1736 23.6937C24.3573 23.8137 24.6598 24.0137 24.6798 24.1725C24.7723 24.16 24.8623 24.1837 24.9348 24.2112C24.8423 23.8262 24.4211 23.6512 24.2448 23.5387Z" fill="#DD2C00"/>
<path d="M18.7768 17.3137C18.5755 17.5174 18.683 17.7062 18.7843 17.8112C18.8855 17.9162 19.1205 18.0537 19.243 17.9237C19.3505 17.8112 19.3718 17.6524 19.2505 17.4487C19.128 17.2462 18.933 17.1549 18.7768 17.3137Z" fill="#EF5350"/>
<path d="M18.4974 16.7038L18.6724 17.0238L18.7487 16.9788L18.5724 16.6588L18.4974 16.7038Z" fill="#FBC02D"/>
<path d="M18.5051 16.4726C18.3501 16.4726 18.3489 16.7301 18.5051 16.7301C18.6576 16.7301 18.6676 16.4726 18.5051 16.4726Z" fill="#FBC02D"/>
<path d="M19.0387 16.8776C18.9337 16.8676 18.9037 16.9188 18.8962 17.0351C18.8449 16.9488 18.7824 16.9176 18.6999 16.9688C18.6312 17.0113 18.6212 17.0713 18.6462 17.1513C18.5912 17.1126 18.5387 17.1051 18.4824 17.1626C18.4299 17.2151 18.4337 17.2688 18.4699 17.3276C18.4474 17.3326 18.4287 17.3451 18.4149 17.3801C18.3824 17.4601 18.4024 17.5076 18.5212 17.5426C18.6374 17.5763 18.6849 17.5501 18.7037 17.5001C18.7062 17.4926 18.6987 17.4863 18.6999 17.4801C18.7249 17.4776 18.7487 17.4738 18.7662 17.4551C18.7874 17.4326 18.7924 17.3988 18.7874 17.3601C18.8349 17.3926 18.8762 17.4013 18.9124 17.3776C18.9399 17.3601 18.9574 17.3251 18.9637 17.2788C18.9774 17.2876 18.9887 17.3038 19.0049 17.3051C19.0949 17.3088 19.1237 17.2413 19.1512 17.0826C19.1724 16.9563 19.1424 16.8863 19.0387 16.8776Z" fill="#E53935"/>
<path d="M19.6655 17.8637C19.273 17.68 18.848 17.9687 18.8918 18.4512C18.9343 18.9337 19.523 19.3412 20.2543 19.3712L20.5555 18.9787C20.1668 18.92 20.3393 18.1812 19.6655 17.8637Z" fill="#00897B"/>
<path fill-rule="evenodd" clip-rule="evenodd" d="M19.6919 17.8087C20.0856 17.9924 20.2056 18.3112 20.3019 18.5674C20.3819 18.7774 20.4331 18.8987 20.5656 18.9174L20.6694 18.9349L20.2831 19.4349L20.2519 19.4337C19.4994 19.4024 18.8744 18.9737 18.8294 18.4587C18.8069 18.2074 18.9044 17.9812 19.0894 17.8512C19.2631 17.7299 19.4894 17.7137 19.6919 17.8087ZM18.9531 18.4474C18.9931 18.8949 19.5481 19.2699 20.2244 19.3087L20.4519 19.0137C20.3124 18.9464 20.2511 18.7849 20.1863 18.6143L20.1856 18.6124L20.1846 18.6097C20.0911 18.3628 19.9856 18.0843 19.6381 17.9212C19.5669 17.8887 19.4944 17.8724 19.4219 17.8724C19.3281 17.8724 19.2381 17.8987 19.1606 17.9537C19.0106 18.0587 18.9344 18.2387 18.9531 18.4474Z" fill="#00695C"/>
<path d="M20.5406 18.845C20.0393 19.1763 20.1993 19.5663 20.3393 19.735C20.5406 19.9763 21.4431 20.1275 22.0743 19.9163L22.1456 19.5088C21.8031 19.1613 21.0431 18.5125 20.5406 18.845Z" fill="#00897B"/>
<path fill-rule="evenodd" clip-rule="evenodd" d="M20.1426 19.2876C20.1689 19.1013 20.2914 18.9338 20.5064 18.7926C21.0626 18.4226 21.8676 19.1401 22.1876 19.4626L22.2114 19.4863L22.1289 19.9626L22.0939 19.9751C21.8789 20.0476 21.6301 20.0788 21.3889 20.0788C20.9039 20.0788 20.4401 19.9538 20.2914 19.7738C20.2476 19.7213 20.1064 19.5288 20.1426 19.2876ZM20.3864 19.6926C20.5601 19.9026 21.4051 20.0551 22.0201 19.8676L22.0789 19.5276C21.8664 19.3176 21.3101 18.8163 20.8551 18.8163C20.7551 18.8163 20.6589 18.8388 20.5739 18.8963C20.3914 19.0176 20.2876 19.1551 20.2651 19.3051C20.2376 19.4963 20.3514 19.6501 20.3864 19.6926Z" fill="#00695C"/>
<path d="M22.3331 19.2364C21.7744 19.5826 21.9744 20.0951 22.3044 20.3364C22.6344 20.5776 23.6519 20.4726 24.0969 20.3514C24.5419 20.2314 24.6556 20.0051 24.5844 19.7026C23.5806 19.2814 22.8919 18.8901 22.3331 19.2364Z" fill="#00897B"/>
<path fill-rule="evenodd" clip-rule="evenodd" d="M24.6092 19.6463L24.6379 19.6588L24.6442 19.69C24.7304 20.0563 24.5567 20.2913 24.1117 20.4125C23.8892 20.4725 23.4404 20.545 23.0267 20.545C22.7167 20.545 22.4267 20.505 22.2667 20.3875C22.0442 20.2238 21.9104 19.9788 21.9204 19.7463C21.9267 19.5938 21.9979 19.3713 22.3004 19.1825C22.8104 18.8663 23.4042 19.1225 24.2192 19.4788C24.2538 19.4937 24.2888 19.5087 24.3242 19.524C24.4166 19.5638 24.5116 19.6047 24.6092 19.6463ZM22.3404 20.2875C22.6517 20.5113 23.6517 20.4088 24.0817 20.2925C24.5392 20.1675 24.5679 19.9413 24.5304 19.7488C24.4425 19.7122 24.3581 19.6756 24.2757 19.6399C24.2399 19.6243 24.2044 19.6089 24.1692 19.5938L24.1676 19.5931C23.6246 19.3559 23.1876 19.165 22.8179 19.165C22.6554 19.165 22.5054 19.2038 22.3667 19.29C22.1642 19.415 22.0529 19.575 22.0454 19.7513C22.0367 19.98 22.1917 20.1775 22.3404 20.2875Z" fill="#00695C"/>
<path d="M26.7979 19.8624C26.6504 20.0662 26.6766 20.2399 26.1316 20.2162C26.0741 20.3287 25.9666 20.4349 25.7441 20.5249C25.8379 20.5399 26.0954 20.6299 26.5404 20.7737C26.9841 20.9174 27.2791 20.8487 27.7091 20.5999C28.1391 20.3512 28.0679 19.9437 27.7091 19.6424C27.3791 19.3674 26.9554 19.6437 26.7979 19.8624Z" fill="#00897B"/>
<path fill-rule="evenodd" clip-rule="evenodd" d="M26.7467 19.8263C26.8605 19.6701 27.083 19.4988 27.3255 19.4701C27.4717 19.4488 27.6267 19.4926 27.7492 19.5963C27.9692 19.7801 28.0855 20.0038 28.0667 20.2088C28.0555 20.3326 27.9892 20.5113 27.7405 20.6551C27.4642 20.8138 27.233 20.9101 26.963 20.9101C26.828 20.9101 26.6842 20.8863 26.5205 20.8338L26.2117 20.7326C25.9642 20.6513 25.7992 20.5976 25.7342 20.5876L25.5117 20.5526L25.7205 20.4688C25.9017 20.3938 26.0155 20.3051 26.0742 20.1888L26.093 20.1538L26.133 20.1551C26.5433 20.1686 26.5916 20.085 26.672 19.9461C26.6731 19.9441 26.6743 19.9421 26.6755 19.9401C26.6763 19.9386 26.6772 19.9371 26.6781 19.9356C26.6986 19.9006 26.7204 19.8635 26.7467 19.8263ZM26.5592 20.7151C26.963 20.8476 27.2342 20.8051 27.6767 20.5476C27.838 20.4538 27.9305 20.3326 27.9417 20.1963C27.9555 20.0326 27.8555 19.8488 27.668 19.6901C27.5742 19.6113 27.4655 19.5751 27.3392 19.5926C27.1342 19.6176 26.9405 19.7688 26.848 19.8988C26.8225 19.9328 26.8029 19.9667 26.7846 19.9984L26.783 20.0013C26.683 20.1738 26.593 20.2813 26.2192 20.2813C26.2017 20.2813 26.1842 20.2813 26.1667 20.2801C26.1117 20.3701 26.033 20.4451 25.923 20.5088C26.0067 20.5351 26.1155 20.5701 26.2505 20.6151L26.5592 20.7151Z" fill="#00695C"/>
<path d="M24.6414 19.6586C23.9814 19.8249 23.9389 20.5786 23.9102 21.4524C23.9102 21.5124 24.0389 21.5124 24.2977 21.5124C24.5564 21.5124 24.6914 21.5274 24.6852 21.4224C24.7277 20.3224 26.2914 20.9849 26.1764 19.9149C26.1239 19.4336 25.3002 19.4924 24.6414 19.6586Z" fill="#00897B"/>
<path fill-rule="evenodd" clip-rule="evenodd" d="M23.8477 21.4525C23.8727 20.63 23.9014 19.78 24.6252 19.5975C24.9402 19.5213 25.7052 19.3638 26.0577 19.61C26.1614 19.6813 26.2227 19.7825 26.2364 19.9088C26.3002 20.4988 25.8752 20.6163 25.5002 20.7188L25.495 20.7202C25.1207 20.8247 24.7663 20.9236 24.7452 21.4225C24.7477 21.47 24.7302 21.5 24.7127 21.5188C24.6652 21.57 24.5802 21.5763 24.4464 21.5763H24.3802L24.2964 21.575C23.9877 21.575 23.8477 21.575 23.8477 21.4525ZM24.6214 21.42C24.6452 20.8263 25.0814 20.705 25.4689 20.5988L25.4698 20.5985C25.8581 20.4912 26.1664 20.4059 26.1139 19.9213C26.1039 19.8325 26.0564 19.7713 25.9877 19.7113C25.7152 19.4738 25.2727 19.5663 24.6577 19.72C24.0714 19.8663 24.0039 20.495 23.9739 21.4363C24.0189 21.4513 24.1552 21.4513 24.2977 21.4513H24.3814C24.4914 21.4513 24.6002 21.4513 24.6227 21.4338L24.6214 21.42Z" fill="#00695C"/>
<path d="M27.8736 19.5676C27.6736 19.6963 27.6224 19.8538 27.6799 19.9751C27.7374 20.0951 27.9811 20.0651 28.1386 19.9676C28.2961 19.8701 28.3899 19.6738 28.3174 19.5526C28.2461 19.4326 28.0386 19.4626 27.8736 19.5676Z" fill="#EF5350"/>
<path d="M28.4992 19.3337L28.5617 19.3974L28.8055 19.1312L28.743 19.0674L28.4992 19.3337Z" fill="#FBC02D"/>
<path d="M28.7222 19.0826C28.7647 19.2363 29.0022 19.1751 28.9572 19.0113C28.9147 18.8551 28.6785 18.9238 28.7222 19.0826Z" fill="#FBC02D"/>
<path d="M28.5195 19.5499C28.6107 19.4987 28.642 19.4237 28.5882 19.3437C28.5357 19.2649 28.477 19.2662 28.4032 19.3112C28.4295 19.2462 28.432 19.1862 28.3695 19.1449C28.2657 19.0762 28.2157 19.1262 28.1332 19.2687C28.0532 19.4074 28.082 19.4887 28.1395 19.5212C28.172 19.5399 28.1995 19.5337 28.2282 19.5224C28.2245 19.5499 28.222 19.5749 28.237 19.5962C28.257 19.6237 28.282 19.6224 28.307 19.6237C28.2832 19.6524 28.2745 19.6862 28.2807 19.7174C28.297 19.8099 28.367 19.8237 28.5195 19.8174C28.6395 19.8124 28.7182 19.7687 28.7032 19.6599C28.6882 19.5562 28.6257 19.5412 28.5195 19.5499Z" fill="#E53935"/>
<path d="M21.2866 18.645C21.0753 18.7963 21.0141 19.0938 21.1328 19.2825C21.2516 19.4713 21.4516 19.4175 21.5628 19.2825C21.6741 19.1463 21.6528 18.8225 21.5916 18.71L21.2866 18.645Z" fill="#EF5350"/>
<path d="M21.4359 18.5138L21.5184 18.5388L21.6109 18.1813L21.5272 18.1575L21.4359 18.5138Z" fill="#FBC02D"/>
<path d="M21.5794 17.995C21.4244 17.995 21.4231 18.2525 21.5794 18.2525C21.7319 18.2525 21.7419 17.995 21.5794 17.995Z" fill="#FBC02D"/>
<path d="M21.6201 18.3437C21.5414 18.3437 21.5026 18.4074 21.5001 18.4724C21.4926 18.4699 21.4851 18.4737 21.4776 18.4724C21.5064 18.3924 21.4776 18.2874 21.3701 18.2874C21.2551 18.2874 21.2239 18.4224 21.2726 18.5012C21.2364 18.4749 21.2064 18.4387 21.1939 18.3849C21.0589 18.5262 21.1864 18.7512 21.3714 18.7012C21.3839 18.7287 21.3926 18.7599 21.4226 18.7699C21.4714 18.7862 21.5139 18.7737 21.5501 18.7424C21.6451 18.8249 21.8351 18.7499 21.8389 18.5474C21.8114 18.5599 21.7551 18.5749 21.6951 18.5812C21.7726 18.5099 21.7564 18.3437 21.6201 18.3437Z" fill="#E53935"/>
<path d="M26.146 11.125C25.6297 10.8238 25.0347 10.7025 24.4472 10.6575C23.9897 10.6225 23.7722 10.7063 23.7072 10.8763C23.356 10.8838 23.2497 11.035 23.1572 11.23C22.9785 11.6063 23.3297 11.6525 23.631 11.69C23.9322 11.7275 24.266 12.075 24.1522 12.5575C24.0235 12.3325 23.8647 12.1163 23.6022 12.035C23.6572 12.0063 23.7035 11.9725 23.731 11.9463C23.8022 11.8788 23.8247 11.8263 23.6022 11.8788C23.3797 11.9313 22.9585 11.5775 22.6572 11.7588C22.666 11.6913 22.6647 11.6338 22.6597 11.5888C22.6235 11.3125 22.581 11.4525 22.5197 11.6C22.4847 11.685 22.4235 11.7513 22.3472 11.8075C22.346 11.6825 22.3347 11.5575 22.3185 11.4638C22.2897 11.3013 22.2322 11.3963 22.2247 11.5888C22.221 11.675 22.1997 11.795 22.166 11.9163C22.1035 11.9488 22.0472 11.9738 21.9885 12.0075C21.9997 11.925 21.9997 11.8563 21.9672 11.66C21.9347 11.4638 21.856 11.5775 21.8597 11.69C21.8635 11.8025 21.8222 12.0938 21.721 12.245C21.746 12.16 21.741 12.0413 21.7047 11.905C21.6597 11.7338 21.611 11.745 21.6185 11.92C21.626 12.0788 21.4322 12.3038 21.256 12.4363C21.0272 12.6075 20.9872 12.715 21.0922 12.8363C21.381 13.165 22.2385 13.0513 22.3747 13.085C22.4347 13.1 22.4897 13.1263 22.4897 13.2213C22.4897 13.275 22.5072 13.2925 22.5572 13.2575C22.5322 13.385 22.4822 13.53 22.411 13.6238C22.3472 13.7088 22.366 13.7163 22.461 13.715C22.3935 13.9375 22.1772 14.1288 22.146 14.2688C22.1297 14.3413 22.1472 14.3913 22.2097 14.4038C22.131 14.69 21.9372 14.8263 21.9522 15.1125C21.9672 15.3988 22.181 15.7613 22.1535 15.9338C22.1285 16.085 22.246 16.065 22.3335 16.0063C22.3835 16.06 22.4335 16.1175 22.4847 16.1738C22.4272 16.325 22.6847 16.785 22.8922 17.0413C22.7422 16.9588 22.5772 16.8975 22.5272 16.9513C22.4897 16.9913 22.586 17.1963 22.8022 17.3813C22.5585 17.5475 22.1322 17.8025 22.1397 17.9313C22.1472 18.06 22.4385 18.1313 22.7672 18.1763C22.6722 18.32 22.6822 18.4375 22.9422 18.4138C23.186 18.3913 23.4447 18.2663 23.581 18.1988C23.7022 18.3663 23.8435 18.41 23.8897 17.8825C23.9435 17.9575 23.9897 18.0213 24.0247 18.075C24.1835 18.32 24.2697 18.445 24.3322 18.3675C24.4972 18.6163 24.5847 18.7375 24.6485 18.8738C24.7135 19.01 24.8497 19.1263 24.9135 18.7188C24.9635 18.8063 25.006 18.8788 25.0422 18.9413C25.136 19.1 25.2822 19.0813 25.3447 18.74C25.4235 18.8838 25.5147 18.9638 25.5372 18.5425C25.5872 18.6863 25.716 18.905 25.6947 18.5125C26.0097 18.8288 26.0672 18.8738 26.1747 18.98C26.2822 19.085 26.4397 19.1088 26.5547 18.9875C26.761 19.185 26.9985 19.1313 27.0922 18.98C27.2997 19.1463 27.6372 19.01 27.6872 18.8288C27.7635 18.88 27.8522 18.8813 28.046 18.8738C28.311 18.8638 28.5872 18.75 28.2397 18.4963C27.4947 17.9538 26.2747 17.1238 25.7735 16.7325C25.7535 16.3663 25.7222 15.91 25.6022 15.5113C25.796 15.7675 25.9385 15.8213 26.0822 15.8588C26.226 15.8963 26.2697 15.8063 26.4985 16.205C26.606 16.3938 26.6485 16.4613 26.7635 16.5663C26.8785 16.6713 26.9135 16.6263 26.7922 16.3625C26.671 16.0988 26.4335 15.7513 26.2185 15.495C26.4335 15.7288 26.441 15.7213 26.6347 15.8038C26.8285 15.8863 26.9997 16.0975 27.0722 16.3313C27.1435 16.565 27.2797 16.8138 27.3235 16.9038C27.366 16.9938 27.4297 16.9538 27.381 16.7225C27.3272 16.47 27.1997 16.0813 27.0785 15.84C27.251 16.0213 27.4672 16.1863 27.496 16.5113C27.5247 16.835 27.6035 17.0913 27.6822 17.2275C27.761 17.3638 27.7897 17.2575 27.7822 17.0463C27.7747 16.835 27.7222 16.3925 27.636 16.0225C27.7722 16.2438 27.8585 16.4388 27.8747 16.5713C27.9322 17.0463 28.1397 17.3325 28.1397 17.86C28.1397 18.0413 28.2485 18.3188 28.2835 17.9738C28.3335 17.4763 28.1635 16.5338 28.156 16.0438C28.2222 16.175 28.276 16.32 28.2972 16.4963C28.3547 16.9638 28.5122 17.25 28.5335 17.7625C28.5547 18.275 28.651 18.5688 28.706 18.23C28.8922 17.0613 28.5897 16.5738 28.6547 15.7525C28.756 15.9 28.851 16.0613 28.8497 16.24C28.8422 17.5438 28.971 17.74 28.971 18.3588C28.971 18.585 29.0035 18.9163 29.1435 18.4263C29.2935 17.8988 29.2935 17.1288 29.2935 16.67C29.2935 12.8775 26.6622 11.4263 26.146 11.125Z" fill="#AD6119"/>
<path d="M26.1466 11.125C25.6303 10.8238 25.0353 10.7025 24.4478 10.6575C23.9903 10.6225 23.7728 10.7063 23.7078 10.8763C23.3566 10.8838 23.2503 11.035 23.1578 11.23C22.9791 11.6063 23.3303 11.6525 23.6316 11.69C23.7628 11.7063 23.9053 11.7213 24.3941 11.6863C24.8091 11.6563 25.1153 11.6238 25.4866 11.7263C26.2966 11.9513 27.0378 12.6438 27.5378 13.27C28.1178 13.9975 28.6553 15.755 28.6553 15.755C28.7566 15.9025 28.8516 16.0638 28.8503 16.2425C28.8428 17.5463 28.9716 17.7425 28.9716 18.3613C28.9716 18.5875 29.0041 18.9188 29.1441 18.4288C29.2941 17.9013 29.2941 17.1313 29.2941 16.6725C29.2941 12.8775 26.6628 11.4263 26.1466 11.125Z" fill="#C47529"/>
<path d="M22.8913 17.0425C22.7413 16.96 22.5763 16.8988 22.5263 16.9525C22.4888 16.9925 22.585 17.1975 22.8013 17.3825C22.5575 17.5488 22.1313 17.8038 22.1388 17.9325C22.1463 18.0613 22.4375 18.1325 22.7663 18.1775C22.6713 18.3213 22.6813 18.4388 22.9413 18.415C23.185 18.3925 23.4438 18.2675 23.58 18.2C23.7013 18.3675 23.8425 18.4113 23.8888 17.8838C23.92 17.9263 23.84 17.665 23.5763 17.3025C23.2288 16.9588 22.6875 16.7913 22.8913 17.0425Z" fill="#9E5817"/>
<path d="M24.7131 17.6501C24.2131 17.7976 24.2906 18.4176 24.3306 18.3689C24.4956 18.6176 24.5831 18.7389 24.6468 18.8751C24.7118 19.0114 24.8481 19.1276 24.9118 18.7201C24.9618 18.8076 25.0043 18.8801 25.0406 18.9426C25.1343 19.1014 25.2806 19.0826 25.3431 18.7414C25.4218 18.8851 25.5131 18.9651 25.5356 18.5439C25.5856 18.6876 25.7143 18.9064 25.6931 18.5139C26.0081 18.8301 25.8343 18.2151 25.4968 17.9064C25.4418 17.8539 25.2818 17.6201 24.7131 17.6501Z" fill="#C47529"/>
<path d="M21.6554 12.3499L21.2966 12.7386C21.2891 12.8099 21.4216 12.8136 21.5229 12.7949C21.6229 12.7761 21.7491 12.6824 21.7629 12.5686C21.7779 12.4561 21.7416 12.3461 21.6554 12.3499Z" fill="white"/>
<path fill-rule="evenodd" clip-rule="evenodd" d="M21.2507 12.8355C21.3408 12.8399 21.4433 12.8449 21.5369 12.9262C21.6167 12.9959 21.7979 12.9738 21.9704 12.9527C22.1384 12.9322 22.2982 12.9127 22.3482 12.9799C22.4482 13.1149 22.2907 13.2662 22.1332 13.2737C22.0107 13.2812 21.8819 13.3949 21.7532 13.5224C21.3519 13.0787 21.1869 13.2899 21.1082 13.3949C21.0294 13.4999 21.1007 13.8924 21.2657 13.9524C21.1794 13.9674 20.8632 13.9749 20.7419 13.7862C20.5932 13.5562 20.6132 13.1687 20.9282 12.9724C20.8669 12.8699 20.9544 12.7699 21.0482 12.7625C21.0929 12.8278 21.1663 12.8313 21.2507 12.8355ZM25.3457 18.7399C25.5682 19.0949 25.8319 19.3187 26.1832 19.3112C26.3832 19.3074 26.4769 19.6062 26.2544 19.7324C26.0332 19.8612 25.8394 19.8237 25.7744 19.6349C25.6344 19.5409 25.4642 19.5872 25.3024 19.6313C25.1911 19.6616 25.0838 19.6908 24.9932 19.6724C24.9932 19.8374 24.8569 19.9887 24.6919 19.9812C24.5269 19.9737 24.3907 19.8137 24.4194 19.7012C24.2682 19.6637 24.1969 19.5374 24.1969 19.3862C24.1969 19.1524 24.3969 19.0774 24.5694 19.1449C24.7419 19.2124 25.0569 19.0699 25.0069 18.8812C25.1282 19.1574 25.3007 19.0487 25.3457 18.7399Z" fill="#FBC02D"/>
<path fill-rule="evenodd" clip-rule="evenodd" d="M24.1289 19.2475C23.9139 19.255 23.7526 19.5637 23.9714 19.7337C23.9346 19.5562 24.0431 19.5558 24.1399 19.5556C24.1848 19.5554 24.2272 19.5553 24.2514 19.5375C24.3251 19.4812 24.3439 19.24 24.1289 19.2475ZM24.4076 19.6812C24.2001 19.7262 24.1464 20.05 24.4251 20.1787C24.3667 20.0636 24.4576 20.0056 24.5345 19.9565C24.5811 19.9267 24.6226 19.9002 24.6226 19.8662C24.6226 19.7762 24.6164 19.6362 24.4076 19.6812ZM26.2176 19.8325C26.1214 19.7687 26.1789 19.6362 26.2251 19.5875C26.2714 19.5375 26.4264 19.5262 26.4976 19.67C26.5689 19.8137 26.5476 20.055 26.2389 20.0925C26.3214 19.9912 26.3139 19.8962 26.2176 19.8325Z" fill="#212121"/>
<path d="M22.2318 16.9674C22.1168 16.8087 21.6543 16.9549 21.4255 16.9262C21.2393 16.8837 21.0968 16.9899 21.0768 17.1312C20.9693 17.1162 20.8805 17.1799 20.8418 17.3224C20.7843 17.3299 20.7168 17.3787 20.7168 17.4774C20.7168 17.5749 20.7893 17.7874 20.903 17.8974C21.018 18.0062 21.0605 17.9387 21.1218 17.8287C21.1755 17.8512 21.2405 17.8362 21.3143 17.7574C21.3555 17.7587 21.408 17.7399 21.4718 17.6924C21.6118 17.7799 21.728 17.8349 21.773 17.8949C21.823 17.9624 21.8955 17.9474 22.0418 17.8012C22.2818 17.8312 22.7118 17.9099 22.9555 17.9712C23.0705 17.8699 23.2243 17.8124 23.3243 17.7862C22.9368 17.6724 22.518 17.5499 22.3743 17.4887C22.5355 17.3249 22.3143 17.0874 22.2318 16.9674Z" fill="#FBC02D"/>
<path fill-rule="evenodd" clip-rule="evenodd" d="M21.4871 17.4163C21.3884 17.4438 21.2934 17.4275 21.2859 17.3138C21.2709 17.0875 21.3496 16.8125 21.6734 16.835C21.6605 16.8682 21.6469 16.8971 21.6338 16.9248C21.5961 17.0048 21.5631 17.0751 21.5659 17.2088C21.5684 17.345 21.5521 17.3975 21.4871 17.4163ZM21.1221 17.8288C21.2221 17.8388 21.2871 17.785 21.3121 17.745C21.3696 17.7413 21.4309 17.7238 21.4721 17.6913C21.5359 17.725 21.6484 17.785 21.7271 17.8488C21.6734 17.8838 21.6221 17.8963 21.5734 17.8975C21.5734 17.8988 21.4671 17.9825 21.2834 17.9313C21.1921 18.0025 21.0296 18.0138 21.0059 17.9488C21.0584 17.9325 21.0984 17.8738 21.1221 17.8288Z" fill="#212121"/>
<path fill-rule="evenodd" clip-rule="evenodd" d="M20.3127 12.9823C20.2899 12.9793 20.2675 12.9764 20.2331 12.9837C20.2524 13.0869 20.4354 13.0767 20.6238 13.0662C20.6911 13.0624 20.7591 13.0586 20.8206 13.06C20.825 13.06 20.8193 13.0664 20.8078 13.0794C20.7736 13.1184 20.6874 13.2163 20.6631 13.3775C20.6538 13.4362 20.6579 13.4801 20.6603 13.506C20.6618 13.5219 20.6627 13.531 20.6593 13.5325C20.0581 13.77 19.8843 13.3937 19.8768 13.2525C19.8693 13.1087 19.8481 12.9587 19.7906 12.8075C19.7068 12.5875 19.7331 12.4375 19.9406 12.31C20.1481 12.1812 20.3493 12.03 20.4568 11.9325C20.5643 11.8337 20.6731 11.765 20.6068 11.9925C20.5781 12.0912 20.5068 12.31 20.3918 12.43C20.2768 12.55 20.1981 12.6787 20.2981 12.7687C20.3981 12.8587 20.6781 12.7012 20.8068 12.5575C20.8356 12.6325 20.7131 12.83 20.6081 12.8887C20.4163 12.9958 20.3636 12.9889 20.3127 12.9823ZM21.0781 13.5925C21.0543 13.4425 21.1106 13.2937 21.3218 13.2512C21.4806 13.22 21.6956 13.4512 21.7518 13.5225C21.8993 13.8162 22.0606 14.1562 21.3293 14.7287C20.5731 15.3212 20.4818 15.645 20.7831 16.0975L21.1356 16.7112C21.11 16.71 21.0777 16.7113 21.0406 16.7128C20.7972 16.7226 20.3429 16.7408 20.1531 16.1312C19.8656 15.2112 20.4893 14.6937 21.1493 14.1787C21.3581 14.0162 21.2718 13.7412 21.0781 13.5925Z" fill="#558B2F"/>
<path d="M20.7157 17.4763C20.6582 17.4776 20.6107 17.5063 20.5682 17.4801C20.2882 17.3063 20.4182 16.6963 20.0094 16.5301C19.6007 16.3638 19.6507 16.1601 19.7807 15.8813C19.9094 15.6026 19.8669 14.7963 19.1719 14.7813C18.4769 14.7663 18.9707 15.0451 19.1932 15.1588C19.4157 15.2726 19.5594 15.4076 19.4444 15.7463C19.3294 16.0851 19.1494 16.5001 19.5944 16.8313C19.8882 17.0501 19.9794 17.1263 20.0457 17.5026C20.1457 18.0676 20.5444 18.2901 21.0107 17.9488C20.8607 17.9263 20.7444 17.6751 20.7157 17.4763Z" fill="#558B2F"/>
<path d="M18.6366 14.7063C18.5191 14.7425 18.4928 14.7813 18.5953 14.8738C18.6653 14.9375 18.6041 15.0725 18.7591 15.115C18.8916 15.1513 18.9266 15.005 18.8953 14.95C18.8728 14.9088 18.8941 14.8263 18.9341 14.7938C18.9828 14.7538 19.0228 14.6163 18.8903 14.58C18.7353 14.5363 18.7266 14.6775 18.6366 14.7063Z" fill="#FBC02D"/>
<path d="M18.8143 14.7537C18.6968 14.7899 18.6706 14.8287 18.7731 14.9212C18.8431 14.9849 18.7818 15.1199 18.9368 15.1624C19.0693 15.1987 19.1043 15.0524 19.0731 14.9974C19.0506 14.9562 19.0706 14.8737 19.1118 14.8412C19.1606 14.8012 19.2006 14.6624 19.0681 14.6274C18.9143 14.5849 18.9056 14.7262 18.8143 14.7537Z" fill="#FBC02D"/>
<path d="M18.9921 14.8025C18.8746 14.8387 18.8483 14.8775 18.9508 14.97C19.0208 15.0337 18.9596 15.1687 19.1146 15.2112C19.2471 15.2475 19.2821 15.1012 19.2508 15.0462C19.2283 15.005 19.2483 14.9225 19.2896 14.89C19.3383 14.85 19.3783 14.7112 19.2458 14.6762C19.0908 14.6325 19.0821 14.7737 18.9921 14.8025Z" fill="#FBC02D"/>
<path fill-rule="evenodd" clip-rule="evenodd" d="M21.0854 13.4363C21.1229 13.3451 21.2179 13.2426 21.3216 13.2376C21.4829 13.2288 21.6941 13.4513 21.7504 13.5226C21.9772 13.7543 22.0472 14.1161 21.4402 14.6367C21.8614 14.2599 21.5707 13.5098 21.0854 13.4363ZM21.4141 14.6588C21.423 14.6514 21.4316 14.644 21.4402 14.6367C21.4318 14.6442 21.4231 14.6516 21.4141 14.6588ZM20.7091 15.3626C20.5854 15.5951 20.6479 15.8963 20.8116 16.0476C20.917 16.1445 21.0924 16.1381 21.2856 16.131C21.6081 16.1192 21.9801 16.1056 22.1591 16.5676C22.3866 17.1563 21.9966 17.3938 21.7679 17.4913C21.7593 17.4747 21.7577 17.4507 21.7558 17.424C21.753 17.3842 21.7498 17.3385 21.7229 17.3026C21.6916 17.2601 21.6229 17.2526 21.5654 17.2551C21.5471 17.0642 21.615 16.9425 21.651 16.8778C21.6617 16.8587 21.6696 16.8445 21.6716 16.8351C21.6904 16.7463 21.4429 16.7263 21.1129 16.7113C20.3529 16.6763 20.4079 15.7551 20.7091 15.3626Z" fill="#827717"/>
<path d="M21.7892 13.1489C21.6654 13.2026 21.5317 13.3176 21.5317 13.3176L21.6517 13.4164C21.6517 13.4164 21.8267 13.2726 21.9279 13.2476C22.0292 13.2226 22.0267 13.1314 21.9979 13.1176C21.9692 13.1039 21.8804 13.1101 21.7892 13.1489Z" fill="#827717"/>
<path d="M21.433 12.5501C21.3805 12.6001 21.3117 12.7251 21.3117 12.7251C21.3117 12.7251 21.4067 12.7526 21.4892 12.7401C21.5692 12.7276 21.6367 12.6963 21.6792 12.6088C21.738 12.4876 21.6242 12.3738 21.6242 12.3738C21.6242 12.3738 21.4867 12.5001 21.433 12.5501Z" fill="#EF6C00"/>
<path d="M21.3812 12.5938C21.3762 12.6451 21.5375 12.6476 21.565 12.5701C21.6 12.4713 21.54 12.4451 21.54 12.4451L21.3812 12.5938Z" fill="#212121"/>
<path d="M21.457 12.55C21.4485 12.55 21.4407 12.5545 21.4365 12.5619C21.4322 12.5692 21.4322 12.5783 21.4365 12.5856C21.4407 12.593 21.4485 12.5975 21.457 12.5975C21.4655 12.5975 21.4734 12.593 21.4776 12.5856C21.4818 12.5783 21.4818 12.5692 21.4776 12.5619C21.4734 12.5545 21.4655 12.55 21.457 12.55Z" fill="white"/>
<path d="M20.6916 12.1588C20.5441 12.1 20.5591 12.11 20.5591 12.11L20.5166 12.2238C20.5929 12.2063 20.9091 12.3413 20.9091 12.3413C20.9091 12.3413 20.8391 12.2175 20.6916 12.1588Z" fill="#827717"/>
<path d="M20.2013 12.2861C20.2013 12.3061 20.2176 12.3211 20.2363 12.3211C20.2563 12.3211 20.2713 12.3049 20.2713 12.2861C20.2713 12.2661 20.2551 12.2511 20.2363 12.2511C20.2163 12.2511 20.2013 12.2674 20.2013 12.2861Z" fill="#212121"/>
</svg>
