<svg width="48" height="36" viewBox="0 0 48 36" fill="none" xmlns="http://www.w3.org/2000/svg">
<path d="M0 0H48V18H0V0Z" fill="#FF3D00"/>
<path fill-rule="evenodd" clip-rule="evenodd" d="M12.145 15.6499C12.9812 15.6499 13.7787 15.5162 14.5262 15.2599C10.9163 15.1374 8.04 12.2737 8.04 8.7749C8.04 5.27615 10.9163 2.41115 14.5262 2.2899C13.7787 2.03365 12.9812 1.8999 12.145 1.8999C8.205 1.8999 5 4.97115 5 8.7749C5 12.5787 8.205 15.6499 12.145 15.6499ZM48 17.9999H0V35.9999H48V17.9999Z" fill="#ECEFF1"/>
<path fill-rule="evenodd" clip-rule="evenodd" d="M15.8747 5.50498L16.8459 6.22123L16.4709 5.06623L17.4447 4.35373L16.2434 4.35623L15.8747 3.19873L15.5059 4.35623L14.3047 4.35373L15.2784 5.06623L14.9047 6.22123L15.8747 5.50498ZM13.0334 8.94123L12.0622 8.22498L11.0922 8.94123L11.4659 7.78623L10.4922 7.07373L11.6934 7.07623L12.0622 5.91873L12.4309 7.07623L13.6322 7.07373L12.6584 7.78623L13.0334 8.94123ZM20.6497 8.94123L19.6784 8.22498L18.7084 8.94123L19.0822 7.78623L18.1084 7.07373L19.3097 7.07623L19.6784 5.91873L20.0472 7.07623L21.2497 7.07248L20.2759 7.78498L20.6497 8.94123ZM14.4584 13.2925L13.4872 12.5762L12.5172 13.2925L12.8909 12.1375L11.9172 11.425L13.1184 11.4275L13.4872 10.27L13.8559 11.4275L15.0572 11.425L14.0834 12.1375L14.4584 13.2925ZM18.2534 12.5762L19.2247 13.2925L18.8497 12.1375L19.8234 11.425L18.6222 11.4275L18.2534 10.27L17.8847 11.4275L16.6834 11.425L17.6572 12.1375L17.2834 13.2925L18.2534 12.5762Z" fill="#ECEFF1"/>
</svg>
