<svg width="48" height="36" viewBox="0 0 48 36" fill="none" xmlns="http://www.w3.org/2000/svg">
<path d="M0 0H48V36H0V0Z" fill="#FF3D00"/>
<path d="M24.2949 17.5822C16.5485 14.3215 19.9818 4.27507 27.3914 4.77983C25.8926 5.5465 25.6747 6.97864 26.5306 8.30364C27.489 9.78816 26.4426 12.1763 25.1461 12.7572C23.0176 13.712 22.5902 16.2572 24.2949 17.5822Z" fill="#ECEFF1"/>
<path fill-rule="evenodd" clip-rule="evenodd" d="M23.439 11.0084L23.8747 10.3275L24.6807 10.4215L24.1652 9.79773L24.5045 9.06439L23.7497 9.36082L23.1545 8.81201L23.2033 9.61796L22.4949 10.0132L23.2807 10.2156L23.439 11.0084ZM22.3152 14.8275C22.6437 16.0203 23.3997 17.0192 24.3366 17.4977L24.2509 17.6668C23.2521 17.1561 22.4795 16.1394 22.1318 14.8775C21.7402 13.4572 21.9652 11.9322 22.7485 10.6918L22.9104 10.7942C22.1557 11.9882 21.939 13.4596 22.3152 14.8275Z" fill="#FF3D00"/>
<path d="M24.3008 17.5846C25.021 9.24052 35.6782 9.38814 37.4853 16.5608C36.2901 15.3786 34.8555 15.6143 33.8532 16.8358C32.7317 18.2024 30.127 17.9489 29.1722 16.9012C27.6032 15.1786 25.0401 15.5608 24.3008 17.5846Z" fill="#ECEFF1"/>
<path fill-rule="evenodd" clip-rule="evenodd" d="M30.3146 14.7429L31.1003 14.9453L31.2587 15.7382L31.6944 15.056L32.5003 15.1513L31.9837 14.5275L32.3241 13.7941L31.5694 14.0906L30.9729 13.5417L31.0229 14.3489L30.3146 14.7429ZM26.3206 14.8608C25.2837 15.5406 24.5634 16.5644 24.3956 17.6001L24.2051 17.5691C24.3837 16.4656 25.117 15.4203 26.2146 14.7013C27.4503 13.8917 28.9765 13.6334 30.4039 13.9917L30.3563 14.1775C28.9825 13.8322 27.511 14.081 26.3206 14.8608Z" fill="#FF3D00"/>
<path d="M24.3027 17.5929C32.4944 15.6964 35.6468 25.8345 29.3551 29.7619C30.1146 28.2643 29.4456 26.9786 27.9706 26.4071C26.3194 25.7667 25.7563 23.2226 26.4611 21.994C27.6206 19.9762 26.4634 17.6679 24.3027 17.5929Z" fill="#ECEFF1"/>
<path fill-rule="evenodd" clip-rule="evenodd" d="M27.5295 18.6631C26.5593 17.8917 25.3581 17.5262 24.3176 17.6869L24.2891 17.4988C25.3986 17.3274 26.6236 17.6976 27.6498 18.5155C28.8033 19.4357 29.5224 20.8012 29.6212 22.2631L29.4295 22.275C29.3343 20.8667 28.6414 19.55 27.5295 18.6631ZM28.8748 22.4107L28.9248 23.2167L28.2153 23.6131L28.9998 23.8155L29.1581 24.6072L29.5938 23.9262L30.3998 24.0215L29.8843 23.3976L30.2248 22.6631L29.47 22.9595L28.8748 22.4107Z" fill="#FF3D00"/>
<path d="M24.2943 17.5952C28.6372 24.7666 19.9289 30.8857 14.2324 26.1405C15.8979 26.3976 16.9181 25.3666 17.0086 23.7928C17.1098 22.0309 19.3658 20.7107 20.7574 21C23.0431 21.4738 24.8896 19.6655 24.2943 17.5952Z" fill="#ECEFF1"/>
<path fill-rule="evenodd" clip-rule="evenodd" d="M24.2691 20.9811C24.7072 19.8239 24.6846 18.5739 24.2096 17.6382L24.381 17.5525C24.8881 18.5501 24.9119 19.8239 24.4488 21.0489C23.9262 22.4263 22.8441 23.5287 21.4786 24.0739L21.4072 23.8965C22.7227 23.3715 23.7655 22.3084 24.2691 20.9811ZM21.106 23.4132L20.3512 23.7096L19.756 23.1608L19.8048 23.9668L19.0977 24.362L19.8834 24.5644L20.0405 25.3573L20.4762 24.6751L21.2822 24.7703L20.7655 24.1465L21.106 23.4132Z" fill="#FF3D00"/>
<path d="M24.2887 17.5893C18.7804 23.919 10.2459 17.5619 13.0185 10.7012C13.2876 12.3571 14.5876 13.0059 16.1185 12.6047C17.8328 12.1559 19.7899 13.8857 19.9447 15.2916C20.1983 17.6036 22.4971 18.794 24.2887 17.5893Z" fill="#ECEFF1"/>
<path fill-rule="evenodd" clip-rule="evenodd" d="M17.7463 16.3666L17.2308 15.744L17.5689 15.0107L16.8141 15.3059L16.2189 14.7583L16.2689 15.5643L15.5605 15.9583L16.3463 16.1607L16.5046 16.9535L16.9403 16.2714L17.7463 16.3666ZM21.0475 18.6107C22.2891 18.6678 23.476 18.2607 24.2225 17.5214L24.357 17.6583C23.5605 18.4464 22.351 18.8631 21.0379 18.8023C19.5617 18.7333 18.1736 18.0488 17.2308 16.9238L17.3784 16.8012C18.2867 17.8845 19.6248 18.544 21.0475 18.6107Z" fill="#FF3D00"/>
</svg>
