<svg width="24" height="24" viewBox="0 0 24 24" fill="none" xmlns="http://www.w3.org/2000/svg">
<path fill-rule="evenodd" clip-rule="evenodd" d="M22.1506 0.5C22.4606 0.503894 22.7673 0.570716 23.0518 0.697141C23.1649 0.747416 23.2554 0.837877 23.3057 0.951013C23.4321 1.23551 23.4989 1.54218 23.5035 1.83229L23.492 2.24977C23.4154 3.6335 22.6891 4.87717 21.3503 6.33086L21.029 6.67192L20.3487 7.36121L18.265 9.403L18.6931 10.8129C19.1428 10.6558 19.6608 10.7096 20.1048 10.9992L20.2323 11.0905L21.6286 12.4875C21.9064 12.7928 22.0461 13.199 22.0149 13.6106C21.9876 13.9707 21.8315 14.3071 21.604 14.5362L21.5023 14.6276L20.233 15.896L21.5677 20.3003C21.6922 20.715 21.6047 21.1612 21.3379 21.4992L21.2423 21.6076L20.6991 22.1507C20.4475 22.4122 20.0847 22.5356 19.7259 22.4818C19.4118 22.4347 19.1348 22.257 18.9654 22.0053L18.8996 21.893L14.259 13.365L13.6338 13.9899L12.371 15.2387C11.5503 16.1014 10.6575 16.8902 9.70145 17.5979L10.0486 22.1002C10.0536 22.2828 9.99907 22.461 9.88668 22.6169L9.81232 22.7076L9.27284 23.2471C9.07712 23.4434 8.79958 23.5347 8.52556 23.4929C8.29068 23.457 8.08249 23.3271 7.94479 23.1316L7.88202 23.0286L6.14825 19.5784C5.76376 19.6439 5.3644 19.5723 5.02347 19.3703L4.88114 19.2758L4.79734 19.1973C4.47541 18.8175 4.34537 18.3196 4.42291 17.854L0.967355 16.1173C0.721637 15.989 0.551761 15.7513 0.509961 15.4773C0.474132 15.2424 0.536077 15.0049 0.677792 14.819L0.755213 14.7305L1.30968 14.1766C1.44391 14.0527 1.61405 13.9767 1.80873 13.9591L1.92839 13.9556L6.40703 14.3104C6.99982 13.5153 7.64872 12.7647 8.3476 12.0659L8.77288 11.6529L10.66 9.755L2.12306 5.11021C1.83972 4.96687 1.63252 4.71119 1.54908 4.40909L1.52104 4.27697C1.47394 3.96295 1.56251 3.64599 1.76058 3.4031L1.85209 3.30376L2.39863 2.75712C2.70776 2.45388 3.14334 2.32364 3.56422 2.40174L3.70377 2.43555L8.106 3.769L9.3403 2.53927C9.60016 2.21859 9.98067 2.01916 10.3922 1.98794C10.7524 1.96062 11.1084 2.0642 11.4077 2.2875L11.5323 2.3905L12.9536 3.81731C13.2946 4.25618 13.367 4.82124 13.1916 5.31107L14.611 5.74L16.7676 3.5267L17.3666 2.93659L17.8177 2.51427C19.272 1.19021 20.38 0.574295 21.7245 0.510753L22.1506 0.5ZM8.75003 18.2615L9.04299 22.062L8.69099 22.414L7.09121 19.2297C7.18711 19.1851 7.28414 19.1374 7.38004 19.0873C7.69217 18.9152 7.99929 18.7354 8.30117 18.5481L8.75003 18.2615ZM17.459 10.192L20.6102 20.589L20.6227 20.6562C20.6277 20.7239 20.6108 20.7919 20.5745 20.8498L20.5318 20.9039L19.9852 21.4505L19.95 21.4782L19.9126 21.4922L19.8742 21.4928L19.8378 21.4812L19.8073 21.4592L19.7949 21.4447L14.997 12.629L16.4165 11.2157L17.459 10.192ZM1.94099 14.958L5.73859 15.2616C5.54094 15.5605 5.35089 15.8647 5.16873 16.174L4.90145 16.6416L4.77098 16.909L1.58899 15.31L1.94099 14.958ZM3.34723 3.38029L3.41498 3.39292L13.826 6.54698L12.5903 7.81611L11.395 9.01598L2.58771 4.22483L2.54752 4.19754C2.52577 4.17757 2.5138 4.15424 2.50996 4.1286C2.50611 4.10297 2.51071 4.07715 2.5225 4.0548L2.54543 4.02433L3.1023 3.46759L3.15476 3.42654C3.21136 3.39153 3.27916 3.37503 3.34723 3.38029ZM22.2767 1.51033L22.1414 1.50098L21.8243 1.50807L21.6219 1.52313C20.6166 1.6268 19.7029 2.15866 18.5001 3.24737L18.2556 3.47258L17.8203 3.89015L17.5925 4.11563L17.3574 4.35242L13.9858 7.82411L13.477 8.34148L9.47188 12.3678L9.07664 12.7513C7.77789 14.0473 6.6674 15.5185 5.78507 17.1095C5.66561 17.346 5.55965 17.5891 5.45777 17.8623C5.37251 18.0597 5.38948 18.2839 5.49822 18.4645L5.526 18.5028L5.56508 18.5276L5.66073 18.5673C5.75951 18.5991 5.86717 18.6068 5.97903 18.5881L6.09212 18.5604L6.44791 18.4204L6.68221 18.3172L6.90728 18.2063C8.50499 17.325 9.97118 16.2257 11.2731 14.9312L11.6587 14.537L12.2624 13.9424L15.5188 10.6971L19.6452 6.65052L20.2021 6.08857L20.6129 5.65536L20.8286 5.41634C21.8746 4.2337 22.4274 3.23227 22.4933 2.18073L22.5029 1.86477L22.4973 1.7603L22.4834 1.65679L22.456 1.54584L22.4053 1.53193L22.2767 1.51033ZM19.572 11.8389L19.4812 11.7811C19.3237 11.7007 19.1393 11.6994 18.9829 11.7717L19.904 14.812L20.834 13.8856L20.8931 13.829C20.9652 13.7478 21.0094 13.6447 21.0177 13.535C21.0261 13.4252 20.9979 13.3166 20.9472 13.2342L20.9052 13.1776L19.572 11.8389ZM10.8422 3.11386L10.7774 3.06391C10.6862 3.00491 10.5776 2.97676 10.4679 2.98509C10.3581 2.99341 10.255 3.03762 10.1559 3.12955L10.0823 3.20763L9.19099 4.09802L12.2326 5.01993L12.269 4.9238C12.3062 4.7933 12.2982 4.65632 12.247 4.54737L12.2052 4.47763L10.8422 3.11386ZM19.9604 2.32727C20.425 1.86328 21.1744 1.86328 21.639 2.32727L21.67 2.36852L21.7585 2.46713L21.8363 2.57651C21.9553 2.76548 22.02 2.98609 22.02 3.21348C22.02 3.53182 21.8932 3.83688 21.6681 4.06043C21.5612 4.1666 21.389 4.16541 21.2835 4.05776C21.178 3.95012 21.1792 3.77679 21.2861 3.67062C21.4077 3.54996 21.4761 3.3853 21.4761 3.21348C21.4761 3.04165 21.4077 2.877 21.2861 2.75634L21.2526 2.71296L21.1758 2.64786L21.0883 2.5949C20.8466 2.47384 20.5455 2.51419 20.3435 2.71596C20.2369 2.82244 20.0647 2.82176 19.9589 2.71442C19.8531 2.60709 19.8538 2.43376 19.9604 2.32727Z" fill="#001833"/>
</svg>
