<?xml version="1.0" encoding="utf-8"?>
<!-- Generator: Adobe Illustrator 21.1.0, SVG Export Plug-In . SVG Version: 6.00 Build 0)  -->
<svg version="1.1"  xmlns="http://www.w3.org/2000/svg" xmlns:xlink="http://www.w3.org/1999/xlink" x="0px" y="0px"
	 viewBox="0 0 24 24" style="enable-background:new 0 0 24 24;" xml:space="preserve">
<style type="text/css">
	.st0{fill:#001833;}
</style>
<path class="st0" d="M6,21c-0.6,0-1-0.4-1-1V3l0,0c0-0.6,0.4-1,1-1l0,0h12c0.6,0,1,0.4,1,1v17c0,0.6-0.4,1-1,1v1h-2
	v-1H8v1H6V21z M19,9V8H5v1H19z M7,4v2h2V4H7z M7,11v6h2v-6H7z"/>
</svg>
