<?xml version="1.0" encoding="utf-8"?>
<svg width="24" height="24" viewBox="0 0 24 24" fill="none" xmlns="http://www.w3.org/2000/svg">
<path d="M15.65 10.675C16.025 10.675 16.3438 10.5438 16.6063 10.2813C16.8688 10.0188 17 9.7 17 9.325C17 8.95 16.8688 8.63125 16.6063 8.36875C16.3438 8.10625 16.025 7.975 15.65 7.975C15.275 7.975 14.9563 8.10625 14.6938 8.36875C14.4313 8.63125 14.3 8.95 14.3 9.325C14.3 9.7 14.4313 10.0188 14.6938 10.2813C14.9563 10.5438 15.275 10.675 15.65 10.675ZM8.35 10.675C8.725 10.675 9.04375 10.5438 9.30625 10.2813C9.56875 10.0188 9.7 9.7 9.7 9.325C9.7 8.95 9.56875 8.63125 9.30625 8.36875C9.04375 8.10625 8.725 7.975 8.35 7.975C7.975 7.975 7.65625 8.10625 7.39375 8.36875C7.13125 8.63125 7 8.95 7 9.325C7 9.7 7.13125 10.0188 7.39375 10.2813C7.65625 10.5438 7.975 10.675 8.35 10.675ZM12.0044 13.575C10.8848 13.575 9.87083 13.8875 8.9625 14.5125C8.05417 15.1375 7.38333 15.9667 6.95 17H8.275C8.64167 16.3 9.15978 15.7583 9.82933 15.375C10.4989 14.9917 11.228 14.8 12.0168 14.8C12.8056 14.8 13.5292 14.9958 14.1875 15.3875C14.8458 15.7792 15.3667 16.3167 15.75 17H17.05C16.6333 15.95 15.9681 15.1167 15.0544 14.5C14.1406 13.8833 13.1239 13.575 12.0044 13.575ZM12 22C10.6167 22 9.31667 21.7375 8.1 21.2125C6.88333 20.6875 5.825 19.975 4.925 19.075C4.025 18.175 3.3125 17.1167 2.7875 15.9C2.2625 14.6833 2 13.3833 2 12C2 10.6167 2.2625 9.31667 2.7875 8.1C3.3125 6.88333 4.025 5.825 4.925 4.925C5.825 4.025 6.88333 3.3125 8.1 2.7875C9.31667 2.2625 10.6167 2 12 2C13.3833 2 14.6833 2.2625 15.9 2.7875C17.1167 3.3125 18.175 4.025 19.075 4.925C19.975 5.825 20.6875 6.88333 21.2125 8.1C21.7375 9.31667 22 10.6167 22 12C22 13.3833 21.7375 14.6833 21.2125 15.9C20.6875 17.1167 19.975 18.175 19.075 19.075C18.175 19.975 17.1167 20.6875 15.9 21.2125C14.6833 21.7375 13.3833 22 12 22Z" fill="#001833"/>
</svg>
