<?xml version="1.0" encoding="UTF-8"?>
<svg width="24px" height="24px" viewBox="0 0 24 24" version="1.1" xmlns="http://www.w3.org/2000/svg" xmlns:xlink="http://www.w3.org/1999/xlink">
    <title>golf</title>
    <g stroke="none" stroke-width="1" fill="none" fill-rule="evenodd">
        <path d="M17,17 L17,19 L15,19 C13.9,19 13,19.9 13,21 L13,21 L13,22 L11,22 L11,21 C11,19.9 10.1,19 9,19 L9,19 L7,19 L7,17 L17,17 Z M12,2 C15.87,2 19,5.13 19,9 C19,12.87 15.87,16 12,16 C8.13,16 5,12.87 5,9 C5,5.13 8.13,2 12,2 Z M12,4 C9.24,4 7,6.24 7,9 C7,11.76 9.24,14 12,14 C14.76,14 17,11.76 17,9 C17,6.24 14.76,4 12,4 Z M10,7 C10.5522847,7 11,7.44771525 11,8 C11,8.55228475 10.5522847,9 10,9 C9.44771525,9 9,8.55228475 9,8 C9,7.44771525 9.44771525,7 10,7 Z M14,7 C14.5522847,7 15,7.44771525 15,8 C15,8.55228475 14.5522847,9 14,9 C13.4477153,9 13,8.55228475 13,8 C13,7.44771525 13.4477153,7 14,7 Z M12,5 C12.5522847,5 13,5.44771525 13,6 C13,6.55228475 12.5522847,7 12,7 C11.4477153,7 11,6.55228475 11,6 C11,5.44771525 11.4477153,5 12,5 Z"  fill="#001833"></path>
    </g>
</svg>