<?xml version="1.0" encoding="utf-8"?>
<!-- Generator: Adobe Illustrator 21.1.0, SVG Export Plug-In . SVG Version: 6.00 Build 0)  -->
<svg version="1.1" id="Layer_1" xmlns="http://www.w3.org/2000/svg" xmlns:xlink="http://www.w3.org/1999/xlink" x="0px" y="0px"
	 viewBox="0 0 24 24" style="enable-background:new 0 0 24 24;" xml:space="preserve">
<path id="path-1_1_" class="st0" d="M12,2C6.5,2,2,6.5,2,12s4.5,10,10,10s10-4.5,10-10S17.5,2,12,2z M13,19h-2v-2h2V19z M15.1,11.2
	l-0.9,0.9C13.4,12.9,13,13.5,13,15h-2v-0.5c0-1.1,0.4-2.1,1.2-2.8l1.2-1.3C13.8,10.1,14,9.6,14,9c0-1.1-0.9-2-2-2s-2,0.9-2,2H8
	c0-2.2,1.8-4,4-4s4,1.8,4,4C16,9.9,15.6,10.7,15.1,11.2z"/>
</svg>
