<?xml version="1.0" encoding="utf-8"?>
<!-- Generator: Adobe Illustrator 21.1.0, SVG Export Plug-In . SVG Version: 6.00 Build 0)  -->
<svg version="1.1" id="Layer_1" xmlns="http://www.w3.org/2000/svg" xmlns:xlink="http://www.w3.org/1999/xlink" x="0px" y="0px"
	 viewBox="0 0 24 24" style="enable-background:new 0 0 24 24;" xml:space="preserve">
<path class="st0" d="M22,12c0,4.7-3.8,8.6-8.6,8.6c-2.4,0-4.5-1-6.1-2.5l1.4-1.4c1.2,1.2,2.9,2,4.7,2c3.7,0,6.7-3,6.7-6.7
	s-3-6.7-6.7-6.7c-3.7,0-6.7,3-6.7,6.7h2.9l-3.8,3.8l-0.1-0.1L2,12h2.9c0-4.7,3.8-8.6,8.6-8.6S22,7.3,22,12z M12.5,8.2V13l4.1,2.4
	l0.7-1.2l-3.3-2v-4H12.5z"/>
</svg>
