<svg width="24" height="24" viewBox="0 0 24 24" fill="none" xmlns="http://www.w3.org/2000/svg">
<path fill-rule="evenodd" clip-rule="evenodd" d="M21 1C21.2761 1 21.5 1.22386 21.5 1.5C21.5 1.74546 21.3231 1.94961 21.0898 1.99194L21 2H19.9999V13.3892C20.245 13.0833 20.5847 12.8522 20.9834 12.7425C21.808 12.5157 22.6834 12.8638 23.1251 13.5947C23.4494 14.1314 23.4815 14.7778 23.2435 15.3293L23.194 15.432L23.3133 15.5483C23.7893 16.0458 24.0426 16.7264 23.9941 17.4276L23.9756 17.6033C23.8348 18.5998 23.1033 19.4119 22.1252 19.6587L22.0029 19.6739H21.975V21H22.5C22.7761 21 23 21.2239 23 21.5C23 21.7455 22.8231 21.9496 22.5898 21.9919L22.5 22H1.49996C1.22381 22 0.999957 21.7761 0.999957 21.5C0.999957 21.2545 1.17683 21.0504 1.41008 21.0081L1.49996 21H2.02496V19.6739H2.00008L1.87651 19.6584C0.899306 19.4092 0.168513 18.5977 0.0252812 17.6018C-0.08428 16.8401 0.166505 16.0855 0.678783 15.5433L0.790957 15.432L0.753135 15.3579C0.663173 15.1622 0.607261 14.9513 0.589119 14.7345L0.582653 14.571C0.585268 13.7169 1.15822 12.9695 1.98338 12.7425L2.13847 12.7067C2.84337 12.5743 3.56317 12.8489 3.99994 13.4123V2H2.99996C2.72381 2 2.49996 1.77614 2.49996 1.5C2.49996 1.25454 2.67683 1.05039 2.91008 1.00806L2.99996 1H21ZM19.9999 21V19.2401C20.2569 19.432 20.5532 19.5759 20.8765 19.6584L21.0001 19.6739H21.025V21H19.9999ZM18.9999 21V2H4.99994V17.2437V17.2705V21H7.99996V16.5C7.99996 16.2545 8.17683 16.0504 8.41008 16.0081L8.49996 16H15.5C15.7454 16 15.9496 16.1769 15.9919 16.4101L16 16.5V21H18.9999ZM3.99994 19.2439C3.74338 19.4345 3.44768 19.5773 3.12517 19.6587L3.00285 19.6739H2.97496V21H3.99994V19.2439ZM7.49996 4H8.49996C8.7761 4 8.99996 4.22386 8.99996 4.5V5.5C8.99996 5.77614 8.7761 6 8.49996 6H7.49996C7.22381 6 6.99996 5.77614 6.99996 5.5V4.5C6.99996 4.22386 7.22381 4 7.49996 4ZM12.5 4H11.5C11.2238 4 11 4.22386 11 4.5V5.5C11 5.77614 11.2238 6 11.5 6H12.5C12.7761 6 13 5.77614 13 5.5V4.5C13 4.22386 12.7761 4 12.5 4ZM15.5 4H16.5C16.7761 4 17 4.22386 17 4.5V5.5C17 5.77614 16.7761 6 16.5 6H15.5C15.2238 6 15 5.77614 15 5.5V4.5C15 4.22386 15.2238 4 15.5 4ZM8.49996 8H7.49996C7.22381 8 6.99996 8.22386 6.99996 8.5V9.5C6.99996 9.77614 7.22381 10 7.49996 10H8.49996C8.7761 10 8.99996 9.77614 8.99996 9.5V8.5C8.99996 8.22386 8.7761 8 8.49996 8ZM11.5 8H12.5C12.7761 8 13 8.22386 13 8.5V9.5C13 9.77614 12.7761 10 12.5 10H11.5C11.2238 10 11 9.77614 11 9.5V8.5C11 8.22386 11.2238 8 11.5 8ZM16.5 8H15.5C15.2238 8 15 8.22386 15 8.5V9.5C15 9.77614 15.2238 10 15.5 10H16.5C16.7761 10 17 9.77614 17 9.5V8.5C17 8.22386 16.7761 8 16.5 8ZM7.49996 12H8.49996C8.7761 12 8.99996 12.2239 8.99996 12.5V13.5C8.99996 13.7761 8.7761 14 8.49996 14H7.49996C7.22381 14 6.99996 13.7761 6.99996 13.5V12.5C6.99996 12.2239 7.22381 12 7.49996 12ZM12.5 12H11.5C11.2238 12 11 12.2239 11 12.5V13.5C11 13.7761 11.2238 14 11.5 14H12.5C12.7761 14 13 13.7761 13 13.5V12.5C13 12.2239 12.7761 12 12.5 12ZM15.5 12H16.5C16.7761 12 17 12.2239 17 12.5V13.5C17 13.7761 16.7761 14 16.5 14H15.5C15.2238 14 15 13.7761 15 13.5V12.5C15 12.2239 15.2238 12 15.5 12ZM3.26931 14.1119C3.47873 14.4585 3.43086 14.9013 3.15195 15.1957C3.08597 15.2653 3.04189 15.352 3.02397 15.4449L3.01493 15.5502C3.01493 15.7284 3.10977 15.8931 3.26386 15.9826C3.78437 16.2848 4.06931 16.87 3.98546 17.4634L3.95994 17.5983C3.84408 18.0853 3.48706 18.4817 3.01274 18.6492L2.93298 18.673H2.06998L2.12368 18.6894C1.53799 18.54 1.1007 18.0545 1.01512 17.4595C0.929582 16.8647 1.21214 16.277 1.7317 15.97C2.01179 15.8046 2.06178 15.4199 1.83329 15.1884C1.67166 15.0245 1.58165 14.804 1.58267 14.5747C1.58391 14.1695 1.85585 13.8148 2.24862 13.7067C2.64197 13.5985 3.05934 13.7645 3.26931 14.1119ZM22.152 15.1957C22.4309 14.9013 22.4787 14.4585 22.2693 14.1119C22.0593 13.7645 21.642 13.5985 21.2486 13.7067C20.8559 13.8148 20.5839 14.1695 20.5827 14.5747C20.5816 14.804 20.6717 15.0245 20.8333 15.1884C21.0618 15.4199 21.0118 15.8046 20.7317 15.97C20.2121 16.277 19.9296 16.8647 20.0151 17.4595C20.1007 18.0545 20.538 18.54 21.1237 18.6894L21.07 18.673H21.933L22.0127 18.6492C22.4871 18.4817 22.8441 18.0853 22.9599 17.5983L22.9855 17.4634C23.0693 16.87 22.7844 16.2848 22.2639 15.9826C22.1098 15.8931 22.0149 15.7284 22.0149 15.5502L22.024 15.4449C22.0419 15.352 22.086 15.2653 22.152 15.1957ZM8.99998 17H11.5V21H8.99998V17ZM12.5 17H15V21H12.5V17Z" fill="#001833"/>
</svg>
