<?xml version="1.0" encoding="UTF-8"?>
<svg width="24px" height="24px" viewBox="0 0 24 24" version="1.1" xmlns="http://www.w3.org/2000/svg" xmlns:xlink="http://www.w3.org/1999/xlink">
    <title>KingBed</title>
    <g stroke="none" stroke-width="1" fill="none" fill-rule="evenodd">
        <path d="M21,10.78 L21,8 C21,6.35 19.65,5 18,5 L14,5 C13.23,5 12.53,5.3 12,5.78 C11.47,5.3 10.77,5 10,5 L6,5 C4.35,5 3,6.35 3,8 L3,10.78 C2.39,11.33 2,12.12 2,13 L2,18 C2,18.55 2.45,19 3,19 L3,19 C3.55,19 4,18.55 4,18 L4,17 L20,17 L20,18 C20,18.55 20.45,19 21,19 L21,19 C21.55,19 22,18.55 22,18 L22,13 C22,12.12 21.61,11.33 21,10.78 Z M14,7 L18,7 C18.55,7 19,7.45 19,8 L19,10 L13,10 L13,8 C13,7.45 13.45,7 14,7 Z M5,8 C5,7.45 5.45,7 6,7 L10,7 C10.55,7 11,7.45 11,8 L11,10 L5,10 L5,8 Z M4,15 L4,13 C4,12.45 4.45,12 5,12 L19,12 C19.55,12 20,12.45 20,13 L20,15 L4,15 Z" fill="#001833"></path>
    </g>
</svg>