<?xml version="1.0" encoding="UTF-8"?>
<svg width="24px" height="24px" viewBox="0 0 24 24" version="1.1" xmlns="http://www.w3.org/2000/svg" xmlns:xlink="http://www.w3.org/1999/xlink">
    <title>kitchen</title>
    <g stroke="none" stroke-width="1" fill="none" fill-rule="evenodd">
        <path d="M23,15 L23,20 C23,21.1045695 22.1045695,22 21,22 L10,22 L10,15 L23,15 Z M4.5,2 C5.88071187,2 7,3.11928813 7,4.5 C7,4.91421356 6.66421356,5.25 6.25,5.25 C5.87030423,5.25 5.55650904,4.96784612 5.50684662,4.60177056 L5.5,4.5 C5.5,3.94771525 5.05228475,3.5 4.5,3.5 C3.98716416,3.5 3.56449284,3.88604019 3.50672773,4.38337887 L3.5,4.5 L3.5,8 L9,8 L9,22 L3,22 C1.8954305,22 1,21.1045695 1,20 L1,10 C1,9.25974756 1.40216612,8.61342606 1.99992752,8.26760632 L2,4.5 C2,3.11928813 3.11928813,2 4.5,2 Z M21,8 C22.1045695,8 23,8.8954305 23,10 L23,14 L10,14 L10,8 L21,8 Z M6,10 C5.44771525,10 5,10.4477153 5,11 C5,11.5522847 5.44771525,12 6,12 C6.55228475,12 7,11.5522847 7,11 C7,10.4477153 6.55228475,10 6,10 Z M14,10 C13.4477153,10 13,10.4477153 13,11 C13,11.5522847 13.4477153,12 14,12 C14.5522847,12 15,11.5522847 15,11 C15,10.4477153 14.5522847,10 14,10 Z M19,10 C18.4477153,10 18,10.4477153 18,11 C18,11.5522847 18.4477153,12 19,12 C19.5522847,12 20,11.5522847 20,11 C20,10.4477153 19.5522847,10 19,10 Z"  fill="#001833"></path>
    </g>
</svg>