<svg width="24" height="24" viewBox="0 0 24 24" fill="none" xmlns="http://www.w3.org/2000/svg">
<path d="M3.075 20C2.655 20 2.2875 19.84 1.9725 19.52C1.6575 19.2 1.5 18.8267 1.5 18.4V5.6C1.5 5.17333 1.6575 4.8 1.9725 4.48C2.2875 4.16 2.655 4 3.075 4H9.29625H14.73H20.925C21.345 4 21.7125 4.16 22.0275 4.48C22.3425 4.8 22.5 5.17333 22.5 5.6V18.4C22.5 18.8267 22.3425 19.2 22.0275 19.52C21.7125 19.84 21.345 20 20.925 20H3.075ZM3.075 18.4H20.925V5.6H14.73H9.29625H3.075V18.4ZM5.49 15.5467H11.7638V15.1733C11.7638 14.8533 11.685 14.5689 11.5275 14.32C11.37 14.0711 11.1687 13.9022 10.9237 13.8133C10.3637 13.6178 9.92625 13.4889 9.61125 13.4267C9.29625 13.3644 8.99 13.3333 8.6925 13.3333C8.36 13.3333 8.00562 13.3733 7.62937 13.4533C7.25312 13.5333 6.82875 13.6533 6.35625 13.8133C6.09375 13.9022 5.88375 14.0711 5.72625 14.32C5.56875 14.5689 5.49 14.8533 5.49 15.1733V15.5467ZM14.31 13.76H18.7725V12.4267H14.31V13.76ZM8.6925 12.4267C9.08625 12.4267 9.42094 12.2867 9.69656 12.0067C9.97219 11.7267 10.11 11.3867 10.11 10.9867C10.11 10.5867 9.97219 10.2467 9.69656 9.96667C9.42094 9.68667 9.08625 9.54667 8.6925 9.54667C8.29875 9.54667 7.96406 9.68667 7.68844 9.96667C7.41281 10.2467 7.275 10.5867 7.275 10.9867C7.275 11.3867 7.41281 11.7267 7.68844 12.0067C7.96406 12.2867 8.29875 12.4267 8.6925 12.4267ZM14.31 10.7467H18.7725V9.41334H14.31V10.7467Z" fill="#001833"/>
</svg>
