<svg width="24" height="24" viewBox="0 0 24 24" fill="none" xmlns="http://www.w3.org/2000/svg">
<path d="M15 21L9 18.9L4.35 20.7C4.01667 20.8333 3.70833 20.7958 3.425 20.5875C3.14167 20.3792 3 20.1 3 19.75V5.75C3 5.53333 3.0625 5.34167 3.1875 5.175C3.3125 5.00833 3.48333 4.88333 3.7 4.8L9 3L15 5.1L19.65 3.3C19.9833 3.16667 20.2917 3.20417 20.575 3.4125C20.8583 3.62083 21 3.9 21 4.25V18.25C21 18.4667 20.9375 18.6583 20.8125 18.825C20.6875 18.9917 20.5167 19.1167 20.3 19.2L15 21ZM15 19V7.25L9 5.1V17L15 19ZM15 19L19 17.55V5.7L15 7.25V19ZM5 18.3L9 17V5.1L5 6.45V18.3Z" fill="#001833"/>
<path fill-rule="evenodd" clip-rule="evenodd" d="M9 7.5C9.41421 7.5 9.75 7.16421 9.75 6.75C9.75 6.33579 9.41421 6 9 6C8.58579 6 8.25 6.33579 8.25 6.75C8.25 7.16421 8.58579 7.5 9 7.5ZM15 8.5C15.4142 8.5 15.75 8.16421 15.75 7.75C15.75 7.33579 15.4142 7 15 7C14.5858 7 14.25 7.33579 14.25 7.75C14.25 8.16421 14.5858 8.5 15 8.5ZM9.75 9.25C9.75 9.66421 9.41421 10 9 10C8.58579 10 8.25 9.66421 8.25 9.25C8.25 8.83579 8.58579 8.5 9 8.5C9.41421 8.5 9.75 8.83579 9.75 9.25ZM15 11C15.4142 11 15.75 10.6642 15.75 10.25C15.75 9.83579 15.4142 9.5 15 9.5C14.5858 9.5 14.25 9.83579 14.25 10.25C14.25 10.6642 14.5858 11 15 11ZM9.75 11.75C9.75 12.1642 9.41421 12.5 9 12.5C8.58579 12.5 8.25 12.1642 8.25 11.75C8.25 11.3358 8.58579 11 9 11C9.41421 11 9.75 11.3358 9.75 11.75ZM15 13.5C15.4142 13.5 15.75 13.1642 15.75 12.75C15.75 12.3358 15.4142 12 15 12C14.5858 12 14.25 12.3358 14.25 12.75C14.25 13.1642 14.5858 13.5 15 13.5ZM9.75 14.25C9.75 14.6642 9.41421 15 9 15C8.58579 15 8.25 14.6642 8.25 14.25C8.25 13.8358 8.58579 13.5 9 13.5C9.41421 13.5 9.75 13.8358 9.75 14.25ZM15 16C15.4142 16 15.75 15.6642 15.75 15.25C15.75 14.8358 15.4142 14.5 15 14.5C14.5858 14.5 14.25 14.8358 14.25 15.25C14.25 15.6642 14.5858 16 15 16ZM9.75 16.75C9.75 17.1642 9.41421 17.5 9 17.5C8.58579 17.5 8.25 17.1642 8.25 16.75C8.25 16.3358 8.58579 16 9 16C9.41421 16 9.75 16.3358 9.75 16.75ZM15 18.5C15.4142 18.5 15.75 18.1642 15.75 17.75C15.75 17.3358 15.4142 17 15 17C14.5858 17 14.25 17.3358 14.25 17.75C14.25 18.1642 14.5858 18.5 15 18.5Z" fill="#001833"/>
</svg>
