<svg width="24" height="24" viewBox="0 0 24 24" fill="none" xmlns="http://www.w3.org/2000/svg">
<path d="M4 22C3.45 22 2.97917 21.8042 2.5875 21.4125C2.19583 21.0208 2 20.55 2 20V8C2 7.45 2.19583 6.97917 2.5875 6.5875C2.97917 6.19583 3.45 6 4 6H8V4C8 3.45 8.19583 2.97917 8.5875 2.5875C8.97917 2.19583 9.45 2 10 2H14C14.55 2 15.0208 2.19583 15.4125 2.5875C15.8042 2.97917 16 3.45 16 4V6H20C20.55 6 21.0208 6.19583 21.4125 6.5875C21.8042 6.97917 22 7.45 22 8V20C22 20.55 21.8042 21.0208 21.4125 21.4125C21.0208 21.8042 20.55 22 20 22H4ZM10 6H14V4H10V6ZM11 15V17C11 17.2833 11.0958 17.5208 11.2875 17.7125C11.4792 17.9042 11.7167 18 12 18C12.2833 18 12.5208 17.9042 12.7125 17.7125C12.9042 17.5208 13 17.2833 13 17V15H15C15.2833 15 15.5208 14.9042 15.7125 14.7125C15.9042 14.5208 16 14.2833 16 14C16 13.7167 15.9042 13.4792 15.7125 13.2875C15.5208 13.0958 15.2833 13 15 13H13V11C13 10.7167 12.9042 10.4792 12.7125 10.2875C12.5208 10.0958 12.2833 10 12 10C11.7167 10 11.4792 10.0958 11.2875 10.2875C11.0958 10.4792 11 10.7167 11 11V13H9C8.71667 13 8.47917 13.0958 8.2875 13.2875C8.09583 13.4792 8 13.7167 8 14C8 14.2833 8.09583 14.5208 8.2875 14.7125C8.47917 14.9042 8.71667 15 9 15H11Z" fill="#001833"/>
</svg>
