<?xml version="1.0" encoding="utf-8"?>
<svg version="1.1" width="20" height="20" viewBox="0 0 20 20" xmlns="http://www.w3.org/2000/svg" x="0px" y="0px"
style="enable-background:new 0 0 24 24;" xml:space="preserve">
<style type="text/css">
	.st0{fill:#001833;}
</style>
<path class="st0" d="M14.7917 12.4583L13.5834 11.25C13.7778 10.9305 13.9236 10.5972 14.0209 10.25C14.1181 9.90274 14.1667 9.54163 14.1667 9.16663H15.8334C15.8334 9.77774 15.7431 10.3576 15.5625 10.9062C15.382 11.4548 15.125 11.9722 14.7917 12.4583ZM12.3334 9.95829L7.50002 5.12496V4.16663C7.50002 3.47218 7.74308 2.8819 8.22919 2.39579C8.7153 1.90968 9.30558 1.66663 10 1.66663C10.6945 1.66663 11.2847 1.90968 11.7709 2.39579C12.257 2.8819 12.5 3.47218 12.5 4.16663V9.16663C12.5 9.3194 12.4827 9.45829 12.4479 9.58329C12.4132 9.70829 12.375 9.83329 12.3334 9.95829ZM9.16669 17.5V14.9166C7.72224 14.7222 6.5278 14.0798 5.58335 12.9895C4.63891 11.8993 4.16669 10.625 4.16669 9.16663H5.83335C5.83335 10.3194 6.2396 11.302 7.0521 12.1145C7.8646 12.927 8.84724 13.3333 10 13.3333C10.4722 13.3333 10.9202 13.2604 11.3438 13.1145C11.7674 12.9687 12.1528 12.7638 12.5 12.5L13.6875 13.6875C13.2847 14.0069 12.8438 14.2743 12.3646 14.4895C11.8854 14.7048 11.375 14.8472 10.8334 14.9166V17.5H9.16669ZM16.5 18.8333L1.16669 3.49996L2.33335 2.33329L17.6667 17.6666L16.5 18.8333Z" fill="#4F6F8F"/>
</svg>
