<?xml version="1.0" encoding="UTF-8"?>
<svg xmlns="http://www.w3.org/2000/svg" width="24" height="24" viewBox="0 0 24 24" fill="none">
<path d="M17.7499 14.95L16.2999 13.5C16.5332 13.1167 16.7082 12.7167 16.8249 12.3C16.9416 11.8833 16.9999 11.45 16.9999 11H18.9999C18.9999 11.7333 18.8916 12.4292 18.6749 13.0875C18.4582 13.7458 18.1499 14.3667 17.7499 14.95ZM14.7999 11.95L8.9999 6.15V5C8.9999 4.16667 9.29157 3.45833 9.8749 2.875C10.4582 2.29167 11.1666 2 11.9999 2C12.8332 2 13.5416 2.29167 14.1249 2.875C14.7082 3.45833 14.9999 4.16667 14.9999 5V11C14.9999 11.1833 14.9791 11.35 14.9374 11.5C14.8957 11.65 14.8499 11.8 14.7999 11.95ZM10.9999 21V17.9C9.26657 17.6667 7.83324 16.8958 6.6999 15.5875C5.56657 14.2792 4.9999 12.75 4.9999 11H6.9999C6.9999 12.3833 7.4874 13.5625 8.4624 14.5375C9.4374 15.5125 10.6166 16 11.9999 16C12.5666 16 13.1041 15.9125 13.6124 15.7375C14.1207 15.5625 14.5832 15.3167 14.9999 15L16.4249 16.425C15.9416 16.8083 15.4124 17.1292 14.8374 17.3875C14.2624 17.6458 13.6499 17.8167 12.9999 17.9V21H10.9999ZM19.7999 22.6L1.3999 4.2L2.7999 2.8L21.1999 21.2L19.7999 22.6Z" fill="#001833"/>
</svg>
