<svg height="24" width="24" xmlns="http://www.w3.org/2000/svg">
  <path d="m5 14.1666666 1.6666667-5.33333327h-3.6666667l-1 1.33333327h-1l.6666667-2.33333327-.6666667-2.33333333h1l1 1.33333333h3.6666667l-1.6666667-5.33333333h1.33333337l3.33333333 5.33333333h3.6666667c.5333333 0 1 .46666667 1 1s-.4666667 1-1 1h-3.6666667l-3.33333333 5.33333327zm8.6666666 8.33 1.6666667-5.3333333h-3.6666667l-1 1.3333333h-.99999997l.66666667-2.3333333-.66666667-2.3333333h.99999997l1 1.3333333h3.6666667l-1.6666667-5.3333333h1.3333334l3.3333333 5.3333333h3.6666667c.5333333 0 1 .4666667 1 1 0 .5333334-.4666667 1-1 1h-3.6666667l-3.3333333 5.3333333z" fill="#001833"/>
</svg>
