<svg height="24" viewBox="0 0 24 24" width="24" xmlns="http://www.w3.org/2000/svg" xmlns:xlink="http://www.w3.org/1999/xlink"><defs><path id="a" d="m14.3333333 10.6666667v-1.33333337l-5.3333333-3.33333333v-3.66666667c0-.53333333-.46666667-1-1-1s-1 .46666667-1 1v3.66666667l-5.33333333 3.33333333v1.33333337l5.33333333-1.6666667v3.6666667l-1.33333333 1v1l2.33333333-.6666667 2.3333333.6666667v-1l-1.3333333-1v-3.6666667z"/><path id="b" d="m14.3333333 10.6666667v-1.33333337l-5.3333333-3.33333333v-3.66666667c0-.53333333-.46666667-1-1-1s-1 .46666667-1 1v3.66666667l-5.33333333 3.33333333v1.33333337l5.33333333-1.6666667v3.6666667l-1.33333333 1v1l2.33333333-.6666667 2.3333333.6666667v-1l-1.3333333-1v-3.6666667z"/><mask id="c" fill="#fff"><use fill="none" xlink:href="#a"/></mask><mask id="d" fill="#fff"><use fill="none" xlink:href="#b"/></mask></defs><g fill="#001833" fill-rule="evenodd"><g transform="matrix(0 1 -1 0 16 0)"><use fill-rule="nonzero" xlink:href="#a"/><g mask="url(#c)"><path d="m0 0h16v16h-16z"/></g></g><g transform="matrix(0 1 -1 0 24 8)"><use fill-rule="nonzero" xlink:href="#b"/><g mask="url(#d)"><path d="m0 0h16v16h-16z"/></g></g></g></svg>