<?xml version="1.0" encoding="UTF-8"?>
<svg width="24px" height="24px" viewBox="0 0 24 24" version="1.1" xmlns="http://www.w3.org/2000/svg" xmlns:xlink="http://www.w3.org/1999/xlink">
    <title>NoSeat</title>
    <g id="NoSeat" stroke="none" stroke-width="1" fill="none" fill-rule="evenodd">
        <path d="M2.80761184,2.39339828 L2.81839828,2.40439828 L2.81,2.41421356 L22.5973983,22.2013983 L21.1923882,23.6066017 L18.5843983,20.9993983 L17,21 L16.9993983,19.4143983 L15.5843983,17.9993983 L7,18 L7,21 L4,21 L4,15 L12.5843983,14.9993983 L10.5853983,12.9993983 L7,13 L6.99939828,9.41339828 L1.39339828,3.80761184 L2.80761184,2.39339828 Z M18.2233983,14.9993983 L20,15 L19.9993983,16.7753983 L18.2233983,14.9993983 Z M15,3 C16.1,3 17,3.9 17,5 L17,13 L16.2233983,12.9993983 L7.25251178,4.03021975 C7.59516555,3.41699496 8.25125,3 9,3 L15,3 Z M22,10 L22,13 L19,13 L19,10 L22,10 Z M5,10 L5,13 L2,13 L2,10 L5,10 Z" id="Shape" fill="#001833"></path>
    </g>
</svg>