<?xml version="1.0" encoding="UTF-8"?>
<svg width="24px" height="24px" viewBox="0 0 24 24" version="1.1" xmlns="http://www.w3.org/2000/svg" xmlns:xlink="http://www.w3.org/1999/xlink">
    <title>notificationsAdd</title>
    <g id="notificationsAdd" stroke="none" stroke-width="1" fill="none" fill-rule="evenodd">
        
        <path d="M10.01,21.01 C10.01,22.11 10.9,23 12,23 C13.1,23 13.99,22.11 13.99,21.01 L10.01,21.01 Z M18.88,16.82 L18.88,11 C18.88,7.75 16.63,5.03 13.59,4.31 L13.59,3.59 C13.59,2.71 12.88,2 12,2 C11.12,2 10.41,2.71 10.41,3.59 L10.41,4.31 C7.37,5.03 5.12,7.75 5.12,11 L5.12,16.82 L3,18.94 L3,20 L21,20 L21,18.94 L18.88,16.82 Z M16,13.01 L13,13.01 L13,16.01 L11,16.01 L11,13.01 L8,13.01 L8,11 L11,11 L11,8 L13,8 L13,11 L16,11 L16,13.01 Z" id="shape" fill="#001833"></path>
    </g>
</svg>