<?xml version="1.0" encoding="utf-8"?>
<!-- Generator: Adobe Illustrator 21.1.0, SVG Export Plug-In . SVG Version: 6.00 Build 0)  -->
<svg version="1.1" id="Layer_1" xmlns="http://www.w3.org/2000/svg" xmlns:xlink="http://www.w3.org/1999/xlink" x="0px" y="0px"
	 viewBox="0 0 24 24" style="enable-background:new 0 0 24 24;" xml:space="preserve">
<path id="path-1_1_" class="st0" d="M17.6,8.2l0.6,2L16.5,9l-1.7,1.2l0.6-2l-1.7-1.3h2.1l0.7-2l0.7,2h2.1L17.6,8.2z M19.4,19
	C15.4,23,9,23,5,19C1,15,1,8.6,5,4.6C6.3,3.3,7.9,2.4,9.5,2c-0.9,3.4,0,7.2,2.6,9.8c2.7,2.7,6.4,3.5,9.8,2.6
	C21.6,16.1,20.7,17.7,19.4,19L19.4,19z"/>
</svg>
