<svg width="24" height="24" viewBox="0 0 24 24" fill="none" xmlns="http://www.w3.org/2000/svg">
<path fill-rule="evenodd" clip-rule="evenodd" d="M11.5 1C11.7761 1 12 1.22386 12 1.5C12 1.74546 11.8231 1.94961 11.5899 1.99194L11.5 2H11V6H12C13.5977 6 14.9037 7.24892 14.9949 8.82373L15 9V4H14.5C14.2239 4 14 3.77614 14 3.5C14 3.25454 14.1769 3.05039 14.4101 3.00806L14.5 3H15.5H19.5H20.5C20.7761 3 21 3.22386 21 3.5C21 3.74546 20.8231 3.94961 20.5899 3.99194L20.5 4H20V10C21.5977 10 22.9037 11.2489 22.9949 12.8237L23 13V19C23 20.5977 21.7511 21.9037 20.1763 21.9949L20 22C20 22.5523 19.6642 23 19.25 23C18.8358 23 18.5 22.5523 18.5 22H16.5C16.5 22.5523 16.1642 23 15.75 23C15.3358 23 15 22.5523 15 22C14.4533 22 13.9407 21.8538 13.4993 21.5982C13.1215 21.8174 12.6912 21.956 12.2319 21.9912L12 22C12 22.5661 11.5523 23.025 11 23.025C10.4477 23.025 10 22.5661 10 22H6C6 22.5523 5.55228 23 5 23C4.44772 23 4 22.5523 4 22C2.40232 22 1.09634 20.7511 1.00509 19.1763L1 19V9C1 7.40232 2.24892 6.09634 3.82373 6.00509L4 6H5V2H4.5C4.22386 2 4 1.77614 4 1.5C4 1.25454 4.17688 1.05039 4.41012 1.00806L4.5 1H5.5H10.5H11.5ZM6 6H10V2H6V6ZM16 10H19V4H16V10ZM15 11H20C21.1046 11 22 11.8954 22 13V19L21.9945 19.1493C21.9182 20.1841 21.0544 21 20 21H15L14.8264 20.9926C14.6548 20.9778 14.4895 20.9413 14.3335 20.8856C14.7503 20.3704 15 19.7143 15 19V11ZM17 12.5C17.2455 12.5 17.4496 12.6769 17.4919 12.9101L17.5 13V19C17.5 19.2761 17.2761 19.5 17 19.5C16.7545 19.5 16.5504 19.3231 16.5081 19.0899L16.5 19V13C16.5 12.7239 16.7239 12.5 17 12.5ZM19.5 12.5C19.7455 12.5 19.9496 12.6769 19.9919 12.9101L20 13V19C20 19.2761 19.7761 19.5 19.5 19.5C19.2545 19.5 19.0504 19.3231 19.0081 19.0899L19 19V13C19 12.7239 19.2239 12.5 19.5 12.5ZM14 9C14 7.89543 13.1046 7 12 7H4C2.89543 7 2 7.89543 2 9V19C2 20.1046 2.89543 21 4 21H12C13.1046 21 14 20.1046 14 19V9ZM4.00806 9.41012C4.05039 9.17688 4.25454 9 4.5 9C4.74546 9 4.94961 9.17688 4.99194 9.41012L5 9.5V19L4.99194 19.0899C4.94961 19.3231 4.74546 19.5 4.5 19.5C4.25454 19.5 4.05039 19.3231 4.00806 19.0899L4 19V9.5L4.00806 9.41012ZM7.50806 9.41012C7.55039 9.17688 7.75454 9 8 9C8.24546 9 8.44961 9.17688 8.49194 9.41012L8.5 9.5V19L8.49194 19.0899C8.44961 19.3231 8.24546 19.5 8 19.5C7.75454 19.5 7.55039 19.3231 7.50806 19.0899L7.5 19V9.5L7.50806 9.41012ZM11.0081 9.41012C11.0504 9.17688 11.2545 9 11.5 9C11.7455 9 11.9496 9.17688 11.9919 9.41012L12 9.5V19L11.9919 19.0899C11.9496 19.3231 11.7455 19.5 11.5 19.5C11.2545 19.5 11.0504 19.3231 11.0081 19.0899L11 19V9.5L11.0081 9.41012Z" fill="#001833"/>
</svg>
