<?xml version="1.0" encoding="UTF-8"?>
<svg width="24px" height="24px" viewBox="0 0 24 24" version="1.1" xmlns="http://www.w3.org/2000/svg" xmlns:xlink="http://www.w3.org/1999/xlink">
    <title>parentChild</title>
    <g stroke="none" stroke-width="1" fill="none" fill-rule="evenodd">
        
        <path d="M6.5,2 C7.6,2 8.5,2.9 8.5,4 C8.5,5.1 7.6,6 6.5,6 C5.4,6 4.5,5.1 4.5,4 C4.5,2.9 5.4,2 6.5,2 Z M15.5,9.5 C15.5,10.33 16.17,11 17,11 C17.83,11 18.5,10.33 18.5,9.5 C18.5,8.67 17.83,8 17,8 C16.17,8 15.5,8.67 15.5,9.5 Z M18.5,12 L15.66,12 C15.08,12.01 14.52,12.32 14.21,12.86 L13.29,14.18 L9.72,8 C9.35,7.37 8.69,7.01 8.01,7 L5,7 C3.9,7 3,7.9 3,9 L3,14 C3,14.55 3.45,15 4,15 L4.5,15 L4.5,21 C4.5,21.55 4.95,22 5.5,22 L8.5,22 C9.05,22 9.5,21.55 9.5,21 L9.5,11.61 L11.74,15.5 C11.92,15.81 12.25,16 12.61,16 L13.71,16 C14.04,16 14.34,15.84 14.53,15.57 L15,14.9 L15,21 C15,21.55 15.45,22 16,22 L18,22 C18.55,22 19,21.55 19,21 L19,17 L19,17 C19.55,17 20,16.55 20,16 L20,13.5 C20,12.68 19.33,12 18.5,12 Z"  fill="#001833"></path>
    </g>
</svg>