<?xml version="1.0" encoding="UTF-8"?>
<svg width="16" height="20" viewBox="0 0 16 20" fill="none" xmlns="http://www.w3.org/2000/svg">
<path d="M12.501 2.5641V0H9.50098H8H6.50098H3.50098V2.5641C2.44011 2.5641 1.59132 3.23867 1.25098 3.58774C0.500831 4.35712 0 5.5786 0 6.66666V17.9487C0 18.4928 0.210714 19.0145 0.585786 19.3992C0.960859 19.7839 1.46957 20 2 20H14C14.5304 20 15.0391 19.7839 15.4142 19.3992C15.7893 19.0145 16 18.4928 16 17.9487V6.66666C16 5.5786 15.5011 4.35712 14.751 3.58774C14.4325 3.26112 13.5618 2.5641 12.501 2.5641ZM6.50098 0H8H9.50098V2.5641H6.50098V0ZM8 6.66666L10 8.71794L8 10.7692L6 8.71794L8 6.66666ZM14 13.8462H5V15.8974H4V13.8462H2V12.8205H14V13.8462Z" fill="black"/>
</svg>