<svg width="24" height="24" viewBox="0 0 24 24" fill="none" xmlns="http://www.w3.org/2000/svg">
<path d="M15.9384 5.30769V3H13.3134H12H10.6884H8.06335V5.30769C7.1351 5.30769 6.39241 5.9148 6.0946 6.22897C5.43823 6.92141 5 8.02074 5 9V19.1538C5 19.6435 5.18437 20.1131 5.51256 20.4593C5.84075 20.8055 6.28587 21 6.75 21H17.25C17.7141 21 18.1592 20.8055 18.4874 20.4593C18.8156 20.1131 19 19.6435 19 19.1538V9C19 8.02074 18.5635 6.92141 17.9071 6.22897C17.6285 5.93501 16.8666 5.30769 15.9384 5.30769ZM10.6884 3H12H13.3134V5.30769H10.6884V3ZM12 9L13.75 10.8461L12 12.6923L10.25 10.8461L12 9ZM17.25 15.4615H9.375V17.3077H8.5V15.4615H6.75V14.5385H17.25V15.4615Z" fill="black"/>
</svg>
