<?xml version="1.0" encoding="UTF-8"?>
<svg width="24px" height="24px" viewBox="0 0 24 24" version="1.1" xmlns="http://www.w3.org/2000/svg" xmlns:xlink="http://www.w3.org/1999/xlink">
    <title>phoneActive</title>
    <g stroke="none" stroke-width="1" fill="none" fill-rule="evenodd">
        
        <path d="M15,12 L17,12 C17,9.23857625 14.7614237,7 12,7 L12,9 C13.6568542,9 15,10.3431458 15,12 M19,12 L21,12 C21,7 16.97,3 12,3 L12,5 C15.86,5 19,8.13 19,12 M20,15.5 C18.75,15.5 17.55,15.3 16.43,14.93 C16.08,14.82 15.69,14.9 15.41,15.18 L13.21,17.38 C10.38,15.94 8.06,13.62 6.62,10.79 L8.82,8.59 C9.1,8.31 9.18,7.92 9.07,7.57 C8.7,6.45 8.5,5.25 8.5,4 C8.5,3.44771525 8.05228475,3 7.5,3 L4,3 C3.44771525,3 3,3.44771525 3,4 C3,13.3888407 10.6111593,21 20,21 C20.2652165,21 20.5195704,20.8946432 20.7071068,20.7071068 C20.8946432,20.5195704 21,20.2652165 21,20 L21,16.5 C21,15.9477153 20.5522847,15.5 20,15.5 Z"  fill="#001833"></path>
    </g>
</svg>