<svg width="24" height="25" viewBox="0 0 24 25" fill="none" xmlns="http://www.w3.org/2000/svg">
<path d="M12 23.5C11.45 23.5 10.9792 23.3042 10.5875 22.9125C10.1958 22.5208 10 22.05 10 21.5C10 20.95 10.1958 20.4792 10.5875 20.0875C10.9792 19.6958 11.45 19.5 12 19.5C12.55 19.5 13.0208 19.6958 13.4125 20.0875C13.8042 20.4792 14 20.95 14 21.5C14 22.05 13.8042 22.5208 13.4125 22.9125C13.0208 23.3042 12.55 23.5 12 23.5ZM6 5.5C5.45 5.5 4.97917 5.30417 4.5875 4.9125C4.19583 4.52083 4 4.05 4 3.5C4 2.95 4.19583 2.47917 4.5875 2.0875C4.97917 1.69583 5.45 1.5 6 1.5C6.55 1.5 7.02083 1.69583 7.4125 2.0875C7.80417 2.47917 8 2.95 8 3.5C8 4.05 7.80417 4.52083 7.4125 4.9125C7.02083 5.30417 6.55 5.5 6 5.5ZM6 11.5C5.45 11.5 4.97917 11.3042 4.5875 10.9125C4.19583 10.5208 4 10.05 4 9.5C4 8.95 4.19583 8.47917 4.5875 8.0875C4.97917 7.69583 5.45 7.5 6 7.5C6.55 7.5 7.02083 7.69583 7.4125 8.0875C7.80417 8.47917 8 8.95 8 9.5C8 10.05 7.80417 10.5208 7.4125 10.9125C7.02083 11.3042 6.55 11.5 6 11.5ZM6 17.5C5.45 17.5 4.97917 17.3042 4.5875 16.9125C4.19583 16.5208 4 16.05 4 15.5C4 14.95 4.19583 14.4792 4.5875 14.0875C4.97917 13.6958 5.45 13.5 6 13.5C6.55 13.5 7.02083 13.6958 7.4125 14.0875C7.80417 14.4792 8 14.95 8 15.5C8 16.05 7.80417 16.5208 7.4125 16.9125C7.02083 17.3042 6.55 17.5 6 17.5ZM18 5.5C17.45 5.5 16.9792 5.30417 16.5875 4.9125C16.1958 4.52083 16 4.05 16 3.5C16 2.95 16.1958 2.47917 16.5875 2.0875C16.9792 1.69583 17.45 1.5 18 1.5C18.55 1.5 19.0208 1.69583 19.4125 2.0875C19.8042 2.47917 20 2.95 20 3.5C20 4.05 19.8042 4.52083 19.4125 4.9125C19.0208 5.30417 18.55 5.5 18 5.5ZM12 17.5C11.45 17.5 10.9792 17.3042 10.5875 16.9125C10.1958 16.5208 10 16.05 10 15.5C10 14.95 10.1958 14.4792 10.5875 14.0875C10.9792 13.6958 11.45 13.5 12 13.5C12.55 13.5 13.0208 13.6958 13.4125 14.0875C13.8042 14.4792 14 14.95 14 15.5C14 16.05 13.8042 16.5208 13.4125 16.9125C13.0208 17.3042 12.55 17.5 12 17.5ZM18 17.5C17.45 17.5 16.9792 17.3042 16.5875 16.9125C16.1958 16.5208 16 16.05 16 15.5C16 14.95 16.1958 14.4792 16.5875 14.0875C16.9792 13.6958 17.45 13.5 18 13.5C18.55 13.5 19.0208 13.6958 19.4125 14.0875C19.8042 14.4792 20 14.95 20 15.5C20 16.05 19.8042 16.5208 19.4125 16.9125C19.0208 17.3042 18.55 17.5 18 17.5ZM18 11.5C17.45 11.5 16.9792 11.3042 16.5875 10.9125C16.1958 10.5208 16 10.05 16 9.5C16 8.95 16.1958 8.47917 16.5875 8.0875C16.9792 7.69583 17.45 7.5 18 7.5C18.55 7.5 19.0208 7.69583 19.4125 8.0875C19.8042 8.47917 20 8.95 20 9.5C20 10.05 19.8042 10.5208 19.4125 10.9125C19.0208 11.3042 18.55 11.5 18 11.5ZM12 11.5C11.45 11.5 10.9792 11.3042 10.5875 10.9125C10.1958 10.5208 10 10.05 10 9.5C10 8.95 10.1958 8.47917 10.5875 8.0875C10.9792 7.69583 11.45 7.5 12 7.5C12.55 7.5 13.0208 7.69583 13.4125 8.0875C13.8042 8.47917 14 8.95 14 9.5C14 10.05 13.8042 10.5208 13.4125 10.9125C13.0208 11.3042 12.55 11.5 12 11.5ZM12 5.5C11.45 5.5 10.9792 5.30417 10.5875 4.9125C10.1958 4.52083 10 4.05 10 3.5C10 2.95 10.1958 2.47917 10.5875 2.0875C10.9792 1.69583 11.45 1.5 12 1.5C12.55 1.5 13.0208 1.69583 13.4125 2.0875C13.8042 2.47917 14 2.95 14 3.5C14 4.05 13.8042 4.52083 13.4125 4.9125C13.0208 5.30417 12.55 5.5 12 5.5Z" fill="#6B5CBF"/>
</svg>