<?xml version="1.0" encoding="utf-8"?>
<svg xmlns="http://www.w3.org/2000/svg" width="24" height="24" viewBox="0 0 24 24" fill="none">
<path d="M12 23C11.45 23 10.9792 22.8042 10.5875 22.4125C10.1958 22.0208 10 21.55 10 21C10 20.45 10.1958 19.9792 10.5875 19.5875C10.9792 19.1958 11.45 19 12 19C12.55 19 13.0208 19.1958 13.4125 19.5875C13.8042 19.9792 14 20.45 14 21C14 21.55 13.8042 22.0208 13.4125 22.4125C13.0208 22.8042 12.55 23 12 23ZM6 5C5.45 5 4.97917 4.80417 4.5875 4.4125C4.19583 4.02083 4 3.55 4 3C4 2.45 4.19583 1.97917 4.5875 1.5875C4.97917 1.19583 5.45 1 6 1C6.55 1 7.02083 1.19583 7.4125 1.5875C7.80417 1.97917 8 2.45 8 3C8 3.55 7.80417 4.02083 7.4125 4.4125C7.02083 4.80417 6.55 5 6 5ZM6 11C5.45 11 4.97917 10.8042 4.5875 10.4125C4.19583 10.0208 4 9.55 4 9C4 8.45 4.19583 7.97917 4.5875 7.5875C4.97917 7.19583 5.45 7 6 7C6.55 7 7.02083 7.19583 7.4125 7.5875C7.80417 7.97917 8 8.45 8 9C8 9.55 7.80417 10.0208 7.4125 10.4125C7.02083 10.8042 6.55 11 6 11ZM6 17C5.45 17 4.97917 16.8042 4.5875 16.4125C4.19583 16.0208 4 15.55 4 15C4 14.45 4.19583 13.9792 4.5875 13.5875C4.97917 13.1958 5.45 13 6 13C6.55 13 7.02083 13.1958 7.4125 13.5875C7.80417 13.9792 8 14.45 8 15C8 15.55 7.80417 16.0208 7.4125 16.4125C7.02083 16.8042 6.55 17 6 17ZM18 5C17.45 5 16.9792 4.80417 16.5875 4.4125C16.1958 4.02083 16 3.55 16 3C16 2.45 16.1958 1.97917 16.5875 1.5875C16.9792 1.19583 17.45 1 18 1C18.55 1 19.0208 1.19583 19.4125 1.5875C19.8042 1.97917 20 2.45 20 3C20 3.55 19.8042 4.02083 19.4125 4.4125C19.0208 4.80417 18.55 5 18 5ZM12 17C11.45 17 10.9792 16.8042 10.5875 16.4125C10.1958 16.0208 10 15.55 10 15C10 14.45 10.1958 13.9792 10.5875 13.5875C10.9792 13.1958 11.45 13 12 13C12.55 13 13.0208 13.1958 13.4125 13.5875C13.8042 13.9792 14 14.45 14 15C14 15.55 13.8042 16.0208 13.4125 16.4125C13.0208 16.8042 12.55 17 12 17ZM18 17C17.45 17 16.9792 16.8042 16.5875 16.4125C16.1958 16.0208 16 15.55 16 15C16 14.45 16.1958 13.9792 16.5875 13.5875C16.9792 13.1958 17.45 13 18 13C18.55 13 19.0208 13.1958 19.4125 13.5875C19.8042 13.9792 20 14.45 20 15C20 15.55 19.8042 16.0208 19.4125 16.4125C19.0208 16.8042 18.55 17 18 17ZM18 11C17.45 11 16.9792 10.8042 16.5875 10.4125C16.1958 10.0208 16 9.55 16 9C16 8.45 16.1958 7.97917 16.5875 7.5875C16.9792 7.19583 17.45 7 18 7C18.55 7 19.0208 7.19583 19.4125 7.5875C19.8042 7.97917 20 8.45 20 9C20 9.55 19.8042 10.0208 19.4125 10.4125C19.0208 10.8042 18.55 11 18 11ZM12 11C11.45 11 10.9792 10.8042 10.5875 10.4125C10.1958 10.0208 10 9.55 10 9C10 8.45 10.1958 7.97917 10.5875 7.5875C10.9792 7.19583 11.45 7 12 7C12.55 7 13.0208 7.19583 13.4125 7.5875C13.8042 7.97917 14 8.45 14 9C14 9.55 13.8042 10.0208 13.4125 10.4125C13.0208 10.8042 12.55 11 12 11ZM12 5C11.45 5 10.9792 4.80417 10.5875 4.4125C10.1958 4.02083 10 3.55 10 3C10 2.45 10.1958 1.97917 10.5875 1.5875C10.9792 1.19583 11.45 1 12 1C12.55 1 13.0208 1.19583 13.4125 1.5875C13.8042 1.97917 14 2.45 14 3C14 3.55 13.8042 4.02083 13.4125 4.4125C13.0208 4.80417 12.55 5 12 5Z" fill="#001833"/>
</svg>
