<?xml version="1.0" encoding="utf-8"?>
<svg width="20" height="20" viewBox="0 0 20 20" xmlns="http://www.w3.org/2000/svg" x="0px" y="0px"
style="enable-background:new 0 0 24 24;" xml:space="preserve">
<style type="text/css">
	.st0{fill:#001833;}
</style>
<path class="st0" d="M16.625 17.5C14.8889 17.5 13.1736 17.1215 11.4792 16.3645C9.78472 15.6076 8.24306 14.5347 6.85417 13.1458C5.46528 11.7569 4.39236 10.2152 3.63542 8.52079C2.87847 6.82635 2.5 5.11107 2.5 3.37496C2.5 3.12496 2.58333 2.91663 2.75 2.74996C2.91667 2.58329 3.125 2.49996 3.375 2.49996H6.75C6.94444 2.49996 7.11806 2.56593 7.27083 2.69788C7.42361 2.82982 7.51389 2.98607 7.54167 3.16663L8.08333 6.08329C8.11111 6.30551 8.10417 6.49301 8.0625 6.64579C8.02083 6.79857 7.94444 6.93051 7.83333 7.04163L5.8125 9.08329C6.09028 9.59718 6.42014 10.0937 6.80208 10.5729C7.18403 11.052 7.60417 11.5138 8.0625 11.9583C8.49306 12.3888 8.94444 12.7882 9.41667 13.1562C9.88889 13.5243 10.3889 13.8611 10.9167 14.1666L12.875 12.2083C13 12.0833 13.1632 11.9895 13.3646 11.927C13.566 11.8645 13.7639 11.8472 13.9583 11.875L16.8333 12.4583C17.0278 12.5138 17.1875 12.6145 17.3125 12.7604C17.4375 12.9062 17.5 13.0694 17.5 13.25V16.625C17.5 16.875 17.4167 17.0833 17.25 17.25C17.0833 17.4166 16.875 17.5 16.625 17.5ZM15 8.33329L13.7917 7.16663L15.125 5.83329H10.8333V4.16663H15.125L13.8333 2.87496L15 1.66663L18.3333 5.04163L15 8.33329Z" fill="#4F6F8F"/>
</svg>