<?xml version="1.0" encoding="UTF-8"?>
<svg width="24px" height="24px" viewBox="0 0 24 24" version="1.1" xmlns="http://www.w3.org/2000/svg" xmlns:xlink="http://www.w3.org/1999/xlink">
    <title>phoneLog</title>
    <g id="phoneLog" stroke="none" stroke-width="1" fill="none" fill-rule="evenodd">
        
        <path d="M20,15.5 C20.5522847,15.5 21,15.9477153 21,16.5 L21,20 C21,20.5522847 20.5522847,21 20,21 C10.6111593,21 3,13.3888407 3,4 C3,3.73478351 3.10535684,3.4804296 3.29289322,3.29289322 C3.4804296,3.10535684 3.73478351,3 4,3 L7.5,3 C8.05228475,3 8.5,3.44771525 8.5,4 C8.5,5.24 8.7,6.45 9.07,7.57 C9.18,7.92 9.1,8.31 8.82,8.58 L6.62,10.79 C8.06,13.62 10.38,15.94 13.21,17.38 L15.41,15.18 C15.69,14.9 16.08,14.82 16.43,14.93 C17.55,15.3 18.75,15.5 20,15.5 M12,3 L14,3 L14,5 L12,5 M15,3 L21,3 L21,5 L15,5 M12,6 L14,6 L14,8 L12,8 M15,6 L21,6 L21,8 L15,8 M12,9 L14,9 L14,11 L12,11 M15,9 L21,9 L21,11 L15,11" id="shape" fill="#001833"></path>
    </g>
</svg>