<svg width="24" height="24" viewBox="0 0 24 24" fill="none" xmlns="http://www.w3.org/2000/svg">
<path fill-rule="evenodd" clip-rule="evenodd" d="M13.228 3.04109C15.7009 2.80079 15.8852 2.60757 16.1132 0C16.3415 2.60757 16.526 2.80088 19 3.04109C16.526 3.28015 16.3415 3.47602 16.1132 6.08236C15.8852 3.47602 15.7009 3.28015 13.228 3.04109ZM17.1332 5.68115C17.2203 6.67395 17.2909 6.74812 18.2327 6.83991C17.2909 6.93028 17.2203 7.00622 17.1332 8C17.0476 7.00613 16.9771 6.93028 16.0341 6.83991C16.9771 6.74812 17.0476 6.67395 17.1332 5.68115ZM13.715 5.29356C13.6583 4.64842 13.6124 4.60089 13 4.54C13.6123 4.48069 13.6583 4.43334 13.715 3.78802C13.7713 4.43334 13.8174 4.48069 14.4297 4.54C13.8174 4.60089 13.7713 4.64842 13.715 5.29356ZM10.1346 8.6819C10.5178 8.15933 11.0228 7.95018 11.5116 7.95018L11.511 7.94953C11.6327 7.94953 11.7544 7.9682 11.8768 8.00166C12.9749 8.28161 13.3053 9.55199 13.3053 10.7516C13.3053 12.1796 12.7295 13.5897 11.424 13.5897C10.9886 13.5897 10.5352 13.3985 10.2215 13.0677C9.87439 12.6855 9.57747 11.9711 9.57747 10.8224C9.57747 9.9703 9.75008 9.1858 10.1346 8.6819ZM9.64712 6.85421C9.56082 6.94173 9.47322 7.04535 9.38692 7.1496V6.29689H7V18.5H9.69865V14.7577C9.71178 14.7657 9.72485 14.7737 9.73787 14.7816C10.433 15.2055 10.9557 15.5242 11.9464 15.5242C15.0657 15.5242 15.8856 12.6321 15.8856 10.7709C15.8856 7.74232 14.1595 6.05556 11.9303 6.05556C10.9192 6.05556 10.1005 6.41788 9.64712 6.85421Z" fill="#001833"/>
</svg>
