<?xml version="1.0" encoding="utf-8"?>
<svg xmlns="http://www.w3.org/2000/svg" xmlns:xlink="http://www.w3.org/1999/xlink" x="0px" y="0px" viewBox="0 0 24 24" style="enable-background:new 0 0 24 24;" xml:space="preserve">
  <path fill="#0068EF" fill-rule="evenodd" d="M20.0092049,2 C21.1086907,2 22,2.89821238 22,3.99079514 L22,20.0092049 C22,21.1086907 21.1017876,22 20.0092049,22 L3.99079514,22 C2.89130934,22 2,21.1017876 2,20.0092049 L2,3.99079514 C2,2.89130934 2.89821238,2 3.99079514,2 L20.0092049,2 Z M12.8142957,5.84765625 C11.8140907,5.84765625 11.0043706,6.20604326 10.555871,6.63763544 C10.4705032,6.7242085 10.3838613,6.82669573 10.2984934,6.92981952 L10.2984934,6.92981952 L10.2984934,6.08636874 L7.9375,6.08636874 L7.9375,18.1569452 L10.6068369,18.1569452 L10.6068369,14.4553102 C11.3139882,14.8862658 11.8319288,15.2134611 12.8302225,15.2134611 C15.9155683,15.2134611 16.7265625,12.3527306 16.7265625,10.5117799 C16.7265625,7.51609738 15.0192062,5.84765625 12.8142957,5.84765625 Z M12.399,7.721 L12.5199915,7.72708386 C12.6003099,7.73500558 12.6807227,7.75056609 12.7614186,7.77263374 C13.8476285,8.04954022 14.1744471,9.30612275 14.1744471,10.4926829 C14.1744471,11.9052243 13.6049036,13.2999418 12.3135561,13.2999418 C11.8828946,13.2999418 11.434395,13.1108815 11.1241404,12.7836862 C10.7807579,12.4055657 10.4870671,11.6989767 10.4870671,10.5627053 C10.4870671,9.71989105 10.6578028,8.94391633 11.0381355,8.44548466 C11.4171941,7.92859256 11.9166595,7.72170841 12.4001981,7.72170841 L12.399,7.721 Z"/>
</svg>
