<svg width="24" height="24" viewBox="0 0 24 24" fill="none" xmlns="http://www.w3.org/2000/svg">
<path d="M14.5056 14.2715L14.4977 14.2794L14.4983 14.2906L14.6398 16.8248L13.7291 17.7356L10.4655 14.472L10.4478 14.4543L10.4302 14.472L6.67657 18.2256L5.77498 18.225L5.77442 17.3234L9.52802 13.5698L9.54569 13.5522L9.52802 13.5345L6.26444 10.2709L7.17557 9.35979L9.61655 9.40795L9.62719 9.40816L9.63472 9.40064L14.8313 4.20401L14.849 4.18633L14.8313 4.16865L14.0678 3.40508L14.9687 2.50411L21.4021 8.9375L20.5012 9.83847L19.7376 9.0749L19.7199 9.05722L19.7022 9.0749L14.5056 14.2715Z" fill="#001833" stroke="#001833" stroke-width="0.05"/>
</svg>
