<svg width="48" height="48" viewBox="0 0 48 48" fill="none" xmlns="http://www.w3.org/2000/svg">
<g clip-path="url(#clip0_1142_69330)">
<path d="M29.6922 31.14L29.6843 31.1479L29.685 31.159L30.0025 36.9108L27.9068 39.0065L20.4998 31.5996L20.4822 31.5819L20.4645 31.5996L11.9512 40.1129L9.86522 40.1129L9.86522 38.0269L18.3785 29.5136L18.3962 29.496L18.3785 29.4783L10.9716 22.0713L13.0677 19.9752L18.6079 20.0811L18.6185 20.0813L18.626 20.0738L30.3993 8.30043L30.417 8.28276L30.3993 8.26508L28.6493 6.51499L30.7352 4.42902L45.337 19.0308L43.251 21.1167L41.5009 19.3667L41.4832 19.349L41.4656 19.3667L29.6922 31.14Z" fill="#001833" stroke="#001833" stroke-width="0.05"/>
</g>
<defs>
<clipPath id="clip0_1142_69330">
<rect width="48" height="48" fill="white"/>
</clipPath>
</defs>
</svg>
