<svg width="24" height="24" viewBox="0 0 24 24" fill="none" xmlns="http://www.w3.org/2000/svg">
<path d="M14.8271 1.36426C13.7857 1.10592 12.8046 1 12 1V3C12.6271 3 13.3852 3.07864 14.1922 3.26881L14.8271 1.36426Z" fill="black"/>
<path d="M16.0859 3.91235C16.6459 4.16704 17.1997 4.48333 17.7224 4.8712L19.1717 3.42189C18.3986 2.82143 17.5642 2.35377 16.7245 1.99657L16.0859 3.91235Z" fill="black"/>
<path d="M1 21H3V18.33C4.99 21.15 8.28 23 12 23C17.5684 23 22.1639 18.8731 22.8977 13.5078H20.8742C20.1567 17.7602 16.4562 21 12 21C8.88 21 6.13 19.41 4.52 17H7V15H1V21Z" fill="black"/>
<path d="M22.9672 11C22.9783 11.1667 22.9867 11.3359 22.9922 11.5078H20.9904C20.9836 11.3353 20.9733 11.166 20.9595 11C20.9187 10.5079 20.8477 10.044 20.7501 9.60701L22.6525 8.89362C22.809 9.54477 22.9167 10.2458 22.9672 11Z" fill="black"/>
<path d="M22.006 7.00006C21.6262 6.16498 21.1538 5.4369 20.6178 4.80422L19.1679 6.25408C19.5175 6.6874 19.8311 7.1731 20.0959 7.71634L22.006 7.00006Z" fill="black"/>
<path d="M10.15 9.2C10.15 10.14 11.01 10.51 12.79 11.1C15.19 11.93 15.8 13.15 15.8 14.54C15.8 17.1159 13.4018 17.6485 12.9273 17.7539L12.9 17.76V19H10.9V17.71C10.28 17.53 8.63 16.94 8 14.75L9.66 14.08C9.72 14.3 10.24 16.17 12.06 16.17C12.99 16.17 14.04 15.69 14.04 14.56C14.04 13.6 13.34 13.09 11.76 12.53C11.6892 12.5042 11.6136 12.4775 11.5342 12.4494C10.3796 12.0408 8.41 11.3439 8.41 9.22C8.41 9.12 8.42 6.82 10.9 6.26V5H12.9V6.24C14.62 6.56 15.29 8.03 15.44 8.48L13.86 9.15C13.75 8.8 13.27 7.81 11.96 7.81C11.26 7.81 10.15 8.18 10.15 9.2Z" fill="black"/>
</svg>
