<?xml version="1.0" encoding="UTF-8"?>
<svg width="24px" height="24px" viewBox="0 0 24 24" version="1.1" xmlns="http://www.w3.org/2000/svg" xmlns:xlink="http://www.w3.org/1999/xlink">
    <title>ribbonAlt</title>
    <g id="ribbonAlt" stroke="none" stroke-width="1" fill="none" fill-rule="evenodd">
        <polygon id="Path" points="0 0 24 0 24 24 0 24"></polygon>
        <path d="M17.71,5.15 C17.46,4.38 16.79,4.21 16.45,3.77 C16.14,3.31 16.18,2.62 15.53,2.15 C14.88,1.68 14.23,1.92 13.7,1.77 C13.17,1.62 12.81,1 12,1 C11.19,1 10.82,1.58 10.3,1.77 C9.78,1.96 9.13,1.67 8.47,2.15 C7.81,2.63 7.86,3.31 7.55,3.77 C7.21,4.21 6.55,4.38 6.29,5.15 C6.03,5.92 6.5,6.45 6.5,7 C6.5,7.55 6,8.08 6.29,8.85 C6.58,9.62 7.21,9.79 7.55,10.23 C7.86,10.69 7.82,11.38 8.47,11.85 C9.12,12.32 9.77,12.08 10.3,12.23 C10.83,12.38 11.19,13 12,13 C12.81,13 13.18,12.42 13.7,12.23 C14.22,12.04 14.87,12.33 15.53,11.85 C16.19,11.37 16.14,10.69 16.45,10.23 C16.79,9.79 17.45,9.62 17.71,8.85 C17.97,8.08 17.5,7.55 17.5,7 C17.5,6.45 18,5.92 17.71,5.15 M12,11 C9.790861,11 8,9.209139 8,7 C8,4.790861 9.790861,3 12,3 C14.209139,3 16,4.790861 16,7 C16,8.06086596 15.5785726,9.07828161 14.8284271,9.82842712 C14.0782816,10.5785726 13.060866,11 12,11 M14,7 C14,8.1045695 13.1045695,9 12,9 C10.8954305,9 10,8.1045695 10,7 C10,5.8954305 10.8954305,5 12,5 C13.1045695,5 14,5.8954305 14,7 M13.71,14.56 L13.08,18.16 L12.35,22.29 L9.74,19.8 L6.44,21.25 L7.77,13.75 C8.35610169,14.0426563 9.00511226,14.1868809 9.66,14.17 C10.0615668,14.4763182 10.5156762,14.7067618 11,14.85 C11.3237189,14.9507669 11.660963,15.0013535 12,15 C12.5982364,15.0018849 13.1869708,14.8503977 13.71,14.56 M17.92,17.78 L15.34,16.86 L15.85,13.92 C16.1543856,13.813678 16.4409548,13.6619649 16.7,13.47 L16.82,13.37 L17.92,17.78 Z" id="shape" fill="#001833"></path>
    </g>
</svg>