<?xml version="1.0" encoding="utf-8"?>
<!-- Generator: Adobe Illustrator 21.1.0, SVG Export Plug-In . SVG Version: 6.00 Build 0)  -->
<svg version="1.1"  xmlns="http://www.w3.org/2000/svg" xmlns:xlink="http://www.w3.org/1999/xlink" x="0px" y="0px"
	 viewBox="0 0 24 24" style="enable-background:new 0 0 24 24;" xml:space="preserve">
<style type="text/css">
	.st0{fill:#001833;}
</style>
<path class="st0" d="M11,17.5c0.1,0,0.1,0,0.2-0.1L9,22l-1.5-2L5,20.2l2.1-4.4h0.1c0.2,0.2,0.4,0.4,0.6,0.7c0.4,0.5,0.8,1,1.4,1.2
	c0.2,0.1,0.4,0.1,0.5,0.1C10.2,17.8,10.6,17.7,11,17.5z M16.8,15.8c-0.2,0.2-0.4,0.4-0.6,0.7c-0.4,0.5-0.8,1-1.4,1.2
	c-0.6,0.2-1.2,0-1.8-0.2c-0.1,0-0.1,0-0.2-0.1L15,22l1.5-2l2.5,0.2L16.8,15.8L16.8,15.8z M20,9.4c0,0.3-0.3,0.7-0.6,1.1
	c-0.2,0.3-0.5,0.7-0.6,1c-0.1,0.4-0.1,0.8-0.1,1.2c0,0.5,0,0.9-0.2,1.2s-0.6,0.4-1.1,0.6c-0.4,0.1-0.8,0.3-1.2,0.5
	c-0.3,0.2-0.6,0.6-0.8,0.9c-0.3,0.4-0.6,0.7-0.9,0.8c-0.3,0.1-0.7,0-1.2-0.2c-0.4-0.1-0.8-0.2-1.3-0.2c-0.4,0-0.9,0.1-1.3,0.2
	c-0.5,0.1-0.9,0.3-1.2,0.2c-0.3-0.1-0.6-0.5-0.9-0.8c-0.3-0.3-0.5-0.7-0.8-0.9S7,14.6,6.6,14.5c-0.5-0.2-0.9-0.3-1.1-0.6
	s-0.2-0.7-0.2-1.2c0-0.4,0-0.8-0.1-1.2s-0.4-0.7-0.6-1C4.3,10.1,4,9.8,4,9.4s0.3-0.7,0.6-1.1C4.8,8,5,7.7,5.2,7.3
	C5.3,6.9,5.3,6.4,5.3,6c0-0.5,0-0.9,0.2-1.2c0.2-0.3,0.6-0.4,1.1-0.6C7,4.2,7.4,4,7.8,3.8c0.3-0.2,0.6-0.6,0.8-0.9
	C8.9,2.5,9.2,2.1,9.5,2c0.1,0,0.2,0,0.2,0c0.3,0,0.6,0.1,0.9,0.2c0.4,0.1,0.8,0.2,1.3,0.2c0.4,0,0.9-0.1,1.3-0.2
	c0.5-0.1,0.9-0.3,1.2-0.2s0.6,0.5,0.9,0.8c0.3,0.3,0.5,0.7,0.8,0.9C16.6,4,17,4.2,17.4,4.3c0.5,0.2,0.9,0.3,1.1,0.6
	c0.2,0.3,0.2,0.7,0.2,1.2c0,0.4,0,0.8,0.1,1.2c0.1,0.4,0.4,0.7,0.6,1C19.7,8.7,20,9.1,20,9.4z M16.5,7.6l-0.9-0.9l-4.9,4.9L8.4,9.3
	l-0.9,0.9l3.2,3.2L16.5,7.6z"/>
</svg>
