<?xml version="1.0" encoding="utf-8"?>
<!-- Generator: Adobe Illustrator 21.1.0, SVG Export Plug-In . SVG Version: 6.00 Build 0)  -->
<svg version="1.1" id="Layer_1" xmlns="http://www.w3.org/2000/svg" xmlns:xlink="http://www.w3.org/1999/xlink" x="0px" y="0px"
	 viewBox="0 0 24 24" style="enable-background:new 0 0 24 24;" xml:space="preserve">
<path class="st0" d="M8.5,14.5L4,19l1.5,1.5L9,17h2L8.5,14.5z M15,1c-1.1,0-2,0.9-2,2s0.9,2,2,2s2-0.9,2-2S16.1,1,15,1z M21,21l-3,3
	l-3-3v-1.5l-7.1-7.1c-0.3,0.1-0.6,0.1-0.9,0.1v-2.2c1.7,0,3.6-0.9,4.7-2l1.4-1.6c0.2-0.2,0.4-0.4,0.7-0.5C14,6.1,14.4,6,14.7,6l0,0
	C16,6,17,7,17,8.3V14c0,0.8-0.4,1.6-0.9,2.2l-3.6-3.6v-2.3c-0.6,0.5-1.4,1-2.3,1.4l6.3,6.3H18L21,21z"/>
</svg>
