<?xml version="1.0" encoding="utf-8"?>
<svg width="24" height="25" viewBox="0 0 24 25" xmlns="http://www.w3.org/2000/svg"  x="0px" y="0px"
style="enable-background:new 0 0 24 24;" xml:space="preserve">
<style type="text/css">
	.st0{fill:#001833;}
</style>
<path class="st0" d="M9.25001 22.5L8.85001 19.3C8.63335 19.2167 8.42918 19.1167 8.23751 19C8.04585 18.8833 7.85835 18.7583 7.67501 18.625L4.70001 19.875L1.95001 15.125L4.52501 13.175C4.50835 13.0583 4.50001 12.9458 4.50001 12.8375V12.1625C4.50001 12.0542 4.50835 11.9417 4.52501 11.825L1.95001 9.875L4.70001 5.125L7.67501 6.375C7.85835 6.24167 8.05001 6.11667 8.25001 6C8.45001 5.88333 8.65001 5.78333 8.85001 5.7L9.25001 2.5H14.75L15.15 5.7C15.3667 5.78333 15.5708 5.88333 15.7625 6C15.9542 6.11667 16.1417 6.24167 16.325 6.375L19.3 5.125L22.05 9.875L19.475 11.825C19.4917 11.9417 19.5 12.0542 19.5 12.1625V12.8375C19.5 12.9458 19.4833 13.0583 19.45 13.175L22.025 15.125L19.275 19.875L16.325 18.625C16.1417 18.7583 15.95 18.8833 15.75 19C15.55 19.1167 15.35 19.2167 15.15 19.3L14.75 22.5H9.25001ZM12.05 16C13.0167 16 13.8417 15.6583 14.525 14.975C15.2083 14.2917 15.55 13.4667 15.55 12.5C15.55 11.5333 15.2083 10.7083 14.525 10.025C13.8417 9.34167 13.0167 9 12.05 9C11.0667 9 10.2375 9.34167 9.56251 10.025C8.88751 10.7083 8.55001 11.5333 8.55001 12.5C8.55001 13.4667 8.88751 14.2917 9.56251 14.975C10.2375 15.6583 11.0667 16 12.05 16Z" fill="#6B5CBF"/>
</svg>
