<svg xmlns="http://www.w3.org/2000/svg" x="0px" y="0px"
     width="24" height="24"
     viewBox="0 0 24 24">
    <path d="M13.0664,3.6 C13.0664,4.484 12.3504,5.2 11.4664,5.2 C10.5824,5.2 9.8664,4.484 9.8664,3.6 C9.8664,2.716 10.5824,2 11.4664,2 C12.3504,2 13.0664,2.716 13.0664,3.6 Z M13.2,5.9336 L13.1992,5.9336 C14.1992,5.9336 15.0664,6.8 15.1328,7.8 L15.1328,12.3336 L13.4664,13.9336 C13.4664,14.0008 13.4664,14.0008 13.4664,14.0672 L13.4664,20.7336 C13.4664,21.4 12.9328,22 12.2664,22 L10.8,22 C10.1328,22 9.6,21.4 9.6664,20.7336 L9.6664,14.0672 C9.6664,14 9.6664,14 9.6664,13.9336 L8,12.3336 L8,7.8 C8,6.8 8.8,5.9336 9.8,5.9336 L13.2,5.9336 Z" id="Combined-Shape"></path>
</svg>