<?xml version="1.0" encoding="UTF-8"?>
<svg width="24px" height="24px" viewBox="0 0 24 24" version="1.1" xmlns="http://www.w3.org/2000/svg" xmlns:xlink="http://www.w3.org/1999/xlink">
    <title>sites</title>
    <g id="sites" stroke="none" stroke-width="1" fill="none" fill-rule="evenodd">
        
        <path d="M21,16 L3,16 L3,4 L21,4 M21,2 L3,2 C1.89,2 1,2.89 1,4 L1,16 C1,17.11 1.9,18 3,18 L10,18 L10,20 L8,20 L8,22 L16,22 L16,20 L14,20 L14,18 L21,18 C22.11,18 23,17.11 23,16 L23,4 C23,2.89 22.1,2 21,2 M15,5.5 L14.38,6.87 L13,7.5 L14.38,8.13 L15,9.5 L15.63,8.13 L17,7.5 L15.63,6.87 L15,5.5 M10.5,7.5 L9.41,9.91 L7,11 L9.41,12.09 L10.5,14.5 L11.6,12.09 L14,11 L11.6,9.91 L10.5,7.5" id="shape" fill="#001833"></path>
    </g>
</svg>