<?xml version="1.0" encoding="UTF-8"?>
<svg width="24px" height="24px" viewBox="0 0 24 24" version="1.1" xmlns="http://www.w3.org/2000/svg" xmlns:xlink="http://www.w3.org/1999/xlink">
    <title>sliders</title>
    <g stroke="none" stroke-width="1" fill="none" fill-rule="evenodd">
        <path d="M4.14,16 L2,16 L2,18 L4.14,18 C4.59,19.72 6.14,21 8,21 C9.86,21 11.41,19.72 11.86,18 L22,18 L22,16 L11.86,16 C11.41,14.28 9.86,13 8,13 C6.14,13 4.59,14.28 4.14,16 Z M8,19 C6.9,19 6,18.1 6,17 C6,15.9 6.9,15 8,15 C9.1,15 10,15.9 10,17 C10,18.1 9.1,19 8,19 M19.86,6 C19.41,4.28 17.86,3 16,3 C14.14,3 12.59,4.28 12.14,6 L2,6 L2,8 L12.14,8 C12.59,9.72 14.14,11 16,11 C17.86,11 19.41,9.72 19.86,8 L22,8 L22,6 L19.86,6 M16,9 C14.9,9 14,8.1 14,7 C14,5.9 14.9,5 16,5 C17.1,5 18,5.9 18,7 C18,8.1 17.1,9 16,9 Z" fill="#001833" transform="translate(12.000000, 12.000000) rotate(90.000000) translate(-12.000000, -12.000000) "></path>
    </g>
</svg>