<?xml version="1.0" encoding="UTF-8"?>
<svg width="24px" height="24px" viewBox="0 0 24 24" version="1.1" xmlns="http://www.w3.org/2000/svg" xmlns:xlink="http://www.w3.org/1999/xlink">
    <title>smokingAllowed</title>
    <g stroke="none" stroke-width="1" fill="none" fill-rule="evenodd">
        
        <path d="M2,16 L17,16 L17,19 L2,19 L2,16 Z M20.5,16 L22,16 L22,19 L20.5,19 L20.5,16 Z M18,16 L19.5,16 L19.5,19 L18,19 L18,16 Z M18.85,7.73 C19.47,7.12 19.85,6.28 19.85,5.35 C19.85,3.5 18.35,2 16.5,2 L16.5,3.5 C17.52,3.5 18.35,4.33 18.35,5.35 C18.35,6.37 17.52,7.2 16.5,7.2 L16.5,8.7 C18.74,8.7 20.5,10.53 20.5,12.77 L20.5,15 L22,15 L22,12.76 C22,10.54 20.72,8.62 18.85,7.73 Z M16.03,10.2 L14.5,10.2 C13.48,10.2 12.65,9.22 12.65,8.2 C12.65,7.18 13.48,6.45 14.5,6.45 L14.5,4.95 C12.65,4.95 11.15,6.45 11.15,8.3 C11.15,10.15 12.65,11.65 14.5,11.65 L16.03,11.65 C17.08,11.65 18,12.39 18,13.7 L18,15 L19.5,15 L19.5,13.36 C19.5,11.55 17.9,10.2 16.03,10.2 L16.03,10.2 Z"  fill="#001833"></path>
    </g>
</svg>