<svg width="24" height="24" viewBox="0 0 24 24" fill="none" xmlns="http://www.w3.org/2000/svg">
<g id="cookie_24dp_E8EAED_FILL0_wght400_GRAD0_opsz24 1">
<path id="Vector" d="M12 22C10.6167 22 9.31667 21.7375 8.1 21.2125C6.88333 20.6875 5.825 19.975 4.925 19.075C4.025 18.175 3.3125 17.1167 2.7875 15.9C2.2625 14.6833 2 13.3833 2 12C2 10.75 2.24167 9.525 2.725 8.325C3.20833 7.125 3.88333 6.05417 4.75 5.1125C5.61667 4.17083 6.65833 3.4125 7.875 2.8375C9.09167 2.2625 10.425 1.975 11.875 1.975C12.225 1.975 12.5833 1.99167 12.95 2.025C13.3167 2.05833 13.6917 2.11667 14.075 2.2C13.925 2.95 13.975 3.65833 14.225 4.325C14.475 4.99167 14.85 5.54583 15.35 5.9875C15.85 6.42917 16.4458 6.73333 17.1375 6.9C17.8292 7.06667 18.5417 7.025 19.275 6.775C18.8417 7.75833 18.9042 8.7 19.4625 9.6C20.0208 10.5 20.85 10.9667 21.95 11C21.9667 11.1833 21.9792 11.3542 21.9875 11.5125C21.9958 11.6708 22 11.8417 22 12.025C22 13.3917 21.7375 14.6792 21.2125 15.8875C20.6875 17.0958 19.975 18.1542 19.075 19.0625C18.175 19.9708 17.1167 20.6875 15.9 21.2125C14.6833 21.7375 13.3833 22 12 22ZM10.5 10C10.9167 10 11.2708 9.85417 11.5625 9.5625C11.8542 9.27083 12 8.91667 12 8.5C12 8.08333 11.8542 7.72917 11.5625 7.4375C11.2708 7.14583 10.9167 7 10.5 7C10.0833 7 9.72917 7.14583 9.4375 7.4375C9.14583 7.72917 9 8.08333 9 8.5C9 8.91667 9.14583 9.27083 9.4375 9.5625C9.72917 9.85417 10.0833 10 10.5 10ZM8.5 15C8.91667 15 9.27083 14.8542 9.5625 14.5625C9.85417 14.2708 10 13.9167 10 13.5C10 13.0833 9.85417 12.7292 9.5625 12.4375C9.27083 12.1458 8.91667 12 8.5 12C8.08333 12 7.72917 12.1458 7.4375 12.4375C7.14583 12.7292 7 13.0833 7 13.5C7 13.9167 7.14583 14.2708 7.4375 14.5625C7.72917 14.8542 8.08333 15 8.5 15ZM15 16C15.2833 16 15.5208 15.9042 15.7125 15.7125C15.9042 15.5208 16 15.2833 16 15C16 14.7167 15.9042 14.4792 15.7125 14.2875C15.5208 14.0958 15.2833 14 15 14C14.7167 14 14.4792 14.0958 14.2875 14.2875C14.0958 14.4792 14 14.7167 14 15C14 15.2833 14.0958 15.5208 14.2875 15.7125C14.4792 15.9042 14.7167 16 15 16ZM12 20C14.0333 20 15.8375 19.3 17.4125 17.9C18.9875 16.5 19.85 14.7167 20 12.55C19.1667 12.1833 18.5125 11.6833 18.0375 11.05C17.5625 10.4167 17.2417 9.70833 17.075 8.925C15.7917 8.74167 14.6917 8.19167 13.775 7.275C12.8583 6.35833 12.2917 5.25833 12.075 3.975C10.7417 3.94167 9.57083 4.18333 8.5625 4.7C7.55417 5.21667 6.7125 5.87917 6.0375 6.6875C5.3625 7.49583 4.85417 8.375 4.5125 9.325C4.17083 10.275 4 11.1667 4 12C4 14.2167 4.77917 16.1042 6.3375 17.6625C7.89583 19.2208 9.78333 20 12 20Z" fill="#001833"/>
</g>
</svg>
