<svg xmlns="http://www.w3.org/2000/svg" width="24" height="24" viewBox="0 0 24 24">
  <g fill="none" fill-rule="evenodd">
    <path fill="#001833" d="M14,8 C15.3062521,8 16.4175144,8.8348501 16.8293257,10.0000889 L17.5,10 C19.9852814,10 22,12.0147186 22,14.5 L22,17.5 C22,19.9852814 19.9852814,22 17.5,22 L6.5,22 C4.01471863,22 2,19.9852814 2,17.5 L2,14.5 C2,12.0147186 4.01471863,10 6.5,10 L11.1706743,10.0000889 C11.5824856,8.8348501 12.6937479,8 14,8 Z M11.1710242,12.0009007 L7,12 C5.34314575,12 4,13.3431458 4,15 C4,16.5976809 5.24891996,17.9036609 6.82372721,17.9949073 L7,18 L17,18 C18.6568542,18 20,16.6568542 20,15 C20,13.4023191 18.75108,12.0963391 17.1762728,12.0050927 L17,12 L16.8289758,12.0009007 C16.4168852,13.1656226 15.3058822,14 14,14 C12.6941178,14 11.5831148,13.1656226 11.1710242,12.0009007 Z M8.65917969,13.2 C8.93532206,13.2 9.15917969,13.4238576 9.15917969,13.7 C9.15917969,13.9454599 8.98230453,14.1496084 8.74905532,14.1919443 L8.65917969,14.2 L8,14.2 C7.17157288,14.2 6.5,14.8715729 6.5,15.7 C6.5,15.9761424 6.27614237,16.2 6,16.2 C5.72385763,16.2 5.5,15.9761424 5.5,15.7 C5.5,14.3745166 6.53153594,13.2899613 7.83562431,13.2053177 L8,13.2 L8.65917969,13.2 Z M14,9 C12.8954305,9 12,9.8954305 12,11 C12,12.1045695 12.8954305,13 14,13 C15.1045695,13 16,12.1045695 16,11 C16,9.8954305 15.1045695,9 14,9 Z M9.5,1 C11.4329966,1 13,2.56700338 13,4.5 C13,6.43299662 11.4329966,8 9.5,8 C7.56700338,8 6,6.43299662 6,4.5 C6,2.56700338 7.56700338,1 9.5,1 Z M9.5,2 C8.11928813,2 7,3.11928813 7,4.5 C7,5.88071187 8.11928813,7 9.5,7 C10.8807119,7 12,5.88071187 12,4.5 C12,3.11928813 10.8807119,2 9.5,2 Z M17,3 C18.1045695,3 19,3.8954305 19,5 C19,6.1045695 18.1045695,7 17,7 C15.8954305,7 15,6.1045695 15,5 C15,3.8954305 15.8954305,3 17,3 Z M17,4 C16.4477153,4 16,4.44771525 16,5 C16,5.55228475 16.4477153,6 17,6 C17.5522847,6 18,5.55228475 18,5 C18,4.44771525 17.5522847,4 17,4 Z"/>
    <rect width="24" height="24"/>
  </g>
</svg>
