<?xml version="1.0" encoding="UTF-8"?>
<svg width="24px" height="24px" viewBox="0 0 24 24" version="1.1" xmlns="http://www.w3.org/2000/svg" xmlns:xlink="http://www.w3.org/1999/xlink">
    <title>Custom Icons / sparkle</title>
    <g stroke="none" stroke-width="1" fill="none" fill-rule="evenodd">
        <path d="M20.3160924,9.36299869 C12.897192,8.70216626 12.344325,8.17082292 11.6604174,1 C10.9755113,8.17082292 10.4221452,8.70240967 3,9.36299869 C10.4221452,10.0204235 10.9755113,10.5590689 11.6604174,17.7264842 C12.344325,10.5590689 12.897192,10.0204235 20.3160924,9.36299869 Z" fill="#001833"></path>
        <path d="M8.60030507,16.6231496 C8.33897247,19.3533733 8.12731055,19.557343 5.30182348,19.8097493 C8.12731055,20.0582612 8.33897247,20.2670989 8.60030507,23 C8.85714484,20.2668555 9.06880677,20.0582612 11.8977883,19.8097493 C9.06880677,19.557343 8.85714484,19.3533733 8.60030507,16.6231496 Z" fill="#001833"></path>
        <path d="M18.8549262,15.5572987 C19.0251543,13.7831523 19.1629342,13.6524462 21,13.4849866 C19.1631838,13.3219083 19.0251543,13.191689 18.8549262,11.4170557 C18.6861957,13.191689 18.5479165,13.3219083 16.7108507,13.4849866 C18.5479165,13.6524462 18.6861957,13.7831523 18.8549262,15.5572987 Z" fill="#001833"></path>
    </g>
</svg>