<?xml version="1.0" encoding="UTF-8"?>
<svg width="24px" height="24px" viewBox="0 0 24 24" version="1.1" xmlns="http://www.w3.org/2000/svg" xmlns:xlink="http://www.w3.org/1999/xlink">
    <title>subwayAlt</title>
    <g id="subwayAlt" stroke="none" stroke-width="1" fill="none" fill-rule="evenodd">
        <path d="M0,0 L0,24 L24,24 L24,0 L0,0 Z M22,22 L2,22 L2,8.86 C2,6.05 3.53,3.84 6.2,2.8 C8,2.09 10.14,2 12,2 C13.86,2 16,2.09 17.8,2.8 C20.47,3.84 22,6.05 22,8.86 L22,22 Z" id="Shape"></path>
        <path d="M12,2 C13.86,2 16,2.09 17.8,2.8 C20.47,3.84 22,6.05 22,8.86 L22,8.86 L22,22 L2,22 L2,8.86 C2,6.05 3.53,3.84 6.2,2.8 C8,2.09 10.14,2 12,2 Z M12.2417551,6.00070516 L11.7805313,6.00068774 C8.85544319,6.01939322 6,6.43414634 6,9 L6,9 L6,15.88 C6,17.32 7.18,18.5 8.62,18.5 L8.62,18.5 L7.5,19.62 L7.5,20 L9.17,20 L10.67,18.5 L13.5,18.5 L15,20 L16.5,20 L16.5,19.62 L15.37,18.5 C16.82,18.5 18,17.33 18,15.88 L18,15.88 L18,9 C18,6.38 15.32,6 12,6 Z M15.5,15 C16.0522847,15 16.5,15.4477153 16.5,16 C16.5,16.5522847 16.0522847,17 15.5,17 C14.9477153,17 14.5,16.5522847 14.5,16 C14.5,15.4477153 14.9477153,15 15.5,15 Z M8.5,15 C9.05228475,15 9.5,15.4477153 9.5,16 C9.5,16.5522847 9.05228475,17 8.5,17 C7.94771525,17 7.5,16.5522847 7.5,16 C7.5,15.4477153 7.94771525,15 8.5,15 Z M17.01,9 L17.01,14 L7.01,14 L7.01,9 L17.01,9 Z" id="shape" fill="#001833"></path>
    </g>
</svg>