<svg width="24" height="24" viewBox="0 0 24 24" fill="none" xmlns="http://www.w3.org/2000/svg">
<path d="M20.911 3.36959C20.8815 3.22253 20.8084 3.08769 20.7015 2.98251C20.5945 2.87735 20.4585 2.80665 20.311 2.77959C15.4609 1.87959 9.71098 3.3296 6.94098 6.13959C4.17099 8.94959 2.79099 14.3896 3.57099 19.0496L1.69098 20.9996C1.568 21.1371 1.5 21.3152 1.5 21.4997C1.5 21.684 1.568 21.8621 1.69098 21.9996C1.76022 22.0697 1.84278 22.1253 1.93379 22.1631C2.02481 22.2009 2.12244 22.2201 2.22099 22.2197C2.39979 22.2083 2.56769 22.1297 2.69099 21.9996L4.69098 20.0996C5.60316 20.2515 6.52624 20.3285 7.45098 20.3297C11.541 20.3297 15.6409 18.9996 17.801 16.8096C20.511 13.9996 21.871 8.2196 20.911 3.36959ZM16.691 15.7496C14.581 17.8896 10.101 19.1096 5.99098 18.7496L16.281 8.46959C16.4214 8.32896 16.5003 8.13834 16.5003 7.93959C16.5003 7.74084 16.4214 7.55022 16.281 7.4096C16.1375 7.27089 15.9456 7.19337 15.746 7.19337C15.5463 7.19337 15.3546 7.27089 15.2111 7.4096L4.91098 17.7096C4.58098 13.7996 5.82099 9.39959 8.01099 7.18959C10.201 4.9796 15.3011 3.55959 19.5311 4.18959C20.201 8.40959 18.9911 13.4096 16.691 15.7496Z" fill="#001833"/>
</svg>
