<svg width="14" height="14" viewBox="0 0 14 14" fill="none" xmlns="http://www.w3.org/2000/svg">
<path d="M13.1467 1.24664C13.127 1.14859 13.0784 1.05871 13.0071 0.988589C12.9358 0.918472 12.8451 0.871348 12.7467 0.853305C9.51338 0.253305 5.68004 1.21997 3.83338 3.09331C1.98671 4.96664 1.06671 8.5933 1.58671 11.7L0.333377 13C0.251384 13.0916 0.206055 13.2103 0.206055 13.3333C0.206055 13.4563 0.251384 13.575 0.333377 13.6666C0.37954 13.7134 0.434573 13.7504 0.495248 13.7756C0.555922 13.8008 0.621016 13.8136 0.68671 13.8133C0.805919 13.8057 0.917847 13.7533 1.00004 13.6666L2.33338 12.4C2.9415 12.5012 3.55689 12.5525 4.17338 12.5533C6.90004 12.5533 9.63338 11.6666 11.0734 10.2066C12.88 8.3333 13.7867 4.47997 13.1467 1.24664ZM10.3334 9.49997C8.92671 10.9266 5.94004 11.74 3.20004 11.5L10.06 4.64664C10.1537 4.55289 10.2063 4.42581 10.2063 4.29331C10.2063 4.1608 10.1537 4.03372 10.06 3.93997C9.96433 3.84751 9.83646 3.79583 9.70338 3.79583C9.5703 3.79583 9.44242 3.84751 9.34671 3.93997L2.48004 10.8066C2.26004 8.19997 3.08671 5.26664 4.54671 3.79331C6.00671 2.31997 9.40671 1.37331 12.2267 1.79331C12.6734 4.60664 11.8667 7.93997 10.3334 9.49997Z" fill="#00AA00"/>
</svg>
