<svg width="16" height="16" viewBox="0 0 16 16" fill="none" xmlns="http://www.w3.org/2000/svg">
<path d="M13.9407 2.24639C13.921 2.14835 13.8723 2.05846 13.801 1.98834C13.7297 1.91823 13.639 1.8711 13.5407 1.85306C10.3073 1.25306 6.47399 2.21973 4.62732 4.09306C2.78066 5.96639 1.86066 9.59306 2.38066 12.6997L1.12732 13.9997C1.04533 14.0914 1 14.2101 1 14.3331C1 14.456 1.04533 14.5747 1.12732 14.6664C1.17348 14.7131 1.22852 14.7502 1.28919 14.7754C1.34987 14.8006 1.41496 14.8134 1.48066 14.8131C1.59986 14.8055 1.71179 14.7531 1.79399 14.6664L3.12732 13.3997C3.73544 13.501 4.35083 13.5523 4.96732 13.5531C7.69399 13.5531 10.4273 12.6664 11.8673 11.2064C13.674 9.33306 14.5807 5.47973 13.9407 2.24639ZM11.1273 10.4997C9.72066 11.9264 6.73399 12.7397 3.99399 12.4997L10.854 5.64639C10.9476 5.55264 11.0002 5.42556 11.0002 5.29306C11.0002 5.16056 10.9476 5.03348 10.854 4.93973C10.7583 4.84726 10.6304 4.79558 10.4973 4.79558C10.3642 4.79558 10.2364 4.84726 10.1407 4.93973L3.27399 11.8064C3.05399 9.19973 3.88066 6.26639 5.34066 4.79306C6.80066 3.31973 10.2007 2.37306 13.0207 2.79306C13.4673 5.60639 12.6607 8.93973 11.1273 10.4997Z" fill="#00AA00"/>
</svg>
