<svg width="24" height="24" viewBox="0 0 24 24" fill="none" xmlns="http://www.w3.org/2000/svg">
<path d="M6 19L2 15L3.4 13.55L5 15.15V8C5 6.9 5.39167 5.95833 6.175 5.175C6.95833 4.39167 7.9 4 9 4C10.1 4 11.0417 4.39167 11.825 5.175C12.6083 5.95833 13 6.9 13 8V15C13 15.55 13.1958 16.0208 13.5875 16.4125C13.9792 16.8042 14.45 17 15 17C15.55 17 16.0208 16.8042 16.4125 16.4125C16.8042 16.0208 17 15.55 17 15V7.85L15.4 9.45L14 8L18 4L22 8L20.6 9.45L19 7.85V15C19 16.1 18.6083 17.0417 17.825 17.825C17.0417 18.6083 16.1 19 15 19C13.9 19 12.9583 18.6083 12.175 17.825C11.3917 17.0417 11 16.1 11 15V8C11 7.45 10.8042 6.97917 10.4125 6.5875C10.0208 6.19583 9.55 6 9 6C8.45 6 7.97917 6.19583 7.5875 6.5875C7.19583 6.97917 7 7.45 7 8V15.15L8.6 13.55L10 15L6 19Z" fill="#001833"/>
</svg>
