<?xml version="1.0" encoding="UTF-8"?>
<svg width="24px" height="24px" viewBox="0 0 24 24" version="1.1" xmlns="http://www.w3.org/2000/svg" xmlns:xlink="http://www.w3.org/1999/xlink">
    <title>tableChart</title>
    <g id="tableChart" stroke="none" stroke-width="1" fill="none" fill-rule="evenodd">
        <polygon id="Path" points="0 0 24 0 24 24 0 24"></polygon>
        <path d="M10,10.02 L15,10.02 L15,21 L10,21 L10,10.02 Z M17,21 L20,21 C21.1,21 22,20.1 22,19 L22,10 L17,10 L17,21 Z M20,3 L5,3 C3.9,3 3,3.9 3,5 L3,8 L22,8 L22,5 C22,3.9 21.1,3 20,3 Z M3,19 C3,20.1 3.9,21 5,21 L8,21 L8,10 L3,10 L3,19 Z" id="shape" fill="#001833"></path>
    </g>
</svg>