<?xml version="1.0" encoding="utf-8"?>
<!-- Generator: Adobe Illustrator 21.1.0, SVG Export Plug-In . SVG Version: 6.00 Build 0)  -->
<svg version="1.1" id="Layer_1" xmlns="http://www.w3.org/2000/svg" xmlns:xlink="http://www.w3.org/1999/xlink" x="0px" y="0px"
	 viewBox="0 0 24 24" style="enable-background:new 0 0 24 24;" xml:space="preserve">
<path id="path-1_1_" class="st0" d="M14.5,4H7.1C6.4,4,5.9,4.4,5.6,5l-2.5,5.7C3,10.8,3,11,3,11.2v1.5l0,0v0.1
	c0,0.9,0.7,1.6,1.6,1.6h5.2l-0.7,3.7v0.2c0,0.3,0.2,0.6,0.3,0.9l0.8,0.8l5.4-5.3c0.3-0.3,0.5-0.6,0.5-1.1v-8C16.1,4.7,15.4,4,14.5,4
	z M17.7,4v9.6H21V4H17.7z"/>
</svg>
