<?xml version="1.0" encoding="utf-8"?>
<!-- Generator: Adobe Illustrator 21.1.0, SVG Export Plug-In . SVG Version: 6.00 Build 0)  -->
<svg version="1.1" id="Layer_1" xmlns="http://www.w3.org/2000/svg" xmlns:xlink="http://www.w3.org/1999/xlink" x="0px" y="0px"
	 viewBox="0 0 24 24" style="enable-background:new 0 0 24 24;" xml:space="preserve">
<path id="path-1_1_" class="st0" d="M3,20h3.3v-9.6H3V20z M21,11.2c0-0.9-0.7-1.6-1.6-1.6h-5.2L15,5.9V5.7c0-0.3-0.2-0.6-0.3-0.9
	L13.8,4L8.4,9.3c-0.3,0.2-0.5,0.6-0.5,1.1v8c0,0.9,0.7,1.6,1.6,1.6h7.4c0.7,0,1.2-0.4,1.5-1l2.5-5.7C21,13.2,21,13,21,12.8V11.2
	L21,11.2L21,11.2z"/>
</svg>
