<?xml version="1.0" encoding="utf-8"?>
<!-- Generator: Adobe Illustrator 21.1.0, SVG Export Plug-In . SVG Version: 6.00 Build 0)  -->
<svg version="1.1" id="Layer_1" xmlns="http://www.w3.org/2000/svg" xmlns:xlink="http://www.w3.org/1999/xlink" x="0px" y="0px"
	 viewBox="0 0 24 24" style="enable-background:new 0 0 24 24;" xml:space="preserve">
<path id="path-1_1_" class="st0" d="M15,1.5H9v2h6V1.5z M11,14.5h2v-6h-2V14.5z M19,7.9l1.4-1.4C20,6,19.5,5.5,19,5.1l-1.4,1.4
	c-1.6-1.2-3.5-2-5.6-2c-5,0-9,4-9,9s4,9,9,9s9-4,9-9C21,11.4,20.3,9.4,19,7.9z M12,20.5c-3.9,0-7-3.1-7-7s3.1-7,7-7s7,3.1,7,7
	S15.9,20.5,12,20.5z"/>
</svg>
