<?xml version="1.0" encoding="UTF-8"?>
<svg width="24px" height="24px" viewBox="0 0 24 24" version="1.1" xmlns="http://www.w3.org/2000/svg" xmlns:xlink="http://www.w3.org/1999/xlink">
    <title>traffic</title>
    <g id="traffic" stroke="none" stroke-width="1" fill="none" fill-rule="evenodd">
        <polygon id="Path" points="0 0 24 0 24 24 0 24"></polygon>
        <path d="M20,10 L17,10 L17,8.86 C18.72,8.41 20,6.86 20,5 L17,5 L17,4 C17,3.45 16.55,3 16,3 L8,3 C7.45,3 7,3.45 7,4 L7,5 L4,5 C4,6.86 5.28,8.41 7,8.86 L7,10 L4,10 C4,11.86 5.28,13.41 7,13.86 L7,15 L4,15 C4,16.86 5.28,18.41 7,18.86 L7,20 C7,20.55 7.45,21 8,21 L16,21 C16.55,21 17,20.55 17,20 L17,18.86 C18.72,18.41 20,16.86 20,15 L17,15 L17,13.86 C18.72,13.41 20,11.86 20,10 Z M12,19 C10.89,19 10,18.1 10,17 C10,15.9 10.89,15 12,15 C13.1,15 14,15.9 14,17 C14,18.1 13.11,19 12,19 Z M12,14 C10.89,14 10,13.1 10,12 C10,10.9 10.89,10 12,10 C13.1,10 14,10.9 14,12 C14,13.1 13.11,14 12,14 Z M12,9 C10.89,9 10,8.1 10,7 C10,5.89 10.89,5 12,5 C13.1,5 14,5.89 14,7 C14,8.1 13.11,9 12,9 Z" id="shape" fill="#001833"></path>
    </g>
</svg>