<?xml version="1.0" encoding="UTF-8"?>
<svg width="24px" height="24px" viewBox="0 0 24 24" version="1.1" xmlns="http://www.w3.org/2000/svg" xmlns:xlink="http://www.w3.org/1999/xlink">
    <title>Material Icons / travelExplore</title>
    <g stroke="none" stroke-width="1" fill="none" fill-rule="evenodd">
        <path d="M19.3,16.9 C19.7,16.2 20,15.4 20,14.5 C20,12 18,10 15.5,10 C13,10 11,12 11,14.5 C11,17 13,19 15.5,19 C16.4,19 17.2,18.7 17.9,18.3 L21.1,21.5 L22.5,20.1 L19.3,16.9 Z M15.5,17 C14.1,17 13,15.9 13,14.5 C13,13.1 14.1,12 15.5,12 C16.9,12 18,13.1 18,14.5 C18,15.9 16.9,17 15.5,17 Z M12,20 L12,22 C6.48,22 2,17.52 2,12 C2,6.48 6.48,2 12,2 C16.84,2 20.87,5.44 21.8,10 L19.73,10 C19.09,7.54 17.33,5.53 15,4.59 L15,5 C15,6.1 14.1,7 13,7 L11,7 L11,9 C11,9.55 10.55,10 10,10 L8,10 L8,12 L10,12 L10,15 L9,15 L4.21,10.21 C4.08,10.79 4,11.38 4,12 C4,16.41 7.59,20 12,20 Z" fill="#001833"></path>
    </g>
</svg>