<svg width="24" height="24" viewBox="0 0 24 24" fill="none" xmlns="http://www.w3.org/2000/svg">
<path d="M13.28 21.7C13.28 21.7 13.28 21.7 13.28 21.71C13.3 21.73 13.32 21.74 13.34 21.75C13.32 21.73 13.29 21.72 13.27 21.7H13.28Z" fill="#001833"/>
<path d="M11 17V10C11 9.72 11.1 9.48 11.29 9.29C11.48 9.1 11.72 9 12 9C12.28 9 12.52 9.1 12.71 9.29C12.9 9.48 13 9.72 13 10V12.54C14.06 11.59 15.46 11 17 11V8C17 7.45 16.8 6.98 16.41 6.59C16.02 6.2 15.55 6 15 6H13V4C13 3.45 12.8 2.98 12.41 2.59C12.02 2.2 11.55 2 11 2H9C8.45 2 7.98 2.2 7.59 2.59C7.2 2.98 7 3.45 7 4V6H5C4.45 6 3.98 6.2 3.59 6.59C3.2 6.98 3 7.45 3 8V19C3 19.55 3.2 20.02 3.59 20.41C3.98 20.8 4.45 21 5 21C5 21.28 5.1 21.52 5.29 21.71C5.48 21.9 5.72 22 6 22C6.28 22 6.52 21.9 6.71 21.71C6.9 21.52 7 21.28 7 21H12.54C11.59 19.94 11 18.54 11 17ZM9 17C9 17.28 8.9 17.52 8.71 17.71C8.52 17.9 8.28 18 8 18C7.72 18 7.48 17.9 7.29 17.71C7.1 17.52 7 17.28 7 17V10C7 9.72 7.1 9.48 7.29 9.29C7.48 9.1 7.72 9 8 9C8.28 9 8.52 9.1 8.71 9.29C8.9 9.48 9 9.72 9 10V17ZM9 4H11V6H9V4Z" fill="#001833"/>
<path d="M20.54 13.46C19.57 12.48 18.39 12 17 12C15.61 12 14.42 12.49 13.45 13.47C12.48 14.45 12 15.63 12 17C12 18.37 12.49 19.56 13.46 20.54C14.43 21.52 15.61 22 17 22C18.39 22 19.56 21.51 20.54 20.54C21.52 19.57 22 18.39 22 17C22 15.61 21.51 14.44 20.54 13.46ZM17.35 19.85C17.25 19.95 17.13 20 17 20C16.87 20 16.75 19.95 16.65 19.85C16.55 19.75 16.5 19.63 16.5 19.5C16.5 19.37 16.55 19.25 16.65 19.15C16.75 19.05 16.87 19 17 19C17.13 19 17.25 19.05 17.35 19.15C17.45 19.25 17.5 19.37 17.5 19.5C17.5 19.63 17.45 19.75 17.35 19.85ZM17.5 17.5C17.5 17.63 17.45 17.75 17.35 17.85C17.25 17.95 17.13 18 17 18C16.87 18 16.75 17.95 16.65 17.85C16.55 17.75 16.5 17.63 16.5 17.5V14.5C16.5 14.37 16.55 14.25 16.65 14.15C16.75 14.05 16.87 14 17 14C17.13 14 17.25 14.05 17.35 14.15C17.45 14.25 17.5 14.37 17.5 14.5V17.5Z" fill="#001833"/>
</svg>
