<?xml version="1.0" encoding="utf-8"?>
<!-- Generator: Adobe Illustrator 21.1.0, SVG Export Plug-In . SVG Version: 6.00 Build 0)  -->
<svg version="1.1"  xmlns="http://www.w3.org/2000/svg" xmlns:xlink="http://www.w3.org/1999/xlink" x="0px" y="0px"
	 viewBox="0 0 24 24" style="enable-background:new 0 0 24 24;" xml:space="preserve">
<style type="text/css">
	.st0{fill:#001833;}
</style>
<path class="st0" d="M8.3,19.8c7.5,0,11.7-6.3,11.7-11.7c0-0.2,0-0.4,0-0.5c0.8-0.6,1.5-1.3,2-2.1c-0.7,0.3-1.5,0.5-2.4,0.6
	c0.9-0.5,1.5-1.3,1.8-2.3c-0.8,0.5-1.7,0.8-2.6,1c-1.3-1.4-3.3-1.7-4.9-0.8s-2.5,2.7-2.1,4.5C8.5,8.4,5.5,6.8,3.4,4.2
	C2.3,6.1,2.9,8.5,4.7,9.7C4,9.7,3.4,9.5,2.8,9.2c0,0,0,0,0,0.1c0,2,1.4,3.6,3.3,4c-0.6,0.2-1.2,0.2-1.9,0.1c0.5,1.7,2.1,2.8,3.8,2.8
	C6.6,17.3,4.8,18,3,18c-0.3,0-0.7,0-1-0.1C3.9,19.1,6.1,19.8,8.3,19.8"/>
</svg>
