<?xml version="1.0" encoding="UTF-8"?>
<svg width="24px" height="24px" viewBox="0 0 24 24" version="1.1" xmlns="http://www.w3.org/2000/svg" xmlns:xlink="http://www.w3.org/1999/xlink">
    <title>viewModule</title>
    <g id="viewModule" stroke="none" stroke-width="1" fill="none" fill-rule="evenodd">
        
        <path d="M4,11 L9,11 L9,5 L4,5 L4,11 Z M4,18 L9,18 L9,12 L4,12 L4,18 Z M10,18 L15,18 L15,12 L10,12 L10,18 Z M16,18 L21,18 L21,12 L16,12 L16,18 Z M10,11 L15,11 L15,5 L10,5 L10,11 Z M16,5 L16,11 L21,11 L21,5 L16,5 Z" id="shape" fill="#001833"></path>
    </g>
</svg>