<?xml version="1.0" encoding="UTF-8"?>
<svg width="24px" height="24px" viewBox="0 0 24 24" version="1.1" xmlns="http://www.w3.org/2000/svg" xmlns:xlink="http://www.w3.org/1999/xlink">
    <title>viewList</title>
    <g stroke="none" stroke-width="1" fill="none" fill-rule="evenodd">
        
        <path d="M4,14 L8,14 L8,10 L4,10 L4,14 Z M4,19 L8,19 L8,15 L4,15 L4,19 Z M4,9 L8,9 L8,5 L4,5 L4,9 Z M9,14 L21,14 L21,10 L9,10 L9,14 Z M9,19 L21,19 L21,15 L9,15 L9,19 Z M9,5 L9,9 L21,9 L21,5 L9,5 Z"  fill="#001833"></path>
    </g>
</svg>