<svg xmlns="http://www.w3.org/2000/svg" width="24" height="24" viewBox="0 0 24 24">
  <g fill="none" fill-rule="evenodd">
    <path fill="#001833" d="M17.42,22.5 L5.33,22.5 C3.5,22.5 2,21 2,19.17 L2,13.08 C2,12.18 2.36,11.33 3,10.71 L8.63,5.17 C8.63,5.17 9.66,6.22 9.67,6.25 C9.83,6.43 9.92,6.66 9.92,6.91 C9.92,7.09 9.87,7.26 9.78,7.41 C9.77,7.44 8,10 8,10 L18.67,10 C19.36,10 19.92,10.56 19.92,11.25 C19.92,11.94 19.36,12.5 18.67,12.5 L12.83,12.5 L12.83,13.33 L20.75,13.33 C21.44,13.33 22,13.89 22,14.58 C22,15.28 21.44,15.83 20.75,15.83 L12.83,15.83 L12.83,16.67 L19.92,16.67 C20.61,16.67 21.17,17.22 21.17,17.92 C21.17,18.61 20.61,19.17 19.92,19.17 L12.83,19.17 L12.83,20 L17.42,20 C18.11,20 18.67,20.56 18.67,21.25 C18.67,21.94 18.11,22.5 17.42,22.5 M13.5,4.8 C13.5,4.8 12,6.46 12,7.5 C12,9.5 15,9.5 15,7.5 C15,6.46 13.5,4.8 13.5,4.8 M18.5,1 C18.5,1 16,3.76 16,5.5 C16,8.83 21,8.83 21,5.5 C21,3.76 18.5,1 18.5,1 Z"/>
    <rect width="24" height="24"/>
  </g>
</svg>
