<?xml version="1.0" encoding="UTF-8"?>
<svg width="24px" height="24px" viewBox="0 0 24 24" version="1.1" xmlns="http://www.w3.org/2000/svg" xmlns:xlink="http://www.w3.org/1999/xlink">
    <title>WeatherLightning</title>
    <g stroke="none" stroke-width="1" fill="none" fill-rule="evenodd">
        <path d="M2.46446609,14.5355339 C1.5267842,13.597852 1,12.3260824 1,11 C1,8.23857625 3.23857625,6 6,6 C7,3.65 9.3,2 12,2 C15.43,2 18.24,4.66 18.5,8.03 L19,8 C21.209139,8 23,9.790861 23,12 C23,14.209139 21.209139,16 19,16 L18.5,16 C17.9477153,16 17.5,15.5522847 17.5,15 C17.5,14.4477153 17.9477153,14 18.5,14 C18.8681898,14 19.0348565,14 19,14 C20.1045695,14 21,13.1045695 21,12 C21,10.8954305 20.1045695,10 19,10 L17,10 L17,9 C17,6.23857625 14.7614237,4 12,4 C9.5,4 7.45,5.82 7.06,8.19 C6.73,8.07 6.37,8 6,8 C4.34314575,8 3,9.34314575 3,11 C3,12.6568542 4.34314575,14 6,14 L7,14 C7.55228475,14 8,14.4477153 8,15 C8,15.5522847 7.55228475,16 7,16 L6,16 C4.67391755,16 3.40214799,15.4732158 2.46446609,14.5355339 Z M12,11 L15,11 L13.5,14 L16,14 L11.25,22 L12,17 L9.5,17 L12,11 Z" fill="#001833"></path>
    </g>
</svg>