<svg xmlns="http://www.w3.org/2000/svg" width="20" height="12" viewBox="0 0 20 12">
    <g fill="#444" fill-rule="nonzero">
        <path d="M7.779 4.818A3.223 3.223 0 0 1 9.36 6.045c.14.2.247.267.366.318.117.05.263.072.45.08.188-.008.336-.03.452-.08.12-.05.226-.117.362-.31a3.198 3.198 0 0 1 1.582-1.234c.498-.182.911-.198 1.088-.2h.052c.046.001.108.002.185.007L11.005 3.13a.321.321 0 0 1-.14-.43l.127-.25c.079-.158.27-.22.424-.14l4.258 2.202a.854.854 0 0 0 1.156-.381.879.879 0 0 0-.376-1.173L11.03.154A1.381 1.381 0 0 0 9.16.772L7.205 4.666c.169.029.363.074.574.152zM4.725 4.302A1.953 1.953 0 0 0 7.27 3.184c.4-1.023-.092-2.18-1.1-2.586a1.952 1.952 0 0 0-2.546 1.117c-.4 1.023.093 2.18 1.1 2.587z"/>
        <path d="M19.584 6.416a.72.72 0 0 0-.99.193c-.418.606-.939.694-1.403.705-.464-.01-.986-.1-1.403-.705a2.494 2.494 0 0 0-1.23-.959c-.4-.144-.72-.157-.851-.157h-.047c-.13 0-.45.013-.848.157-.4.143-.88.433-1.232.96-.417.605-.937.693-1.404.704-.462-.01-.984-.1-1.4-.705a2.52 2.52 0 0 0-1.232-.959 2.526 2.526 0 0 0-.851-.157h-.045a2.52 2.52 0 0 0-.852.157 2.52 2.52 0 0 0-1.233.96c-.416.605-.938.693-1.4.704-.463-.01-.985-.1-1.401-.705a.72.72 0 0 0-.992-.193.705.705 0 0 0-.196.981c.744 1.11 1.893 1.343 2.59 1.33.693.013 1.844-.22 2.586-1.33.165-.241.353-.352.535-.42.161-.06.309-.07.35-.072H6.693a1.2 1.2 0 0 1 .36.072c.181.068.37.179.538.42.74 1.11 1.891 1.343 2.585 1.33.695.013 1.848-.22 2.59-1.33.165-.241.353-.352.536-.42.16-.06.307-.07.349-.072h.056c.016 0 .18.006.36.072.184.068.37.179.536.42.743 1.11 1.894 1.343 2.589 1.33h.052c.7 0 1.813-.248 2.536-1.33a.702.702 0 0 0-.195-.98zM18.255 9.889a.569.569 0 0 0-.787.155v-.002c-.332.482-.747.552-1.115.56-.37-.008-.785-.078-1.116-.56a1.98 1.98 0 0 0-.98-.762 2.084 2.084 0 0 0-.676-.126H13.545c-.104.002-.36.012-.675.126-.316.111-.7.344-.98.764-.332.48-.746.55-1.117.559-.368-.01-.783-.08-1.113-.56a1.993 1.993 0 0 0-.98-.763 2.08 2.08 0 0 0-.677-.126H7.967a2.11 2.11 0 0 0-.677.126 1.995 1.995 0 0 0-.98.764c-.332.48-.746.55-1.114.559-.369-.01-.785-.08-1.115-.56a.571.571 0 0 0-.788-.154.56.56 0 0 0-.156.78c.591.884 1.505 1.067 2.06 1.059.552.009 1.467-.175 2.056-1.059a.852.852 0 0 1 .427-.333.95.95 0 0 1 .278-.058h.045c.012 0 .143.004.286.058.145.054.295.14.428.333.59.884 1.504 1.067 2.056 1.059.554.009 1.47-.175 2.06-1.059a.846.846 0 0 1 .427-.333.93.93 0 0 1 .277-.058h.044c.013 0 .144.004.286.058.147.054.295.14.427.333.591.884 1.506 1.067 2.059 1.059h.04c.558 0 1.444-.199 2.018-1.059a.56.56 0 0 0-.156-.78z"/>
    </g>
</svg>
