<svg xmlns="http://www.w3.org/2000/svg" width="20" height="8" viewBox="0 0 20 8">
    <path fill="#444" fill-rule="evenodd" d="M20 3.299h-1.54v-1.4c0-.385-.345-.7-.77-.7h-1.538c-.422 0-.766.312-.768.696V1.2c0-.385-.344-.7-.768-.7h-1.54c-.425 0-.768.315-.768.7v2.1H7.692V1.2c0-.385-.346-.7-.768-.7h-1.54c-.425 0-.768.315-.768.7v.7c0-.386-.347-.7-.77-.7H2.307c-.426 0-.77.314-.77.7v1.4H0v1.4h1.539v1.4c0 .386.343.7.77.7h1.537c.424 0 .77-.314.77-.7v.7c0 .386.344.7.77.7h1.538c.422 0 .768-.314.768-.701v-2.1h4.616v2.1c0 .387.344.701.77.701h1.538c.424 0 .768-.314.768-.701V6.1c.002.387.346.698.768.698h1.538c.425 0 .77-.313.77-.7v-1.4H20V3.3z"/>
</svg>
