<svg xmlns="http://www.w3.org/2000/svg" width="20" height="16" viewBox="0 0 20 16">
    <g fill="#444" fill-rule="nonzero">
        <path d="M4.08 3.746c3.46.099 6.394 3.548 6.02 6.924-3.045.365-4.442-1.232-6.02-6.924zM10.922 10.686c-.249-1.636-.62-3.15.748-4.479 1.282-1.247 2.526-2.448 4.48-2.516-.63 4.802-1.93 6.559-5.228 6.995z"/>
        <path d="M1.695 9.633c-1.052 1.524-.298 2.458 1.056 3.166 2.931 1.532 5.944 2 9.152 1.59 2.075-.266 4.15-.891 6.092-1.678 1.316-.562 1.581-1.42.904-2.845 1.013.697 1.184 1.84.478 2.69-.682.82-1.453 1.156-2.425 1.544-4.702 1.877-9.44 1.877-14.09-.241-.664-.302-1.287-.813-1.773-1.363-.951-1.08-.696-2.086.606-2.864zM10.138.394c1.201.808 1.553 2.086 1.873 3.364.399 1.594-1.276 2.185-1.633 3.456-2.947-2.781-2.582-4.2-.24-6.82z"/>
        <path d="M3.845 10.294c2.063 2.517 10.52 2.479 12.642.098-.166 1.646-2.113 2.554-5.79 2.698-3.768.151-6.494-.899-6.852-2.796z"/>
    </g>
</svg>
