<svg xmlns="http://www.w3.org/2000/svg" width="20" height="14" viewBox="0 0 20 14">
    <path fill="#444" fill-rule="nonzero" d="M18.756 5.353a12.476 12.476 0 0 0-1.826-1.506 12.57 12.57 0 0 0-2.107-1.142 12.306 12.306 0 0 0-4.827-.977 12.413 12.413 0 0 0-4.82.965c-.74.311-1.442.69-2.103 1.138a12.78 12.78 0 0 0-1.838 1.504L0 4.095a14.618 14.618 0 0 1 2.096-1.702 14.093 14.093 0 0 1 2.399-1.289 14.267 14.267 0 0 1 2.65-.817A13.92 13.92 0 0 1 9.998 0c.976 0 1.928.094 2.854.286.927.19 1.813.464 2.659.818A14.06 14.06 0 0 1 20 4.114l-1.244 1.239zm-2.633 2.613A8.845 8.845 0 0 0 13.37 6.12a8.564 8.564 0 0 0-1.629-.503 8.777 8.777 0 0 0-1.745-.172c-.597 0-1.179.057-1.743.172a9.02 9.02 0 0 0-1.624.494 8.225 8.225 0 0 0-1.465.784A8.72 8.72 0 0 0 3.887 7.94L2.668 6.734a10.305 10.305 0 0 1 3.29-2.204 10.366 10.366 0 0 1 4.04-.813 10.309 10.309 0 0 1 5.808 1.775 10.64 10.64 0 0 1 1.536 1.26l-1.22 1.214zm-2.582 2.57a5.133 5.133 0 0 0-1.598-1.087 4.805 4.805 0 0 0-1.946-.396c-.694 0-1.34.127-1.94.383a5.1 5.1 0 0 0-1.589 1.067L5.301 9.34a6.739 6.739 0 0 1 2.114-1.403c.8-.34 1.66-.51 2.582-.51a6.602 6.602 0 0 1 4.712 1.948l-1.168 1.163zM10.012 14l-2.215-2.19a3.33 3.33 0 0 1 .998-.654c.375-.16.775-.24 1.202-.24.432 0 .835.083 1.213.248.378.167.706.392.984.68L10.012 14z"/>
</svg>
