<svg xmlns="http://www.w3.org/2000/svg" width="18" height="20" viewBox="0 0 18 20">
    <path fill="#444" fill-rule="nonzero" d="M17.5 3.383S17.183 0 14.974 0H3.024C.815 0 .5 3.383.5 3.383v14.21h1.262S1.678 20 3.734 20c2.057 0 1.973-2.407 1.973-2.407H12.292S12.208 20 14.264 20s1.973-2.407 1.973-2.407H17.5V3.383zM5.21 1.067h7.496c.662 0 .761 1.429 0 1.429H5.21c-.483 0-.54-1.429 0-1.429zM3.672 14.801c-1.02 0-1.848-.788-1.848-1.76 0-.973.828-1.76 1.848-1.76 1.022 0 1.847.787 1.847 1.76 0 .972-.825 1.76-1.847 1.76zM2.619 3.414h12.414v6.048H2.62V3.414zm11.818 11.389c-1.021 0-1.849-.79-1.849-1.762 0-.971.828-1.76 1.849-1.76 1.02 0 1.847.789 1.847 1.76 0 .973-.828 1.762-1.847 1.762z"/>
</svg>
