<svg version="1.1" xmlns="http://www.w3.org/2000/svg" xmlns:xlink="http://www.w3.org/1999/xlink" width="54" height="25" viewBox="0 0 54 25"><path fill="#444" d="M53.286 11.618c-0.141-0.141-0.212-0.282-0.353-0.424l-10.516-10.304c-0.494-0.494-1.412-0.494-1.906 0-0.494 0.565-0.494 1.412 0 1.906l8.54 8.399h-47.71c-0.706 0-1.341 0.635-1.341 1.341s0.635 1.341 1.341 1.341h47.71l-8.54 8.399c-0.494 0.494-0.565 1.341 0 1.906 0.282 0.282 0.635 0.424 0.988 0.424s0.706-0.141 0.918-0.353l10.516-10.304c0.141-0.141 0.282-0.282 0.424-0.424 0.282-0.282 0.494-0.565 0.494-0.918-0.071-0.424-0.282-0.706-0.565-0.988z"></path></svg>
