<?xml version="1.0" encoding="UTF-8" standalone="no"?>
<svg width="24px" height="24px" viewBox="0 0 24 24" version="1.1" xmlns="http://www.w3.org/2000/svg" xmlns:xlink="http://www.w3.org/1999/xlink">
    <!-- Generator: Sketch 47.1 (45422) - http://www.bohemiancoding.com/sketch -->
    <title>Artboard</title>
    <desc>Created with Sketch.</desc>
    <defs></defs>
    <g id="Page-1" stroke="none" stroke-width="1" fill="none" fill-rule="evenodd">
        <g id="Artboard" fill-rule="nonzero" fill="#444444">
            <path d="M7.2220938,22.9995646 C6.83643819,23.0103989 6.47329678,22.8183931 6.26511274,22.4935747 C6.08199062,22.2543963 5.98856879,21.9585605 6.00111796,21.6575912 C6.01571494,21.3260766 6.16705223,21.0154369 6.41910969,20.7996082 L15.5709286,12.2417775 L6.353111,3.11195821 C5.88378695,2.61916796 5.88378695,1.84478328 6.353111,1.35199303 C6.84590125,0.882668989 7.62028592,0.882668989 8.11307617,1.35199303 L18.2328759,11.3947943 C18.4618224,11.6301217 18.588363,11.9464732 18.5848689,12.2747769 C18.5991343,12.6363979 18.4346102,12.9818985 18.1448776,13.1987586 L8.10207639,22.6585714 C7.8677196,22.8808196 7.55605606,23.003118 7.23309358,22.9995646 L7.23309358,22.9995646 L7.2220938,22.9995646 Z" id="Shape"></path>
        </g>
    </g>
</svg>
