<?xml version="1.0" encoding="UTF-8" standalone="no"?>
<svg width="24px" height="24px" viewBox="0 0 24 24" version="1.1" xmlns="http://www.w3.org/2000/svg" xmlns:xlink="http://www.w3.org/1999/xlink">
    <!-- Generator: Sketch 47.1 (45422) - http://www.bohemiancoding.com/sketch -->
    <title>Artboard</title>
    <desc>Created with Sketch.</desc>
    <defs></defs>
    <g id="Page-1" stroke="none" stroke-width="1" fill="none" fill-rule="evenodd">
        <g id="Artboard" fill-rule="nonzero" fill="#444444">
            <path d="M9.24516239,1.32626359 L19.1910217,11.2703629 C19.625746,11.7033272 19.625746,12.4055742 19.1910217,12.8376585 L18.8460582,13.186142 L18.8460582,13.187902 L18.4667745,13.5619058 L16.8405182,15.189922 C16.8317181,15.2004821 16.813238,15.2048822 16.8035579,15.2136823 L9.29004284,22.6752768 C8.85707851,23.1082411 8.1548315,23.1082411 7.72098717,22.6752768 L5.36696366,20.3212533 C4.93399934,19.8882889 4.93399934,19.1886819 5.36696366,18.7557176 L12.1245511,12.0456506 L5.32472324,5.24406271 C4.89175892,4.81109839 4.89175892,4.11061139 5.32472324,3.67500704 L7.67698673,1.32450357 C8.11171107,0.891539252 8.81219806,0.891539252 9.24428238,1.32626359 L9.24516239,1.32626359 Z" id="Shape"></path>
        </g>
    </g>
</svg>
