<?xml version="1.0" encoding="UTF-8"?>
<svg width="24px" height="24px" viewBox="0 0 24 24" version="1.1" xmlns="http://www.w3.org/2000/svg" xmlns:xlink="http://www.w3.org/1999/xlink">
    <!-- Generator: Sketch 46.1 (44463) - http://www.bohemiancoding.com/sketch -->
    <title>ic_circle_plus</title>
    <desc>Created with Sketch.</desc>
    <defs></defs>
    <g id="ALL-SVGS" stroke="none" stroke-width="1" fill="none" fill-rule="evenodd">
        <g id="Inline-SVGs-Copy" transform="translate(-578.000000, -326.000000)"></g>
        <g id="ic_circle_plus" fill-rule="nonzero" fill="#333333">
            <path d="M12.01339,21.7272727 C9.41372589,21.7272727 6.98484268,20.7009376 5.17225559,18.8883505 C3.35966849,17.0757634 2.33333333,14.6468802 2.33333333,12.0472161 C2.33333333,9.44755205 3.35966849,7.01866884 5.17225559,5.17225559 C7.01949387,3.32501731 9.44755205,2.33333333 12.0472161,2.33333333 C14.6468802,2.33333333 17.0757634,3.35966849 18.8883505,5.17225559 C20.7009376,6.98484268 21.7272727,9.44755205 21.7272727,12.01339 C21.7272727,14.5792279 20.7009376,17.0419372 18.8883505,18.8883505 C17.0757634,20.7347637 14.613054,21.7272727 12.01339,21.7272727 Z M12.01339,3.83735986 C9.82458997,3.83735986 7.77191965,4.69208914 6.23241691,6.23159188 C4.69291417,7.77109462 3.83818489,9.82293991 3.83818489,12.0125649 C3.83818489,14.2021899 4.69291417,16.2540352 6.23241691,17.793538 C7.77191965,19.3330407 9.82376494,20.18777 12.01339,20.18777 C14.203015,20.18777 16.2548603,19.3330407 17.794363,17.793538 C19.3338657,16.2540352 20.188595,14.2021899 20.188595,12.0125649 C20.188595,9.82293991 19.3338657,7.77109462 17.794363,6.23159188 C16.2548603,4.69208914 14.203015,3.83735986 12.01339,3.83735986 L12.01339,3.83735986 Z M12.5400001,11.3630001 L12.5400001,8.0490001 C12.5400001,7.7070001 12.2420001,7.4000001 11.9100001,7.4000001 C11.5780001,7.4000001 11.2790001,7.7070001 11.2790001,8.0490001 L11.2790001,11.3630001 L8.0300001,11.3630001 C7.6980001,11.3630001 7.4000001,11.6710001 7.4000001,12.0130001 C7.4000001,12.3880001 7.6980001,12.6620001 8.0300001,12.6620001 L11.2790001,12.6620001 L11.2790001,16.0110001 C11.2790001,16.3530001 11.5780001,16.6610001 11.9100001,16.6610001 C12.2420001,16.6610001 12.5400001,16.3530001 12.5400001,16.0110001 L12.5400001,12.6620001 L15.7580001,12.6620001 C16.0900001,12.6620001 16.3880001,12.3550001 16.3880001,12.0130001 C16.3880001,11.6710001 16.0900001,11.3630001 15.7580001,11.3630001 L12.5400001,11.3630001 Z" id="Shape"></path>
        </g>
    </g>
</svg>