<svg xmlns="http://www.w3.org/2000/svg" width="20" height="21" viewBox="0 0 20 21">
    <g fill="#444" fill-rule="nonzero">
        <path d="M9.135 9.808c0-.044.037-.08.081-.08h1.552c.045 0 .081.036.081.08v6.987a.081.081 0 0 1-.081.08H9.216a.081.081 0 0 1-.08-.08V9.808zM11.285 6.345a1.25 1.25 0 1 1-2.498-.001 1.25 1.25 0 0 1 2.498 0z"/>
        <path d="M9.992 20.86a9.94 9.94 0 0 1-7.072-2.93 9.94 9.94 0 0 1-2.93-7.072 9.94 9.94 0 0 1 2.93-7.071A9.93 9.93 0 0 1 9.992.857a9.94 9.94 0 0 1 7.071 2.93 9.93 9.93 0 0 1 2.93 7.071 9.94 9.94 0 0 1-2.93 7.072 9.935 9.935 0 0 1-7.071 2.93zm0-18.39c-4.623 0-8.385 3.761-8.385 8.384s3.762 8.39 8.385 8.39c4.623 0 8.389-3.763 8.389-8.39 0-4.627-3.762-8.385-8.39-8.385z"/>
    </g>
</svg>
