<?xml version="1.0" encoding="utf-8"?>
<!-- Generated by IcoMoon.io -->
<!DOCTYPE svg PUBLIC "-//W3C//DTD SVG 1.1//EN" "http://www.w3.org/Graphics/SVG/1.1/DTD/svg11.dtd">
<svg version="1.1" xmlns="http://www.w3.org/2000/svg" xmlns:xlink="http://www.w3.org/1999/xlink" width="26" height="25" viewBox="0 0 26 25">
<path fill="#444" d="M7.421 10.723c0-3.773 1.885-7.106 4.767-9.125-0.059-0.001-0.116-0.004-0.173-0.004-6.192 0-11.213 4.995-11.213 11.156s5.021 11.156 11.213 11.156c2.4 0 4.623-0.754 6.445-2.031-6.112-0.092-11.039-5.048-11.039-11.152zM13.149 7.427l-0.291 1.699 1.534-0.802 1.535 0.802-0.294-1.699 1.243-1.205-1.716-0.248-0.768-1.547-0.768 1.547-1.714 0.248 1.24 1.205zM20.769 13.068l-0.766-1.547-0.768 1.547-1.716 0.248 1.241 1.203-0.293 1.7 1.535-0.803 1.534 0.803-0.293-1.7 1.241-1.203-1.716-0.248zM24.272 4.623l-1.716-0.249-0.767-1.546-0.768 1.546-1.715 0.249 1.241 1.204-0.293 1.7 1.534-0.802 1.534 0.802-0.294-1.699 1.243-1.204z"></path>
</svg>
