<svg xmlns="http://www.w3.org/2000/svg" width="12" height="20" viewBox="0 0 12 20">
    <g fill="#444" fill-rule="nonzero">
        <path d="M9.3 2H7.8V.5h1c.1 0 .2-.1.2-.2S8.9 0 8.8 0H3.2c-.1 0-.2.1-.2.2s.1.2.2.2h1V2H2.7C1.2 2 0 3.2 0 4.7v11.5c0 1.4 1.1 2.6 2.5 2.7 0 .6.4 1 1 1s1-.4 1-1h3c0 .6.4 1 1 1s1-.4 1-1c1.4-.1 2.5-1.3 2.5-2.7V4.7C12 3.2 10.8 2 9.3 2zM4.8.5h2.5V2H4.8V.5zM11 16.3c0 1-.8 1.7-1.7 1.7H2.7c-1 0-1.7-.8-1.7-1.7V4.7C1 3.8 1.8 3 2.7 3h6.5c1 0 1.7.8 1.7 1.7v11.6h.1z"/>
        <path d="M9.2 4.5H2.8c-.5 0-.8.3-.8.8v.5c0 .4.3.8.8.8h6.5c.4 0 .8-.3.8-.8v-.5c-.1-.5-.4-.8-.9-.8zm.3 1.2c0 .1-.1.3-.3.3H2.8c-.2 0-.3-.1-.3-.3v-.4c0-.2.1-.3.3-.3h6.5c.1 0 .3.1.3.3v.4h-.1zM8.8 8H3.2C2.5 8 2 8.5 2 9.2v6.1c0 .7.5 1.2 1.2 1.2h5.6c.7 0 1.2-.5 1.2-1.2V9.2C10 8.5 9.5 8 8.8 8zm.7 7.3c0 .4-.3.7-.7.7H3.2c-.4 0-.7-.3-.7-.7V9.2c0-.4.3-.7.7-.7h5.6c.4 0 .7.3.7.7v6.1z"/>
    </g>
</svg>
