<svg version="1.1" xmlns="http://www.w3.org/2000/svg" xmlns:xlink="http://www.w3.org/1999/xlink" width="25" height="25" viewBox="0 0 25 25"><path fill="#fff" d="M12.687 24.254c-3.151 0-6.095-1.244-8.292-3.441s-3.441-5.141-3.441-8.292 1.244-6.095 3.441-8.333c2.239-2.239 5.182-3.441 8.333-3.441s6.095 1.244 8.292 3.441 3.441 5.182 3.441 8.292-1.244 6.095-3.441 8.333-5.182 3.441-8.333 3.441zM12.687 2.57c-2.653 0-5.141 1.036-7.007 2.902s-2.902 4.353-2.902 7.007 1.036 5.141 2.902 7.007 4.353 2.902 7.007 2.902 5.141-1.036 7.007-2.902 2.902-4.353 2.902-7.007-1.036-5.141-2.902-7.007-4.353-2.902-7.007-2.902z"></path><path fill="#fff" d="M12.728 18.118c-0.415 0-0.788-0.373-0.788-0.788v-9.66c0-0.415 0.373-0.788 0.788-0.788s0.788 0.373 0.788 0.788v9.66c0 0.415-0.373 0.788-0.788 0.788z"></path><path fill="#fff" d="M7.090 12.479c0-0.415 0.373-0.788 0.788-0.788h9.66c0.415 0 0.788 0.373 0.788 0.788s-0.373 0.788-0.788 0.788h-9.66c-0.415 0-0.788-0.332-0.788-0.788z"></path></svg>
