<?xml version="1.0" encoding="UTF-8"?>
<svg width="24px" height="24px" viewBox="0 0 24 24" version="1.1" xmlns="http://www.w3.org/2000/svg" xmlns:xlink="http://www.w3.org/1999/xlink">
    <!-- Generator: Sketch 44.1 (41455) - http://www.bohemiancoding.com/sketch -->
    <title>ic_rotate_device</title>
    <desc>Created with Sketch.</desc>
    <defs></defs>
    <g id="ic_rotate_device" stroke="none" stroke-width="1" fill="none" fill-rule="evenodd">
        <g id="Shape" fill-rule="nonzero" fill="#444444">
            <path d="M15.748954,4.1 C18.4853556,5.39166667 20.4435146,8.03333333 20.7447699,11.1666667 L22,11.1666667 C21.5732218,6.03333333 17.2635983,2 12,2 L11.4476987,2.025 L14.6359833,5.2 L15.748954,4.1 L15.748954,4.1 Z M10.5188285,3.45833333 C10.0251046,2.96666667 9.23012552,2.96666667 8.74476987,3.45833333 L3.42259414,8.75833333 C2.92887029,9.25 2.92887029,10.0416667 3.42259414,10.525 L13.4811715,20.5416667 C13.9748954,21.0333333 14.7698745,21.0333333 15.2552301,20.5416667 L20.5774059,15.2416667 C21.0711297,14.75 21.0711297,13.9583333 20.5774059,13.475 L10.5188285,3.45833333 Z M14.3682008,19.6583333 L4.30962343,9.64166667 L9.63179916,4.34166667 L19.6903766,14.3583333 L14.3682008,19.6583333 L14.3682008,19.6583333 Z M8.25104603,19.9 C5.51464435,18.6166667 3.55648536,15.9666667 3.25523013,12.8333333 L2,12.8333333 C2.42677824,17.9666667 6.73640167,22 12,22 L12.5523013,21.975 L9.36401674,18.8 L8.25104603,19.9 L8.25104603,19.9 Z"></path>
        </g>
    </g>
</svg>