<?xml version="1.0" encoding="utf-8"?>
<!-- Generator: Adobe Illustrator 21.1.0, SVG Export Plug-In . SVG Version: 6.00 Build 0)  -->
<svg version="1.1" id="Layer_1" xmlns="http://www.w3.org/2000/svg" xmlns:xlink="http://www.w3.org/1999/xlink" x="0px" y="0px"
	 viewBox="0 0 20 20" style="enable-background:new 0 0 20 20;" xml:space="preserve">
<style type="text/css">
	.st0{fill:#001833;}
</style>
<path class="st0" d="M20,9h-4.2l3.2-3.2l-1.4-1.4L13,9h-2V7l4.7-4.7l-1.4-1.4L11,4.2V0H9v4.2L5.8,0.9L4.3,2.3L9,7v2H7L2.3,4.3
	L0.9,5.8L4.2,9H0v2h4.2l-3.2,3.2l1.4,1.4L7,11h2v2l-4.7,4.7l1.4,1.4L9,15.8V20h2v-4.2l3.2,3.2l1.4-1.4L11,13v-2h2l4.7,4.7l1.4-1.4
	L15.8,11H20V9z"/>
</svg>
