<?xml version="1.0" encoding="utf-8"?>
<!-- Generator: Adobe Illustrator 21.1.0, SVG Export Plug-In . SVG Version: 6.00 Build 0)  -->
<svg version="1.1" id="Layer_1" xmlns="http://www.w3.org/2000/svg" xmlns:xlink="http://www.w3.org/1999/xlink" x="0px" y="0px"
	 viewBox="0 0 14 20" style="enable-background:new 0 0 14 20;" xml:space="preserve">
<style type="text/css">
	.st0{fill:#001833;}
</style>
<path id="path-1_1_" class="st0" d="M14,11V9c-1.5,0-3.1-0.8-4.1-1.8L8.6,5.7C8.5,5.6,8.3,5.4,8,5.3c0,0,0,0,0,0h0
	C7.7,5.1,7.2,5,6.8,5C5.8,5.1,5,6,5,7.1V13c0,1.1,0.9,2,2,2h5v5h2v-5.5c0-1.1-0.9-2-2-2H9V9.1C10.3,10.1,12.2,11,14,11z M7.8,16h2.1
	c-0.5,2.3-2.5,4-4.9,4c-2.8,0-5-2.2-5-5c0-2.4,1.7-4.4,4-4.9v2.1c-1.2,0.4-2,1.5-2,2.8c0,1.7,1.3,3,3,3C6.3,18,7.4,17.2,7.8,16z
	 M7,4C5.9,4,5,3.1,5,2s0.9-2,2-2s2,0.9,2,2S8.1,4,7,4z"/>
</svg>
