<?xml version="1.0" encoding="utf-8"?>
<!-- Generator: Adobe Illustrator 21.1.0, SVG Export Plug-In . SVG Version: 6.00 Build 0)  -->
<svg version="1.1" id="Layer_1" xmlns="http://www.w3.org/2000/svg" xmlns:xlink="http://www.w3.org/1999/xlink" x="0px" y="0px"
	 viewBox="0 0 20 18" style="enable-background:new 0 0 20 18;" xml:space="preserve">
<style type="text/css">
	.st0{fill:#001833;}
</style>
<path id="path-1_1_" class="st0" d="M8,13v-1H1l0,4c0,1.1,0.9,2,2,2h14c1.1,0,2-0.9,2-2v-4h-7v1H8z M18,4h-4V2l-2-2H8L6,2v2H2
	C0.9,4,0,4.9,0,6v3c0,1.1,0.9,2,2,2h6V9h4v2h6c1.1,0,2-0.9,2-2V6C20,4.9,19.1,4,18,4z M12,4H8V2h4V4z"/>
</svg>
