<?xml version="1.0" encoding="utf-8"?>
<!-- Generator: Adobe Illustrator 21.1.0, SVG Export Plug-In . SVG Version: 6.00 Build 0)  -->
<svg version="1.1" id="Layer_1" xmlns="http://www.w3.org/2000/svg" xmlns:xlink="http://www.w3.org/1999/xlink" x="0px" y="0px"
	 viewBox="0 0 20 19" style="enable-background:new 0 0 20 19;" xml:space="preserve">
<style type="text/css">
	.st0{fill:#001833;}
</style>
<path id="path-1_1_" class="st0" d="M3.3,3.6C2.5,3,2.2,1.8,2.9,0.9c0.6-0.9,1.9-1.1,2.8-0.5C6.6,1,6.8,2.2,6.1,3.2
	C5.5,4.1,4.3,4.3,3.3,3.6L3.3,3.6z M14,17H6.9c-1.5,0-2.7-1.1-3-2.5L2,5H0l2,9.8C2.4,17.2,4.5,19,6.9,19H14V17z M14.2,13H9.4l-1-4.1
	c1.6,0.9,3.3,1.5,5.2,1.2V8C11.8,8.3,10,7.7,8.8,6.7L7.1,5.5C6.9,5.3,6.7,5.2,6.4,5.1C6.1,5,5.7,5,5.4,5h0c-1.2,0.2-2,1.4-1.8,2.6
	l1.4,5.9C5.2,15,6.4,16,7.8,16h6.9l3.8,3l1.5-1.5L14.2,13z"/>
</svg>
