<?xml version="1.0" encoding="utf-8"?>
<!-- Generator: Adobe Illustrator 21.1.0, SVG Export Plug-In . SVG Version: 6.00 Build 0)  -->
<svg version="1.1" id="Layer_1" xmlns="http://www.w3.org/2000/svg" xmlns:xlink="http://www.w3.org/1999/xlink" x="0px" y="0px"
	 viewBox="0 0 20 14" style="enable-background:new 0 0 20 14;" xml:space="preserve">
<style type="text/css">
	.st0{fill:#001833;}
</style>
<path id="path-1_1_" class="st0" d="M16.1,5C15.6,2.2,13,0,10,0C7.6,0,5.5,1.4,4.5,3.4C2,3.6,0,5.8,0,8.3c0,2.8,2.2,5,5,5h10.8
	c2.3,0,4.2-1.9,4.2-4.2C20,7,18.3,5.2,16.1,5z M15.8,11.7H5c-1.8,0-3.3-1.5-3.3-3.3S3.2,5,5,5h0.6C6.1,3.1,7.9,1.7,10,1.7
	c2.5,0,4.6,2.1,4.6,4.6v0.4h1.2c1.4,0,2.5,1.1,2.5,2.5S17.2,11.7,15.8,11.7z"/>
</svg>
