<?xml version="1.0" encoding="utf-8"?>
<!-- Generator: Adobe Illustrator 21.1.0, SVG Export Plug-In . SVG Version: 6.00 Build 0)  -->
<svg version="1.1" id="Layer_1" xmlns="http://www.w3.org/2000/svg" xmlns:xlink="http://www.w3.org/1999/xlink" x="0px" y="0px"
	 viewBox="0 0 20 22" style="enable-background:new 0 0 20 22;" xml:space="preserve">
<style type="text/css">
	.st0{fill:#001833;}
</style>
<path id="path-1_1_" class="st0" d="M18,20c-1.4,0-2.8-0.5-4-1.3c-2.4,1.7-5.6,1.7-8,0C4.8,19.5,3.4,20,2,20H0v2h2
	c1.4,0,2.7-0.4,4-1c2.5,1.3,5.5,1.3,8,0c1.3,0.6,2.6,1,4,1h2v-2H18z M2,18L2,18C3.6,18,5,17.1,6,16c1,1.1,2.4,2,4,2s3-0.9,4-2
	c1,1.1,2.4,2,4,2h0l1.9-6.7c0.1-0.3,0.1-0.5-0.1-0.8c-0.1-0.2-0.3-0.4-0.6-0.5L18,9.6V5c0-1.1-0.9-2-2-2h-3V0H7v3H4C2.9,3,2,3.9,2,5
	v4.6L0.7,10c-0.3,0.1-0.5,0.3-0.6,0.5S0,11.1,0,11.3L2,18z M4,5h12v4l-6-2L4,9V5z"/>
</svg>
