<?xml version="1.0" encoding="utf-8"?>
<!-- Generator: Adobe Illustrator 21.1.0, SVG Export Plug-In . SVG Version: 6.00 Build 0)  -->
<svg version="1.1" id="Layer_1" xmlns="http://www.w3.org/2000/svg" xmlns:xlink="http://www.w3.org/1999/xlink" x="0px" y="0px"
	 viewBox="0 0 24 24" style="enable-background:new 0 0 24 24;" xml:space="preserve">
<style type="text/css">
	.st0{fill:#001833;}
</style>
<path id="path-1_1_" class="st0" d="M20,21c-1.4,0-2.8-0.5-4-1.3c-2.4,1.7-5.6,1.7-8,0C6.8,20.5,5.4,21,4,21H2v2h2
	c1.4,0,2.7-0.4,4-1c2.5,1.3,5.5,1.3,8,0c1.3,0.6,2.6,1,4,1h2v-2H20z M4,19L4,19c1.6,0,3-0.9,4-2c1,1.1,2.4,2,4,2s3-0.9,4-2
	c1,1.1,2.4,2,4,2l0,0l1.9-6.7c0.1-0.3,0.1-0.5-0.1-0.8c-0.1-0.2-0.3-0.4-0.6-0.5L20,10.6V6c0-1.1-0.9-2-2-2h-3V1H9v3H6
	C4.9,4,4,4.9,4,6v4.6L2.7,11c-0.3,0.1-0.5,0.3-0.6,0.5C2,11.7,2,12.1,2,12.3L4,19z M6,6h12v4l-6-2l-6,2V6z"/>
</svg>
