<?xml version="1.0" encoding="utf-8"?>
<!-- Generator: Adobe Illustrator 21.1.0, SVG Export Plug-In . SVG Version: 6.00 Build 0)  -->
<svg version="1.1" id="Layer_1" xmlns="http://www.w3.org/2000/svg" xmlns:xlink="http://www.w3.org/1999/xlink" x="0px" y="0px"
	 viewBox="0 0 24 24" style="enable-background:new 0 0 24 24;" xml:space="preserve">
<style type="text/css">
	.st0{fill:#001833;}
</style>
<path class="st0" d="M11.8,10.9c-2.3-0.6-3-1.2-3-2.1c0-1.1,1-1.8,2.7-1.8c1.8,0,2.4,0.8,2.5,2.1h2.2c-0.1-1.7-1.1-3.3-3.2-3.8V3h-3
	v2.2C8.1,5.6,6.5,6.8,6.5,8.8c0,2.3,1.9,3.5,4.7,4.1c2.5,0.6,3,1.5,3,2.4c0,0.7-0.5,1.8-2.7,1.8c-2.1,0-2.9-0.9-3-2.1H6.3
	c0.1,2.2,1.8,3.4,3.7,3.8V21h3v-2.1c1.9-0.4,3.5-1.5,3.5-3.6C16.5,12.5,14.1,11.5,11.8,10.9z"/>
</svg>
