<?xml version="1.0" encoding="utf-8"?>
<!-- Generator: Adobe Illustrator 21.1.0, SVG Export Plug-In . SVG Version: 6.00 Build 0)  -->
<svg version="1.1" id="Layer_1" xmlns="http://www.w3.org/2000/svg" xmlns:xlink="http://www.w3.org/1999/xlink" x="0px" y="0px"
	 viewBox="0 0 16 20" style="enable-background:new 0 0 16 20;" xml:space="preserve">
<style type="text/css">
	.st0{fill:#001833;}
</style>
<path id="path-1_1_" class="st0" d="M3.6,3.4c-0.8-0.8-0.8-2,0-2.8s2-0.8,2.8,0s0.8,2.1,0,2.8C5.6,4.2,4.4,4.2,3.6,3.4z M2,14V5H0v9
	c0,2.8,2.2,5,5,5h6v-2H5C3.3,17,2,15.7,2,14z M16,18.1L10.9,13H7.5V9.3c1.4,1.2,3.6,2.2,5.5,2.2V9.3c-1.7,0-3.6-0.9-4.7-2L6.9,5.7
	C6.7,5.5,6.5,5.3,6.2,5.2C5.9,5.1,5.6,5,5.3,5h0C4,5,3,6,3,7.2V13c0,1.7,1.3,3,3,3h5.1l3.5,3.5L16,18.1z"/>
</svg>
