<?xml version="1.0" encoding="utf-8"?>
<!-- Generator: Adobe Illustrator 21.1.0, SVG Export Plug-In . SVG Version: 6.00 Build 0)  -->
<svg version="1.1" id="Layer_1" xmlns="http://www.w3.org/2000/svg" xmlns:xlink="http://www.w3.org/1999/xlink" x="0px" y="0px"
	 viewBox="0 0 20 20" style="enable-background:new 0 0 20 20;" xml:space="preserve">
<style type="text/css">
	.st0{fill:#001833;}
</style>
<path class="st0" d="M18.6,12.9l1.4-1.4L18.6,10L15,13.6L6.4,5L10,1.4L8.6,0L7.1,1.4L5.7,0L3.6,2.1L2.1,0.7L0.7,2.1l1.4,1.4L0,5.7
	l1.4,1.4L0,8.6L1.4,10L5,6.4l8.6,8.6L10,18.6l1.4,1.4l1.4-1.4l1.4,1.4l2.1-2.1l1.4,1.4l1.4-1.4l-1.4-1.4l2.1-2.1L18.6,12.9z"/>
</svg>
