<?xml version="1.0" encoding="utf-8"?>
<!-- Generator: Adobe Illustrator 21.1.0, SVG Export Plug-In . SVG Version: 6.00 Build 0)  -->
<svg version="1.1" id="Layer_1" xmlns="http://www.w3.org/2000/svg" xmlns:xlink="http://www.w3.org/1999/xlink" x="0px" y="0px"
	 viewBox="0 0 17 18" style="enable-background:new 0 0 17 18;" xml:space="preserve">
<style type="text/css">
	.st0{fill:#001833;}
</style>
<path id="path-1_1_" class="st0" d="M15.8,4.2L15.8,4.2l-3.7-3.7L11,1.6l2.1,2.1C12.2,4,11.5,4.9,11.5,6c0,1.4,1.1,2.5,2.5,2.5
	c0.4,0,0.7-0.1,1-0.2v7.2c0,0.5-0.4,1-1,1s-1-0.5-1-1V11c0-1.1-0.9-2-2-2h-1V2c0-1.1-0.9-2-2-2H2C0.9,0,0,0.9,0,2v16h10v-7.5h1.5v5
	c0,1.4,1.1,2.5,2.5,2.5s2.5-1.1,2.5-2.5V6C16.5,5.3,16.2,4.7,15.8,4.2z M8,7H2V2h6V7z M14,7c-0.6,0-1-0.4-1-1s0.4-1,1-1s1,0.4,1,1
	S14.6,7,14,7z"/>
</svg>
