<?xml version="1.0" encoding="utf-8"?>
<!-- Generator: Adobe Illustrator 21.1.0, SVG Export Plug-In . SVG Version: 6.00 Build 0)  -->
<svg version="1.1" id="Layer_1" xmlns="http://www.w3.org/2000/svg" xmlns:xlink="http://www.w3.org/1999/xlink" x="0px" y="0px"
	 viewBox="0 0 24 24" style="enable-background:new 0 0 24 24;" xml:space="preserve">
<style type="text/css">
	.st0{fill:#001833;}
</style>
<path id="path-1_1_" class="st0" d="M19.3,7.2L19.3,7.2l-3.7-3.7l-1.1,1.1l2.1,2.1C15.7,7,15,7.9,15,9c0,1.4,1.1,2.5,2.5,2.5
	c0.4,0,0.7-0.1,1-0.2v7.2c0,0.5-0.4,1-1,1s-1-0.5-1-1V14c0-1.1-0.9-2-2-2h-1V5c0-1.1-0.9-2-2-2h-6c-1.1,0-2,0.9-2,2v16h10v-7.5H15v5
	c0,1.4,1.1,2.5,2.5,2.5s2.5-1.1,2.5-2.5V9C20,8.3,19.7,7.7,19.3,7.2z M11.5,10h-6V5h6V10z M17.5,10c-0.6,0-1-0.4-1-1s0.4-1,1-1
	s1,0.4,1,1S18.1,10,17.5,10z"/>
</svg>
