<?xml version="1.0" encoding="utf-8"?>
<!-- Generator: Adobe Illustrator 21.1.0, SVG Export Plug-In . SVG Version: 6.00 Build 0)  -->
<svg version="1.1" id="Layer_1" xmlns="http://www.w3.org/2000/svg" xmlns:xlink="http://www.w3.org/1999/xlink" x="0px" y="0px"
	 viewBox="0 0 20 14" style="enable-background:new 0 0 20 14;" xml:space="preserve">
<style type="text/css">
	.st0{fill:#001833;}
</style>
<path id="path-1_1_" class="st0" d="M14.5,7C15.9,7,17,5.9,17,4.5S15.9,2,14.5,2S12,3.1,12,4.5S13.1,7,14.5,7z M7,6c1.7,0,3-1.3,3-3
	S8.7,0,7,0S4,1.3,4,3S5.3,6,7,6z M14.5,9C12.7,9,9,9.9,9,11.8V14h11v-2.2C20,9.9,16.3,9,14.5,9z M7,8c-2.3,0-7,1.2-7,3.5V14h7v-2.2
	c0-0.9,0.3-2.3,2.4-3.5C8.5,8.1,7.7,8,7,8z"/>
</svg>
