<?xml version="1.0" encoding="utf-8"?>
<!-- Generator: Adobe Illustrator 21.1.0, SVG Export Plug-In . SVG Version: 6.00 Build 0)  -->
<svg version="1.1" id="Layer_1" xmlns="http://www.w3.org/2000/svg" xmlns:xlink="http://www.w3.org/1999/xlink" x="0px" y="0px"
	 viewBox="0 0 20 18" style="enable-background:new 0 0 20 18;" xml:space="preserve">
<style type="text/css">
	.st0{fill:#001833;}
</style>
<path id="path-1_1_" class="st0" d="M10,4V0H0v18h20V4H10z M4,16H2v-2h2V16z M4,12H2v-2h2V12z M4,8H2V6h2V8z M4,4H2V2h2V4z M8,16H6
	v-2h2V16z M8,12H6v-2h2V12z M8,8H6V6h2V8z M8,4H6V2h2V4z M18,16h-8v-2h2v-2h-2v-2h2V8h-2V6h8V16z M16,8h-2v2h2V8z M16,12h-2v2h2V12z
	"/>
</svg>
