<?xml version="1.0" encoding="UTF-8"?>
<svg version="1.1" id="Layer_1" xmlns="http://www.w3.org/2000/svg" xmlns:xlink="http://www.w3.org/1999/xlink" x="0px" y="0px"
	 viewBox="0 0 48 48" style="enable-background:new 0 0 48 48;" xml:space="preserve">
<style type="text/css">
	.st0{fill:#001833;}
</style>
<path class="st0" d="M17.6924939,21.4248826 C17.8159806,21.3051643 17.9806295,21.185446 18.1041162,21.0657277 C19.9564165,19.1103286 21.8087167,17.1948357 23.6610169,15.2394366 C23.7845036,15.1197183 24.031477,15 24.1961259,15 C26.0072639,15 27.8595642,15 29.6707022,15 C29.7118644,15 29.7530266,15 29.9176755,15.0399061 C29.3414044,15.6384977 28.7651332,16.157277 28.2300242,16.7159624 C26.5423729,18.3920188 24.8547215,20.1079812 23.1670702,21.8239437 C23.0847458,21.9037559 23.0435835,22.2230047 23.125908,22.342723 C25.2251816,25.0962441 27.3244552,27.8098592 29.4237288,30.5234742 C29.5883777,30.7230047 29.7530266,30.9624413 30,31.2816901 C29.7530266,31.2816901 29.5883777,31.2816901 29.464891,31.2816901 C27.8595642,31.2816901 26.2542373,31.2816901 24.6900726,31.2816901 C24.2784504,31.2816901 23.9903148,31.1619718 23.7433414,30.842723 C22.5084746,29.1267606 21.2324455,27.4507042 19.9975787,25.7746479 C19.5859564,25.2159624 19.5859564,25.2159624 19.0920097,25.7347418 C17.1162228,27.7699531 15.1404358,29.8051643 13.1646489,31.8802817 C13.1234867,31.9201878 13.0823245,31.9600939 13,32 C13,26.3333333 13,20.7464789 13,15.0798122 C14.4818402,15.0798122 16.0048426,15.0798122 17.5690073,15.0798122 C17.5690073,17.1948357 17.5690073,19.3098592 17.5690073,21.4248826 C17.5690073,21.3849765 17.6513317,21.3849765 17.6924939,21.4248826 Z"></path>
</svg>