<?xml version="1.0" encoding="utf-8"?>
<!-- Generator: Adobe Illustrator 22.1.0, SVG Export Plug-In . SVG Version: 6.00 Build 0)  -->
<svg version="1.1" id="Layer_1" xmlns="http://www.w3.org/2000/svg" xmlns:xlink="http://www.w3.org/1999/xlink" x="0px" y="0px"
	 viewBox="0 0 260.3 44.5" style="enable-background:new 0 0 260.3 44.5;" xml:space="preserve">
<style type="text/css">
	.st0{fill:#001833;}
</style>
<g>
	<path class="st0" d="M58.5,19c0,7.8,0,15.6,0,23.5c-3.6,0-7.1,0-10.6,0c0-13.5,0-27,0-40.6c0.3,0,0.6-0.1,0.9-0.1
		c2.8,0,5.7,0,8.5,0c0.5,0,1.2,0.3,1.5,0.7c5.4,6.9,10.9,13.9,16.3,20.8c0.4,0.6,1,1.1,1.4,1.6c0.1,0,0.2-0.1,0.3-0.1
		c0-7.6,0-15.2,0-22.9c3.5,0,7,0,10.5,0c0,13.5,0,27,0,40.7c-3.1,0-6.1,0-9.2,0c-0.3,0-0.6-0.3-0.8-0.6
		c-5.8-7.3-11.6-14.6-17.5-21.9c-0.3-0.4-0.7-0.8-1.1-1.2C58.6,18.9,58.5,19,58.5,19z"/>
	<path class="st0" d="M118.2,44.3c-12,0.3-21.9-9.9-22.2-21.4C95.7,10.3,105.7,0,118.2,0c12.7,0.1,22.1,10.1,22.2,22.3
		C140.4,34.5,130.1,44.5,118.2,44.3z M129.9,22.2c0.1-6.9-5.8-12.2-12.7-11.8c-5.9,0.3-11.1,5.9-10.9,12.1
		c0.3,6.7,5.8,11.9,12.6,11.4C125.4,33.6,130,28.2,129.9,22.2z"/>
	<path class="st0" d="M11.4,18c0.3-0.3,0.7-0.6,1-0.9c4.5-4.9,9-9.7,13.5-14.6c0.3-0.3,0.9-0.6,1.3-0.6c4.4,0,8.9,0,13.3,0
		c0.1,0,0.2,0,0.6,0.1c-1.4,1.5-2.8,2.8-4.1,4.2c-4.1,4.2-8.2,8.5-12.3,12.8c-0.2,0.2-0.3,1-0.1,1.3c5.1,6.9,10.2,13.7,15.3,20.5
		c0.4,0.5,0.8,1.1,1.4,1.9c-0.6,0-1,0-1.3,0c-3.9,0-7.8,0-11.6,0c-1,0-1.7-0.3-2.3-1.1c-3-4.3-6.1-8.5-9.1-12.7
		c-1-1.4-1-1.4-2.2-0.1C10,33.9,5.2,39,0.4,44.2c-0.1,0.1-0.2,0.2-0.4,0.3C0,30.3,0,16.3,0,2.1c3.6,0,7.3,0,11.1,0
		c0,5.3,0,10.6,0,15.9C11.1,17.9,11.3,17.9,11.4,18z"/>
	<path class="st0" d="M214,17.7c0,3,0,5.9,0,8.9c-4.9,0-9.7,0-14.6,0c0,2.1,0,3.9,0,5.8c0,1,0.7,0.8,1.3,0.8c5.4,0,10.8,0,16.2,0
		c0.9,0,1.8,0,2.8,0c0,3.1,0,6.2,0,9.3c-0.4,0-0.8,0.1-1.2,0.1c-9.6,0-19.2,0-28.8,0c-1.1,0-1.4-0.3-1.4-1.4c0-12.6,0-25.2,0-37.8
		c0-0.5,0.1-1,0.1-1.6c10.4,0,20.8,0,31.2,0c0,3.1,0,6.1,0,9.3c-0.4,0-0.8,0-1.2,0c-5.9,0-11.8,0-17.6,0c-1.3,0-1.6,0.4-1.5,1.6
		c0.1,1.3,0.1,2.6,0,3.8c-0.1,0.9,0.3,1.2,1.2,1.1c4.2,0,8.4,0,12.6,0C213.5,17.7,213.7,17.7,214,17.7z"/>
	<path class="st0" d="M157,11.9c-4.1,0-8,0-12,0c0-3.4,0-6.6,0-10c11.8,0,23.7,0,35.6,0c0,3.3,0,6.6,0,10c-3.9,0-7.9,0-12,0
		c0,10.3,0,20.4,0,30.7c-4,0-7.8,0-11.7,0C157,32.3,157,22.2,157,11.9z"/>
	<path class="st0" d="M242,42.6c-4.3,0-8.5,0-12.7,0c0-13.6,0-27.1,0-40.7c4.2,0,8.4,0,12.7,0C242,15.4,242,28.9,242,42.6z"/>
	<path class="st0" d="M260.3,42.6c-5.8,0-11.6,0-17.1,0c5.6-5.7,11.3-11.5,17.1-17.5C260.3,30.9,260.3,36.7,260.3,42.6z"/>
</g>
</svg>
