<?xml version="1.0" encoding="utf-8"?>
<!-- Generator: Adobe Illustrator 21.1.0, SVG Export Plug-In . SVG Version: 6.00 Build 0)  -->
<svg version="1.1" id="Layer_1" xmlns="http://www.w3.org/2000/svg" xmlns:xlink="http://www.w3.org/1999/xlink" x="0px" y="0px"
	 viewBox="0 0 16 21" style="enable-background:new 0 0 16 21;" xml:space="preserve">
<style type="text/css">
	.st0{fill:#001833;}
</style>
<path id="path-1_1_" class="st0" d="M14,7h-1V5c0-2.8-2.2-5-5-5S3,2.2,3,5v2H2C0.9,7,0,7.9,0,9v10c0,1.1,0.9,2,2,2h12
	c1.1,0,2-0.9,2-2V9C16,7.9,15.1,7,14,7z M8,16c-1.1,0-2-0.9-2-2s0.9-2,2-2s2,0.9,2,2S9.1,16,8,16z M11.1,7H4.9V5
	c0-1.7,1.4-3.1,3.1-3.1s3.1,1.4,3.1,3.1V7z"/>
</svg>
