<?xml version="1.0" encoding="utf-8"?>
<!-- Generator: Adobe Illustrator 21.1.0, SVG Export Plug-In . SVG Version: 6.00 Build 0)  -->
<svg version="1.1" id="Layer_1" xmlns="http://www.w3.org/2000/svg" xmlns:xlink="http://www.w3.org/1999/xlink" x="0px" y="0px"
	 viewBox="0 0 20 18" style="enable-background:new 0 0 20 18;" xml:space="preserve">
<style type="text/css">
	.st0{fill:#001833;}
</style>
<path id="path-1_1_" class="st0" d="M10,13c-1.7,0-3-1.3-3-3c0-1.1,0.6-2.1,1.5-2.6l9.7-5.6l-5.5,9.6C12.2,12.3,11.2,13,10,13L10,13
	z M10,0c1.8,0,3.5,0.5,5,1.3l-2.1,1.2C12,2.2,11,2,10,2c-4.4,0-8,3.6-8,8c0,2.2,0.9,4.2,2.3,5.6h0c0.4,0.4,0.4,1,0,1.4
	c-0.4,0.4-1,0.4-1.4,0l0,0C1.1,15.3,0,12.8,0,10C0,4.5,4.5,0,10,0L10,0z M20,10c0,2.8-1.1,5.3-2.9,7.1l0,0c-0.4,0.4-1,0.4-1.4,0
	c-0.4-0.4-0.4-1,0-1.4l0,0c1.5-1.4,2.3-3.4,2.3-5.6c0-1-0.2-2-0.5-2.9L18.7,5C19.5,6.5,20,8.2,20,10z"/>
</svg>
