<?xml version="1.0" encoding="utf-8"?>
<!-- Generator: Adobe Illustrator 21.1.0, SVG Export Plug-In . SVG Version: 6.00 Build 0)  -->
<svg version="1.1" id="Layer_1" xmlns="http://www.w3.org/2000/svg" xmlns:xlink="http://www.w3.org/1999/xlink" x="0px" y="0px"
	 viewBox="0 0 24 24" style="enable-background:new 0 0 24 24;" xml:space="preserve">
<style type="text/css">
	.st0{fill:#001833;}
</style>
<path id="path-1_1_" class="st0" d="M16.1,9.1l0.6,2L15,9.9l-1.7,1.2l0.6-2l-1.7-1.3h2.1l0.7-2l0.7,2h2.1L16.1,9.1z M20.7,16.6
	c-0.3,0.4-0.7,0.9-1.1,1.3c-3.9,3.9-10.2,3.9-14.1,0c-4-3.9-4-10.3-0.1-14.2c0.4-0.4,0.8-0.8,1.3-1.1C7.5,2.1,8.6,3,8.6,3.8
	c-0.3,2.9,0.7,5.8,2.9,8s5.1,3.2,8,2.9C20.3,14.7,21.2,15.9,20.7,16.6z"/>
</svg>
