<?xml version="1.0" encoding="utf-8"?>
<!-- Generator: Adobe Illustrator 21.1.0, SVG Export Plug-In . SVG Version: 6.00 Build 0)  -->
<svg version="1.1" id="Layer_1" xmlns="http://www.w3.org/2000/svg" xmlns:xlink="http://www.w3.org/1999/xlink" x="0px" y="0px"
	 viewBox="0 0 19 19" style="enable-background:new 0 0 19 19;" xml:space="preserve">
<style type="text/css">
	.st0{fill:#001833;}
</style>
<path id="path-1_1_" class="st0" d="M13.6,6.6l0.6,2l-1.7-1.2l-1.7,1.2l0.6-2L9.7,5.3l2.1,0l0.7-2l0.7,2l2.1,0L13.6,6.6z M18.2,14.1
	c-0.3,0.4-0.7,0.9-1.1,1.3c-3.9,3.9-10.2,3.9-14.1,0C-1,11.5-1,5.1,2.9,1.2c0.4-0.4,0.8-0.8,1.3-1.1C5-0.4,6.1,0.5,6.1,1.3
	c-0.3,2.9,0.7,5.8,2.9,8c2.2,2.2,5.1,3.2,8,2.9C17.8,12.2,18.7,13.4,18.2,14.1z"/>
</svg>
