<?xml version="1.0" encoding="utf-8"?>
<!-- Generator: Adobe Illustrator 21.1.0, SVG Export Plug-In . SVG Version: 6.00 Build 0)  -->
<svg version="1.1" id="Layer_1" xmlns="http://www.w3.org/2000/svg" xmlns:xlink="http://www.w3.org/1999/xlink" x="0px" y="0px"
	 viewBox="0 0 20 19" style="enable-background:new 0 0 20 19;" xml:space="preserve">
<style type="text/css">
	.st0{fill:#001833;}
</style>
<path id="path-1_1_" class="st0" d="M2.5,9C1.1,9,0,7.9,0,6.5S1.1,4,2.5,4S5,5.1,5,6.5S3.9,9,2.5,9z M7,5C5.6,5,4.5,3.9,4.5,2.5
	S5.6,0,7,0s2.5,1.1,2.5,2.5S8.4,5,7,5z M13,5c-1.4,0-2.5-1.1-2.5-2.5S11.6,0,13,0s2.5,1.1,2.5,2.5S14.4,5,13,5z M17.5,9
	C16.1,9,15,7.9,15,6.5S16.1,4,17.5,4S20,5.1,20,6.5S18.9,9,17.5,9z M15.3,11.9L15.3,11.9c1.3,1.3,2.9,2.8,2.6,4.8
	c-0.3,1-1,2-2.3,2.3c-0.7,0.1-3.1-0.4-5.5-0.4H9.9c-2.5,0-4.8,0.6-5.5,0.4c-1.3-0.3-2-1.3-2.3-2.3c-0.3-2,1.3-3.5,2.6-4.8
	c0.9-1,1.6-1.9,2.5-2.9c0.5-0.5,1.1-1.1,1.8-1.3c0.1,0,0.2-0.1,0.3-0.1C9.5,7.5,9.7,7.5,10,7.5s0.5,0,0.8,0c0.1,0,0.2,0.1,0.3,0.1
	c0.7,0.2,1.3,0.8,1.8,1.3C13.7,10,14.5,10.8,15.3,11.9z"/>
</svg>
