<?xml version="1.0" encoding="utf-8"?>
<!-- Generator: Adobe Illustrator 21.1.0, SVG Export Plug-In . SVG Version: 6.00 Build 0)  -->
<svg version="1.1" id="Layer_1" xmlns="http://www.w3.org/2000/svg" xmlns:xlink="http://www.w3.org/1999/xlink" x="0px" y="0px"
	 viewBox="0 0 24 24" style="enable-background:new 0 0 24 24;" xml:space="preserve">
<style type="text/css">
	.st0{fill:#001833;}
</style>
<path id="path-1_1_" class="st0" d="M22,21c-1.1,0-1.7-0.4-2.2-0.6c-0.4-0.2-0.6-0.4-1.1-0.4c-0.6,0-0.8,0.1-1.1,0.4
	c-0.5,0.3-1.1,0.6-2.2,0.6s-1.7-0.4-2.2-0.6C12.8,20.1,12.6,20,12,20s-0.8,0.1-1.2,0.4c-0.4,0.2-1,0.6-2.1,0.6S7,20.6,6.5,20.4
	C6.1,20.1,5.9,20,5.3,20s-0.8,0.1-1.1,0.4C3.7,20.6,3.1,21,2,21v-2c0.6,0,0.8-0.1,1.1-0.4C3.6,18.4,4.2,18,5.3,18s1.7,0.4,2.2,0.6
	C7.9,18.9,8.1,19,8.7,19s0.8-0.1,1.2-0.4c0.4-0.2,1-0.6,2.1-0.6s1.7,0.4,2.2,0.6c0.4,0.2,0.6,0.4,1.2,0.4s0.8-0.1,1.1-0.4
	c0.4-0.3,1.1-0.6,2.2-0.6s1.7,0.4,2.2,0.6c0.4,0.2,0.6,0.4,1.1,0.4C22,19,22,21,22,21z M22,16.5c-1.1,0-1.7-0.4-2.2-0.6
	c-0.4-0.2-0.6-0.4-1.1-0.4c-0.6,0-0.8,0.1-1.1,0.4c-0.5,0.3-1.1,0.6-2.2,0.6s-1.7-0.4-2.2-0.6c-0.4-0.2-0.6-0.4-1.1-0.4
	c-0.6,0-0.8,0.1-1.2,0.4c-0.4,0.3-1.1,0.6-2.2,0.6S7,16.1,6.5,15.9c-0.4-0.2-0.6-0.4-1.2-0.4s-0.8,0.1-1.1,0.4
	c-0.5,0.3-1.1,0.6-2.2,0.6v-2c0.6,0,0.8-0.1,1.1-0.4c0.5-0.3,1.1-0.6,2.2-0.6s1.7,0.4,2.2,0.6c0.4,0.2,0.6,0.4,1.1,0.4
	c0.6,0,0.8-0.1,1.2-0.4c0.5-0.3,1.1-0.6,2.2-0.6s1.7,0.4,2.2,0.6c0.4,0.2,0.6,0.4,1.1,0.4c0.6,0,0.8-0.1,1.2-0.4
	c0.4-0.3,1.1-0.6,2.2-0.6s1.7,0.4,2.2,0.6c0.4,0.2,0.6,0.4,1.1,0.4V16.5L22,16.5z M8.7,12c-0.6,0-0.8-0.1-1.2-0.4
	c-0.2-0.1-0.4-0.2-0.7-0.4L10,8L9,7C7.9,5.9,6.8,5.5,5,5.5V3c2.5,0,3.9,0.4,5.5,2l6.4,6.4c-0.1,0.1-0.3,0.2-0.4,0.2
	c-0.4,0.3-0.6,0.4-1.2,0.4s-0.8-0.1-1.2-0.4c-0.4-0.2-1-0.6-2.1-0.6s-1.7,0.4-2.2,0.6C9.4,11.9,9.2,12,8.7,12z M16.5,8
	C15.1,8,14,6.9,14,5.5S15.1,3,16.5,3S19,4.1,19,5.5S17.9,8,16.5,8z"/>
</svg>
