<?xml version="1.0" encoding="utf-8"?>
<!-- Generator: Adobe Illustrator 21.1.0, SVG Export Plug-In . SVG Version: 6.00 Build 0)  -->
<svg version="1.1" id="Layer_1" xmlns="http://www.w3.org/2000/svg" xmlns:xlink="http://www.w3.org/1999/xlink" x="0px" y="0px"
	 viewBox="0 0 18 18" style="enable-background:new 0 0 18 18;" xml:space="preserve">
<style type="text/css">
	.st0{fill:#001833;}
</style>
<path id="path-1_1_" class="st0" d="M12.5,11h-0.8l-0.3-0.3c1-1.1,1.6-2.6,1.6-4.2C13,2.9,10.1,0,6.5,0S0,2.9,0,6.5S2.9,13,6.5,13
	c1.6,0,3.1-0.6,4.2-1.6l0.3,0.3v0.8l5,5l1.5-1.5L12.5,11z M6.5,11C4,11,2,9,2,6.5S4,2,6.5,2S11,4,11,6.5S9,11,6.5,11z"/>
</svg>
