<?xml version="1.0" encoding="utf-8"?>
<!-- Generator: Adobe Illustrator 21.1.0, SVG Export Plug-In . SVG Version: 6.00 Build 0)  -->
<svg version="1.1" id="Layer_1" xmlns="http://www.w3.org/2000/svg" xmlns:xlink="http://www.w3.org/1999/xlink" x="0px" y="0px"
	 viewBox="0 0 24 24" style="enable-background:new 0 0 24 24;" xml:space="preserve">
<style type="text/css">
	.st0{fill:#001833;}
</style>
<path id="path-1_1_" class="st0" d="M17,5H3C1.9,5,1,5.9,1,7v9h2c0,1.6,1.3,3,3,3s3-1.4,3-3h5.5c0,1.6,1.3,3,3,3s3-1.4,3-3H23v-5
	L17,5z M3,11V7h4v4H3z M6,17.5c-0.8,0-1.5-0.7-1.5-1.5c0-0.8,0.7-1.5,1.5-1.5s1.5,0.7,1.5,1.5C7.5,16.8,6.8,17.5,6,17.5z M13,11H9V7
	h4V11z M17.5,17.5c-0.8,0-1.5-0.7-1.5-1.5c0-0.8,0.7-1.5,1.5-1.5S19,15.2,19,16C19,16.8,18.3,17.5,17.5,17.5z M15,11V7h1l4,4H15z"/>
</svg>
