<?xml version="1.0" encoding="utf-8"?>
<!-- Generator: Adobe Illustrator 21.1.0, SVG Export Plug-In . SVG Version: 6.00 Build 0)  -->
<svg version="1.1" id="Layer_1" xmlns="http://www.w3.org/2000/svg" xmlns:xlink="http://www.w3.org/1999/xlink" x="0px" y="0px"
	 viewBox="0 0 22 14" style="enable-background:new 0 0 22 14;" xml:space="preserve">
<style type="text/css">
	.st0{fill:#001833;}
</style>
<path id="path-1_1_" class="st0" d="M16,0H2C0.9,0,0,0.9,0,2v9h2c0,1.6,1.3,3,3,3s3-1.4,3-3h5.5c0,1.6,1.3,3,3,3s3-1.4,3-3H22V6
	L16,0z M2,6V2h4v4H2z M5,12.5c-0.8,0-1.5-0.7-1.5-1.5S4.2,9.5,5,9.5s1.5,0.7,1.5,1.5S5.8,12.5,5,12.5z M12,6H8V2h4V6z M16.5,12.5
	c-0.8,0-1.5-0.7-1.5-1.5s0.7-1.5,1.5-1.5S18,10.2,18,11S17.3,12.5,16.5,12.5z M14,6V2h1l4,4H14z"/>
</svg>
