<?xml version="1.0" encoding="utf-8"?>
<!-- Generator: Adobe Illustrator 21.1.0, SVG Export Plug-In . SVG Version: 6.00 Build 0)  -->
<svg version="1.1" id="Layer_1" xmlns="http://www.w3.org/2000/svg" xmlns:xlink="http://www.w3.org/1999/xlink" x="0px" y="0px"
	 viewBox="0 0 20 21" style="enable-background:new 0 0 20 21;" xml:space="preserve">
<style type="text/css">
	.st0{fill:#001833;}
</style>
<path id="path-1_1_" class="st0" d="M0,4l7,7H0v3h10l7,7l1.3-1.2l-17-17L0,4z M18.5,11H20v3h-1.5V11z M16,11h1.5v3H16V11z M16.9,2.9
	c0.6-0.6,1-1.5,1-2.4h-1.5c0,1-0.8,1.8-1.9,1.8v1.5c2.2,0,4,1.8,4,4.1V10H20V7.9C20,5.7,18.7,3.8,16.9,2.9z M12.5,6.7H14
	c1.1,0,2,0.7,2,2.1V10h1.5V8.4c0-1.8-1.6-3.2-3.5-3.2h-1.5c-1,0-1.9-1-1.9-2s0.8-1.8,1.9-1.8V0c-1.9,0-3.4,1.5-3.4,3.3
	S10.6,6.7,12.5,6.7z M15,13.9V11h-2.9L15,13.9z"/>
</svg>
