<?xml version="1.0" encoding="utf-8"?>
<!-- Generator: Adobe Illustrator 21.1.0, SVG Export Plug-In . SVG Version: 6.00 Build 0)  -->
<svg version="1.1" id="Layer_1" xmlns="http://www.w3.org/2000/svg" xmlns:xlink="http://www.w3.org/1999/xlink" x="0px" y="0px"
	 viewBox="0 0 20 20" style="enable-background:new 0 0 20 20;" xml:space="preserve">
<style type="text/css">
	.st0{fill:#001833;}
</style>
<path id="path-1_1_" class="st0" d="M13.5,7.6c-0.2-2.8-1.3-5.5-3.4-7.6C7.9,2.1,6.7,4.9,6.5,7.6C7.8,8.3,9,9.2,10,10.3
	C11,9.2,12.2,8.3,13.5,7.6L13.5,7.6z M7,10.3c-0.1-0.1-0.3-0.2-0.4-0.3C6.7,10.1,6.8,10.2,7,10.3z M13.4,10
	c-0.1,0.1-0.3,0.2-0.4,0.3C13.1,10.2,13.3,10.1,13.4,10z M10,13.4C7.8,10.2,4.2,8,0,8c0,5.3,3.4,9.8,8,11.5c0.6,0.2,1.3,0.4,2,0.5
	c0.7-0.1,1.3-0.3,2-0.5c4.7-1.7,8-6.2,8-11.5C15.8,8,12.1,10.2,10,13.4z M6.6,10C5.5,9.3,4.3,8.7,3,8.4C4.3,8.7,5.5,9.3,6.6,10z
	 M17,8.4c-1.3,0.3-2.5,0.9-3.6,1.6C14.5,9.3,15.7,8.7,17,8.4z"/>
</svg>
