<?xml version="1.0" encoding="utf-8"?>
<!-- Generator: Adobe Illustrator 21.1.0, SVG Export Plug-In . SVG Version: 6.00 Build 0)  -->
<svg version="1.1" id="Layer_1" xmlns="http://www.w3.org/2000/svg" xmlns:xlink="http://www.w3.org/1999/xlink" x="0px" y="0px"
	 viewBox="0 0 24 24" style="enable-background:new 0 0 24 24;" xml:space="preserve">
<style type="text/css">
	.st0{fill:#001833;}
</style>
<path class="st0" d="M15,3H6C5.2,3,4.5,3.5,4.2,4.2l-3,7.1C1,11.5,1,11.7,1,12v1.9l0,0L1,14c0,1.1,0.9,2,2,2h6.3l-0.9,4.6l0,0.3
	c0,0.4,0.2,0.8,0.4,1.1L9.8,23l6.6-6.6C16.8,16,17,15.6,17,15V5C17,3.9,16.1,3,15,3z M19,3v12h4V3H19z"/>
</svg>
