<?xml version="1.0" encoding="utf-8"?>
<!-- Generator: Adobe Illustrator 21.1.0, SVG Export Plug-In . SVG Version: 6.00 Build 0)  -->
<svg version="1.1" id="Layer_1" xmlns="http://www.w3.org/2000/svg" xmlns:xlink="http://www.w3.org/1999/xlink" x="0px" y="0px"
	 viewBox="0 0 24 24" style="enable-background:new 0 0 24 24;" xml:space="preserve">
<style type="text/css">
	.st0{fill:#001833;}
</style>
<path id="path-1_1_" class="st0" d="M1,22h4V10H1V22z M23,11c0-1.1-0.9-2-2-2h-6.3l1-4.6V4.1c0-0.4-0.2-0.8-0.4-1.1l-1.1-1L7.6,8.6
	C7.2,8.9,7,9.4,7,10v10c0,1.1,0.9,2,2,2h9c0.8,0,1.5-0.5,1.8-1.2l3-7.1C23,13.5,23,13.3,23,13V11L23,11L23,11z"/>
</svg>
