<?xml version="1.0" encoding="utf-8"?>
<!-- Generator: Adobe Illustrator 21.1.0, SVG Export Plug-In . SVG Version: 6.00 Build 0)  -->
<svg version="1.1" id="Layer_1" xmlns="http://www.w3.org/2000/svg" xmlns:xlink="http://www.w3.org/1999/xlink" x="0px" y="0px"
	 viewBox="0 0 16 21" style="enable-background:new 0 0 16 21;" xml:space="preserve">
<style type="text/css">
	.st0{fill:#001833;}
</style>
<path id="path-1_1_" class="st0" d="M14,7c1.1,0,2,0.9,2,2v10c0,1.1-0.9,2-2,2H2c-1.1,0-2-0.9-2-2V9c0-1.1,0.9-2,2-2h9.1V5
	c0-1.7-1.4-3.1-3.1-3.1S4.9,3.3,4.9,5H3c0-2.8,2.2-5,5-5s5,2.2,5,5v2H14z M8,16c1.1,0,2-0.9,2-2s-0.9-2-2-2s-2,0.9-2,2S6.9,16,8,16z
	"/>
</svg>
