<?xml version="1.0" encoding="utf-8"?>
<!-- Generator: Adobe Illustrator 21.1.0, SVG Export Plug-In . SVG Version: 6.00 Build 0)  -->
<svg version="1.1" id="Layer_1" xmlns="http://www.w3.org/2000/svg" xmlns:xlink="http://www.w3.org/1999/xlink" x="0px" y="0px"
	 viewBox="0 0 20 20" style="enable-background:new 0 0 20 20;" xml:space="preserve">
<style type="text/css">
	.st0{fill:#444444;}
</style>
<path class="st0" d="M12.1,10.2h2.5V12h-0.7L12.1,10.2z M3.5,12h6.9l-1.8-1.8H3.5V12z M15.5,9.9V9.1c0-0.9-0.6-1.4-1.6-1.4h-1.6
	c-0.4,0-0.6-0.2-0.6-0.4c-0.2-0.3-0.2-0.7,0-1c0.1-0.1,0.1-0.2,0-0.3s-0.2-0.1-0.3-0.1c-0.5,0-0.8-0.1-1.1-0.4C10,5.3,9.9,5,9.9,4.6
	c0-0.4,0.2-1.2,1.2-1.2V2.8c-1.2,0-1.8,0.9-1.8,1.8c0,0.5,0.2,0.9,0.6,1.3c0.2,0.2,0.6,0.4,1.1,0.5c-0.1,0.4,0,0.8,0.2,1.1
	c0.2,0.4,0.7,0.7,1.2,0.7h1.6c0.5,0,1,0.1,1,0.9v0.8H15.5z M13.1,5.4c0,0.3-0.1,0.7-0.3,1c-0.1,0.1-0.1,0.2,0,0.3
	c0,0.1,0.2,0.2,0.3,0.2h0.9c1.2,0,1.9,1,1.9,2v1.1h0.6V8.8c0-1.3-0.9-2.6-2.5-2.6h-0.4c0.1-0.3,0.2-0.6,0.2-0.9
	c0-1.1-0.9-1.9-2.1-1.9V4C12.5,4,13.1,4.6,13.1,5.4z M19.9,9.9c0,5.4-4.4,9.9-9.9,9.9s-9.9-4.4-9.9-9.9c0-5.4,4.4-9.9,9.9-9.9
	S19.9,4.5,19.9,9.9z M14.6,16.1L3.9,5.3c-1,1.3-1.6,2.9-1.6,4.6c0,4.2,3.5,7.7,7.7,7.7C11.7,17.6,13.3,17,14.6,16.1z M17.7,9.9
	c0-4.2-3.5-7.7-7.7-7.7c-1.7,0-3.2,0.6-4.5,1.5l10.7,10.7C17.1,13.2,17.7,11.6,17.7,9.9z M15.9,10.2L15.9,10.2h-1V12h0.9h0.1h0.9
	v-1.8H15.9z"/>
</svg>
