<svg xmlns="http://www.w3.org/2000/svg" width="20" height="20" viewBox="0 0 20 20">
    <g fill="#444" fill-rule="nonzero">
        <path d="M14.642 7.737H.962v9.051c0 1.66 1.369 3.018 3.04 3.018h7.6c1.672 0 3.04-1.357 3.04-3.018 2.519 0 4.56-2.026 4.56-4.525 0-2.498-2.04-4.526-4.56-4.526zm0 6.789V10a2.274 2.274 0 0 1 2.28 2.263 2.273 2.273 0 0 1-2.28 2.263zM8.562 6.605c-.875 0-1.9-.295-1.9-1.13 0-.687.973-.88 2.205-1.125.44-.087 1.116-.22 1.444-.36-.445-.159-1.466-.304-2.182-.405-2.018-.286-2.987-.454-2.987-1.128 0-1.335 5.327-1.886 5.7-1.886.21 0 .38.168.38.377 0 .207-.17.377-.38.377-1.12 0-4.145.618-4.837 1.09.418.164 1.488.316 2.23.422 2.018.287 2.987.452 2.987 1.129 0 .685-.973.88-2.205 1.123-.518.104-1.364.272-1.584.433.088.199.708.329 1.129.329a.377.377 0 1 1 0 .754z"/>
    </g>
</svg>
