<svg xmlns="http://www.w3.org/2000/svg" width="20" height="16" viewBox="0 0 20 16">
    <g fill="none" fill-rule="evenodd">
        <path fill="#444" fill-rule="nonzero" d="M19.59 10.275c0-.718-.598-1.3-1.334-1.3h-7.332c-.738 0-1.334.582-1.334 1.3M9.59 14.175c0 .718.596 1.3 1.334 1.3h7.332c.737 0 1.334-.582 1.334-1.3M8.183 3.775L6.99 14.825h-4.8L.997 3.775h7.186zm.74-.65H.256l1.334 12.35h6l1.333-12.35zM19.59 12.875c0 .36-.3.65-.667.65h-8.667a.658.658 0 0 1-.666-.65v-1.3c0-.36.298-.65.666-.65h8.667c.368 0 .666.29.666.65v1.3z"/>
        <path stroke="#444" stroke-linejoin="round" stroke-width="1.299" d="M5.314 8.975L6.337.989h4.302"/>
        <path fill="#444" fill-rule="nonzero" d="M.806 8.325l.784 7.15h6l.784-7.15z"/>
    </g>
</svg>
