<svg xmlns="http://www.w3.org/2000/svg" width="20" height="20" viewBox="0 0 20 20">
    <g fill="#444" fill-rule="evenodd">
        <path d="M17.435 15.424c-.514-1.273-2.326-1.603-3.186-2.48-1.8-1.833-1.37-4.838-4.47-5.017-3.1.18-2.67 3.184-4.472 5.018-.86.876-2.672 1.206-3.183 2.479-.63 1.56.404 2.973 1.182 3.581 1.564 1.22 4.08.014 5.766-.164.24-.028.477-.032.707-.032.23 0 .465.004.708.032 1.684.178 4.2 1.384 5.764.164.777-.608 1.81-2.021 1.184-3.581zM18.927 8.53c-.408 1.55-1.665 2.554-2.808 2.244-1.141-.314-1.736-1.821-1.328-3.371.407-1.55 1.664-2.554 2.806-2.242 1.142.314 1.737 1.82 1.33 3.37zM4.765 7.405c.408 1.548-.187 3.058-1.33 3.37-1.14.31-2.398-.694-2.807-2.242C.222 6.982.815 5.475 1.96 5.16c1.141-.308 2.398.693 2.806 2.244zM8.99 2.965C9.4 4.51 8.805 6.02 7.662 6.333c-1.142.31-2.399-.693-2.806-2.241-.41-1.55.187-3.059 1.328-3.369 1.143-.312 2.398.691 2.806 2.242zM14.699 4.092c-.407 1.548-1.664 2.553-2.806 2.24-1.142-.312-1.736-1.82-1.33-3.368.41-1.55 1.665-2.553 2.808-2.24 1.141.31 1.737 1.817 1.328 3.368z"/>
    </g>
</svg>
