<svg xmlns="http://www.w3.org/2000/svg" width="18" height="20" viewBox="0 0 18 20">
    <path fill="#444" fill-rule="nonzero" d="M18 16.08l-.695-1.468-2.023.7-2.613-5.337H5.977l-.183-1.768h4.02V6.373h-4.21l-.168-1.65C6.615 4.537 7.517 3.56 7.517 2.38 7.517 1.065 6.404 0 5.032 0 3.661 0 2.548 1.066 2.548 2.379c0 .681.302 1.296.782 1.73l.358 3.37C1.412 8.676 0 10.924 0 13.377 0 17.028 3.104 20 6.917 20c2.852 0 5.372-1.72 6.442-4.103l.809 1.65L18 16.08zM6.917 18.365c-2.87 0-5.208-2.238-5.208-4.988 0-1.62.813-3.118 2.172-4.08l.25 2.346h7.145l.914 1.87c-.079 2.642-2.458 4.852-5.273 4.852z"/>
</svg>
