<svg version="1.1" xmlns="http://www.w3.org/2000/svg" xmlns:xlink="http://www.w3.org/1999/xlink" width="23" height="25" viewBox="0 0 23 25"><path fill="#444" d="M22 3h-4v2h-2v-2h-9v2h-2v-2h-4c-0.552 0-1 0.449-1 1v2h23v-2c0-0.551-0.447-1-1-1zM0 24c0 0.553 0.448 1 1 1h21c0.553 0 1-0.447 1-1v-17h-23v17zM17 9h4v4h-4v-4zM17 14h4v4h-4v-4zM17 19h4v4h-4v-4zM12 9h4v4h-4v-4zM12 14h4v4h-4v-4zM12 19h4v4h-4v-4zM7 9h4v4h-4v-4zM7 14h4v4h-4v-4zM7 19h4v4h-4v-4zM2 9h4v4h-4v-4zM2 14h4v4h-4v-4zM2 19h4v4h-4v-4zM5 0h2v5h-2zM16 0h2v5h-2z"></path></svg>
