<svg xmlns="http://www.w3.org/2000/svg" width="21" height="15" viewBox="0 0 21 15">
    <g fill="#444" fill-rule="nonzero">
        <path d="M18.5 4.9l.9-.2c.4-.1.7-.4.7-.8v-.1c-.1-.3-.4-.6-.7-.6L18.3 3c-.4 0-.7.2-.8.5-.1-.2-.2-.4-.2-.6-.4-1.1-1-2.9-3.1-2.9H5.9C3.8 0 3.2 1.8 2.8 2.9c-.1.2-.1.4-.2.5-.2-.2-.4-.4-.8-.4l-1 .1c-.4 0-.7.3-.8.6v.2c0 .4.3.8.7.8l.9.2c-.4.4-.8.9-1.1 1.5-.4.5-.5 1.4-.5 2.9 0 1.2.5 3 2 3.4v.6c0 .9.7 1.6 1.6 1.6h1.7c.9 0 1.6-.7 1.6-1.6V13c2 .1 4 .1 6 0v.3c0 .9.7 1.6 1.6 1.6h1.7c.9 0 1.6-.7 1.6-1.6v-.6c1.5-.4 2-2.2 2-3.4 0-1.5-.1-2.4-.4-2.9-.1-.6-.5-1.1-.9-1.5zm.5 4.8c-.1.8-.5 2-1.4 2.1-2.5.2-5.1.2-7.6.2s-5.1 0-7.6-.3C1.3 11.6 1 10.1 1 9.3c0-1 .1-2 .3-2.4.4-.7 1-1.2 1.5-1.8 4.8-.3 9.6-.2 14.5 0 .5.6 1.1 1.1 1.5 1.8.2.4.3 1.5.3 2.4-.1.1-.1.3-.1.4zM10 1h4.1c1.6 0 1.9 1.6 2.4 2.8.1.3.2.5.4.7-4.6-.2-9.1-.2-13.7 0 .1-.3.2-.5.3-.7C4 2.6 4.3 1 5.9 1H10zm7.9 2.8c0-.2.2-.3.3-.3l1.1.1c.1 0 .2.1.3.3 0 .1-.1.3-.3.3l-1.2.2-.3-.3.1-.3zM.5 3.9c0-.1.1-.2.3-.2l1.1-.1c.2 0 .3.1.3.3v.3c-.1 0-.2.1-.3.3L.8 4.2c-.2 0-.3-.1-.3-.3zM6 13.3c0 .3-.3.6-.6.6H3.6c-.3 0-.6-.3-.6-.6v-1c1 .1 2 .1 3 .2v.8zm11 0c0 .3-.3.6-.6.6h-1.7c-.3 0-.6-.3-.6-.6v-.8c1 0 2-.1 3-.2v1H17z"/>
        <path d="M4 6.5c-.8 0-1.5.7-1.5 1.5S3.2 9.5 4 9.5 5.5 8.8 5.5 8 4.8 6.5 4 6.5zM4 9c-.6 0-1-.4-1-1s.4-1 1-1 1 .4 1 1-.4 1-1 1zM16 6.5c-.8 0-1.5.7-1.5 1.5s.7 1.5 1.5 1.5 1.5-.7 1.5-1.5-.7-1.5-1.5-1.5zM16 9c-.6 0-1-.4-1-1s.4-1 1-1 1 .4 1 1-.4 1-1 1zM14.5 10.1s-3.4.2-4.5.2-4.5-.2-4.5-.2c-.1 0-.2.1-.2.2s.1.2.2.2c0 0 3.4.2 4.5.2s4.5-.2 4.5-.2c.1 0 .2-.1.2-.2s-.1-.2-.2-.2z"/>
    </g>
</svg>
