<svg xmlns="http://www.w3.org/2000/svg" width="20" height="20" viewBox="0 0 20 20">
    <path fill="#444" fill-rule="nonzero" d="M10 0C4.478 0 0 4.477 0 10s4.478 10 10 10c5.524 0 10-4.477 10-10S15.524 0 10 0zM5.91 6.364a1.364 1.364 0 1 1 0 2.727 1.364 1.364 0 0 1 0-2.727zm9.278 7.915c-.085.086-2.12 2.085-5.187 2.085s-5.104-2-5.19-2.085a.908.908 0 0 1 1.284-1.288c.041.04 1.629 1.554 3.906 1.554 2.324 0 3.886-1.536 3.902-1.551a.908.908 0 1 1 1.285 1.285zm-1.097-5.188a1.364 1.364 0 1 1 0-2.728 1.364 1.364 0 0 1 0 2.728z"/>
</svg>
