<svg xmlns="http://www.w3.org/2000/svg" width="20" height="18" viewBox="0 0 20 18">
    <g fill="#444" fill-rule="nonzero">
        <path d="M3.728 8.202h1.49v3.19h-1.49z"/>
        <path d="M14.165 3.42V2.624c0-1.554-1.154-2.392-2.237-2.392H7.455C6 .232 5.217 1.465 5.217 2.624v.796H0V9h2.981V7.406h2.982V9h7.456V7.406H16.4V9h2.983V3.42h-5.22zm-7.456-.796s0-.797.746-.797h4.473s.744 0 .744.797v.796H6.708v-.796h.001zM16.401 12.188H13.42V9.796H5.963v2.392H2.981V9.796H.746v7.972h17.892V9.796h-2.237z"/>
        <path d="M14.165 8.202h1.492v3.19h-1.492z"/>
    </g>
</svg>
