<?xml version="1.0" encoding="UTF-8"?>
<svg width="24px" height="24px" viewBox="0 0 24 24" version="1.1" xmlns="http://www.w3.org/2000/svg" xmlns:xlink="http://www.w3.org/1999/xlink">
    <!-- Generator: Sketch 46.1 (44463) - http://www.bohemiancoding.com/sketch -->
    <title>Artboard</title>
    <desc>Created with Sketch.</desc>
    <defs></defs>
    <g id="Page-1" stroke="none" stroke-width="1" fill="none" fill-rule="evenodd">
        <g id="Artboard" fill-rule="nonzero" fill="#444444">
            <path d="M8.88102894,5.414791 L8.68810289,6.95819936 L7.2733119,6.95819936 L7.59485531,4.64308682 C7.65916399,4.25723473 7.91639871,4 8.3022508,4 L12.7395498,4 L12.7395498,5.414791 L8.88102894,5.414791 Z M11.6463023,14.5466238 C11.6463023,13.7749196 12.2893891,13.1961415 13.0610932,13.1961415 L20.6495177,13.1961415 C21.3569132,13.1961415 22,13.7749196 22,14.5466238 L11.6463023,14.5466238 Z M6.63022508,12.488746 L7.20900322,7.66559486 L8.62379421,7.66559486 L7.9807074,12.488746 L6.63022508,12.488746 Z M21.2926045,15.2540193 C21.6784566,15.2540193 22,15.5755627 22,15.9614148 L22,17.3118971 C22,17.6977492 21.6784566,18.0192926 21.2926045,18.0192926 L12.3536977,18.0192926 C11.9678457,18.0192926 11.6463023,17.6977492 11.6463023,17.3118971 L11.6463023,15.9614148 C11.6463023,15.5755627 11.9678457,15.2540193 12.3536977,15.2540193 L21.2926045,15.2540193 Z M12.9967846,20.0771704 C12.2893891,20.0771704 11.6463023,19.4340836 11.6463023,18.7266881 L21.9356913,18.7266881 C21.9356913,19.4340836 21.3569132,20.0771704 20.585209,20.0771704 L12.9967846,20.0771704 Z M9.58842444,20.0771704 L3.35048232,20.0771704 L2,6.95819936 L7.2733119,6.95819936 L7.20900322,7.66559486 L2.77170418,7.66559486 L3.28617363,12.488746 L6.63022508,12.488746 L6.5659164,13.0675241 L7.91639871,13.2604502 L7.9807074,12.488746 L9.65273312,12.488746 L10.1672026,7.66559486 L8.62379421,7.66559486 L8.68810289,6.95819936 L10.9389068,6.95819936 L9.58842444,20.0771704 Z" id="Combined-Shape"></path>
        </g>
    </g>
</svg>