<svg xmlns="http://www.w3.org/2000/svg" width="20" height="16" viewBox="0 0 20 16">
    <g fill="#444" fill-rule="nonzero">
        <path d="M7.61.085H1.17C.525.085 0 .59 0 1.214v6.211c0 .624.524 1.13 1.17 1.13h6.44c.646 0 1.17-.506 1.17-1.13V1.214c0-.624-.523-1.13-1.17-1.13zm-4.976 7.34c-.485 0-.878-.38-.878-.846 0-.468.393-.848.878-.848s.878.38.878.848c0 .467-.392.846-.878.846zm0-2.258c-.485 0-.878-.38-.878-.847 0-.468.393-.848.878-.848s.878.38.878.848c0 .467-.392.847-.878.847zm0-2.259c-.485 0-.878-.38-.878-.847 0-.468.393-.847.878-.847s.878.38.878.847c0 .468-.392.847-.878.847zm3.513 4.517c-.485 0-.878-.38-.878-.846 0-.468.393-.848.878-.848.484 0 .878.38.878.848 0 .467-.394.846-.878.846zm0-2.258c-.485 0-.878-.38-.878-.847 0-.468.393-.848.878-.848.484 0 .878.38.878.848 0 .467-.394.847-.878.847zm0-2.259c-.485 0-.878-.38-.878-.847 0-.468.393-.847.878-.847.484 0 .878.38.878.847 0 .468-.394.847-.878.847zM19.56 9.325l-4.553-4.392a1.2 1.2 0 0 0-1.655 0L8.798 9.325a1.101 1.101 0 0 0 0 1.597l4.554 4.393c.456.44 1.198.44 1.655 0l4.553-4.393a1.101 1.101 0 0 0 0-1.597zm-8.9 1.796a.826.826 0 0 1 .001-1.197c.342-.331.9-.331 1.242 0a.826.826 0 0 1 0 1.197c-.343.331-.9.331-1.243 0zm1.656-1.596a.827.827 0 0 1 0-1.198c.343-.33.9-.33 1.243 0a.826.826 0 0 1 0 1.198c-.343.33-.9.33-1.243 0zm1.657-1.597a.826.826 0 0 1 0-1.198.9.9 0 0 1 1.241 0 .826.826 0 0 1 0 1.198.9.9 0 0 1-1.241 0zm-.83 5.59a.826.826 0 0 1 .001-1.198.901.901 0 0 1 1.242 0 .827.827 0 0 1 0 1.198c-.343.33-.9.33-1.242 0zM14.8 11.92a.826.826 0 0 1 0-1.198.901.901 0 0 1 1.242 0 .826.826 0 0 1 0 1.198c-.343.33-.9.33-1.242 0zm1.656-1.596a.827.827 0 0 1 0-1.199.9.9 0 0 1 1.241 0 .827.827 0 0 1 0 1.199.9.9 0 0 1-1.241 0z"/>
    </g>
</svg>
