<?xml version="1.0" encoding="UTF-8"?>
<svg width="24px" height="24px" viewBox="0 0 24 24" version="1.1" xmlns="http://www.w3.org/2000/svg" xmlns:xlink="http://www.w3.org/1999/xlink">
    <!-- Generator: Sketch 46.1 (44463) - http://www.bohemiancoding.com/sketch -->
    <title>ic_amenity_beach_front</title>
    <desc>Created with Sketch.</desc>
    <defs></defs>
    <g id="ALL-SVGS" stroke="none" stroke-width="1" fill="none" fill-rule="evenodd">
        <g id="Inline-SVGs-Copy" transform="translate(-130.000000, -432.000000)"></g>
        <g id="ic_amenity_beach_front" fill-rule="nonzero" fill="#333333">
            <path d="M13.2516199,14.8439517 L14.8406182,13.2549535 L21.9966664,20.4143353 L20.4110017,22 L13.2516199,14.8439517 Z M18.0219483,8.4768467 L21.1999449,5.29885012 C16.8107538,0.909659034 9.69915308,0.898547158 5.309962,5.27662637 C9.67692933,3.83208247 14.5439311,4.99882946 18.0219483,8.4768467 L18.0219483,8.4768467 Z M5.27662637,5.309962 C0.898547158,9.69915308 0.909659034,16.8107538 5.29885012,21.1999449 L8.4768467,18.0219483 C4.99882946,14.5439311 3.83208247,9.67692933 5.27662637,5.309962 Z M5.29885012,5.28773824 L5.28773824,5.29885012 C4.86548695,8.64352485 6.58782776,12.9438209 10.065845,16.43295 L16.43295,10.065845 C12.9549328,6.58782776 8.64352485,4.86548695 5.29885012,5.28773824 Z" id="Shape"></path>
        </g>
    </g>
</svg>