<?xml version="1.0" encoding="UTF-8"?>
<svg width="24px" height="24px" viewBox="0 0 24 24" version="1.1" xmlns="http://www.w3.org/2000/svg" xmlns:xlink="http://www.w3.org/1999/xlink">
    <!-- Generator: Sketch 44.1 (41455) - http://www.bohemiancoding.com/sketch -->
    <title>ic_arrow_expander</title>
    <desc>Created with Sketch.</desc>
    <defs></defs>
    <g id="ic_arrow_expander" stroke="none" stroke-width="1" fill="none" fill-rule="evenodd">
        <g id="Shape" fill="#333333">
            <path d="M19.4840214,7.20598808 L19.4832811,5.58543204 L15.2680867,9.85739783 C14.8742195,10.2561596 14.2364062,10.2565348 13.8429091,9.85739783 C13.4486716,9.458636 13.4486716,8.81153898 13.8421687,8.41277715 L18.0581034,4.14081137 L16.4596833,4.14081137 C15.9033088,4.1411865 15.451694,3.68352947 15.451694,3.11933589 C15.4524344,2.55551743 15.9033088,2.09823553 16.4596833,2.0978604 L20.4920107,2.0978604 C21.0483853,2.0978604 21.5,2.55551743 21.5,3.11933589 L21.5,7.20523783 C21.5,7.76943141 21.0487554,8.22708844 20.4916405,8.22708844 C19.9348958,8.22708844 19.4832811,7.76980654 19.4840214,7.20598808 Z M4.51560842,16.8410499 L4.51634877,18.4612309 L8.73154308,14.1888899 C9.12541036,13.7901281 9.76322364,13.7901281 10.1567207,14.1888899 C10.5509582,14.5876518 10.5509582,15.2343737 10.1578313,15.6335106 L5.94152644,19.9054764 L7.53994648,19.9054764 C8.09632103,19.9051013 8.54867613,20.3627583 8.54793578,20.9269519 C8.54793578,21.4907703 8.09632103,21.9480522 7.53994648,21.9488025 L3.50835947,21.9488025 C2.95161474,21.9488025 2.5,21.4911455 2.5,20.9269519 L2.5,16.8414251 C2.5,16.2768564 2.95161474,15.8195745 3.50835947,15.8195745 C4.06473403,15.8191993 4.51634877,16.2768564 4.51560842,16.8410499 Z"></path>
        </g>
    </g>
</svg>