<?xml version="1.0" encoding="UTF-8"?>
<svg width="24px" height="24px" viewBox="0 0 24 24" version="1.1" xmlns="http://www.w3.org/2000/svg" xmlns:xlink="http://www.w3.org/1999/xlink">
    <!-- Generator: Sketch 46.1 (44463) - http://www.bohemiancoding.com/sketch -->
    <title>ic_circle_plus_light</title>
    <desc>Created with Sketch.</desc>
    <defs></defs>
    <g id="ALL-SVGS" stroke="none" stroke-width="1" fill="none" fill-rule="evenodd">
        <g id="Inline-SVGs-Copy" transform="translate(-625.000000, -311.000000)"></g>
        <g id="ic_circle_plus_light" fill="#333333">
            <path d="M18.365,18.365 C16.682,20.079 14.397,21 11.984,21 C9.571,21 7.317,20.048 5.635,18.365 C3.952,16.682 3,14.428 3,12.015 C3,9.603 3.952,7.348 5.635,5.635 C7.349,3.92 9.603,3 12.015,3 C14.428,3 16.682,3.952 18.365,5.635 C20.048,7.317 21,9.603 21,11.984 C21,14.365 20.048,16.651 18.365,18.365 M18.719,5.281 C16.931,3.494 14.547,2.5 12.015,2.5 C9.461,2.5 7.083,3.479 5.281,5.281 C3.49,7.105 2.5,9.49 2.5,12.015 C2.5,14.547 3.494,16.931 5.281,18.719 C7.068,20.505 9.453,21.5 11.984,21.5 C14.551,21.5 16.958,20.511 18.721,18.716 C20.501,16.903 21.5,14.49 21.5,11.984 C21.5,9.473 20.497,7.059 18.719,5.281 M12.5755,11.4238 L12.5755,8.5608 C12.5755,8.2658 12.3095,7.9998 12.0145,7.9998 C11.7185,7.9998 11.4535,8.2658 11.4535,8.5608 L11.4535,11.4238 L8.5615,11.4238 C8.2655,11.4238 8.0005,11.6898 8.0005,11.9848 C8.0005,12.3098 8.2655,12.5458 8.5615,12.5458 L11.4535,12.5458 L11.4535,15.4398 C11.4535,15.7348 11.7185,15.9998 12.0145,15.9998 C12.3095,15.9998 12.5755,15.7348 12.5755,15.4398 L12.5755,12.5458 L15.4395,12.5458 C15.7345,12.5458 16.0005,12.2798 16.0005,11.9848 C16.0005,11.6898 15.7345,11.4238 15.4395,11.4238 L12.5755,11.4238 Z" id="Fill-1"></path>
        </g>
    </g>
</svg>