<svg xmlns="http://www.w3.org/2000/svg" width="20" height="20" viewBox="0 0 20 20">
    <g fill="#444" fill-rule="evenodd">
        <path fill-rule="nonzero" d="M9.984 19c2.413 0 4.699-.921 6.381-2.635 1.682-1.714 2.635-4 2.635-6.38a8.988 8.988 0 0 0-2.635-6.35A8.934 8.934 0 0 0 10.015 1c-2.412 0-4.666.92-6.38 2.635C1.953 5.349 1 7.603 1 10.015c0 2.414.953 4.668 2.635 6.35A8.934 8.934 0 0 0 9.985 19zm0 .5a9.434 9.434 0 0 1-6.703-2.781A9.434 9.434 0 0 1 .5 10.016c0-2.526.99-4.91 2.781-6.735A9.428 9.428 0 0 1 10.016.5c2.53 0 4.916.995 6.703 2.781A9.488 9.488 0 0 1 19.5 9.984a9.617 9.617 0 0 1-2.778 6.731C14.958 18.512 12.55 19.5 9.984 19.5z"/>
        <path d="M9.453 10.546v2.893a.58.58 0 0 0 .561.561.58.58 0 0 0 .561-.561v-2.893h2.864A.58.58 0 0 0 14 9.985a.58.58 0 0 0-.561-.561h-2.864V6.561a.58.58 0 0 0-.56-.561.58.58 0 0 0-.562.561v2.863H6.561A.58.58 0 0 0 6 9.985a.56.56 0 0 0 .561.561h2.892z"/>
    </g>
</svg>
