<svg xmlns="http://www.w3.org/2000/svg" width="20" height="20" viewBox="0 0 20 20">
    <g fill="#444" fill-rule="nonzero">
        <path d="M10.013 19.727a9.626 9.626 0 0 1-6.84-2.839 9.626 9.626 0 0 1-2.84-6.84c0-2.6 1.027-5.03 2.84-6.876A9.62 9.62 0 0 1 10.046.333c2.6 0 5.029 1.027 6.841 2.84a9.684 9.684 0 0 1 2.84 6.84c0 2.566-1.027 5.029-2.84 6.875-1.812 1.847-4.275 2.84-6.875 2.84zm0-17.89a8.124 8.124 0 0 0-5.78 2.395 8.123 8.123 0 0 0-2.395 5.78c0 2.19.855 4.242 2.394 5.782a8.123 8.123 0 0 0 5.781 2.394c2.19 0 4.242-.855 5.781-2.394a8.123 8.123 0 0 0 2.395-5.781c0-2.19-.855-4.242-2.395-5.781a8.123 8.123 0 0 0-5.78-2.395z"/>
        <path d="M5.788 10.03c0-.319.298-.606.63-.606h7.73c.332 0 .63.287.63.606 0 .32-.298.606-.63.606h-7.73c-.332 0-.63-.255-.63-.606z"/>
    </g>
</svg>
