<svg version="1.1" xmlns="http://www.w3.org/2000/svg" xmlns:xlink="http://www.w3.org/1999/xlink" width="25" height="25" viewBox="0 0 25 25"><path fill="#444" d="M16.406 7.813v16.406h7.031v-16.406h-7.031zM19.531 21.094h-2.344v-1.562h2.344v1.562zM19.531 17.969h-2.344v-1.562h2.344v1.562zM19.531 15.625h-2.344v-2.344h2.344v2.344zM19.531 12.5h-2.344v-1.562h2.344v1.562zM22.657 21.094h-2.344v-1.562h2.344v1.562zM22.657 17.969h-2.344v-1.562h2.344v1.562zM22.657 15.625h-2.344v-2.344h2.344v2.344zM22.657 12.5h-2.344v-1.562h2.344v1.562z"></path><path fill="#444" d="M11.719 10.938v-4.111l-1.384-2.92h-1.742v-3.125h-1.562v3.125h-0.602l-1.742 2.92v4.111h-1.607l-1.518 1.469v11.812h13.281v-11.812l-1.159-1.469h-1.966zM8.594 6.25h1.562v1.562h-1.562v-1.562zM8.594 9.375h1.562v1.562h-1.562v-1.562zM6.25 6.25h1.562v1.562h-1.562v-1.562zM6.25 21.094h-1.562v-1.562h1.562v1.562zM6.25 17.969h-1.562v-1.562h1.562v1.562zM6.25 15.625h-1.562v-2.344h1.562v2.344zM6.25 9.375h1.562v1.562h-1.562v-1.562zM8.594 21.094h-1.562v-1.562h1.562v1.562zM8.594 17.969h-1.562v-1.562h1.562v1.562zM8.594 15.625h-1.562v-2.344h1.562v2.344zM11.719 21.094h-1.562v-1.562h1.562v1.562zM11.719 17.969h-1.562v-1.562h1.562v1.562zM11.719 15.625h-1.562v-2.344h1.562v2.344z"></path></svg>
