<svg xmlns="http://www.w3.org/2000/svg" width="20" height="20" viewBox="0 0 20 20">
    <g fill="#444" fill-rule="nonzero">
        <path d="M18.127 19.817c-.33 0-.66-.127-.9-.378L1.031 2.514A1.116 1.116 0 0 1 1.113.882 1.262 1.262 0 0 1 2.83.96l16.196 16.925a1.116 1.116 0 0 1-.082 1.632 1.25 1.25 0 0 1-.818.301v-.001z"/>
        <path d="M1.958 19.747c-.295 0-.59-.101-.824-.306a1.115 1.115 0 0 1-.07-1.632L17.391.997a1.262 1.262 0 0 1 1.717-.066c.494.432.525 1.163.07 1.632L2.852 19.375c-.24.247-.567.372-.894.372z"/>
    </g>
</svg>
