<svg xmlns="http://www.w3.org/2000/svg" width="20" height="20" viewBox="0 0 20 20">
    <path fill="#444" fill-rule="nonzero" d="M.002 18.886v-2.787l8.384-8.257c-.54-1.927-.021-4.118 1.539-5.655 2.288-2.253 6.032-2.253 8.34.021 2.31 2.273 2.31 5.961.024 8.217a5.96 5.96 0 0 1-5.825 1.474l-2.456 2.417-3.08-.531.042 2.254-.333.326-2.37.002-.502 2.826-.249.245-2.892.062c-.396-.02-.602-.184-.624-.613l.002-.001zM14.186 3.314a2.05 2.05 0 0 0 0 2.91c.811.798 2.144.798 2.956 0 .812-.799.811-2.11 0-2.91-.813-.8-2.146-.8-2.956 0z"/>
</svg>
