<svg width="20" height="23" viewBox="0 0 20 23" xmlns="http://www.w3.org/2000/svg">
  <title>F2697DD7-2C22-4DD7-91B0-A1B461AC624E</title>
  <path d="M19.671 10.717a.776.776 0 0 0-.464-.443l-2.542-.78-.3-2.659h1.652l-.368-2.793h-1.607l-.17-1.484a.642.642 0 0 0-.634-.576h-2.082V.587c0-.31-.245-.56-.548-.56h-1.634a.555.555 0 0 0-.548.56v1.399h-1.11v-1.4a.555.555 0 0 0-.549-.56H7.133a.555.555 0 0 0-.548.56v1.4H4.46a.646.646 0 0 0-.632.57l-.184 1.488H2.086l-.36 2.793h1.568l-.327 2.689-2.422.747-.011.004a.778.778 0 0 0-.465.445.804.804 0 0 0 .022.65L5.508 22.44a.98.98 0 0 0 .874.553h6.977a.984.984 0 0 0 .874-.553l5.418-11.07a.801.801 0 0 0 .02-.653zM11.237.854h1.11V1.98h-1.11V.854zm-3.841 0h1.11V1.98h-1.11V.854zM4.613 2.815h10.472l.14 1.229H4.461l.152-1.229zM2.798 4.873H16.94l.15 1.134H2.653l.145-1.134zm1.314 1.964h11.436l.269 2.4-5.733-1.761a.758.758 0 0 0-.47 0L3.818 9.265l.295-2.428zm9.397 15.231a.17.17 0 0 1-.148.094H6.382a.17.17 0 0 1-.148-.093L.84 11.046l9.01-2.78 9.051 2.78-5.392 11.022z" fill-rule="nonzero" fill="#666"/>
</svg>