<svg xmlns="http://www.w3.org/2000/svg" width="12" height="20" viewBox="0 0 12 20">
    <path fill="#444" fill-rule="nonzero" d="M3.684 14.653c.445.485.998.793 1.659.925v-4.599a3.69 3.69 0 0 0-.29-.099 4.76 4.76 0 0 0-.4-.099 17.068 17.068 0 0 1-1.572-.517 5.102 5.102 0 0 1-1.39-.792c-.41-.33-.736-.74-.98-1.232C.468 7.749.346 7.136.346 6.403c0-.748.14-1.409.42-1.98.28-.573.65-1.053 1.11-1.442.46-.388.99-.689 1.594-.902a7.054 7.054 0 0 1 1.874-.385V0h1.271v1.694a7.631 7.631 0 0 1 1.82.43 4.872 4.872 0 0 1 1.498.88c.431.373.783.84 1.055 1.396.273.558.431 1.218.474 1.98H8.402c-.014-.586-.194-1.085-.538-1.496-.345-.41-.762-.616-1.25-.616v3.895l.528.132c.18.044.37.095.57.154 1.064.293 1.882.656 2.457 1.089.575.433.998.884 1.27 1.353.274.47.436.94.486 1.408.05.47.075.888.075 1.254 0 .323-.08.73-.237 1.221-.158.493-.442.973-.851 1.441-.41.47-.959.888-1.648 1.254-.69.367-1.572.587-2.65.66V20H5.343v-1.87c-1.609-.118-2.865-.623-3.77-1.518C.668 15.718.143 14.404 0 12.673h3.038c-.015.836.201 1.496.646 1.98zm.948-10.275c-.23.074-.439.187-.625.341a1.634 1.634 0 0 0-.441.573 1.86 1.86 0 0 0-.162.803c0 .484.15.858.452 1.122.302.264.798.477 1.487.638V4.268c-.244 0-.481.037-.711.11zm2.79 11.013c.28-.095.532-.23.754-.408.222-.176.406-.392.55-.649.143-.257.215-.56.215-.913 0-.572-.177-1-.528-1.287-.352-.286-.952-.546-1.799-.78v4.224a3.9 3.9 0 0 0 .808-.187z"/>
</svg>
