<svg xmlns="http://www.w3.org/2000/svg" width="20" height="19" viewBox="0 0 20 19">
    <g fill="#000" fill-rule="nonzero">
        <path d="M19.5 18H19v-6.5c0-.8-.7-1.5-1.5-1.5H17V1.5c0-.8-.7-1.5-1.5-1.5h-11C3.7 0 3 .7 3 1.5V10h-.5c-.8 0-1.5.7-1.5 1.5V18H.5c-.3 0-.5.2-.5.5s.2.5.5.5h19c.3 0 .5-.2.5-.5s-.2-.5-.5-.5zM16 11v7h-3.5v-2.8h.7c.3 0 .6-.3.5-.6l-.3-1.1c-.1-.4-.5-.8-1-.8H7.5c-.5 0-.9.3-1 .8l-.3 1.1c-.1.3.2.6.5.6h.7V18H4V1.5c0-.3.2-.5.5-.5h11c.3 0 .5.2.5.5V11zm-9.2 3.8l.2-1.2c.1-.2.3-.4.5-.4h4.9c.2 0 .4.2.5.4l.3 1.1H6.8v.1zm1.2.4h4V18H8v-2.8zM3.5 11v7H2v-6.5c0-.3.2-.5.5-.5h1zm14 0c.3 0 .5.2.5.5V18h-1.5v-7h1z"/>
        <path d="M13.5 8h-1c-.3 0-.5.2-.5.5v1c0 .3.2.5.5.5h1c.3 0 .5-.2.5-.5v-1c0-.3-.2-.5-.5-.5zM10.5 8h-1c-.3 0-.5.2-.5.5v1c0 .3.2.5.5.5h1c.3 0 .5-.2.5-.5v-1c0-.3-.2-.5-.5-.5zM7.5 8h-1c-.3 0-.5.2-.5.5v1c0 .3.2.5.5.5h1c.3 0 .5-.2.5-.5v-1c0-.3-.2-.5-.5-.5zM13.5 5h-1c-.3 0-.5.2-.5.5v1c0 .3.2.5.5.5h1c.3 0 .5-.2.5-.5v-1c0-.3-.2-.5-.5-.5zM10.5 5h-1c-.3 0-.5.2-.5.5v1c0 .3.2.5.5.5h1c.3 0 .5-.2.5-.5v-1c0-.3-.2-.5-.5-.5zM7.5 5h-1c-.3 0-.5.2-.5.5v1c0 .3.2.5.5.5h1c.3 0 .5-.2.5-.5v-1c0-.3-.2-.5-.5-.5zM13.5 2h-1c-.3 0-.5.2-.5.5v1c0 .3.2.5.5.5h1c.3 0 .5-.2.5-.5v-1c0-.3-.2-.5-.5-.5zM10.5 2h-1c-.3 0-.5.2-.5.5v1c0 .3.2.5.5.5h1c.3 0 .5-.2.5-.5v-1c0-.3-.2-.5-.5-.5zM7.5 2h-1c-.3 0-.5.2-.5.5v1c0 .3.2.5.5.5h1c.3 0 .5-.2.5-.5v-1c0-.3-.2-.5-.5-.5z"/>
    </g>
</svg>
