<?xml version="1.0" encoding="UTF-8" standalone="no"?>
<svg width="35px" height="35px" viewBox="0 0 35 35" version="1.1" xmlns="http://www.w3.org/2000/svg" xmlns:xlink="http://www.w3.org/1999/xlink">
    <!-- Generator: Sketch 46.2 (44496) - http://www.bohemiancoding.com/sketch -->
    <title>icon-locked-corner-flag</title>
    <desc>Created with Sketch.</desc>
    <defs></defs>
    <g id="Page-1" stroke="none" stroke-width="1" fill="none" fill-rule="evenodd">
        <g id="Artboard" transform="translate(-107.000000, -31.000000)">
            <g id="icon-locked-corner-flag" transform="translate(107.000000, 31.000000)">
                <polygon id="Rectangle" fill="#333333" points="0 0 35 0 35 35"></polygon>
                <path d="M22,16.1691935 L22,10.4992696 L29.9630435,10.4992696 L29.9630435,16.1691935 L22,16.1691935 Z M24.335,9.74042239 L23.078913,9.74042239 L23.078913,7.97237457 C23.078913,6.32603543 24.413913,4.98658543 26.0547826,4.98658543 C27.695,4.98658543 29.03,6.32603543 29.03,7.97237457 L29.03,9.72602674 L27.773913,9.72602674 L27.773913,7.97237457 C27.773913,7.02095283 27.0030435,6.24685935 26.0547826,6.24685935 C25.1065217,6.24685935 24.335,7.02095283 24.335,7.97237457 L24.335,9.74042239 Z" id="Combined-Shape" fill="#FFFFFF"></path>
            </g>
        </g>
    </g>
</svg>