<svg xmlns="http://www.w3.org/2000/svg" width="20" height="20" viewBox="0 0 20 20">
    <path fill="#000" fill-rule="nonzero" d="M18.836 16.11l-1.309-2.837 1.637-1.637a.856.856 0 0 0 0-1.2l-1.2-1.2a.856.856 0 0 0-1.2 0L16 10l-.436-1.09L18.4 6.29c1.09-1.09 1.2-2.726.982-4.363-.11-.654-.546-1.2-1.31-1.309C16.437.51 14.8.51 13.71 1.6l-2.618 2.836-1.2-.545.764-.764a.856.856 0 0 0 0-1.2l-1.2-1.2a.856.856 0 0 0-1.2 0L6.727 2.473l-2.836-1.31c-.218-.108-.436 0-.655.11l-.872.872c-.219.219-.219.655 0 .873l5.454 4.8-1.963 2.073c-.11.109-.11.218-.219.327l-3.272-.982c-.437-.109-.764 0-1.091.328L.836 10c-.218.218-.327.545-.327.873 0 .218.11.654.436.763L4 14.036c-.11.655 0 1.419.327 1.746.437.436 1.091.436 1.746.327l2.4 3.055c.109.327.545.436.872.436.219 0 .546-.11.764-.327l.436-.437c.328-.327.437-.654.328-1.09l-.982-3.382.109-.11 2.182-2.072 4.8 5.454a.527.527 0 0 0 .763 0l.873-.872c.218-.219.327-.437.218-.655zM17.31 9.672c.11-.11.327-.11.436 0l1.2 1.2c.11.109.11.327 0 .436l-1.527 1.527-.982-2.181.873-.982zM8.8 1.163c.11-.108.327-.108.436 0l1.091 1.2c.11.11.11.328 0 .437l-.872.873-2.182-.982L8.8 1.164zM3.564 2.583l.218-.218 7.09 3.163-1.745 1.855-5.563-4.8zm2.181 8.727l-.981 1.855-3.164-2.51.436-.436 3.71 1.091zm.982-.764l7.746-8.181c.218-.219.545-.437.872-.546.655-.218 1.528-.327 2.51-.218.109 0 .218.11.327.11.109.108.109.435.218.654.11.981 0 1.963-.436 2.618-.11.109-.11.218-.328.436l-8.181 7.855L6.4 14.8c-.218.11-.982.327-1.2.11-.327-.328-.11-.983.11-1.31l1.417-3.055zm3.055 7.419l-.437.436-2.509-3.164 1.855-.981 1.09 3.709zm7.636-1.528l-4.8-5.454 1.855-1.746 3.163 7.091-.218.11z"/>
</svg>
