<svg version="1.1" xmlns="http://www.w3.org/2000/svg" xmlns:xlink="http://www.w3.org/1999/xlink" width="16" height="14" viewBox="0 0 28 25"><path fill="#fff" d="M17.705 13.599v2.145c0.391 0.171 0.837 0.367 1.337 0.587 0.501 0.22 1.016 0.445 1.548 0.678s1.070 0.463 1.613 0.697c0.544 0.232 1.062 0.448 1.55 0.652 0.488 0.199 0.927 0.379 1.318 0.539 0.392 0.16 0.709 0.28 0.954 0.366 0.513 0.184 0.929 0.462 1.247 0.836 0.317 0.372 0.568 0.752 0.752 1.145 0.219 0.452 0.379 0.929 0.476 1.43v2.327h-28.5v-2.327c0.109-0.501 0.274-0.977 0.494-1.43 0.183-0.393 0.433-0.772 0.752-1.145 0.318-0.374 0.727-0.652 1.228-0.836 0.256-0.084 0.594-0.209 1.008-0.375 0.417-0.165 0.88-0.355 1.393-0.568 0.513-0.214 1.054-0.443 1.622-0.688s1.134-0.488 1.695-0.733c0.563-0.246 1.094-0.475 1.595-0.696 0.502-0.222 0.942-0.417 1.32-0.587v-2.090c-0.024-0.097-0.064-0.247-0.119-0.45-0.056-0.202-0.113-0.406-0.175-0.615-0.074-0.242-0.159-0.506-0.256-0.787-0.354-0.66-0.635-1.407-0.843-2.244s-0.312-1.727-0.312-2.667c0-1.235 0.132-2.28 0.394-3.134 0.262-0.857 0.62-1.553 1.072-2.090 0.451-0.538 0.98-0.929 1.585-1.173s1.255-0.366 1.952-0.366c0.685 0 1.329 0.119 1.933 0.357 0.606 0.239 1.136 0.622 1.595 1.154s0.818 1.229 1.082 2.091c0.264 0.86 0.394 1.915 0.394 3.161 0 0.917-0.101 1.786-0.302 2.611-0.202 0.825-0.48 1.566-0.834 2.229-0.099 0.303-0.19 0.59-0.274 0.859-0.074 0.234-0.141 0.457-0.202 0.669-0.063 0.215-0.093 0.372-0.093 0.468z"></path></svg>
