<svg version="1.1" xmlns="http://www.w3.org/2000/svg" xmlns:xlink="http://www.w3.org/1999/xlink" width="29" height="25" viewBox="0 0 29 25">
<path fill="#444" d="M28.872 12.501l-0.761-1.318h-3.366l1.467-2.541-0.76-1.318h-1.524l-2.227 3.859h-4.984l2.491-4.316h4.457l0.761-1.318-0.761-1.318h-2.935l1.684-2.913-0.761-1.318h-1.522l-1.681 2.914-1.469-2.543h-1.521l-0.761 1.318 2.227 3.859-2.492 4.316-2.491-4.316 2.229-3.859-0.761-1.318h-1.521l-1.467 2.543-1.683-2.914h-1.522l-0.761 1.318 1.684 2.913h-2.935l-0.761 1.318 0.761 1.318h4.456l2.491 4.316h-4.982l-2.227-3.859h-1.524l-0.761 1.318 1.467 2.541h-3.363l-0.763 1.318 0.763 1.318h3.363l-1.467 2.54 0.761 1.318h1.524l2.227-3.858h4.982l-2.491 4.316h-4.456l-0.761 1.318 0.761 1.318h2.935l-1.684 2.912 0.761 1.318h1.522l1.683-2.913 1.467 2.54h1.521l0.761-1.318-2.229-3.856 2.491-4.316 2.492 4.316-2.227 3.856 0.761 1.318h1.521l1.466-2.54 1.684 2.913h1.522l0.761-1.318-1.684-2.912h2.935l0.761-1.318-0.761-1.318h-4.457l-2.491-4.316h4.984l2.227 3.858h1.524l0.76-1.318-1.467-2.54h3.366z"></path>
</svg>
