<svg version="1.1" xmlns="http://www.w3.org/2000/svg" xmlns:xlink="http://www.w3.org/1999/xlink" width="31" height="25" viewBox="0 0 31 25">
<path fill="#444" d="M26.461 4.090h-1.235v20.908h1.235c2.652 0 4.801-2.149 4.801-4.8v-11.309c0-2.649-2.149-4.8-4.801-4.8z"></path>
<path fill="#444" d="M4.801 4.090c-2.652 0-4.801 2.151-4.801 4.8v11.309c0 2.651 2.149 4.8 4.801 4.8h1.971v-20.908h-1.971z"></path>
<path fill="#444" d="M21.932 4.090c0.010-0.107 0.034-0.21 0.034-0.319-0.002-2.079-1.691-3.771-3.771-3.771h-4.8c-2.080 0-3.77 1.693-3.77 3.771 0 0.109 0.023 0.211 0.032 0.319h-1.208v20.908h15.097v-20.908h-1.614zM11.366 4.090c-0.017-0.107-0.065-0.206-0.065-0.319 0.002-1.158 0.938-2.094 2.094-2.094h4.8c1.154 0 2.092 0.938 2.092 2.095 0 0.112-0.047 0.211-0.064 0.319h-8.856z"></path>
</svg>
