<svg version="1.1" xmlns="http://www.w3.org/2000/svg" xmlns:xlink="http://www.w3.org/1999/xlink" width="22" height="25" viewBox="0 0 22 25">
<path fill="#444" d="M17.012 3.224c-0.377-0.092-0.658-0.092-0.938-0.189-1.876-0.469-3.564-1.219-4.88-2.253h-0.377c-2.345 2.065-6.098 2.723-10.132 3.095v7.225c0 2.253 0.658 4.13 1.688 5.721 0.189 0.281 0.377 0.469 0.469 0.658l14.169-14.257z"></path>
<path fill="#444" d="M6.126 20.672v0c1.499 1.219 3.192 2.345 4.691 3.472h0.281c4.783-3.472 10.132-6.475 10.132-13.135v-5.441l-15.103 15.103z"></path>
<path fill="#444" d="M21.325 4.065v-0.281c-1.127-0.092-2.157-0.189-3.192-0.377l-14.726 14.73c0.561 0.658 1.219 1.315 1.876 1.876l16.041-15.949z"></path>
</svg>
