<svg version="1.1" xmlns="http://www.w3.org/2000/svg" xmlns:xlink="http://www.w3.org/1999/xlink" width="33" height="25" viewBox="0 0 33 25">
<path fill="#444" d="M28.784 0c0 0-13.715 0-16.288 0-2.576 0-12.495 11.463-12.495 11.463l-0.001 10.576c0 0 0.416 2.929 2.99 2.929 0.511 0 25.394 0 25.394 0s4.263 0.45 4.263-1.919c0-2.372 0-18.041 0-20.040 0.001-3.111-3.863-3.008-3.863-3.008zM25.978 19.106v1.022h-0.991v-1.831l1.864-0.061-0.873 0.87zM28.651 17.186h-5.584l-0.030-1.83h5.613v1.83zM30.721 11.543h-27.913c0 0 7.811-9.603 12.457-9.603 2.58 0 12.636 0 12.636 0s2.82-0.181 2.82 3.181c0 2.432 0 6.423 0 6.423z"></path>
</svg>
