<svg version="1.1" xmlns="http://www.w3.org/2000/svg" xmlns:xlink="http://www.w3.org/1999/xlink" width="23" height="25" viewBox="0 0 23 25">
<path fill="#444" d="M16.998 14.364c0.48 0 0.874 0.396 0.874 0.879v1.172c0 0.484-0.393 0.879-0.874 0.879h-0.602c-0.48 0-0.976 0.321-1.101 0.712s-0.338 1.61 0.002 1.952l0.428 0.431c0.34 0.341 0.34 0.901 0 1.244l-0.823 0.828c-0.339 0.342-0.895 0.342-1.234 0l-0.429-0.431c-0.34-0.342-0.909-0.469-1.267-0.281s-1.378 0.903-1.378 1.387v0.609c0 0.484-0.393 0.879-0.874 0.879h-1.165c-0.48 0-0.874-0.396-0.874-0.879v-0.609c0-0.484-0.318-0.982-0.706-1.108s-1.599-0.339-1.939 0.004l-0.429 0.432c-0.34 0.342-0.896 0.342-1.235 0l-0.823-0.829c-0.34-0.342-0.34-0.902 0-1.244l0.428-0.431c0.34-0.342 0.466-0.916 0.279-1.274s-0.896-1.389-1.377-1.389h-0.606c-0.48 0-0.874-0.396-0.874-0.879v-1.173c0-0.484 0.393-0.879 0.874-0.879h0.606c0.48 0 0.976-0.32 1.101-0.711s0.336-1.609-0.003-1.952l-0.43-0.432c-0.341-0.342-0.341-0.901-0.001-1.244l0.824-0.829c0.34-0.342 0.896-0.342 1.235 0l0.429 0.431c0.339 0.342 0.909 0.469 1.267 0.281s1.379-0.903 1.378-1.387v-0.607c-0.001-0.484 0.392-0.879 0.873-0.879h1.165c0.48 0 0.874 0.396 0.874 0.879v0.607c0 0.484 0.318 0.982 0.708 1.108s1.601 0.339 1.941-0.003l0.427-0.431c0.34-0.342 0.896-0.342 1.236 0l0.822 0.828c0.34 0.342 0.34 0.902 0 1.244l-0.428 0.431c-0.34 0.342-0.466 0.916-0.28 1.275s0.898 1.389 1.378 1.389l0.602-0.001zM9.136 12.019c-2.090 0-3.786 1.707-3.786 3.812s1.695 3.812 3.786 3.812c2.092 0 3.788-1.706 3.788-3.812s-1.695-3.812-3.788-3.812zM22.676 3.665c0.24 0 0.437 0.198 0.437 0.44v0.587c0 0.242-0.197 0.44-0.437 0.44h-0.299c-0.24 0-0.488 0.16-0.552 0.355s-0.169 0.806 0.001 0.977l0.214 0.215c0.169 0.172 0.169 0.452 0 0.623l-0.411 0.414c-0.169 0.172-0.447 0.172-0.618 0.001l-0.214-0.216c-0.17-0.171-0.455-0.234-0.633-0.141s-0.689 0.451-0.689 0.693v0.305c0 0.242-0.197 0.44-0.437 0.44h-0.582c-0.24 0-0.437-0.198-0.437-0.44v-0.305c0-0.242-0.159-0.491-0.353-0.554s-0.801-0.169-0.97 0.003l-0.213 0.215c-0.17 0.172-0.448 0.172-0.618 0l-0.412-0.414c-0.169-0.172-0.169-0.451 0-0.623l0.212-0.215c0.169-0.171 0.232-0.458 0.14-0.638s-0.449-0.694-0.689-0.694h-0.302c-0.24 0-0.437-0.198-0.437-0.44v-0.587c0-0.242 0.197-0.44 0.437-0.44h0.302c0.24 0 0.488-0.16 0.55-0.355s0.169-0.805-0.002-0.976l-0.214-0.216c-0.17-0.171-0.17-0.45 0-0.621l0.415-0.416c0.169-0.171 0.447-0.171 0.618 0.001l0.213 0.215c0.169 0.172 0.454 0.235 0.632 0.142s0.687-0.451 0.687-0.693v-0.304c0-0.242 0.197-0.44 0.437-0.44h0.585c0.24 0 0.437 0.198 0.437 0.44v0.304c0 0.242 0.159 0.491 0.353 0.553s0.799 0.17 0.97-0.001l0.214-0.216c0.17-0.171 0.448-0.171 0.618 0.001l0.41 0.413c0.169 0.171 0.169 0.451 0 0.623l-0.214 0.215c-0.169 0.172-0.232 0.458-0.139 0.638s0.446 0.695 0.687 0.695l0.302-0.001zM20.204 4.398c0-0.809-0.652-1.466-1.455-1.466-0.805 0-1.457 0.657-1.457 1.466s0.652 1.466 1.457 1.466c0.804 0 1.455-0.656 1.455-1.466v0z"></path>
</svg>
