<svg version="1.1" xmlns="http://www.w3.org/2000/svg" xmlns:xlink="http://www.w3.org/1999/xlink" width="21" height="25" viewBox="0 0 21 25">
<path fill="#444" d="M17.589 10.541v-2.928c0 0 0-6.847-6.847-6.847s-6.847 6.847-6.847 6.847v2.928h-2.928v13.693h19.549v-13.693h-2.928zM11.733 18.119v3.186h-1.938v-3.186c-0.603-0.344-0.99-0.947-0.99-1.679 0-1.077 0.861-1.938 1.938-1.938s1.938 0.861 1.938 1.938c0.043 0.689-0.388 1.335-0.947 1.679zM14.661 10.541h-7.837v-2.928c0-0.818 0-3.918 3.918-3.918s3.918 3.1 3.918 3.918v2.928z"></path>
</svg>
