<svg version="1.1" xmlns="http://www.w3.org/2000/svg" xmlns:xlink="http://www.w3.org/1999/xlink" width="26" height="25" viewBox="0 0 26 25">
<path fill="#444" d="M13.126 0.001c-6.929 0-12.538 5.609-12.538 12.465 0 6.925 5.609 12.534 12.534 12.534s12.538-5.609 12.538-12.534c-0.069-6.856-5.678-12.465-12.534-12.465zM23.511 12.466c0 2.424-0.829 4.569-2.218 6.37l-14.541-14.61c1.732-1.384 3.946-2.218 6.37-2.218 5.751 0.069 10.389 4.711 10.389 10.458zM2.669 12.466c0-2.63 0.972-4.986 2.562-6.856l14.683 14.683c-1.801 1.595-4.225 2.562-6.856 2.562-5.751 0.069-10.389-4.642-10.389-10.389z"></path>
<path fill="#444" d="M13.516 10.642l2.974 2.91h1.109l1.315 2.076h0.903l0.486-0.692-0.903-1.384h2.007l0.417-0.692-0.417-0.697h-2.007l0.903-1.728-0.486-1.040h-0.903l-1.315 2.768-2.699-0.137 1.247-2.63h2.63l0.417-0.692-0.417-0.692h-1.732l0.972-1.87-0.417-0.903h-0.898l-1.040 1.595-0.829-1.595h-0.903l-0.481 0.903 1.315 2.356z"></path>
<path fill="#444" d="M12.407 9.464l-0.623-0.967 1.384-2.356-0.486-0.903h-0.898l-0.903 1.595-0.967-1.595h-0.903l-0.344 0.555z"></path>
<path fill="#444" d="M8.58 9.395l-1.389-1.384-0.344 0.555 0.486 0.829z"></path>
<path fill="#444" d="M16.889 17.704l-5.609-5.541h-2.773l-1.384-2.768h-0.898l-0.417 1.040 0.829 1.728h-1.939l-0.481 0.697 0.481 0.692h1.939l-0.829 1.384 0.417 0.692h0.898l1.384-2.076h2.91l-1.453 2.076h-2.63l-0.486 1.040 0.486 1.036h1.728l-1.036 1.526 0.481 0.555h0.903l0.967-1.595 0.903 1.595h0.898l0.486-0.765-1.384-2.282 1.521-2.562 1.457 2.562-1.315 2.282 0.481 0.765h0.903l0.829-1.595 1.040 1.595h0.898l0.417-0.555-0.972-1.526z"></path>
</svg>
