<svg version="1.1" xmlns="http://www.w3.org/2000/svg" xmlns:xlink="http://www.w3.org/1999/xlink" width="9" height="25" viewBox="0 0 9 25">
<path fill="#444" d="M4.456 4.755c1.2 0 2.421-1.133 2.421-2.333s-1.163-2.422-2.363-2.422-2.392 1.252-2.392 2.451c0 1.2 1.134 2.304 2.334 2.304v0zM9.18 11.703c0-1.17 0-2.408 0-3.599 0-1.177 0.079-1.063 0-1.799-0.299-0.901-0.899-1.202-1.499-1.202-1.282 0-1.708 0-2.699 0-1.206 0-1.79-0.003-2.99-0.003-0.6 0-0.991-0.040-1.435 0.365-0.608 0.688-0.547 0.747-0.547 2.668 0 0.948 0 2.604 0 3.663 0 0.948-0.16 2.422 0.79 2.422 0.9 0 0.893-0.642 0.893-1.6 0-1.352-0.003-1.702-0.003-2.501 0-0.873-0.051-1.022 0.126-1.022 0.177 0 0.175 0.013 0.175 0.94 0 0.859-0.006 12.965-0.006 13.667 0 0.599 0.32 1.242 1.224 1.242 0.901 0 1.277-0.528 1.277-1.128 0-1.080 0-5.787 0-6.298 0-0.599 0.020-0.891 0.168-0.891 0.152 0 0.132 0.292 0.132 0.891 0 0.541 0 5.19 0 6.298 0 0.372 0.396 1.183 1.296 1.183 0.6 0 1.152-0.772 1.152-1.171 0-2.399 0.015-13.077 0.015-13.831 0-0.408-0.037-0.929 0.117-0.929 0.153 0 0.151 0.143 0.151 0.731 0 0.677 0 1.361 0 2.31 0 1.577 0.245 1.992 0.845 1.992 0.896 0 0.82-1.54 0.82-2.399v0z"></path>
</svg>
