<svg version="1.1" xmlns="http://www.w3.org/2000/svg" xmlns:xlink="http://www.w3.org/1999/xlink" width="26" height="25" viewBox="0 0 26 25">
<path fill="#444" d="M13.111 0.148c-6.846 0-12.352 5.506-12.352 12.352 0 1.587 0.298 3.076 0.843 4.464 0.149 0.347 0.298 0.645 0.446 0.992 0.992 1.984 2.48 3.671 4.316 4.911 0.298 0.198 0.595 0.397 0.893 0.546 1.736 0.943 3.72 1.439 5.804 1.439s4.068-0.546 5.804-1.439c0.298-0.149 0.595-0.347 0.893-0.546 1.835-1.191 3.373-2.877 4.316-4.911 0.149-0.298 0.298-0.645 0.446-0.992 0.546-1.389 0.843-2.877 0.843-4.464 0.050-6.846-5.457-12.352-12.252-12.352zM7.902 21.677c-2.034-1.141-3.671-2.976-4.613-5.159 0.546-0.347 1.141-0.546 1.835-0.546 1.935 0 3.522 1.587 3.522 3.522 0.050 0.843-0.248 1.587-0.744 2.183zM18.27 21.677c-0.446-0.595-0.744-1.339-0.744-2.183 0-1.935 1.587-3.522 3.522-3.522 0.694 0 1.29 0.198 1.835 0.546-0.943 2.183-2.579 4.018-4.613 5.159zM23.131 15.675c-0.645-0.347-1.339-0.595-2.133-0.595-2.431 0-4.415 1.984-4.415 4.415 0 0.943 0.298 1.835 0.843 2.579-1.339 0.595-2.827 0.943-4.365 0.943s-3.026-0.347-4.365-0.943c0.546-0.744 0.843-1.587 0.843-2.579 0-2.431-1.984-4.415-4.415-4.415-0.794 0-1.488 0.198-2.133 0.595-0.347-0.992-0.496-2.083-0.496-3.224 0-5.804 4.762-10.566 10.566-10.566s10.566 4.762 10.566 10.566c0.050 1.141-0.149 2.232-0.496 3.224z"></path>
<path fill="#444" d="M14.004 4.563c0 0.493-0.4 0.893-0.893 0.893s-0.893-0.4-0.893-0.893c0-0.493 0.4-0.893 0.893-0.893s0.893 0.4 0.893 0.893z"></path>
<path fill="#444" d="M17.476 4.861c-0.397-0.248-0.943-0.099-1.191 0.347-0.248 0.397-0.099 0.943 0.298 1.191s0.943 0.099 1.191-0.347c0.298-0.397 0.149-0.943-0.298-1.191z"></path>
<path fill="#444" d="M19.51 7.738c-0.397 0.248-0.546 0.794-0.298 1.191 0.248 0.446 0.794 0.546 1.191 0.298s0.546-0.794 0.298-1.191c-0.248-0.397-0.744-0.546-1.191-0.298z"></path>
<path fill="#444" d="M20.155 12.5c0 0.496 0.397 0.893 0.893 0.893s0.893-0.397 0.893-0.893c0-0.496-0.397-0.893-0.893-0.893-0.546 0-0.893 0.397-0.893 0.893z"></path>
<path fill="#444" d="M9.886 5.159c-0.248-0.397-0.794-0.546-1.191-0.347-0.397 0.248-0.546 0.794-0.347 1.191 0.248 0.397 0.794 0.546 1.191 0.347 0.446-0.198 0.595-0.744 0.347-1.191z"></path>
<path fill="#444" d="M6.662 7.738c-0.397-0.248-0.943-0.099-1.191 0.347-0.248 0.397-0.099 0.943 0.298 1.191s0.943 0.099 1.191-0.298c0.298-0.446 0.149-0.992-0.298-1.24z"></path>
<path fill="#444" d="M5.174 11.607c-0.496 0-0.893 0.397-0.893 0.893s0.397 0.893 0.893 0.893c0.496 0 0.893-0.397 0.893-0.893s-0.397-0.893-0.893-0.893z"></path>
<path fill="#444" d="M13.26 11.607c-1.439-1.687-3.572-3.373-3.572-3.373s0.694 2.629 1.736 4.613c-0.050 0.149-0.099 0.347-0.099 0.496 0 0.992 0.794 1.736 1.736 1.736 0.347 0 0.645-0.099 0.943-0.248 0 0 0.050 0 0.050-0.050 0 0 0 0 0 0 0.446-0.298 0.794-0.843 0.794-1.439 0-0.893-0.694-1.637-1.587-1.736z"></path>
</svg>
