<svg xmlns="http://www.w3.org/2000/svg" width="20" height="20" viewBox="0 0 20 20">
    <path fill="#444" fill-rule="nonzero" d="M19.513 17.155l-4.786-4.786c-.055-.055-.117-.097-.175-.143a7.865 7.865 0 0 0 1.281-4.31A7.916 7.916 0 0 0 7.917 0a7.916 7.916 0 0 0 0 15.832c1.59 0 3.07-.473 4.312-1.28.046.057.088.12.142.173l4.784 4.787a1.667 1.667 0 1 0 2.358-2.357zM7.916 13.332A5.423 5.423 0 0 1 2.5 7.916 5.423 5.423 0 0 1 7.916 2.5a5.424 5.424 0 0 1 5.417 5.416 5.425 5.425 0 0 1-5.417 5.416z"/>
</svg>
