<?xml version="1.0" encoding="UTF-8" standalone="no"?>
<svg width="40px" height="40px" viewBox="0 0 40 40" version="1.1" xmlns="http://www.w3.org/2000/svg" xmlns:xlink="http://www.w3.org/1999/xlink">
    <!-- Generator: Sketch 46.2 (44496) - http://www.bohemiancoding.com/sketch -->
    <title>icon-unlocked-circle</title>
    <desc>Created with Sketch.</desc>
    <defs></defs>
    <g id="Page-1" stroke="none" stroke-width="1" fill="none" fill-rule="evenodd">
        <g id="Artboard" transform="translate(-28.000000, -28.000000)" fill="#FFFFFF">
            <g id="icon-unlocked-circle" transform="translate(28.000000, 28.000000)">
                <path d="M39.9808341,19.6354783 C39.9808341,30.3850435 31.0890861,39.0989565 20.120142,39.0989565 C9.15119787,39.0989565 0.258562555,30.3850435 0.258562555,19.6354783 C0.258562555,8.88591304 9.15119787,0.172 20.120142,0.172 C31.0890861,0.172 39.9808341,8.88591304 39.9808341,19.6354783" id="Fill-5" fill-opacity="0.2"></path>
                <path d="M35.1622005,19.6354783 C35.1622005,27.7772174 28.4275067,34.3772174 20.1196096,34.3772174 C11.8125998,34.3772174 5.07701863,27.7772174 5.07701863,19.6354783 C5.07701863,11.4937391 11.8125998,4.89373913 20.1196096,4.89373913 C28.4275067,4.89373913 35.1622005,11.4937391 35.1622005,19.6354783" id="Fill-7" fill-opacity="0.35"></path>
                <path d="M12.1375333,27.0686957 L12.1375333,19.533913 L22.971606,19.533913 L22.971606,27.0686957 L12.1375333,27.0686957 Z M21.6724933,18.5254783 L19.9635315,18.5254783 L19.9635315,16.175913 C19.9635315,13.988087 21.779858,12.208087 24.0123336,12.208087 C26.2439219,12.208087 28.0602484,13.988087 28.0602484,16.175913 L28.0602484,18.5063478 L26.3512866,18.5063478 L26.3512866,16.175913 C26.3512866,14.9115652 25.3024845,13.8828696 24.0123336,13.8828696 C22.7221828,13.8828696 21.6724933,14.9115652 21.6724933,16.175913 L21.6724933,18.5254783 Z" id="Combined-Shape"></path>
            </g>
        </g>
    </g>
</svg>