<?xml version="1.0" encoding="UTF-8" standalone="no"?>
<svg width="35px" height="35px" viewBox="0 0 35 35" version="1.1" xmlns="http://www.w3.org/2000/svg" xmlns:xlink="http://www.w3.org/1999/xlink">
    <!-- Generator: Sketch 46.2 (44496) - http://www.bohemiancoding.com/sketch -->
    <title>icon-unlocked-corner-flag</title>
    <desc>Created with Sketch.</desc>
    <defs></defs>
    <g id="Page-1" stroke="none" stroke-width="1" fill="none" fill-rule="evenodd">
        <g id="Artboard" transform="translate(-35.000000, -31.000000)">
            <g id="icon-unlocked-corner-flag" transform="translate(35.000000, 31.000000)">
                <polygon id="Rectangle" fill="#085397" points="0 0 35 0 35 35"></polygon>
                <path d="M25.2883043,25.2999992 L10.6900435,10.7000008 C10.6900435,6.56002929 12.4020985,2.66377593 15.1545669,1.95399252e-14 L35,1.95399252e-14 L35,21.5323668 C32.4227994,23.8278892 29.0056715,25.2999992 25.2883043,25.2999992 Z" id="Fill-5" fill-opacity="0.2" fill="#FFFFFF"></path>
                <path d="M25.287913,21.6688561 C23.6119178,21.6688561 22.0229515,21.2946319 20.5995211,20.6249116 L15.2875805,15.3127841 C14.6103741,13.8762174 14.2316087,12.2703382 14.2316087,10.5756974 C14.2316087,5.62044192 17.4701328,1.42411715 21.9389509,0.000608779882 L28.7225546,0.0282088252 C31.4326762,0.916019407 33.6635581,2.82602901 35,5.30431304 L35,15.968489 C33.1111037,19.3688867 29.4433267,21.6688561 25.287913,21.6688561 Z" id="Fill-7" fill-opacity="0.35" fill="#FFFFFF"></path>
                <path d="M19.421087,16.1691935 L19.421087,10.4992696 L27.3841304,10.4992696 L27.3841304,16.1691935 L19.421087,16.1691935 Z M26.4292826,9.74042239 L25.1731957,9.74042239 L25.1731957,7.97237457 C25.1731957,6.32603543 26.5081957,4.98658543 28.1490652,4.98658543 C29.7892826,4.98658543 31.1242826,6.32603543 31.1242826,7.97237457 L31.1242826,9.72602674 L29.8681957,9.72602674 L29.8681957,7.97237457 C29.8681957,7.02095283 29.0973261,6.24685935 28.1490652,6.24685935 C27.2008043,6.24685935 26.4292826,7.02095283 26.4292826,7.97237457 L26.4292826,9.74042239 Z" id="Combined-Shape" fill="#FFFFFF"></path>
            </g>
        </g>
    </g>
</svg>