<svg xmlns="http://www.w3.org/2000/svg" x="0px" y="0px"
     width="24" height="24"
     viewBox="0 0 24 24">
    <path d="M21.2366651,11.7134731 L23.4985331,11.7134731 L23.4985331,13.4601385 L21.2366651,13.4601385 L21.2366651,15.7279206 L19.4899998,15.7279206 L19.4899998,13.4601385 L17.2199993,13.4601385 L17.2199993,11.7134731 L19.4899998,11.7134731 L19.4899998,9.44495183 L21.2366651,9.44495183 L21.2366651,11.7134731 Z M10.3678561,4.30104833 C10.3678561,5.18509899 9.65085844,5.90209661 8.76680777,5.90209661 C7.88275711,5.90209661 7.16575949,5.18509899 7.16575949,4.30104833 C7.16575949,3.41699766 7.88275711,2.70000005 8.76680777,2.70000005 C9.65085844,2.70000005 10.3678561,3.41699766 10.3678561,4.30104833 Z M5.25128674,5.90357495 C5.25128674,6.652357 4.64442587,7.25921786 3.89564383,7.25921786 C3.14686178,7.25921786 2.54000092,6.652357 2.54000092,5.90357495 C2.54000092,5.15479291 3.14686178,4.54793204 3.89564383,4.54793204 C4.64442587,4.54793204 5.25128674,5.15479291 5.25128674,5.90357495 Z M4.69586399,12.3713369 L4.69512482,12.3713369 L4.69512482,12.4289924 L6.05076773,13.7846353 L5.43429761,14.4011054 L5.43429761,19.9493365 C5.43429761,20.5037161 5.0026207,20.9960051 4.4482411,20.9960051 L3.27960891,20.9960051 C2.72522931,20.9960051 2.2935524,20.5037161 2.2935524,19.9493365 L2.2935524,14.4055405 L1,13.1119881 L1,9.35403357 C1,8.55277026 1.7391728,7.81359746 2.54043611,7.81359746 L4.7579545,7.81359746 C4.69586399,7.87420963 4.69586399,7.99839066 4.69586399,8.12109335 L4.69586399,12.3713369 Z M14.931287,5.90357495 C14.931287,6.652357 14.3244262,7.25921786 13.5756441,7.25921786 C12.8268621,7.25921786 12.2200012,6.652357 12.2200012,5.90357495 C12.2200012,5.15479291 12.8268621,4.54793204 13.5756441,4.54793204 C14.3244262,4.54793204 14.931287,5.15479291 14.931287,5.90357495 Z M15.0558646,7.81211912 L15.0551254,7.81285829 C16.533471,7.81285829 16.533471,9.3532944 16.533471,9.3532944 L16.533471,13.0491584 L15.1800456,14.4025838 L15.1800456,19.9463798 C15.1800456,20.5007594 14.7483687,20.9930484 14.1939891,20.9930484 L13.0231394,20.9930484 C12.529372,20.9930484 12.0370829,20.5007594 12.0370829,19.9463798 L12.0370829,14.4025838 L11.3600006,13.7255015 L12.7156435,12.3698586 L12.7156435,8.119615 C12.7156435,7.99691232 12.7156435,7.9348218 12.7156435,7.81211912 L15.0558646,7.81211912 Z M10.3700736,6.58065724 C11.8506367,6.58065724 11.8484192,8.12109335 11.8462016,8.12109335 L11.8462016,12.2486342 L10.3678561,13.7269798 C10.3678561,13.787592 10.3678561,13.787592 10.3678561,13.8496825 L10.3678561,19.9478581 C10.3678561,20.5643282 10.0603602,21.2414105 9.44389006,21.2414105 L8.15033766,21.2414105 C7.59595806,21.2414105 6.97948795,20.5643282 6.97948795,19.9478581 L6.97948795,13.8496825 C6.97948795,13.7890704 6.97948795,13.7890704 6.97948795,13.7269798 L6.85678526,13.6042772 L5.44053018,12.2486342 L5.44053018,8.12109335 C5.44053018,7.99691232 5.74802607,6.58065724 7.28846218,6.58065724 L10.3700736,6.58065724 Z" id="Combined-Shape"></path>
</svg>