<?xml version="1.0" encoding="UTF-8"?>
<svg width="238px" height="40px" viewBox="0 0 238 40" version="1.1" xmlns="http://www.w3.org/2000/svg" xmlns:xlink="http://www.w3.org/1999/xlink">
    <!-- Generator: Sketch Beta 47 (45292) - http://www.bohemiancoding.com/sketch -->
    <title>Logo</title>
    <desc>Created with Sketch Beta.</desc>
    <defs></defs>
    <g id="Symbols" stroke="none" stroke-width="1" fill="none" fill-rule="evenodd">
        <g id="logo-/-one-/-white" fill="#FFFFFF">
            <g id="Logo">
                <path d="M183.391302,10.9325733 C185.125386,11.9316524 186.481508,13.3184129 187.459709,15.0928966 C188.43791,16.8673802 188.927003,18.872964 188.927003,21.1097081 C188.927003,23.3762755 188.43791,25.3967707 187.459709,27.1712544 C186.481508,28.945738 185.125386,30.3324986 183.391302,31.3315776 C181.657218,32.3306567 179.693435,32.8301887 177.499894,32.8301887 C175.335995,32.8301887 173.387032,32.3306567 171.652949,31.3315776 C169.918865,30.3324986 168.555333,28.945738 167.562311,27.1712544 C166.569288,25.3967707 166.072785,23.3762755 166.072785,21.1097081 C166.072785,18.872964 166.569288,16.8673802 167.562311,15.0928966 C168.555333,13.3184129 169.918865,11.9316524 171.652949,10.9325733 C173.387032,9.93349429 175.335995,9.43396226 177.499894,9.43396226 C179.693435,9.43396226 181.657218,9.93349429 183.391302,10.9325733 Z M172.56445,12.475919 C171.11197,13.3109702 169.970752,14.4815154 169.140763,15.9875897 C168.310775,17.4936641 167.895787,19.2010198 167.895787,21.1097081 C167.895787,23.0482197 168.310775,24.7779425 169.140763,26.2989285 C169.970752,27.8199145 171.11197,28.9979154 172.56445,29.8329666 C174.01693,30.6680177 175.662062,31.085537 177.499894,31.085537 C179.337726,31.085537 180.990268,30.6680177 182.457569,29.8329666 C183.924871,28.9979154 185.066088,27.8199145 185.881256,26.2989285 C186.696423,24.7779425 187.104001,23.0482197 187.104001,21.1097081 C187.104001,19.2010198 186.696423,17.4936641 185.881256,15.9875897 C185.066088,14.4815154 183.924871,13.3109702 182.457569,12.475919 C180.990268,11.6408679 179.337726,11.2233486 177.499894,11.2233486 C175.662062,11.2233486 174.01693,11.6408679 172.56445,12.475919 Z M210.594855,11.8720012 C212.180726,13.4973685 212.97365,15.7266234 212.97365,18.5598326 L212.97365,32.785454 L211.106184,32.785454 L211.106184,18.9177099 C211.106184,16.5318495 210.439239,14.667924 209.105329,13.3258776 C207.771418,11.9838311 205.918793,11.3128179 203.547396,11.3128179 C200.909218,11.3724644 198.797225,12.1851359 197.211353,13.7508568 C195.625482,15.3165777 194.728811,17.4563641 194.521314,20.1702803 L194.521314,32.785454 L192.653849,32.785454 L192.653849,9.47869692 L194.521314,9.47869692 L194.521314,15.4284065 C195.292018,13.5197182 196.485109,12.0584006 198.100623,11.04441 C199.716136,10.0304193 201.67992,9.49360877 203.992031,9.43396226 C206.808064,9.43396226 209.008983,10.2466338 210.594855,11.8720012 Z M233.040817,10.977308 C234.685973,12.0062103 235.930938,13.4451607 236.775748,15.2942025 C237.620558,17.1432443 238.028135,19.2606637 237.998493,21.646524 L217.767619,21.646524 C217.856546,23.5253891 218.315997,25.1805549 219.145986,26.6120711 C219.975975,28.0435874 221.102371,29.154487 222.525209,29.9448032 C223.948047,30.7351195 225.548715,31.1302717 227.327263,31.1302717 C228.898313,31.1302717 230.358182,30.8544107 231.706913,30.3026805 C233.055645,29.7509503 234.204273,28.9531902 235.152831,27.9093762 L236.219954,29.117212 C235.123184,30.3101422 233.804114,31.2271935 232.262707,31.8683935 C230.721299,32.5095935 229.046525,32.8301887 227.238336,32.8301887 C225.074437,32.8301887 223.132885,32.3306567 221.413623,31.3315776 C219.69436,30.3324986 218.353059,28.945738 217.38968,27.1712544 C216.4263,25.3967707 215.944617,23.3911869 215.944617,21.1544428 C215.944617,18.9176987 216.43371,16.9046592 217.411911,15.1152639 C218.390112,13.3258686 219.731413,11.9316524 221.435854,10.9325733 C223.140295,9.93349429 225.074437,9.43396226 227.238336,9.43396226 C229.46152,9.43396226 231.395661,9.94840569 233.040817,10.977308 Z M236.308881,19.9913417 C236.131027,17.3072487 235.226945,15.1600066 233.59661,13.5495508 C231.966275,11.9390951 229.846872,11.1338793 227.238336,11.1338793 C224.6298,11.1338793 222.465933,11.9465508 220.746671,13.5719182 C219.027408,15.1972856 218.049222,17.337072 217.812082,19.9913417 L236.308881,19.9913417 Z" id="one"></path>
                <path d="M152.579201,18.1634359 C152.45424,17.2160968 152.280856,15.9678382 151.353019,14.9791028 C150.548581,14.1607292 149.323961,13.7292521 148.185252,13.7292521 C146.620113,13.7292521 145.522016,14.5046372 144.884714,15.1924531 C144.002176,16.1843729 143.789742,17.217689 143.580432,18.1650281 L152.579201,18.1650281 L152.579201,18.1634359 Z M159.041257,26.4729531 C158.28368,27.6368268 157.521417,28.7561199 156.381146,29.8356088 C154.480173,31.6427178 151.607627,33.0215341 148.055605,33.0215341 C141.507637,33.0215341 136.901255,28.7577121 136.901255,21.3907575 C136.901255,15.9662461 139.520754,8.99574095 148.227427,8.99574095 C149.534833,8.99574095 153.339902,9.12311428 156.173398,12.2198782 C159.041257,15.3644071 159.211517,19.7556024 159.294304,22.2935159 L143.538257,22.2935159 C143.489835,25.095729 145.056536,27.89635 148.56326,27.89635 C152.112158,27.89635 153.339902,25.525614 154.139654,23.9318553 L159.042819,26.4713609 L159.041257,26.4729531 Z M123.592886,9.97969988 C124.608196,9.55140708 126.040564,9.16610277 127.607265,9.16610277 C128.920919,9.16610277 130.3939,9.42244159 131.538857,10.067269 C133.861573,11.3171198 134.448891,13.3423556 134.448891,16.8307925 L134.448891,32.2047526 L127.989958,32.2047526 L127.989958,19.5438443 C127.989958,17.5170163 127.94466,16.7893962 127.693176,16.1843729 C127.182397,14.9791028 126.043688,14.4616487 124.776893,14.4616487 C121.352956,14.4616487 121.352956,17.2606775 121.352956,20.0644827 L121.352956,32.207937 L114.850287,32.207937 L114.850287,9.76953389 L121.399817,9.76953389 L121.399817,11.7470047 C122.030871,11.0544123 122.452615,10.5401425 123.592886,9.97969988 Z M110.757807,4.06798551 C110.757807,6.03431119 109.192668,7.6280699 107.265142,7.6280699 C105.334491,7.6280699 103.769352,6.03271902 103.769352,4.06798551 C103.769352,2.10006767 105.334491,0.50630896 107.265142,0.50630896 C109.192668,0.50630896 110.757807,2.10006767 110.757807,4.06798551 Z M104.028646,9.68037257 L110.453214,9.68037257 L110.453214,32.2047526 L104.028646,32.2047526 L104.028646,9.68037257 Z M99.6315736,0 L99.6315736,32.2047526 L93.1273425,32.2047526 L93.1273425,8.83829976e-17 L99.6315736,8.83829976e-17 L99.6315736,0 Z M83.5896781,18.1634359 C83.4631549,17.2160968 83.2944572,15.9678382 82.3603722,14.9791028 C81.5574964,14.1607292 80.3266285,13.7292521 79.1832334,13.7292521 C77.6165322,13.7292521 76.5215596,14.5046372 75.8905055,15.1924531 C75.0032809,16.1843729 74.7908468,17.217689 74.5799748,18.1650281 L83.5912401,18.1650281 L83.5896781,18.1634359 Z M89.7075971,26.6232549 C88.9484577,27.7871286 88.1893184,28.9064217 87.0474853,29.9859106 C85.1465129,31.7930197 82.2614709,33.1718359 78.7047625,33.1718359 C72.155233,33.1718359 67.5488503,28.9080139 67.5488503,21.5410593 C67.5488503,16.1165479 70.1699117,9.14604279 78.8718981,9.14604279 C80.1871148,9.14604279 83.9999938,9.27341611 86.8350513,12.37018 C89.7044731,15.514709 89.8747327,19.9059043 89.9637676,22.4438177 L74.1827286,22.4438177 C74.1405542,25.2460308 75.7056934,28.0466518 79.2108554,28.0466518 C82.7722499,28.0466518 83.9999938,25.6759158 84.8059936,24.0821571 L89.7060351,26.6216627 L89.7075971,26.6232549 Z M64.6252523,25.3663973 C64.6065081,25.305895 64.5018531,25.3265932 64.4581167,25.3982407 C64.3269074,25.6338813 64.1644578,25.8711141 63.9457757,26.1290451 C62.5930706,27.6782231 60.984195,27.6782231 60.6483618,27.6782231 C57.1838122,27.6782231 55.7451963,23.9334474 55.7451963,20.9592803 C55.7451963,18.2478207 56.9307657,14.1575449 60.4359277,14.1575449 C61.4481135,14.1575449 62.2509893,14.5014529 62.8867295,14.9313378 C63.7755161,15.5825339 64.2160043,16.2353222 64.5565236,16.9104008 C64.595574,16.9836405 64.700229,17.0154838 64.7158492,16.9581658 C65.2422483,15.1176213 66.1544651,13.3550929 67.5477826,11.9539864 C65.0126321,9.54822274 62.0494894,9.12152211 60.1407069,9.12152211 C52.7883016,9.12152211 49.0707056,14.6288262 49.0707056,21.1742228 C49.0707056,30.3498786 55.7904947,32.9339649 60.0141836,32.9339649 C62.5055978,32.9339649 64.6580546,32.1155913 66.351279,30.9087291 C66.7261627,30.6380607 67.0557479,30.3578394 67.3556548,30.0776181 C66.1013566,28.8548342 65.1641475,27.2722207 64.6268143,25.3648052 L64.6252523,25.3663973 Z M46.5511751,4.06798551 C46.5511751,6.03431119 44.986036,7.6280699 43.0538233,7.6280699 C41.1262966,7.6280699 39.5642814,6.03271902 39.5642814,4.06798551 C39.5642814,2.10006767 41.1262966,0.50630896 43.0538233,0.50630896 C44.986036,0.50630896 46.5511751,2.10006767 46.5511751,4.06798551 L46.5511751,4.06798551 Z M39.8095178,9.68037257 L46.2340861,9.68037257 L46.2340861,32.2047526 L39.8095178,32.2047526 L39.8095178,9.68037257 Z M36.9947665,9.68037257 L36.9947665,15.3214186 L34.8360616,15.6653266 C31.7120313,16.2273614 30.7795083,16.7034192 30.7795083,19.5438443 L30.7795083,32.2047526 L24.2737152,32.2047526 L24.2737152,9.68037257 L30.6108107,9.68037257 L30.6108107,12.046332 C32.0478646,10.7980735 33.6130038,10.0210962 36.9947665,9.68037257 Z M10.941916,13.8996139 C9.75634655,13.8996139 8.53172669,14.417068 7.60232768,15.7099073 C6.66980464,16.9565737 6.25118458,18.8974247 6.25118458,21.0054532 C6.25118458,23.8474704 6.97127356,25.6147753 7.81319972,26.5605222 C8.57390109,27.3788958 9.67355975,27.8517693 10.729482,27.8517693 C13.8956867,27.8517693 15.2921282,24.3633324 15.2921282,20.8303149 C15.2921282,17.8625164 14.4908144,14.7195797 11.8275786,14.0269872 C11.5307958,13.9441946 11.2355749,13.8980217 10.940354,13.8980217 L10.941916,13.8996139 Z M5.7888281,11.9189587 C5.99813813,11.6610277 6.21057219,11.4046889 6.41988222,11.1881543 C7.51954088,10.1086654 9.50486212,9.2122756 11.9572259,9.2122756 C17.3633603,9.2122756 21.5495608,13.3853441 21.5495608,20.8780798 C21.5495608,25.4826255 19.5611156,32.6378219 11.9962763,32.6378219 C9.54859854,32.6378219 8.27868023,31.8194483 6.54484343,30.7415516 L6.54484343,40 L0,40 L0,9.80933806 L5.7888281,9.80933806 L5.7888281,11.9189587 L5.7888281,11.9189587 Z" id="priceline" fill-rule="nonzero"></path>
            </g>
        </g>
    </g>
</svg>